<?xml version="1.0" encoding="UTF-8"?><svg id="_レイヤー_2" xmlns="http://www.w3.org/2000/svg" width="522.21" height="522.21" viewBox="0 0 522.21 522.21"><defs><style>.cls-1,.cls-2{fill:#fff;}.cls-2{fill-rule:evenodd;}</style></defs><g id="_レイヤー_2-2"><g id="_レイヤー_1-2"><path class="cls-1" d="M345.56,398.17H171.54c-10.87,0-20.35-7.72-22.52-18.36-.22-1.08,.48-2.14,1.56-2.36,1.09-.22,2.14,.48,2.36,1.56,1.8,8.79,9.62,15.16,18.61,15.16h174.02c10.47,0,18.99-8.52,18.99-18.99v-22.65c0-1.1,.9-2,2-2s2,.9,2,2v22.65c0,12.68-10.31,22.99-22.99,22.99h-.01Z"/><path class="cls-1" d="M150.55,330.74c-1.1,0-2-.9-2-2V129.16c0-12.68,10.31-22.99,22.99-22.99h174.02c12.68,0,22.99,10.31,22.99,22.99v167.05c0,1.1-.9,2-2,2s-2-.9-2-2V129.16c0-10.47-8.52-18.99-18.99-18.99H171.54c-10.47,0-18.99,8.52-18.99,18.99v199.58c0,1.1-.9,2-2,2h0Z"/><path class="cls-1" d="M215.88,323.03c-.36,0-.72-.1-1.05-.3-24.59-15.27-39.27-41.65-39.27-70.56,0-45.77,37.23-83,83-83s83,37.23,83,83c0,15.83-4.47,31.21-12.93,44.5-.59,.93-1.83,1.21-2.76,.61-.93-.59-1.21-1.83-.61-2.76,8.05-12.65,12.3-27.29,12.3-42.35,0-43.56-35.44-79-79-79s-79,35.44-79,79c0,27.52,13.98,52.63,37.38,67.16,.94,.58,1.23,1.82,.64,2.75-.38,.61-1.03,.95-1.7,.95Z"/><rect class="cls-1" x="150.55" y="142.17" width="216" height="4"/><path class="cls-1" d="M177.55,137.17c-6.07,0-11-4.93-11-11s4.93-11,11-11,11,4.93,11,11-4.93,11-11,11Zm0-18c-3.86,0-7,3.14-7,7s3.14,7,7,7,7-3.14,7-7-3.14-7-7-7Z"/><path class="cls-1" d="M204.55,137.17c-6.07,0-11-4.93-11-11s4.93-11,11-11,11,4.93,11,11-4.93,11-11,11Zm0-18c-3.86,0-7,3.14-7,7s3.14,7,7,7,7-3.14,7-7-3.14-7-7-7Z"/><path class="cls-1" d="M229.04,319.62c-.28,0-.56-.06-.83-.18-13.26-6.06-23.71-15.85-30.23-28.3l-.58-1.12,.76-1.01c1.13-1.5,27.82-36.8,46.6-36.8,9.83,0,12.53,2.7,14.91,5.09,2.1,2.1,3.91,3.91,12.09,3.91,7.54,0,17.76-8.55,26.78-16.09,9.38-7.85,17.49-14.63,23.71-13.63,2.16,.35,3.92,1.58,5.21,3.67l.15,.3c7.66,18.93,2.94,43.33-12.01,62.18-.69,.86-1.95,1.01-2.81,.32-.87-.69-1.01-1.94-.32-2.81,13.81-17.41,18.43-40.7,11.51-58.03-.86-1.31-1.75-1.6-2.36-1.69-4.42-.71-12.6,6.13-20.51,12.75-10,8.37-20.35,17.03-29.35,17.03-9.83,0-12.53-2.7-14.91-5.09-2.1-2.1-3.91-3.91-12.09-3.91-15.17,0-38.14,28.44-42.63,34.19,6.13,11.13,15.7,19.89,27.74,25.39,1,.46,1.45,1.65,.99,2.65-.34,.74-1.06,1.17-1.82,1.17h0Z"/><g><path class="cls-2" d="M325.98,297.59c-12.74,.91-24.24,2.8-38.46,6.4-3.98,1.01-7.32,1.82-7.42,1.82s-.17-.54-.17-1.18c0-1.38-.98-2.83-2.36-3.54-1.52-.78-4.72-.64-6.64,.3-2.49,1.21-3.4,2.66-3.61,5.73l-.17,2.53-6.57,2.09c-3.61,1.15-12.03,3.88-18.71,6.03-35.87,11.6-53.8,15.57-75.41,16.72-15.14,.81-31.72-1.15-45.41-5.29-1.52-.47-2.87-.81-2.93-.74-.07,.1-.17,.51-.2,.94-.1,.67,.13,.84,1.92,1.42,3.14,.94,9.41,2.49,13.48,3.3l3.71,.74,1.72,2.93c.94,1.58,1.62,2.97,1.45,3-.78,.3-15.91-3.34-19.35-4.65-.67-.27-.81-.17-1.01,.57-.1,.47-.17,.91-.1,.94,.64,.67,15.3,4.35,21.17,5.36,1.08,.17,1.38,.51,2.97,3.17,.94,1.62,1.58,2.97,1.42,3.03-.91,.3-13.38-2.6-19.32-4.52-1.99-.64-3.74-1.11-3.91-1.01s-.37,.51-.47,.88c-.17,.61,.27,.81,4.08,2.02,5.8,1.79,9.94,2.83,15.47,3.88,2.56,.47,4.96,.94,5.36,1.01,.74,.17,4.45,5.76,4.05,6.14-.57,.57-14.09-2.53-21.51-4.96-4.89-1.58-5.02-1.58-5.36-.94-.2,.4-.24,.81-.07,.98,.51,.51,9.34,3.27,14.39,4.52,2.63,.64,6.84,1.52,9.37,1.96,4.31,.78,5.66,1.21,5.66,1.96,0,.17-.2,.3-.4,.3-1.25,0-3.03,.84-4.38,1.99l-1.48,1.31-5.19-1.31c-2.87-.71-7.55-2.09-10.38-3.07-4.35-1.48-5.23-1.69-5.46-1.28-.2,.27-.34,.67-.34,.88,0,.61,8.53,3.54,15.17,5.19,1.58,.4,3.4,.84,4.08,1.01l1.18,.34-.13,2.02c-.17,2.33,.34,3.37,2.02,4.25,1.15,.61,3.07,.47,4.62-.37,.88-.44,2.97-2.53,3.61-3.61,.27-.44,.78-.44,3.84-.07,1.96,.24,6.07,.54,9.2,.67,3.71,.17,5.63,.37,5.63,.61,0,.2-.61,3.17-1.31,6.61-.78,3.57-1.21,6.37-1.05,6.54,.81,.81,1.25-.34,2.49-6.4,.74-3.51,1.38-6.54,1.45-6.74,.1-.24,2.29-.44,6.27-.57,6.78-.24,10.69-.57,18.37-1.62,3.78-.51,5.6-.64,6.91-.4,2.39,.4,4.75,0,6.4-1.11,1.01-.67,2.9-1.21,7.45-2.19,3.37-.74,9.27-2.09,13.11-3.03,3.88-.94,7.11-1.65,7.21-1.52,.1,.1-.17,1.55-.57,3.2l-.74,3.07-.94-.67c-1.58-1.11-4.05-1.52-6.3-1.01-1.55,.34-2.26,.71-3.37,1.85-1.25,1.21-1.45,1.65-1.45,2.8,0,3.4,4.28,5.56,8.53,4.31,1.31-.37,2.16-.91,2.97-1.79,1.05-1.15,1.28-1.85,2.43-6.84,.71-3.07,1.35-5.6,1.42-5.66,.2-.2,23.46-6.24,31.52-8.16,7.52-1.79,17.83-3.94,22.08-4.62,1.31-.24,1.92-.17,2.83,.3,1.96,1.01,4.48,.61,6.94-1.08,1.18-.81,1.92-.98,5.9-1.38,6.03-.64,25.01-.64,30.51-.03,12.68,1.42,24.98,4.58,36.41,9.34,2.53,1.05,4.65,1.85,4.72,1.79,.1-.07,.2-.51,.24-.94,.1-.71-.3-.94-4.28-2.6-11.43-4.79-23.7-7.96-36.24-9.37-8.93-1.05-23.5-1.01-32.67,.07l-1.82,.2,.24-1.18c.13-.81-.07-2.19-.61-4.28-.61-2.26-.74-3.14-.44-3.24,1.92-.61,21.51-1.72,24.34-1.35,1.58,.17,1.92,.37,2.36,1.18,1.58,3.03,8.06,3.57,10.62,.84,.98-1.01,1.48-1.05,6.64-.17,8.43,1.45,17.97,4.15,26.33,7.45,2.29,.91,4.28,1.58,4.42,1.48,.17-.07,.37-.44,.47-.81,.13-.57-.34-.88-3.24-2.06-4.75-1.99-12.47-4.52-17.73-5.83l-4.42-1.11,1.21-1.18c1.42-1.35,2.33-3.2,2.66-5.46,.1-.88,.34-1.58,.47-1.58,.81,0,10.35,3,14.66,4.62,5.06,1.92,5.56,1.96,5.6,.54,0-.54-7.82-3.54-14.09-5.36-2.9-.84-5.66-1.65-6.1-1.79-.61-.17-.98-.67-1.31-1.69l-.47-1.42,1.38-1.18c.94-.84,1.52-1.69,1.85-2.76,.34-1.25,.61-1.55,1.08-1.48,1.52,.24,7.08,1.96,11.39,3.54,4.45,1.58,4.72,1.65,5.16,1.05,.24-.34,.44-.71,.44-.81,0-.37-8.12-3.27-13.11-4.69l-4.55-1.31-.44-1.25c-.64-1.89-1.82-3.37-5.43-6.81-3.17-3-3.24-3.1-2.09-2.93,4.28,.71,12.57,2.87,17.93,4.65l6.3,2.09,.2-.81c.13-.51,.03-.94-.2-1.11-.24-.13-2.73-1.01-5.6-1.96-5.49-1.85-12.3-3.61-17.8-4.62-1.99-.37-3.54-.81-3.74-1.11-.3-.4-.51-.44-.88-.13s-1.42,.3-4.48-.1c-3.88-.47-19.25-.88-23.09-.61h0Zm22.92,2.45c1.75,.24,3.37,.44,3.57,.54,.27,.07,.13,1.42-.47,4.45-.47,2.36-.88,4.35-.91,4.42-.03,.03-2.63-.17-5.76-.47-10.72-1.01-27.98-.27-39.24,1.72-1.58,.27-2.97,.51-3.07,.51-.13,0-.47-1.05-.81-2.33-.54-2.26-1.35-3.27-1.75-2.22-.1,.3,.07,1.45,.34,2.6,.3,1.18,.51,2.16,.44,2.19-.03,.03-2.33,.54-5.12,1.11-2.76,.57-7.35,1.65-10.18,2.36l-5.16,1.28-.54-1.08c-.88-1.69-2.19-3.27-3.54-4.25l-1.25-.91,2.09-1.05c5.19-2.6,29.02-7.58,41.87-8.83,2.06-.17,4.31-.4,5.06-.47,2.73-.27,21.34,.07,24.44,.44h0Zm7.79,7.47c1.58,.78,4.25,3.24,3.91,3.57-.07,.03-1.75-.24-3.78-.57-1.99-.37-3.78-.67-3.94-.67-.27,0-.13-1.65,.3-3.14,.2-.71,.74-.61,3.51,.81h0Zm-81.21,3.91c1.38,1.58,2.49,3.37,2.8,4.48,.2,.84,.13,.88-4.69,2.22l-4.92,1.38v-4.15c0-2.53,.13-4.21,.34-4.35s1.38-.34,2.63-.51c1.25-.13,2.36-.27,2.46-.3,.13,0,.74,.54,1.38,1.21v.02Zm69.95-.51c2.43,.2,4.62,.47,4.82,.61,.3,.2,.2,1.28-.4,4.42l-.78,4.18-1.52-.03c-.84,0-4.72-.24-8.66-.47-7.69-.47-17.26-.17-25.55,.84-2.22,.27-4.89,.61-5.93,.71l-1.85,.2-1.11-4.11c-.61-2.26-1.05-4.15-.98-4.21,.13-.13,9.17-1.42,13.25-1.85,8.7-.98,19.11-1.08,28.72-.27v-.02Zm-78.12,4.99v4.01l-2.43,.74c-1.35,.37-7.55,2.26-13.75,4.18s-13.62,4.18-16.45,5.06l-5.16,1.55-3.4-.74c-2.49-.56-3.86-.08-4.11,1.45-.27,1.55-.24,1.55-6.27,3.1-18.64,4.82-33.14,7.08-48.58,7.52l-7.62,.2-1.45-1.58c-2.76-3-5.23-4.01-11.43-4.72-4.31-.51-7.96-1.18-7.72-1.42,.07-.07,1.89,.1,4.01,.4,5.33,.71,21.44,1.01,27.81,.51,16.15-1.28,32.8-4.69,53.87-11.02,4.11-1.21,37.49-11.87,40.65-12.94,2.02-.67,2.02-.71,2.02,3.71h.01Zm93.21-2.74c.94,.24,1.01,.34,1.11,2.09,.07,1.05-.07,2.26-.24,2.76-.23,.59-1.47-.22-3.74-2.43-1.85-1.79-3.37-3.37-3.37-3.47,0-.17,4.05,.51,6.24,1.05Zm-57.54,4.31c.67,2.53,.94,4.01,.71,4.15-.17,.13-1.89,.51-3.78,.81-1.89,.34-6.54,1.28-10.35,2.12s-7.25,1.62-7.65,1.69c-.71,.17-.71,.13-.24-1.45,.54-1.85,.61-3.88,.13-5.49-.17-.64-.27-1.21-.2-1.31,.44-.4,17.73-4.38,19.28-4.42l1.05-.03,1.05,3.94h0Zm50.46,1.07c1.65,.94,3.98,3.07,3.34,3.07-.64-.03-6-1.01-6.14-1.15-.3-.3,.34-2.9,.71-2.9,.24,0,1.18,.44,2.09,.98h0Zm-75.01,1.65c0,1.72-1.55,4.69-3.03,5.87-1.11,.88-3.57,1.89-5.8,2.43l-.94,.2v-7.25l4.31-1.25c5.53-1.58,5.46-1.58,5.46,0Zm67.22,1.72c1.45,.2,2.7,.4,2.76,.47s-.13,1.42-.44,3l-.57,2.93-.88-.64c-1.55-1.08-3.84-1.48-5.9-1.05-1.99,.44-4.38,1.99-4.72,3.03-.2,.67-.44,.71-6.84,.71-5.8,0-14.53,.54-19.28,1.21l-1.52,.2-1.08-4.15c-.61-2.29-1.01-4.21-.94-4.28,.2-.24,9.74-1.38,14.06-1.72,4.89-.37,21.54-.2,25.35,.27v.02Zm-78.41,4.15l-.1,4.15-9.44,2.76-9.44,2.76-6.91-1.55c-3.81-.84-7.11-1.65-7.35-1.75-.37-.2,5.43-2.06,28.08-9,2.6-.81,4.85-1.45,4.99-1.48,.13,0,.2,1.85,.17,4.11h0Zm87.82-2.8c1.92,.34,3.47,.81,3.64,1.08,.81,1.28,.07,6.17-1.21,7.85-.44,.61-.57,.61-4.65-.1-2.33-.4-4.28-.71-4.35-.71-.1,0,.24-1.99,.71-4.38,.98-5.09,.44-4.75,5.87-3.74h-.01Zm-49.35,4.45c.61,2.26,1.05,4.11,.98,4.18s-1.75,.34-3.81,.67c-6.27,.94-18.14,3.4-26.36,5.49-6.84,1.69-7.85,1.89-7.85,1.38,0-.64,2.36-2.87,6.07-5.7,1.38-1.05,3.17-2.63,3.98-3.51,1.45-1.55,1.52-1.58,6.24-2.73,3.98-.94,14.19-3.1,17.43-3.64,2.33-.4,2.16-.57,3.34,3.84l-.02,.02Zm-38.33,8.66l.1,3.98-10.21,2.83c-5.6,1.52-10.25,2.73-10.32,2.66-.17-.17,1.65-7.99,1.89-8.26,.27-.24,17.19-5.16,17.87-5.16,.51-.03,.57,.47,.67,3.94h0Zm40.28-1.3l.34,1.28-1.48-.17c-3.74-.4-8.19,3.2-8.19,6.67,0,.54-.07,1.01-.17,1.01s-3.54,.67-7.69,1.48c-9.81,1.96-19.32,4.21-33.95,8.09-6.57,1.72-12,3.1-12.07,3.03-.07-.03,.3-1.92,.81-4.15l.94-4.11,1.69-.47c22.82-6.57,42.34-11.26,55.08-13.28,2.16-.37,4.05-.64,4.15-.67,.13-.03,.37,.54,.54,1.28h0Zm-86.67,1.29c-.07,.34-.51,2.12-.91,3.98s-.78,3.4-.81,3.47c-.2,.27-15.81,3.57-21.07,4.48-5.97,1.01-6.24,1.01-6.57,.44-1.58-2.87-5.87-4.01-9.27-2.46-1.92,.88-2.93,1.82-3.37,3.17-.47,1.45-.88,1.52-9.94,1.52h-7.52l-.34-2.29c-.2-1.25-.47-2.56-.57-2.97-.2-.71-.1-.71,6.3-.94,15.61-.57,29.77-2.73,46.62-7.05,8.43-2.19,7.65-2.06,7.45-1.35h0Zm6.78,2.53c2.66,.61,4.72,1.18,4.55,1.31-.34,.37-10.89,3.07-11.09,2.87-.34-.3,.94-5.26,1.35-5.26,.24,0,2.56,.47,5.19,1.08h0Zm13.85,3.2c4.45,1.01,4.38,.98,3.78,3.2-.4,1.42-.03,1.25-7.58,3.27-9.2,2.46-18.78,4.79-18.95,4.62-.24-.24,1.28-7.01,1.65-7.45,.34-.37,14.87-4.45,16.11-4.52,.47-.03,2.7,.37,4.99,.88Zm-84.82,3.81c1.15,1.35,1.92,2.73,2.29,4.11,.18,.61-.19,.87-1.11,.78-.78-.07-3.17-.3-5.29-.51s-4.15-.44-4.45-.54c-.54-.17-3.64-4.85-3.64-5.53,0-.51,1.01-.51,6.17,0l5.02,.51,1.01,1.18h0Zm61.79,.91c-.1,.54-.54,2.29-.94,3.98l-.74,3.03-6.17,1.25c-10.52,2.12-24.47,3.98-29.93,3.98-2.6,0-2.49,.3-1.31-4.96l.17-.74,1.55,.88c1.18,.67,1.99,.84,3.67,.84,3.14,0,5.23-1.11,6.74-3.67,.03-.07,2.7-.54,5.93-1.08,5.39-.91,14.36-2.76,18.84-3.88,1.01-.27,1.99-.47,2.12-.51,.17-.03,.2,.37,.07,.88h0Zm25.79,2.53c-.03,1.21-1.72,7.48-2.06,7.72-1.05,.64-25.45,6.27-25.79,5.97-.07-.1,.24-1.85,.71-3.88l.88-3.71,5.29-1.25c2.9-.67,8.56-2.12,12.54-3.2,7.85-2.16,8.43-2.26,8.43-1.65Zm-88.19,3.2l3.3,.2-.2,1.38c-.13,.78-.47,2.12-.74,3l-.54,1.65-1.75-.24c-3.4-.4-3.3-.34-5.09-3.27-.94-1.48-1.75-2.9-1.82-3.07-.07-.24,.54-.27,1.69-.13,1.01,.13,3.3,.34,5.16,.47h-.01Zm21.98,.68c-.07,.34-.4,1.89-.74,3.44l-.61,2.83-7.92-.2c-4.38-.13-8.5-.34-9.17-.44l-1.25-.2,.78-1.18c.44-.61,1.05-1.89,1.35-2.8l.54-1.69,7.32-.1c4.01-.03,7.89-.1,8.6-.17,1.08-.07,1.28,.03,1.11,.51h-.01Zm38.09,3.67c-.13,.51-.34,1.31-.44,1.85-.2,1.08-.61,1.21-1.42,.51-1.45-1.25-4.69-1.55-7.15-.71-2.97,1.05-4.62,3.78-3.57,5.87,.27,.57,.4,1.05,.3,1.05-.13,0-2.43,.3-5.12,.64-4.99,.67-12.61,1.28-18.78,1.48-3.37,.13-3.44,.1-3.3-.57,.1-.4,.4-1.82,.67-3.2,.3-1.38,.57-2.56,.61-2.56,.03-.03,2.63-.24,5.76-.47,3.14-.2,8.5-.78,11.9-1.21,6.03-.84,18.64-3.07,18.95-3.37,.07-.1,.51-.17,.98-.17,.71,0,.78,.1,.61,.88v-.02Zm-50.77,4.21c3.81,.2,7.79,.3,8.87,.24,2.26-.17,2.22-.24,1.31,3.74l-.57,2.46-4.05-.03c-3.74-.07-8.23-.37-12.54-.91-1.65-.2-1.79-.27-1.79-1.11s-.44-1.92-1.75-4.05l-.74-1.15,2.19,.2c1.18,.13,5.26,.4,9.07,.61Z"/><path class="cls-1" d="M172.67,384c-.24,0-.53-.09-.85-.41-.22-.22-.55-.55,.88-7.11,.37-1.8,1.01-4.92,1.23-6.08-.53-.09-1.82-.24-4.97-.38-3.11-.13-7.26-.44-9.25-.68-1.26-.15-2.98-.36-3.25-.22-.7,1.19-2.86,3.34-3.85,3.84-1.7,.92-3.84,1.08-5.19,.36-1.92-1-2.54-2.27-2.35-4.84l.1-1.52-1.63-.43c-.86-.21-2.05-.5-3.13-.78-.15-.04-15.64-4.06-15.64-5.79,0-.36,.2-.9,.46-1.25,.48-.83,1.49-.53,6.16,1.07,2.81,.97,7.44,2.34,10.33,3.05l4.88,1.23,1.24-1.1c1.29-1.1,2.87-1.88,4.15-2.09-1.04-.42-3.63-.89-4.73-1.08-2.57-.45-6.79-1.33-9.41-1.96-4.15-1.02-13.96-3.95-14.69-4.68-.37-.37-.39-1.02-.05-1.69,.61-1.15,1.02-1.02,6.11,.63,7.01,2.3,17.84,4.76,20.54,4.98-.66-1.36-2.83-4.54-3.46-4.98-.23-.04-.73-.14-1.4-.26-1.01-.19-2.42-.46-3.89-.73-5.48-1.04-9.69-2.09-15.54-3.89-3.91-1.25-4.84-1.54-4.49-2.78,.04-.16,.28-.96,.75-1.24,.24-.14,.51-.31,4.42,.95,5.6,1.81,15.47,4.09,18.29,4.46-.22-.47-.59-1.18-1.11-2.08-1.58-2.65-1.75-2.75-2.53-2.87-4.32-.75-19.39-4.29-21.35-5.42h0c-.52-.26-.39-.86-.22-1.62,.13-.48,.27-.9,.68-1.1,.4-.2,.81-.06,1.17,.08,3.08,1.18,14.99,4.05,18.24,4.55-.23-.48-.6-1.17-1.1-2.01l-1.58-2.7-3.44-.69c-3.93-.78-10.26-2.33-13.54-3.32-1.59-.51-2.55-.82-2.36-2.1,0-.05,.07-.85,.3-1.2l.08-.1c.26-.26,.4-.39,3.56,.59,13.7,4.15,30.17,6.07,45.19,5.26,21.66-1.15,39.24-5.05,75.25-16.69l3.43-1.11c5.9-1.91,12.27-3.97,15.28-4.93l6.17-1.96,.14-2.11c.22-3.3,1.25-4.93,3.95-6.25,2.07-1.02,5.51-1.16,7.19-.3,1.59,.81,2.7,2.5,2.7,4.09,0,.17,0,.32,.01,.45,1.02-.25,3.6-.88,6.8-1.69,14.12-3.58,25.65-5.5,38.57-6.42h0c3.88-.27,19.28,.13,23.21,.61,.9,.12,3.62,.48,4.02,.23,.2-.16,.52-.38,.91-.33,.4,.05,.66,.33,.85,.58,.09,.06,.97,.43,3.36,.88,5.61,1.03,12.46,2.81,17.88,4.64,2,.66,5.33,1.79,5.71,2,.52,.37,.69,1.06,.49,1.81l-.36,1.45-6.94-2.3c-5.1-1.7-12.62-3.67-17.03-4.49,.49,.48,1.14,1.09,1.8,1.73,3.71,3.53,4.91,5.05,5.59,7.06l.33,.94,4.24,1.23c2.32,.66,5.57,1.71,8.46,2.75,5.1,1.82,5.1,2.04,5.1,2.53,0,.25-.18,.64-.55,1.17-.73,1.01-1.22,.84-5.87-.82-4.19-1.54-9.77-3.28-11.28-3.51,0,0-.15,.16-.38,1.03-.37,1.2-1,2.14-2.04,3.07l-1.08,.92,.34,1.02c.35,1.05,.65,1.22,.89,1.28,.45,.14,3.21,.95,6.11,1.79,.15,.04,14.54,4.35,14.54,5.96,0,.37-.03,1.04-.56,1.4-.73,.49-1.84,.17-5.88-1.36-4.03-1.51-12.19-4.08-14.11-4.52-.06,.21-.14,.55-.19,.97-.36,2.42-1.32,4.38-2.85,5.84l-.41,.4,3.34,.84c5.4,1.35,13.06,3.87,17.82,5.86,2.74,1.12,3.88,1.58,3.6,2.77-.07,.24-.29,.94-.75,1.2-.27,.19-.72,.25-4.97-1.44-8.28-3.27-17.83-5.97-26.2-7.42-5.24-.89-5.37-.76-6.09-.01-1.41,1.5-4.05,2.24-6.72,1.87-2.29-.31-4.12-1.38-4.89-2.85-.29-.53-.38-.69-1.88-.85-2.54-.33-20.79,.65-23.81,1.26,.03,.4,.22,1.26,.57,2.55,.58,2.24,.77,3.64,.62,4.54l-.07,.37,.98-.11c9.17-1.08,23.89-1.11,32.81-.07,12.65,1.43,24.9,4.6,36.41,9.42,4,1.66,4.83,2.01,4.66,3.25-.07,.94-.31,1.22-.45,1.33-.31,.3-.56,.3-5.36-1.69-11.45-4.76-23.64-7.89-36.24-9.29-5.51-.61-24.53-.59-30.37,.03-3.87,.39-4.55,.55-5.61,1.28-2.66,1.83-5.43,2.23-7.58,1.12-.73-.38-1.19-.47-2.44-.24-4.25,.67-14.55,2.83-22.05,4.61-7.81,1.86-28.61,7.26-31.17,8.04-.19,.68-.7,2.7-1.3,5.32-1.14,4.95-1.41,5.84-2.57,7.12-.93,1.01-1.87,1.58-3.26,1.97-2.6,.76-5.39,.36-7.27-1.06-1.32-.99-2.04-2.36-2.04-3.86,0-1.36,.29-1.93,1.64-3.24,1.17-1.21,1.97-1.64,3.67-2.01,2.4-.54,5.07-.1,6.79,1.11l.2,.14,.53-2.18c.26-1.05,.42-1.87,.51-2.37-.98,.17-3.12,.64-6.4,1.44-3.65,.9-9.54,2.25-13.13,3.04-4.51,.97-6.33,1.5-7.24,2.1-1.78,1.2-4.28,1.64-6.85,1.21-1.19-.21-2.82-.12-6.73,.41-7.62,1.04-11.59,1.39-18.43,1.62-4.03,.14-5.35,.31-5.77,.4-.16,.74-.7,3.27-1.26,5.92l-.11,.5c-1.16,5.64-1.57,6.83-2.42,7.09-.08,.02-.17,.04-.26,.04h-.01Zm-15.74-16.16c.66,0,1.59,.11,2.93,.27,1.96,.24,6.07,.54,9.16,.67,6.22,.28,6.22,.56,6.22,1.23,0,.2-.13,.92-1.33,6.73-.48,2.2-.78,3.88-.94,4.95,.42-1.4,.9-3.74,1.17-5.06l.11-.5c.93-4.42,1.29-6.11,1.36-6.31,.21-.49,.33-.78,6.84-1,6.8-.24,10.73-.58,18.31-1.61,4.05-.54,5.77-.64,7.1-.4,2.22,.38,4.45,0,5.95-1.02,1.08-.72,2.87-1.25,7.67-2.28,3.57-.79,9.45-2.13,13.1-3.03,7.46-1.82,7.56-1.68,7.86-1.29,.18,.17,.36,.35-.47,3.72l-.96,3.96-1.69-1.21c-1.45-1.02-3.73-1.37-5.81-.91-1.46,.32-2.06,.65-3.06,1.68-1.17,1.14-1.27,1.43-1.27,2.37,0,1.1,.55,2.12,1.55,2.86,1.58,1.18,3.95,1.51,6.19,.86,1.17-.33,1.92-.78,2.69-1.61,.93-1.02,1.15-1.64,2.28-6.56,1.31-5.7,1.46-5.84,1.58-5.96,.49-.49,29.41-7.75,31.81-8.32,7.53-1.79,17.87-3.95,22.13-4.63,1.42-.26,2.18-.17,3.21,.36,1.73,.9,4.03,.52,6.31-1.04,1.34-.92,2.3-1.09,6.19-1.49,6.04-.64,24.94-.66,30.64-.03,12.72,1.42,25.03,4.58,36.58,9.38,1.99,.82,3.38,1.36,4.07,1.6,0-.07,.02-.15,.03-.23v-.13c-.16-.29-2.15-1.12-3.9-1.85-11.4-4.77-23.53-7.91-36.07-9.33-8.83-1.03-23.42-1-32.52,.07l-2.67,.3,.4-2.01c.11-.68-.08-2-.6-4-.66-2.47-.94-3.68-.03-3.98,2.03-.64,21.81-1.74,24.61-1.37,1.62,.17,2.23,.4,2.82,1.5,.59,1.13,2.07,1.95,3.96,2.21,2.29,.31,4.51-.27,5.66-1.49,1.23-1.27,2.05-1.23,7.2-.36,8.46,1.46,18.1,4.18,26.45,7.49,2.02,.8,3.4,1.26,3.94,1.41,.04-.08,.09-.19,.12-.32-.17-.22-1.93-.93-2.87-1.32-4.64-1.94-12.39-4.49-17.65-5.8l-5.49-1.38,2.01-1.95c1.33-1.27,2.17-2.99,2.48-5.11,.24-2.11,.86-2.11,1.09-2.11,1.03,0,11.08,3.23,14.88,4.66,1.7,.65,4.25,1.62,4.75,1.48-.01,0,0-.04,0-.13-1.16-.76-7.71-3.28-13.63-5-2.9-.84-5.67-1.65-6.11-1.79-.99-.28-1.43-1.21-1.72-2.08l-.6-1.81,1.7-1.45c.86-.77,1.36-1.51,1.67-2.48,.22-.82,.58-2.08,1.76-1.91,1.61,.25,7.2,1.99,11.52,3.57,2.26,.8,4.04,1.44,4.37,1.36,0,0,.02-.02,.07-.09,.05-.08,.1-.15,.15-.22-1.63-.77-7.91-3.01-12.49-4.31l-4.86-1.4-.54-1.55c-.61-1.79-1.74-3.2-5.27-6.57-2.89-2.73-3.19-3.02-2.89-3.64,.25-.52,.84-.43,1.32-.36,4.31,.71,12.56,2.85,18.04,4.68l5.67,1.88,.04-.16c.06-.24,.04-.39,.02-.46-.46-.19-2.57-.94-5.41-1.87-5.38-1.81-12.16-3.58-17.72-4.6-3.58-.67-3.99-1.14-4.13-1.36-.57,.45-1.65,.45-4.94,.02-3.88-.47-19.12-.87-22.97-.6h0c-12.84,.92-24.31,2.83-38.35,6.39-.07,.02-7.24,1.84-7.57,1.84-.79,0-.79-1.04-.79-1.8,0-1.13-.85-2.39-2.02-2.99-1.35-.69-4.36-.54-6.08,.31-2.28,1.11-3.07,2.38-3.26,5.21l-.2,2.95-6.98,2.22c-3.01,.96-9.37,3.01-15.28,4.92l-3.43,1.11c-36.13,11.68-53.78,15.59-75.57,16.75-15.15,.81-31.79-1.13-45.62-5.32-.99-.31-1.82-.53-2.3-.64-.01,.09-.03,.19-.03,.3-.02,.16-.02,.2-.02,.2,.12,.13,1.09,.44,1.51,.57,3.24,.97,9.52,2.51,13.42,3.28l3.98,.8,1.86,3.17c1.76,2.96,1.61,3.3,1.5,3.55l-.13,.29-.34,.08h0c-1.81,.23-17.18-3.72-19.69-4.68-.05-.02-.1-.04-.13-.05-.02,.05-.04,.12-.06,.21-.04,.19-.07,.33-.08,.44,1.84,.8,14.69,4.06,20.66,5.09,1.41,.22,1.87,.9,3.39,3.46,1.7,2.92,1.57,3.3,1.49,3.53l-.09,.27-.29,.13c-1.32,.45-14.97-2.96-19.74-4.5-1.86-.6-2.99-.89-3.44-.97-.04,.08-.09,.21-.14,.36,.41,.28,2.13,.83,3.66,1.32,5.8,1.79,9.97,2.83,15.4,3.86,1.46,.27,2.88,.54,3.89,.74,.75,.14,1.28,.25,1.46,.27,1.15,.26,4.29,5.35,4.55,6.33,.12,.47-.03,.73-.19,.87-1.1,1.11-18.06-3.49-22.12-4.82-2.25-.73-4.2-1.35-4.6-1.31,.02,0,0,.04-.01,.07-.06,.12-.09,.23-.1,.3,1.09,.58,9.06,3.08,14.03,4.31,2.59,.63,6.78,1.5,9.33,1.95,4.71,.85,6.18,1.31,6.18,2.57,0,.51-.46,.92-1.02,.92-1.07,0-2.71,.76-3.98,1.84l-1.72,1.52-5.51-1.4c-2.92-.72-7.6-2.1-10.43-3.08-1.68-.57-4.18-1.43-4.8-1.43-.05,.08-.09,.16-.11,.24,1.34,.8,8.32,3.22,14.64,4.79,1.08,.28,2.26,.57,3.12,.78l2.64,.71-.17,2.52c-.15,2.08,.23,2.9,1.69,3.66,.97,.51,2.71,.36,4.04-.37,.73-.37,2.75-2.34,3.37-3.38,.29-.47,.7-.64,1.52-.64l-.07-.05Zm-30.65-8.44s-.02,.02-.03,.04c0-.01,.02-.02,.03-.04Zm51.71,8.9c-1.02,0-1.37-.1-1.62-.4-.29-.34-.21-.74-.16-.98,.1-.39,.4-1.78,.67-3.2,.45-2.04,.85-3.06,1.21-3.06h0c.56-.08,1.94-.19,5.72-.47,3.09-.2,8.46-.77,11.87-1.21,6.08-.85,17.47-2.88,18.67-3.28,.18-.13,.54-.27,1.33-.27,.32,0,.81,0,1.1,.37,.3,.37,.19,.87,.11,1.26v.03c-.14,.51-.34,1.3-.43,1.81-.09,.5-.29,1.19-.89,1.4s-1.17-.21-1.54-.54c-1.27-1.09-4.27-1.37-6.54-.59-1.53,.54-2.74,1.6-3.24,2.83-.22,.54-.39,1.35,.02,2.17,.57,1.21,.4,1.47,.29,1.64l-.18,.29h-.36c-.1,.02-1.06,.14-2.16,.28l-2.89,.37c-5.08,.69-12.65,1.29-18.83,1.49-.94,.04-1.63,.06-2.15,.06h0Zm-.54-1.25c.5,.03,1.59,0,2.64-.05,6.15-.2,13.67-.8,18.72-1.48l2.89-.37c.73-.09,1.22-.16,1.56-.2-.03-.07-.07-.16-.11-.24-.48-.95-.5-2.08-.06-3.18,.47-1.16,1.42-2.19,2.65-2.92-4.23,.73-8.57,1.41-9.9,1.59-3.44,.44-8.84,1.02-11.95,1.22-1.13,.09-4.25,.32-5.32,.42-.08,.32-.22,.94-.48,2.13-.24,1.23-.51,2.52-.64,3.07h0Zm34.08-9.47c1.34,.16,2.54,.59,3.31,1.25,.14,.12,.24,.19,.3,.23,.03-.08,.06-.2,.1-.38,.1-.54,.3-1.35,.44-1.88,0-.04,.02-.08,.02-.11-.36,0-.63,.04-.68,.06,0,0,.04-.01,.08-.05-.28,.18-1.66,.5-3.58,.88h0Zm-35.91,10.64l-4.54-.04c-3.99-.07-8.46-.4-12.61-.92-1.55-.19-2.33-.29-2.33-1.73,0-.76-.45-1.76-1.66-3.72l-1.43-2.21,3.46,.32c1.15,.13,5.12,.4,9.04,.6h0c4.06,.22,7.82,.3,8.79,.24h.11c1.03-.09,1.72-.14,2.15,.37,.51,.59,.32,1.42-.25,3.88l-.74,3.2h.01Zm-20.14-7.13l.05,.08c1.37,2.21,1.85,3.36,1.85,4.38,0,.23,0,.3,.02,.32,.09,.03,.8,.12,1.22,.17,4.11,.51,8.54,.83,12.48,.91l3.54,.03,.52-2.23c.32-1.38,.59-2.57,.49-2.83-.07,.01-.61,.05-1.1,.09h-.12c-1.15,.08-5.16-.03-8.94-.23-3.95-.21-7.95-.48-9.11-.61l-.91-.08h0Zm61.09,2.53c-.22,0-.36-.02-.42-.07l-.1-.11c-.13-.19-.3-.44,.62-4.36l.96-4.08,5.67-1.33c2.8-.65,8.42-2.08,12.52-3.2,7.64-2.1,8.3-2.23,8.88-1.79,.22,.17,.33,.42,.33,.74v.02c-.02,.65-1.56,7.68-2.32,8.21-.21,.13-22.67,5.99-26.14,5.99v-.02Zm2.09-7.6l-.79,3.33c-.31,1.33-.52,2.41-.62,3.05,3.84-.63,22.7-5.02,24.67-5.77,.39-.88,1.62-5.38,1.83-6.92-1.02,.13-4.11,.97-7.61,1.94-4.12,1.12-9.75,2.55-12.56,3.21l-4.92,1.16h0Zm-41.31,4.17l-8.44-.22c-4.28-.13-8.51-.33-9.24-.44l-1.14-.18-.06,.19-2.45-.33c-3.34-.4-3.49-.49-5.25-3.38l-.1-.16c-.86-1.34-1.76-2.89-1.87-3.16l-.14-.35,.26-.38c.3-.35,.85-.41,2.21-.25,1.04,.14,3.36,.34,5.13,.47l3.97,.24-.3,2.05c-.06,.32-.15,.75-.25,1.2,.14-.33,.27-.65,.37-.94l.67-2.1,7.76-.11c4.33-.04,7.92-.11,8.55-.17,.79-.05,1.36-.05,1.68,.37,.26,.35,.15,.74,.09,.92-.08,.41-.41,1.91-.73,3.41l-.71,3.33h0Zm-17.79-1.94l.3,.05c.6,.09,4.48,.29,9.09,.43l7.4,.19,.5-2.33c.29-1.33,.58-2.65,.69-3.21-.1,0-.24,0-.42,.02-.76,.07-4.89,.14-8.63,.17l-6.87,.09-.4,1.26c-.29,.88-.92,2.26-1.44,2.97l-.24,.36h.02Zm-9.25-5.56c.32,.54,.83,1.4,1.41,2.32l.1,.17c1,1.64,2.45,2.57,4.34,2.79l1.45,.19,.38-1.16c.27-.88,.59-2.19,.72-2.91l.1-.7-2.64-.16c-1.79-.13-4.14-.34-5.19-.48-.28-.03-.5-.05-.67-.06h0Zm29.81,7.05c-.81,0-1.37-.05-1.74-.5-.51-.64-.3-1.56,.32-4.3l.56-2.46,2.28,1.29c1.06,.61,1.75,.76,3.37,.76,2.95,0,4.81-1.01,6.21-3.37,.11-.22,2.23-.68,6.36-1.38,5.26-.89,14.22-2.73,18.8-3.87,.8-.21,1.58-.39,1.95-.47l.53-.13,.33,.29c.33,.35,.26,.95,.14,1.41-.08,.41-.32,1.39-.59,2.52l-1.19,4.89-6.55,1.33c-10.53,2.13-24.57,3.99-30.06,3.99h-.72Zm-.02-5.37l-.19,.84c-.38,1.67-.68,2.99-.55,3.27,.09,.03,.61,.03,1.06,.03h.41c5.42,0,19.35-1.86,29.81-3.97l5.78-1.17,1-4.12c.27-1.13,.51-2.11,.58-2.47h0c-.39,.08-.9,.2-1.42,.34-4.61,1.15-13.62,3-18.9,3.89-3.4,.57-5.1,.88-5.64,1-1.62,2.58-3.89,3.76-7.14,3.76-1.83,0-2.73-.21-3.98-.92l-.82-.47h0Zm64.32,2.76c-.15,0-.23-.03-.3-.07-.44-.23-.43-.47,.55-4.8l1.03-4.47,2.04-.57c22.66-6.53,42.25-11.25,55.15-13.3,1.26-.22,2.44-.4,3.21-.52,.48-.07,.8-.12,.88-.14l.27-.09,.25,.17c.12,.08,.46,.28,.77,1.65l.57,2.15-2.38-.27c-1.71-.19-3.76,.59-5.35,2.02-1.36,1.22-2.15,2.7-2.15,4.04,0,.57,0,1.63-.79,1.63-.18,.03-3.17,.61-6.34,1.23l-1.23,.24c-9.9,1.97-19.4,4.24-33.91,8.08-9.27,2.42-11.56,3.02-12.28,3.02h.01Zm2.33-8.35l-.86,3.75c-.33,1.46-.56,2.56-.68,3.23,1.42-.33,4.85-1.2,11.18-2.85,14.53-3.85,24.06-6.12,33.98-8.1l1.23-.24c3.94-.77,5.48-1.07,6.11-1.18,.01-.12,.02-.27,.02-.46,0-1.69,.93-3.5,2.56-4.96,1.88-1.68,4.24-2.55,6.32-2.33l.59,.07-.11-.43c-.07-.33-.15-.57-.21-.74-.14,.02-.32,.05-.56,.09-.77,.12-1.94,.3-3.2,.52-12.86,2.04-32.4,6.75-55.02,13.27l-1.33,.37h-.02Zm51.42-5.48s-.07,0-.11,.01c.06,0,.08-.01,.11-.01Zm-79.32,10.47c-.29,0-.35-.06-.41-.11-.77-.77,1.57-8.23,1.62-8.29,.75-.82,16.42-4.73,16.55-4.74,.8-.06,4.71,.79,5.16,.89l.1,.02c2.77,.63,3.81,.86,4.26,1.61,.36,.59,.18,1.25-.09,2.23l-.08,.29c-.41,1.5-.54,1.54-6.89,3.23l-1.09,.29c-14.57,3.9-18.16,4.57-19.14,4.57h0Zm2.12-7.52c-.28,.67-1.2,4.68-1.44,6.27,2.29-.45,10.21-2.39,18.13-4.51l1.09-.29c3.86-1.03,5.86-1.82,6.01-2.37l.08-.28c.15-.55,.31-1.12,.22-1.26-.18-.29-1.56-.61-3.47-1.04l-.1-.02c-2.81-.62-4.52-.87-4.81-.86-1.09,.06-14.2,3.71-15.72,4.37h.01Zm-51.91,5.37h-8.05l-.41-2.82c-.2-1.25-.47-2.54-.56-2.91-.05-.19-.16-.57,.09-.92,.41-.56,1-.58,6.69-.79,15.68-.58,29.58-2.68,46.59-7.03l2.13-.55c3.76-.98,5.77-1.32,6.03-1.03,.3,.33,.15,.72,.08,.88,0,.03-.02,.06-.04,.1-.03,.15-.11,.48-.21,.93-.18,.77-.44,1.89-.69,3.03,0,.03-.74,3.37-.86,3.62l-.06,.09c-.55,.73-21.25,4.69-21.46,4.72-6.13,1.04-6.63,1.13-7.21,.14-1.43-2.59-5.39-3.62-8.48-2.21-1.75,.8-2.66,1.63-3.04,2.8-.63,1.95-1.57,1.95-10.53,1.95h0Zm-6.98-1.24h6.98c9,0,9.04-.12,9.35-1.09,.5-1.53,1.6-2.58,3.7-3.54,3.71-1.69,8.32-.44,10.07,2.73,.37,.2,2.82-.22,5.93-.75,5.28-.91,18.65-3.76,20.66-4.34,.11-.46,.4-1.69,.71-3.13,.25-1.15,.52-2.28,.7-3.05,.05-.21,.09-.39,.13-.54-.77,.17-2.23,.55-4.47,1.13l-2.13,.55c-17.1,4.38-31.08,6.49-46.75,7.07-3.14,.12-5.02,.18-5.69,.31,.13,.56,.37,1.75,.55,2.88l.26,1.77h0Zm-3.22,1.13c-.24,0-.54-.03-.91-.07-.46-.04-1.51-.14-2.73-.26l-2.56-.25c-.67-.06-4.06-.39-4.59-.57-.89-.28-4.06-5.3-4.06-6.12,0-.26,.1-.49,.29-.66,.51-.46,1.49-.46,6.56,.04l5.27,.53,1.17,1.37c1.21,1.43,2.03,2.89,2.42,4.35,.15,.52,.28,.94-.02,1.3-.2,.24-.44,.32-.83,.32v.02Zm-10.36-2.31c.4,.09,2.05,.29,4.27,.5l2.56,.25c1.22,.12,2.26,.22,2.73,.26,.16,.02,.33,.03,.47,.04v-.03c-.36-1.3-1.08-2.6-2.18-3.89l-.85-.99-4.78-.48c-1.83-.18-4.47-.44-5.39-.37,.49,1.04,2.59,4.21,3.17,4.7h0Zm98.41-2.7c-.23,0-.3-.07-.39-.15-.65-.65,1.81-9.05,1.86-9.11,.7-.62,18.21-5.37,18.33-5.37,.25-.02,.49,.06,.69,.24,.46,.41,.51,1.08,.61,4.31h0l.07,2.88c.28-1,2.39-3.01,6.28-5.98,1.31-.99,3.09-2.56,3.9-3.43,1.6-1.71,1.88-1.78,6.55-2.91,4.04-.96,14.3-3.12,17.47-3.65l.27-.05c2.5-.44,2.65,.11,3.61,3.73l.16,.61c1.19,4.41,1.11,4.49,.82,4.78-.13,.13-1.32,.38-3.56,.75l-.59,.1c-6.4,.96-18.2,3.42-26.31,5.48-7.15,1.76-7.77,1.87-8.32,1.44-.13-.1-.22-.23-.27-.38l.03,1.1-10.68,2.96c-7.82,2.12-9.86,2.66-10.53,2.66h0Zm2.41-8.39c-.34,1.02-1.32,5.25-1.65,7.01,1.35-.32,4.47-1.14,9.44-2.48l9.74-2.7-.09-3.49c-.04-1.25-.08-2.76-.19-3.31-1.9,.42-15.35,4.3-17.25,4.98h0Zm54.41-13.78c-.18,0-.48,.05-.97,.13l-.28,.05c-3.16,.53-13.37,2.68-17.39,3.63-3.05,.74-5.03,1.59-5.93,2.55-.86,.93-2.68,2.53-4.06,3.58-3.12,2.39-4.83,3.98-5.5,4.78,1.19-.18,3.81-.83,6.76-1.56,8.14-2.07,19.99-4.54,26.42-5.51l.58-.1c1.01-.16,2.04-.33,2.62-.44-.13-.62-.42-1.82-.88-3.54h0l-.16-.61c-.43-1.61-.69-2.58-.95-2.88-.05-.06-.13-.09-.27-.09h0Zm-82.67,19.4l-.26-.2c-.79-.71,.81-5.22,.83-5.27,.17-.44,.4-1.05,.96-1.05,.4,0,3.42,.65,5.33,1.09,4.88,1.11,4.93,1.36,5.03,1.76l.09,.38-.31,.27c-.54,.6-10.82,3-11.39,3.01h-.28Zm1.8-5.21c-.33,.75-.89,2.88-1.03,3.9,1.64-.32,6.23-1.49,8.65-2.19-.69-.19-1.62-.42-2.84-.7h0c-2.19-.5-4.05-.89-4.78-1.02h0Zm-63.58,5.13l-1.64-1.79c-2.64-2.86-5.01-3.83-11.04-4.52-7.94-.93-8.14-1.49-8.24-1.79l-.13-.37,.28-.31c.21-.21,.37-.37,4.54,.23,5.34,.71,21.38,1,27.67,.5,16.13-1.28,32.71-4.67,53.74-11,4.04-1.19,37.55-11.89,40.63-12.94,1-.33,1.63-.54,2.17-.16,.67,.48,.67,1.4,.67,4.45v4.47l-2.87,.88c-1.32,.36-7.36,2.2-13.75,4.18-3.71,1.15-7.85,2.42-11.19,3.44-2.24,.69-4.12,1.26-5.26,1.61l-5.32,1.6-3.56-.78c-1.55-.35-2.77-.62-3.02-.46-.14,.1-.25,.76-.35,1.4-.34,1.96-.58,2.02-6.73,3.6-18.74,4.84-33.31,7.1-48.71,7.54l-7.9,.21h0Zm-7.68-6.74c3.1,.76,4.94,1.93,6.96,4.12l1.26,1.38,7.34-.2c15.31-.43,29.79-2.68,48.44-7.5,3.74-.96,5.68-1.82,5.81-2.58,.19-1.16,.3-1.85,.89-2.25,.69-.47,1.59-.27,3.98,.27l3.24,.71,5-1.5c1.13-.35,3.01-.93,5.26-1.61,3.34-1.02,7.48-2.29,11.19-3.44,6.41-1.99,12.46-3.82,13.77-4.19l1.97-.6v-3.55c0-1.8,0-3.21-.18-3.47-.06,.03-.55,.19-.98,.34-3.13,1.06-36.68,11.77-40.72,12.97-21.12,6.35-37.77,9.76-54,11.05-4.13,.33-12.44,.32-19.22,.07v-.02Zm96.68-.45l-7.07-1.59c-3.43-.76-7.12-1.64-7.46-1.79l-.42-.18,.03-.48c.07-.73,.08-.78,28.53-9.51,2.62-.82,4.87-1.45,5.02-1.49l.15-.02h.26l.2,.19c.18,.18,.39,.4,.33,4.55h0l-.11,4.61-19.47,5.7h0Zm-12.42-4.08c1.33,.32,3.38,.8,5.62,1.3l6.76,1.52,18.29-5.36,.09-3.69c.02-1.56,0-2.69-.04-3.32-.87,.25-2.52,.73-4.31,1.29-14.31,4.39-23.08,7.11-26.4,8.26h0Zm120.75,.98c-.71,0-1.85-.2-3.89-.55-2.29-.4-4.13-.68-4.29-.7h-.29l-.14-.23c-.22-.26-.31-.37,.58-4.89l.2-1.09c.36-1.95,.54-2.93,1.29-3.44,.77-.53,1.83-.32,3.94,.08l1.14,.22c1.35,.24,3.66,.73,4.06,1.36,1.03,1.63,.1,6.79-1.25,8.56-.34,.47-.62,.69-1.36,.69h.01Zm-7.48-2.41c.93,.14,2.63,.43,3.81,.63,3.81,.66,3.85,.62,4.04,.35,1.17-1.55,1.8-5.98,1.23-7.1-.28-.16-1.42-.54-3.26-.86h0l-1.16-.22c-1.6-.31-2.66-.52-3.01-.28-.33,.22-.5,1.19-.77,2.64l-.21,1.11c-.38,1.92-.58,3.13-.67,3.73h0Zm-41.33,1.62l-1.22-4.68c-1.18-4.47-1.03-4.62-.78-4.88,.54-.63,14.31-1.89,14.45-1.9,4.99-.38,21.65-.2,25.47,.27h0c2.87,.4,2.95,.48,3.12,.65,.25,.25,.35,.35-.27,3.56l-.76,3.89-1.66-1.22c-1.39-.97-3.52-1.34-5.4-.94-1.99,.44-4.03,1.92-4.26,2.62-.34,1.14-.74,1.14-7.43,1.14-5.89,0-14.5,.54-19.2,1.21l-2.07,.27h.01Zm-.88-8.64c.12,.66,.42,1.98,.86,3.66l.94,3.62,.97-.13c4.74-.67,13.43-1.22,19.36-1.22,3.44,0,5.92,0,6.25-.21,.45-1.47,3.16-3.07,5.18-3.51,2.24-.48,4.69-.04,6.39,1.14l.1,.07,.39-1.98c.21-1.12,.34-1.94,.4-2.4-.39-.07-1.08-.18-2.2-.34-3.79-.47-20.28-.64-25.22-.27-4.03,.31-11.5,1.21-13.42,1.56h0Zm-38.89,5.64v-8.48l4.96-1.43c3.99-1.14,4.94-1.42,5.59-.92,.46,.35,.46,.89,.46,1.52l-.62,.06h.62c0,1.89-1.62,5.04-3.27,6.35-1.17,.92-3.65,1.96-6.04,2.54l-1.71,.37h.01Zm1.24-7.56v6.01l.19-.04c2.15-.52,4.54-1.51,5.54-2.31,1.33-1.06,2.8-3.88,2.8-5.38v-.06c0-.18,0-.39-.01-.52-.51-.05-2.1,.44-4.46,1.11l-4.06,1.17v.02Zm12.24,5.01c-.2,0-.41-.06-.58-.24-.36-.38-.24-.81,.14-2.08,.52-1.78,.57-3.66,.13-5.14-.38-1.44-.24-1.66-.12-1.83l.1-.11c.73-.67,18.51-4.55,19.69-4.58l1.53-.05,1.17,4.42c1.12,4.21,.9,4.57,.42,4.84-.32,.27-2.9,.71-3.98,.88-1.86,.33-6.46,1.26-10.31,2.12l-3.41,.76c-2.62,.58-4,.89-4.28,.93-.14,.04-.32,.08-.49,.08h-.01Zm.72-8.54c.03,.18,.08,.43,.17,.74,.49,1.69,.44,3.82-.14,5.83-.06,.2-.12,.42-.18,.61,.68-.14,2.21-.48,3.93-.87l3.41-.76c3.87-.86,8.49-1.79,10.37-2.13,1.6-.26,2.83-.52,3.34-.66-.03-.36-.17-1.28-.77-3.53h0l-.92-3.47-.55,.02c-1.3,.03-16.12,3.39-18.67,4.21h.01Zm74.54,3.86c-.09,0-6.15-.91-6.57-1.33-.69-.69,.23-3.09,.24-3.12,.1-.25,.35-.84,.9-.84,.59,0,2.22,.96,2.41,1.06h0c.2,.13,4.03,2.55,3.73,3.7-.08,.31-.36,.52-.71,.52h0Zm-5.59-2.24c.78,.18,2.84,.57,4.26,.81-.63-.56-1.51-1.25-2.31-1.71h0c-.64-.39-1.21-.66-1.54-.8-.17,.43-.37,1.26-.4,1.7h-.01Zm-46.11,2.04l-1.25-4.62c-1.19-4.44-1.1-4.53-.82-4.81,.47-.47,13.49-2.02,13.62-2.03,8.72-.98,19.23-1.08,28.84-.27,2.11,.18,4.71,.44,5.11,.71,.62,.42,.6,1.22-.14,5.05l-.87,4.69-2.04-.05c-.8,0-4.33-.21-8.06-.44l-.63-.04c-7.73-.47-17.24-.16-25.44,.84l-1.86,.23c-1.69,.21-3.32,.41-4.09,.48l-2.37,.26h0Zm-.94-8.52c.13,.63,.42,1.86,.88,3.57l.97,3.6,1.33-.14c.77-.07,2.38-.27,4.06-.48l1.86-.23c8.27-1.01,17.87-1.32,25.67-.85l.63,.04c3.71,.22,7.22,.43,8,.43l1,.02,.68-3.66c.17-.89,.61-3.14,.56-3.81-.45-.08-2.09-.29-4.42-.48h0c-9.53-.8-19.95-.7-28.6,.27-3.68,.4-10.69,1.38-12.62,1.72h0Zm-36.1,6.81v-4.96c0-4.46,.34-4.68,.61-4.86,.13-.09,.4-.27,2.89-.6,1.45-.16,2.27-.26,2.39-.29l.1-.03h.06c.09,.01,.2,.01,.41,.14l2.75-1.38c5.24-2.62,28.84-7.61,42.09-8.89,1.47-.12,3.03-.27,4.07-.38l.99-.1c2.77-.27,21.37,.06,24.57,.44h0l.8,.11c1.97,.26,2.6,.35,2.89,.46,.72,.21,.79,.93-.06,5.16-.88,4.41-.91,4.46-.96,4.57l-.12,.16c-.25,.25-.28,.29-6.26-.29-10.73-1.01-27.9-.26-39.07,1.71-2.72,.46-3.05,.52-3.18,.52-.51,0-.73-.22-1.41-2.79-.18-.76-.37-1.29-.53-1.64,.05,.39,.15,.99,.32,1.71,.62,2.41,.59,2.65,.12,2.89h0c-.31,.12-1.29,.35-5.28,1.17-2.72,.56-7.3,1.64-10.15,2.35l-5.64,1.4-.76-1.52c-.83-1.6-2.09-3.11-3.35-4.02l-.25-.18c1.39,1.62,2.48,3.4,2.8,4.57,.35,1.46-.17,1.6-5.12,2.98l-5.71,1.6h-.01Zm1.43-8.84c-.09,.45-.19,1.69-.19,3.86v3.33l4.13-1.16c2.33-.65,3.91-1.09,4.28-1.34,0-.05-.02-.11-.03-.14-.28-1.01-1.34-2.71-2.65-4.21-.47-.49-.84-.83-1.04-.98-.31,.05-.94,.13-2.28,.27-1.25,.17-1.93,.3-2.23,.38h.01Zm7.16-1.48l.42,.31c1.41,1.02,2.8,2.69,3.72,4.46l.32,.64,4.68-1.16c2.87-.72,7.47-1.8,10.2-2.37,2.05-.42,3.77-.79,4.58-.98-.07-.34-.19-.88-.37-1.57-.2-.87-.51-2.38-.33-2.95,.31-.8,.84-.85,1.05-.83,.78,.05,1.42,1.1,1.9,3.11,.25,.93,.43,1.5,.54,1.8,.57-.09,1.73-.29,2.63-.45,11.26-1.99,28.57-2.75,39.4-1.72,2.37,.23,4.35,.39,5.22,.45,.1-.49,.32-1.58,.79-3.9,.49-2.45,.59-3.42,.59-3.81-.44-.07-1.46-.21-2.37-.33l-.79-.11c-3.05-.36-21.67-.7-24.3-.44l-.98,.09c-1.05,.1-2.62,.26-4.08,.38-12.85,1.25-36.6,6.25-41.64,8.77l-1.18,.59v.02Zm84.36,9.11c-.56,0-1.16-.58-3.76-3.1-3.56-3.43-3.56-3.68-3.56-3.92v-.3l.24-.2c.63-.5,6.7,.93,6.76,.94h0c1.39,.35,1.48,.88,1.58,2.66,.07,1.03-.05,2.35-.27,3-.14,.37-.31,.79-.78,.9-.08,.02-.15,.03-.22,.03h.01Zm-5.18-6.27c.56,.58,1.34,1.36,2.28,2.27,1.32,1.28,2.28,2.21,2.75,2.58,.11-.41,.24-1.46,.18-2.43-.05-.93-.27-1.44-.64-1.53-1.34-.33-3.26-.68-4.57-.89h0Zm4.78-1.19c-.34,0-1.18-.13-3.87-.58-2.11-.39-3.67-.65-3.87-.67l-.28-.02-.25-.26c-.57-.76,.26-3.62,.27-3.65,.11-.38,.32-.65,.63-.78,.64-.28,1.5,.06,3.75,1.21,1.38,.68,4.11,2.95,4.27,3.91,.04,.25-.03,.49-.2,.66l-.16,.12c-.07,.04-.13,.06-.28,.06h0Zm-7.23-2.43c1.09,.16,3.55,.62,3.58,.63,1.08,.18,1.85,.31,2.4,.39-.76-.75-1.99-1.77-2.92-2.23h0c-.6-.31-2.12-1.09-2.63-1.17-.29,.99-.41,1.91-.42,2.38h0Zm-.48-.06h0Z"/></g><path class="cls-1" d="M229.37,318.67c-.24,0-.49-.05-.72-.16-26.03-11.75-42.85-37.79-42.85-66.34,0-40.12,32.64-72.75,72.75-72.75s72.75,32.64,72.75,72.75c0,16.67-5.49,32.36-15.87,45.36-.6,.76-1.71,.88-2.46,.28-.76-.6-.88-1.71-.28-2.46,9.88-12.37,15.1-27.3,15.1-43.17,0-38.18-31.06-69.25-69.25-69.25s-69.25,31.06-69.25,69.25c0,27.18,16.01,51.96,40.79,63.15,.88,.4,1.27,1.44,.88,2.32-.29,.65-.93,1.03-1.6,1.03h0Z"/><g><path class="cls-1" d="M131.8,84.11c1.5,2.12,3.01,4.24,4.51,6.36,.06,.08,.02,.23-.07,.29-.75,.53-1.5,1.07-2.25,1.61-.09,.06-.24,.05-.3-.03-1.66-2.33-3.32-4.67-4.98-7.01-1.69-2.28-3.38-4.55-5.07-6.82-.06-.08-.02-.23,.08-.3,1.06-.77,2.12-1.53,3.19-2.27,.12-.09,.29-.11,.39-.06,5.21,1.83,10.29,3.84,15.23,6-.16-.24-.33-.48-.49-.72-.78-1.16-1.57-2.32-2.35-3.48-1.5-2.35-2.99-4.69-4.49-7.04-.05-.08,0-.23,.09-.3,.83-.53,1.65-1.04,2.48-1.56,.1-.06,.25-.04,.31,.05,1.46,2.43,2.92,4.85,4.39,7.28,1.53,2.42,3.06,4.85,4.59,7.27,.05,.09,0,.23-.08,.29-1.05,.65-2.1,1.31-3.15,1.99-.12,.07-.27,.09-.37,.03-4.85-2.13-9.82-4.1-14.91-5.91,.25,.32,.5,.64,.75,.97,.83,1.13,1.66,2.26,2.49,3.38v-.02Z"/><path class="cls-1" d="M161.33,75.53c-.12,.06-.25,.05-.36-.04-1.19-1.11-2.4-2.21-3.61-3.3-2.26,1.19-4.51,2.43-6.74,3.71,.28,1.61,.57,3.21,.87,4.81,.04,.12-.02,.24-.13,.31-.85,.5-1.69,1-2.53,1.51-.09,.06-.22,.01-.22-.1-1.07-6.01-1.98-12.09-2.72-18.21,0-.14,.06-.26,.18-.33,1.26-.71,2.52-1.4,3.79-2.08,.13-.07,.27-.06,.38,.02,4.73,3.93,9.32,7.97,13.77,12.12,.09,.07,.06,.19-.03,.24-.89,.44-1.77,.89-2.65,1.35h0Zm-6-5.16c-2.13-1.89-4.29-3.75-6.47-5.59,.4,2.82,.84,5.63,1.3,8.44,1.71-.97,3.44-1.92,5.17-2.85Z"/><path class="cls-1" d="M173.62,70.06c-4.83,2.12-9.74,.5-12.17-4.38-2.47-4.96-.44-9.95,4.76-12.24,4.41-1.93,8.13-1.12,10.38,1.94,.06,.08,.02,.21-.09,.25-.96,.38-1.93,.77-2.89,1.16-.13,.05-.26,.03-.34-.08-1.44-1.79-3.55-2.14-6.06-1.04-3.42,1.5-4.32,4.74-2.54,8.51,1.74,3.66,4.73,5.05,7.98,3.63,2.9-1.27,3.96-3.6,2.89-6.46-1.65,.68-3.29,1.37-4.92,2.09-.1,.04-.24,0-.28-.09-.27-.61-.54-1.22-.8-1.83-.04-.09,.02-.23,.12-.27,2.7-1.18,5.41-2.31,8.15-3.38,.1-.04,.24,0,.28,.1,2.34,5.84,.64,9.87-4.47,12.1h0Z"/><path class="cls-1" d="M196.05,61.35c-.13,.04-.25,0-.34-.1-.97-1.3-1.95-2.6-2.95-3.89-2.4,.76-4.78,1.57-7.16,2.42,0,1.63,0,3.25,.04,4.88,.02,.13-.06,.23-.18,.28-.9,.33-1.8,.67-2.7,1.01-.1,.04-.21-.03-.2-.14-.03-6.09,.11-12.21,.42-18.36,0-.14,.1-.25,.23-.29,1.34-.46,2.68-.92,4.02-1.36,.14-.04,.27,0,.36,.09,3.93,4.71,7.7,9.51,11.32,14.39,.08,.08,.03,.2-.07,.23-.94,.27-1.87,.56-2.8,.84h.01Zm-4.95-6.14c-1.75-2.24-3.53-4.46-5.34-6.66-.09,2.84-.14,5.68-.15,8.51,1.82-.64,3.65-1.26,5.49-1.85h0Z"/><path class="cls-1" d="M201.54,51.44c.68,2.51,1.37,5.02,2.05,7.52,.03,.1-.05,.22-.15,.25-.85,.23-1.71,.47-2.56,.71-.1,.03-.23-.04-.26-.13-.76-2.76-1.51-5.53-2.27-8.29-.8-2.72-1.6-5.44-2.4-8.15-.03-.1,.06-.22,.17-.25,1.21-.34,2.42-.67,3.63-.99,.14-.04,.3,0,.38,.08,4.14,3.54,8.12,7.2,11.93,10.95-.07-.28-.14-.57-.22-.85-.34-1.36-.68-2.72-1.01-4.08-.6-2.72-1.2-5.43-1.81-8.15-.02-.1,.07-.22,.18-.24,.92-.2,1.85-.4,2.77-.59,.11-.02,.25,.05,.27,.15,.55,2.78,1.09,5.56,1.64,8.34,.61,2.8,1.22,5.6,1.82,8.4,.02,.1-.06,.22-.17,.24-1.18,.24-2.35,.5-3.52,.76-.13,.03-.27-.02-.35-.1-3.73-3.68-7.62-7.27-11.66-10.76,.12,.39,.25,.78,.37,1.17,.39,1.34,.78,2.69,1.17,4.03v-.02Z"/><path class="cls-1" d="M227.01,54.63c-5.39,.82-9.62-2.06-10.69-7.36-1.1-5.45,2.01-9.73,7.96-10.63,5.9-.88,10.17,2.22,10.74,7.83,.54,5.38-2.66,9.35-8.02,10.16h0Zm-.37-2.45c3.63-.54,5.44-3.24,4.95-7.31s-3.05-6.37-6.94-5.78c-3.91,.59-5.64,3.47-4.89,7.57,.73,4.01,3.27,6.08,6.87,5.53h.01Z"/><path class="cls-1" d="M252.48,48.99c-1.23-1.63-2.49-3.25-3.78-4.86-.59,.73-1.17,1.46-1.74,2.19,.11,1.9,.22,3.79,.33,5.69,0,.1-.09,.21-.2,.21-.95,.05-1.9,.11-2.84,.17-.11,0-.22-.09-.22-.19-.16-2.88-.33-5.76-.49-8.63-.23-2.81-.46-5.61-.69-8.42,0-.1,.1-.21,.21-.21,1.03-.07,2.05-.13,3.08-.19,.11,0,.23,.09,.24,.19,.12,2.59,.24,5.18,.36,7.77,1.99-2.72,4.05-5.41,6.19-8.07,.08-.08,.22-.16,.37-.16,1.23-.03,2.45-.05,3.68-.06,.08,0,.14,.1,.09,.15-2.15,2.32-4.23,4.68-6.25,7.06,2.69,3.32,5.27,6.69,7.72,10.11,.03,.07,0,.17-.11,.17-1.19,0-2.37,0-3.56,.04-.13,0-.26-.07-.32-.17-.68-.93-1.36-1.85-2.06-2.77v-.02Z"/><path class="cls-1" d="M273.23,52.39c-.13,0-.23-.09-.28-.22-.43-1.57-.88-3.13-1.33-4.69-2.49-.15-4.97-.25-7.46-.31-.58,1.52-1.14,3.04-1.7,4.56-.03,.12-.14,.2-.27,.2-.95-.02-1.9-.02-2.85-.03-.11,0-.18-.1-.13-.2,2.13-5.69,4.43-11.36,6.91-16.98,.06-.12,.18-.19,.32-.19,1.4,.05,2.79,.11,4.19,.18,.14,0,.25,.09,.3,.22,1.95,5.81,3.73,11.64,5.34,17.49,.04,.1-.04,.2-.15,.19-.96-.08-1.93-.15-2.89-.22Zm-2.39-7.51c-.82-2.71-1.67-5.43-2.55-8.13-1.09,2.62-2.15,5.25-3.17,7.89,1.91,.06,3.82,.13,5.72,.24Z"/><path class="cls-1" d="M287.24,50.28c-.63-1.18-1.27-2.37-1.92-3.54-1.14-.14-2.27-.27-3.41-.39-.21,2.18-.43,4.36-.64,6.54-.01,.1-.13,.19-.23,.18-.94-.1-1.89-.19-2.84-.28-.11,0-.2-.12-.19-.22,.29-2.87,.58-5.74,.86-8.6,.23-2.81,.46-5.61,.68-8.42,0-.1,.13-.19,.25-.18,2.51,.23,5.02,.5,7.52,.81,4.75,.6,7.26,2.85,6.69,6.35-.43,2.64-2.33,4.08-5.14,4.37,1.29,2.5,2.53,5.01,3.71,7.53,.04,.08-.03,.17-.13,.16-1.1-.18-2.21-.35-3.32-.5-.13-.02-.25-.11-.29-.22-.52-1.19-1.06-2.39-1.6-3.58h0Zm0-11.76c-1.47-.18-2.94-.35-4.41-.51-.23,1.99-.46,3.97-.69,5.96,1.48,.16,2.95,.33,4.43,.51,2.13,.27,3.86-.34,4.16-2.42,.29-2-.99-3.23-3.49-3.55h0Z"/><path class="cls-1" d="M301.44,56.58c-4.64-.94-6.63-3.75-5.9-8.12,.28-1.67,.57-3.33,.85-5,.3-1.87,.6-3.74,.89-5.6,.02-.1,.15-.18,.26-.16,1.04,.18,2.09,.36,3.13,.56,.11,.02,.21,.14,.19,.24-.36,1.83-.72,3.66-1.08,5.49-.31,1.68-.62,3.36-.94,5.04-.49,2.68,.36,4.51,3.11,5.06,2.87,.59,4.44-.73,5.04-3.39,.37-1.64,.74-3.28,1.11-4.93,.4-1.85,.8-3.7,1.19-5.55,.02-.1,.16-.17,.27-.14,.93,.21,1.86,.43,2.79,.65,.11,.03,.2,.15,.18,.25-.46,1.83-.92,3.67-1.38,5.5-.4,1.64-.79,3.29-1.19,4.93-1.05,4.31-3.92,6.12-8.53,5.17h0Z"/><path class="cls-1" d="M311.87,58.63c-.1-.03-.18-.15-.16-.25,.75-2.78,1.5-5.55,2.25-8.32,.67-2.74,1.34-5.49,2-8.23,.03-.1,.16-.16,.27-.14,1,.26,2,.52,3,.79,.11,.03,.2,.16,.17,.25-.78,2.71-1.56,5.43-2.34,8.14-.72,2.78-1.44,5.57-2.17,8.35-.03,.1-.16,.16-.26,.14-.92-.25-1.85-.5-2.77-.73h.01Z"/><path class="cls-1" d="M331.28,64.42c-.03,.09-.17,.15-.27,.12-4.34-1.57-8.72-2.99-13.13-4.26-.1-.03-.18-.16-.15-.25,.21-.71,.41-1.42,.62-2.14,.03-.12,.13-.25,.23-.3,4.42-3,9.01-5.86,13.76-8.58-3.16-1.08-6.34-2.09-9.54-3.02-.11-.03-.19-.16-.16-.26,.19-.64,.37-1.28,.56-1.92,.03-.1,.17-.16,.28-.13,4.5,1.32,8.97,2.78,13.4,4.38,.11,.04,.18,.17,.15,.27-.26,.72-.52,1.44-.78,2.16-.04,.12-.15,.24-.25,.28-4.74,2.63-9.33,5.4-13.75,8.31,3.22,.99,6.41,2.06,9.59,3.21,.1,.04,.17,.17,.13,.26-.23,.63-.45,1.25-.68,1.88h-.01Z"/><path class="cls-1" d="M346.12,70.66c-.12-.06-.19-.17-.19-.3,.13-1.62,.25-3.25,.35-4.88-2.32-1.02-4.66-2-7.01-2.94-1.08,1.22-2.14,2.45-3.2,3.68-.07,.11-.2,.14-.32,.09-.9-.35-1.8-.69-2.7-1.03-.1-.04-.14-.16-.06-.23,4-4.59,8.16-9.09,12.47-13.49,.1-.09,.24-.12,.37-.06,1.32,.54,2.63,1.09,3.94,1.65,.13,.06,.21,.17,.21,.31-.16,6.14-.48,12.25-.97,18.31,0,.11-.11,.17-.21,.12-.9-.42-1.79-.83-2.69-1.24h.01Zm.32-7.88c.16-2.84,.29-5.68,.38-8.53-1.95,2.07-3.87,4.17-5.76,6.28,1.8,.73,3.59,1.48,5.38,2.25Z"/><path class="cls-1" d="M362.17,78.74c-.12-.07-.18-.18-.14-.31,1.12-4.38,2.18-8.78,3.18-13.21-3.06,3.32-6.07,6.69-9.02,10.09-.08,.1-.24,.1-.33,.05-1.07-.55-2.15-1.09-3.23-1.63-.12-.06-.19-.18-.15-.3,1.15-5.78,2.19-11.61,3.11-17.46,.01-.1,.14-.16,.24-.11,.96,.45,1.92,.9,2.87,1.36,.13,.06,.2,.18,.18,.31-.92,4.74-1.91,9.45-2.97,14.14,3.09-3.67,6.24-7.3,9.45-10.88,.08-.1,.25-.1,.35-.04,1.09,.57,2.18,1.15,3.26,1.75,.1,.06,.2,.19,.16,.32-1.2,4.73-2.46,9.44-3.79,14.11,3.34-3.53,6.75-7.02,10.21-10.46,.09-.09,.25-.08,.36-.02,.85,.51,1.71,1.02,2.56,1.54,.1,.06,.12,.19,.05,.26-4.41,3.99-8.71,8.06-12.92,12.2-.09,.09-.22,.1-.34,.04-1.02-.59-2.05-1.17-3.07-1.75h-.02Z"/><path class="cls-1" d="M381.11,90.64c-.11-.08-.16-.2-.13-.34,.42-1.58,.83-3.16,1.23-4.75-2.14-1.48-4.3-2.91-6.48-4.31-1.3,.99-2.59,1.99-3.86,3-.09,.09-.22,.1-.34,.02-.84-.52-1.67-1.04-2.51-1.55-.09-.06-.11-.18-.01-.24,4.83-3.74,9.8-7.35,14.9-10.83,.12-.07,.26-.07,.38,.01,1.22,.79,2.43,1.6,3.64,2.42,.12,.08,.18,.21,.16,.35-1.26,6.04-2.68,12-4.26,17.9-.01,.11-.14,.15-.23,.08-.82-.6-1.65-1.19-2.47-1.77h-.02Zm1.74-7.72c.67-2.77,1.31-5.55,1.92-8.35-2.32,1.66-4.62,3.34-6.89,5.05,1.67,1.08,3.33,2.18,4.97,3.3Z"/></g><g><path class="cls-1" d="M232.59,477.45c-.12,0-.22-.1-.22-.22v-2.14c0-6.7,8.3-6.07,8.3-9.6,.07-1.61-.79-2.57-2.35-2.54-1.51,.02-2.45,1.13-2.52,3.17,0,.12-.1,.22-.22,.22h-2.9c-.12,0-.22-.1-.22-.22,0-3.65,1.97-5.76,5.86-5.78,3.74,0,5.64,1.9,5.74,5.04,0,6.22-8.28,5.86-8.28,9.07v.29h8.06c.12,0,.22,.1,.22,.22v2.28c0,.12-.1,.22-.22,.22h-11.25Z"/><path class="cls-1" d="M252.1,477.81c-4.03,0-6.67-3.1-6.67-8.71s2.62-8.81,6.67-8.81,6.7,2.9,6.7,8.81-2.64,8.71-6.7,8.71h0Zm.02-2.81c1.87,0,2.9-1.73,2.9-5.9s-1.03-6-2.93-6-2.9,1.75-2.9,6,1.06,5.9,2.93,5.9Z"/><path class="cls-1" d="M260.33,477.45c-.12,0-.22-.1-.22-.22v-2.14c0-6.7,8.3-6.07,8.3-9.6,.07-1.61-.79-2.57-2.35-2.54-1.51,.02-2.45,1.13-2.52,3.17,0,.12-.1,.22-.22,.22h-2.9c-.12,0-.22-.1-.22-.22,0-3.65,1.97-5.76,5.86-5.78,3.74,0,5.64,1.9,5.74,5.04,0,6.22-8.28,5.86-8.28,9.07v.29h8.06c.12,0,.22,.1,.22,.22v2.28c0,.12-.1,.22-.22,.22h-11.25Z"/><path class="cls-1" d="M273.46,477.45c-.12,0-.22-.1-.22-.22v-2.14c0-6.7,8.3-6.07,8.3-9.6,.07-1.61-.79-2.57-2.35-2.54-1.51,.02-2.45,1.13-2.52,3.17,0,.12-.1,.22-.22,.22h-2.9c-.12,0-.22-.1-.22-.22,0-3.65,1.97-5.76,5.86-5.78,3.74,0,5.64,1.9,5.74,5.04,0,6.22-8.28,5.86-8.28,9.07v.29h8.06c.12,0,.22,.1,.22,.22v2.28c0,.12-.1,.22-.22,.22h-11.25Z"/></g><g><path class="cls-1" d="M137.21,447.13c-.04,.23-.19,.31-.38,.31h-6.55c-.23,0-.34-.15-.31-.38l3.22-13.28,2.83-12.83c.04-.23,.19-.31,.38-.31h9.46c.19,0,.31,.11,.34,.31l1.95,15.7,8.73-15.77c.08-.15,.19-.23,.38-.23h10.76c.23,0,.34,.15,.31,.38l-3.14,12.75-2.91,13.36c-.04,.23-.19,.31-.38,.31h-7.81c-.23,0-.34-.11-.31-.38l2.6-11.45,.04-.19,1.19-3.98-8.69,15.77c-.08,.15-.19,.23-.38,.23h-5.74c-.19,0-.31-.11-.34-.31l-1.88-15.51-.65,3.79-.04,.19-2.68,11.52h0Z"/><path class="cls-1" d="M167.57,436.38l1.15-4.79,2.3-10.64c.04-.23,.19-.31,.38-.31h7.73c.23,0,.34,.15,.31,.38l-2.6,10.34-1.15,5.09c-.8,3.45,.04,5.24,2.95,5.24,2.3,0,3.6-1.07,4.29-4.1l1.45-6.05,2.3-10.6c.04-.23,.19-.31,.38-.31h7.62c.23,0,.34,.15,.31,.38l-2.6,10.57-1.38,6.09c-1.61,6.89-5.32,10.45-12.86,10.45-8,0-12.33-4.36-10.57-11.75h0Z"/><path class="cls-1" d="M192.87,439.09c0-.23,.15-.34,.34-.34h7.81c.19,0,.34,.11,.34,.34,.11,1.76,1.76,3.1,4.94,3.1,1.99,0,3.68-.61,3.68-2.22,0-4.29-14.28-1.26-14.28-10.91,0-5.97,6.16-9.11,12.71-9.11s11.71,3.1,11.75,8.23c0,.23-.15,.34-.34,.34h-7.85c-.19,0-.34-.11-.34-.34-.19-1.34-1.61-2.18-3.83-2.18-1.76,0-3.52,.42-3.52,1.8,0,3.71,14.43,1.38,14.43,10.87,0,6.16-5.93,9.46-12.98,9.46s-12.86-3.37-12.86-9.03h0Z"/><path class="cls-1" d="M227.83,447.13c-.04,.23-.19,.31-.38,.31h-7.81c-.23,0-.34-.15-.31-.38l3.14-12.75,2.91-13.36c.04-.23,.19-.31,.38-.31h7.81c.23,0,.34,.15,.31,.38l-3.29,13.28-2.76,12.83h0Z"/><path class="cls-1" d="M233.45,435.84c0-8.15,5.97-15.89,15.85-15.89,6.97,0,11.29,3.79,11.79,10.11,.04,.23-.08,.34-.31,.34h-7.16c-.19,0-.34-.11-.38-.34-.34-2.76-2.03-3.94-4.4-3.94-5.4,0-7.01,6.36-7.01,9.99,0,4.13,2.07,5.86,4.9,5.86s4.29-1.72,5.09-3.9c.08-.19,.23-.27,.42-.27h7.31c.23,0,.34,.11,.31,.31-1.49,5.63-6.28,10.03-13.63,10.03s-12.79-4.4-12.79-12.29h.01Z"/><path class="cls-1" d="M279.59,447.17c-.08,.15-.19,.27-.38,.27h-8.61c-.19,0-.34-.15-.34-.34l.42-26.11c0-.19,.15-.34,.34-.34h7.01c.23,0,.31,.11,.31,.34l-.8,15.16,6.78-15.24c.08-.15,.19-.27,.38-.27h7.58c.19,0,.34,.15,.34,.34l-.04,15.2,6.05-15.28c.08-.15,.23-.27,.42-.27h7.77c.23,0,.38,.15,.27,.42l-11.71,26.11c-.08,.15-.19,.27-.38,.27h-8.61c-.19,0-.34-.15-.34-.34v-13.86l-6.43,13.94h-.03Z"/><path class="cls-1" d="M324.61,420.99l2.41,26.11c.04,.23-.08,.34-.31,.34h-7.43c-.19,0-.38-.15-.38-.34l-.31-5.17h-8.65l-2.68,5.25c-.08,.19-.19,.27-.38,.27h-8.5c-.27,0-.34-.19-.23-.42l14.85-26.15c.08-.15,.23-.23,.42-.23h10.8c.19,0,.38,.15,.38,.34h0Zm-7.01,5.74l-4.44,8.77h5.02l-.57-8.77h0Z"/><path class="cls-1" d="M328.32,439.09c0-.23,.15-.34,.34-.34h7.81c.19,0,.34,.11,.34,.34,.11,1.76,1.76,3.1,4.94,3.1,1.99,0,3.68-.61,3.68-2.22,0-4.29-14.28-1.26-14.28-10.91,0-5.97,6.16-9.11,12.71-9.11s11.71,3.1,11.75,8.23c0,.23-.15,.34-.34,.34h-7.85c-.19,0-.34-.11-.34-.34-.19-1.34-1.61-2.18-3.83-2.18-1.76,0-3.52,.42-3.52,1.8,0,3.71,14.43,1.38,14.43,10.87,0,6.16-5.93,9.46-12.98,9.46s-12.86-3.37-12.86-9.03h0Z"/><path class="cls-1" d="M376.44,430.25l2.03-9.3c.04-.23,.19-.31,.38-.31h7.96c.23,0,.34,.15,.31,.38l-3.22,12.86-2.83,13.25c-.04,.23-.19,.31-.38,.31h-7.96c-.23,0-.34-.15-.31-.38l2.64-10.87h-8.61l-2.41,10.95c-.04,.23-.19,.31-.38,.31h-7.96c-.23,0-.34-.15-.31-.38l3.29-13.17,2.76-12.94c.04-.23,.19-.31,.38-.31h7.96c.23,0,.34,.15,.31,.38l-2.26,9.23h8.61Z"/></g><path class="cls-1" d="M261.1,522.21c-69.74,0-135.31-27.16-184.63-76.48C27.16,396.42,0,330.85,0,261.1c0-24.77,3.46-49.27,10.29-72.83,.31-1.06,1.42-1.67,2.48-1.36,1.06,.31,1.67,1.42,1.36,2.48-6.73,23.2-10.14,47.33-10.14,71.72,0,68.68,26.74,133.24,75.3,181.8,48.56,48.56,113.12,75.3,181.8,75.3,74.41,0,145.13-32.22,194.02-88.4,.72-.83,1.99-.92,2.82-.2,.83,.73,.92,1.99,.2,2.82-49.65,57.06-121.47,89.78-197.04,89.78h0Z"/><path class="cls-1" d="M508.65,339.84c-.2,0-.4-.03-.59-.09-1.05-.33-1.65-1.45-1.32-2.5,7.61-24.56,11.46-50.18,11.46-76.15,0-68.67-26.74-133.24-75.3-181.8C394.34,30.74,329.78,4,261.1,4c-36.87,0-72.46,7.64-105.78,22.7-32.2,14.55-60.63,35.24-84.5,61.5-.74,.82-2.01,.88-2.83,.13-.82-.74-.88-2.01-.13-2.83,24.24-26.66,53.11-47.67,85.81-62.45C187.52,7.76,223.66,0,261.1,0c69.74,0,135.31,27.16,184.63,76.48,49.32,49.32,76.48,114.88,76.48,184.63,0,26.37-3.92,52.39-11.64,77.33-.27,.86-1.06,1.41-1.91,1.41h-.01Z"/><path class="cls-1" d="M46.98,141.54c-13.44,0-24.37-10.93-24.37-24.37s10.93-24.37,24.37-24.37,24.37,10.93,24.37,24.37-10.93,24.37-24.37,24.37Zm0-44.74c-11.23,0-20.37,9.14-20.37,20.37s9.14,20.37,20.37,20.37,20.37-9.14,20.37-20.37-9.14-20.37-20.37-20.37Z"/><path class="cls-1" d="M474.25,430.12c-13.44,0-24.37-10.93-24.37-24.37s10.93-24.37,24.37-24.37,24.37,10.93,24.37,24.37-10.93,24.37-24.37,24.37Zm0-44.74c-11.23,0-20.37,9.14-20.37,20.37s9.14,20.37,20.37,20.37,20.37-9.14,20.37-20.37-9.14-20.37-20.37-20.37Z"/><path class="cls-1" d="M24.61,181.49c-10.84,0-19.66-8.82-19.66-19.66s8.82-19.66,19.66-19.66,19.66,8.82,19.66,19.66-8.82,19.66-19.66,19.66Zm0-35.32c-8.63,0-15.66,7.02-15.66,15.66s7.02,15.66,15.66,15.66,15.66-7.02,15.66-15.66-7.02-15.66-15.66-15.66Z"/><path class="cls-1" d="M496.62,382.73c-10.84,0-19.66-8.82-19.66-19.66s8.82-19.66,19.66-19.66,19.66,8.82,19.66,19.66-8.82,19.66-19.66,19.66h0Zm0-35.32c-8.63,0-15.66,7.03-15.66,15.66s7.03,15.66,15.66,15.66,15.66-7.03,15.66-15.66-7.03-15.66-15.66-15.66h0Z"/><path class="cls-1" d="M221.18,470.89h-14.66c-1.1,0-2-.9-2-2s.9-2,2-2h14.66c1.1,0,2,.9,2,2s-.9,2-2,2Z"/><path class="cls-1" d="M310.78,471.05h-14.66c-1.1,0-2-.9-2-2s.9-2,2-2h14.66c1.1,0,2,.9,2,2s-.9,2-2,2Z"/></g></g></svg>