<?xml version="1.0" encoding="UTF-8"?><svg id="_レイヤー_2" xmlns="http://www.w3.org/2000/svg" width="537.39" height="58.88" xmlns:xlink="http://www.w3.org/1999/xlink" viewBox="0 0 537.39 58.88"><defs><style>.cls-1{fill:none;}.cls-2{clip-path:url(#clippath);}.cls-3{mask:url(#mask);}.cls-4{clip-path:url(#clippath-1);}.cls-5{clip-path:url(#clippath-4);}.cls-6{clip-path:url(#clippath-3);}.cls-7{clip-path:url(#clippath-2);}.cls-8{clip-path:url(#clippath-5);}.cls-9{fill:url(#_名称未設定グラデーション);}.cls-10{isolation:isolate;}</style><clipPath id="clippath"><rect class="cls-1" width="537.39" height="58.88"/></clipPath><clipPath id="clippath-1"><rect class="cls-1" width="537.39" height="58.88"/></clipPath><clipPath id="clippath-2"><rect class="cls-1" y="0" width="537.39" height="58.88"/></clipPath><clipPath id="clippath-3"><rect class="cls-1" y="0" width="537.39" height="58.88"/></clipPath><clipPath id="clippath-4"><path class="cls-1" d="M15.14,56.8c-.08,.48-.4,.64-.8,.64H.65c-.48,0-.72-.32-.64-.8L6.74,28.88,12.65,2.08c.08-.48,.4-.64,.8-.64h19.76c.4,0,.64,.24,.72,.64l4.08,32.8L56.26,1.92c.16-.32,.4-.48,.8-.48h22.48c.48,0,.72,.32,.64,.8l-6.56,26.64-6.08,27.92c-.08,.48-.4,.64-.8,.64h-16.32c-.48,0-.72-.24-.64-.8l5.44-23.92,.08-.4,2.48-8.32-18.16,32.96c-.16,.32-.4,.48-.8,.48h-12c-.4,0-.64-.24-.72-.64l-3.92-32.4-1.36,7.92-.08,.4-5.6,24.08Zm63.44-22.48l2.4-10,4.8-22.24c.08-.48,.4-.64,.8-.64h16.16c.48,0,.72,.32,.64,.8l-5.44,21.6-2.4,10.64c-1.68,7.2,.08,10.96,6.16,10.96,4.8,0,7.52-2.24,8.96-8.56l3.04-12.64,4.8-22.16c.08-.48,.4-.64,.8-.64h15.92c.48,0,.72,.32,.64,.8l-5.44,22.08-2.88,12.72c-3.36,14.4-11.12,21.84-26.88,21.84-16.72,0-25.76-9.12-22.08-24.56m52.88,5.68c0-.48,.32-.72,.72-.72h16.32c.4,0,.72,.24,.72,.72,.24,3.68,3.68,6.48,10.32,6.48,4.16,0,7.68-1.28,7.68-4.64,0-8.96-29.84-2.64-29.84-22.8C137.38,6.56,150.26,0,163.94,0s24.48,6.48,24.56,17.2c0,.48-.32,.72-.72,.72h-16.4c-.4,0-.72-.24-.72-.72-.4-2.8-3.36-4.56-8-4.56-3.68,0-7.36,.88-7.36,3.76,0,7.76,30.16,2.88,30.16,22.72,0,12.88-12.4,19.76-27.12,19.76s-26.88-7.04-26.88-18.88m73.04,16.8c-.08,.48-.4,.64-.8,.64h-16.32c-.48,0-.72-.32-.64-.8l6.56-26.64,6.08-27.92c.08-.48,.4-.64,.8-.64h16.32c.48,0,.72,.32,.64,.8l-6.88,27.76-5.76,26.8Zm11.76-23.6C216.25,16.16,228.73,0,249.38,0,263.93,0,272.98,7.92,274.02,21.12c.08,.48-.16,.72-.64,.72h-14.96c-.4,0-.72-.24-.8-.72-.72-5.76-4.24-8.24-9.2-8.24-11.28,0-14.64,13.28-14.64,20.88,0,8.64,4.32,12.24,10.24,12.24s8.96-3.6,10.64-8.16c.16-.4,.48-.56,.88-.56h15.28c.48,0,.72,.24,.64,.64-3.12,11.76-13.12,20.96-28.48,20.96s-26.72-9.2-26.72-25.68m96.4,23.68c-.16,.32-.4,.56-.8,.56h-18c-.4,0-.72-.32-.72-.72l.88-54.56c0-.4,.32-.72,.72-.72h14.64c.48,0,.64,.24,.64,.72l-1.68,31.68,14.16-31.84c.16-.32,.4-.56,.8-.56h15.84c.4,0,.72,.32,.72,.72l-.08,31.76,12.64-31.92c.16-.32,.48-.56,.88-.56h16.24c.48,0,.8,.32,.56,.88l-24.48,54.56c-.16,.32-.4,.56-.8,.56h-18c-.4,0-.72-.32-.72-.72V27.76l-13.44,29.12ZM406.73,2.16l5.04,54.56c.08,.48-.16,.72-.64,.72h-15.52c-.4,0-.8-.32-.8-.72l-.64-10.8h-18.08l-5.6,10.96c-.16,.4-.4,.56-.8,.56h-17.76c-.56,0-.72-.4-.48-.88L382.49,1.92c.16-.32,.48-.48,.88-.48h22.56c.4,0,.8,.32,.8,.72m-14.64,12l-9.28,18.32h10.48l-1.2-18.32Zm22.4,25.84c0-.48,.32-.72,.72-.72h16.32c.4,0,.72,.24,.72,.72,.24,3.68,3.68,6.48,10.32,6.48,4.16,0,7.68-1.28,7.68-4.64,0-8.96-29.84-2.64-29.84-22.8C420.41,6.56,433.29,0,446.97,0s24.48,6.48,24.56,17.2c0,.48-.32,.72-.72,.72h-16.4c-.4,0-.72-.24-.72-.72-.4-2.8-3.36-4.56-8-4.56-3.68,0-7.36,.88-7.36,3.76,0,7.76,30.16,2.88,30.16,22.72,0,12.88-12.4,19.76-27.12,19.76s-26.88-7.04-26.88-18.88m100.56-18.48l4.24-19.44c.08-.48,.4-.64,.8-.64h16.64c.48,0,.72,.32,.64,.8l-6.72,26.88-5.92,27.68c-.08,.48-.4,.64-.8,.64h-16.64c-.48,0-.72-.32-.64-.8l5.52-22.72h-18l-5.04,22.88c-.08,.48-.4,.64-.8,.64h-16.64c-.48,0-.72-.32-.64-.8l6.88-27.52,5.76-27.04c.08-.48,.4-.64,.8-.64h16.64c.48,0,.72,.32,.64,.8l-4.72,19.28h18Z"/></clipPath><linearGradient id="_名称未設定グラデーション" x1="-36.18" y1="-502.09" x2="-35.18" y2="-502.09" gradientTransform="translate(19443.5 -269786.89) scale(537.39 -537.39)" gradientUnits="userSpaceOnUse"><stop offset="0" stop-color="#fff"/><stop offset=".59" stop-color="#fff"/><stop offset=".69" stop-color="#fff"/><stop offset=".71" stop-color="#f3f3f3"/><stop offset=".77" stop-color="#d6d3d3"/><stop offset=".84" stop-color="#a5a19f"/><stop offset=".92" stop-color="#635b59"/><stop offset="1" stop-color="#231815"/></linearGradient><mask id="mask" x="-.07" y="0" width="537.52" height="58.88" maskUnits="userSpaceOnUse"><g class="cls-6"><rect x="-.06" y="0" width="537.52" height="58.88"/><g class="cls-10"><g class="cls-5"><rect class="cls-9" x="-.07" y="0" width="537.52" height="58.88"/></g></g></g></mask><clipPath id="clippath-5"><rect class="cls-1" y="0" width="537.39" height="58.88"/></clipPath></defs><g id="logo_white"><g id="_アートワーク_3"><g class="cls-2"><g class="cls-4"><g class="cls-7"><g class="cls-3"><g class="cls-8"><path d="M15.14,56.8c-.08,.48-.4,.64-.8,.64H.66c-.48,0-.72-.32-.64-.8L6.74,28.88,12.66,2.08c.08-.48,.4-.64,.8-.64h19.76c.4,0,.64,.24,.72,.64l4.08,32.8L56.26,1.92c.16-.32,.4-.48,.8-.48h22.48c.48,0,.72,.32,.64,.8l-6.56,26.64-6.08,27.92c-.08,.48-.4,.64-.8,.64h-16.32c-.48,0-.72-.24-.64-.8l5.44-23.92,.08-.4,2.48-8.32-18.16,32.96c-.16,.32-.4,.48-.8,.48h-12c-.4,0-.64-.24-.72-.64l-3.92-32.4-1.36,7.92-.08,.4-5.6,24.08Z"/><path d="M78.58,34.32l2.4-10,4.8-22.24c.08-.48,.4-.64,.8-.64h16.16c.48,0,.72,.32,.64,.8l-5.44,21.6-2.4,10.64c-1.68,7.2,.08,10.96,6.16,10.96,4.8,0,7.52-2.24,8.96-8.56l3.04-12.64,4.8-22.16c.08-.48,.4-.64,.8-.64h15.92c.48,0,.72,.32,.64,.8l-5.44,22.08-2.88,12.72c-3.36,14.4-11.12,21.84-26.88,21.84-16.72,0-25.76-9.12-22.08-24.56"/><path d="M131.46,40c0-.48,.32-.72,.72-.72h16.32c.4,0,.72,.24,.72,.72,.24,3.68,3.68,6.48,10.32,6.48,4.16,0,7.68-1.28,7.68-4.64,0-8.96-29.84-2.64-29.84-22.8C137.38,6.56,150.26,0,163.94,0s24.48,6.48,24.56,17.2c0,.48-.32,.72-.72,.72h-16.4c-.4,0-.72-.24-.72-.72-.4-2.8-3.36-4.56-8-4.56-3.68,0-7.36,.88-7.36,3.76,0,7.76,30.16,2.88,30.16,22.72,0,12.88-12.4,19.76-27.12,19.76s-26.88-7.04-26.88-18.88"/><path d="M204.49,56.8c-.08,.48-.4,.64-.8,.64h-16.32c-.48,0-.72-.32-.64-.8l6.56-26.64,6.08-27.92c.08-.48,.4-.64,.8-.64h16.32c.48,0,.72,.32,.64,.8l-6.88,27.76-5.76,26.8Z"/><path d="M216.25,33.2C216.25,16.16,228.73,0,249.38,0c14.56,0,23.6,7.92,24.64,21.12,.08,.48-.16,.72-.64,.72h-14.96c-.4,0-.72-.24-.8-.72-.72-5.76-4.24-8.24-9.2-8.24-11.28,0-14.64,13.28-14.64,20.88,0,8.64,4.32,12.24,10.24,12.24s8.96-3.6,10.64-8.16c.16-.4,.48-.56,.88-.56h15.28c.48,0,.72,.24,.64,.64-3.12,11.76-13.12,20.96-28.48,20.96s-26.72-9.2-26.72-25.68"/><path d="M312.65,56.88c-.16,.32-.4,.56-.8,.56h-18c-.4,0-.72-.32-.72-.72l.88-54.56c0-.4,.32-.72,.72-.72h14.64c.48,0,.64,.24,.64,.72l-1.68,31.68,14.16-31.84c.16-.32,.4-.56,.8-.56h15.84c.4,0,.72,.32,.72,.72l-.08,31.76,12.64-31.92c.16-.32,.48-.56,.88-.56h16.24c.48,0,.8,.32,.56,.88l-24.48,54.56c-.16,.32-.4,.56-.8,.56h-18c-.4,0-.72-.32-.72-.72V27.76l-13.44,29.12Z"/><path d="M406.73,2.16l5.04,54.56c.08,.48-.16,.72-.64,.72h-15.52c-.4,0-.8-.32-.8-.72l-.64-10.8h-18.08l-5.6,10.96c-.16,.4-.4,.56-.8,.56h-17.76c-.56,0-.72-.4-.48-.88L382.49,1.92c.16-.32,.48-.48,.88-.48h22.56c.4,0,.8,.32,.8,.72m-14.64,12l-9.28,18.32h10.48l-1.2-18.32Z"/><path d="M414.49,40c0-.48,.32-.72,.72-.72h16.32c.4,0,.72,.24,.72,.72,.24,3.68,3.68,6.48,10.32,6.48,4.16,0,7.68-1.28,7.68-4.64,0-8.96-29.84-2.64-29.84-22.8C420.41,6.56,433.29,0,446.97,0s24.48,6.48,24.56,17.2c0,.48-.32,.72-.72,.72h-16.4c-.4,0-.72-.24-.72-.72-.4-2.8-3.36-4.56-8-4.56-3.68,0-7.36,.88-7.36,3.76,0,7.76,30.16,2.88,30.16,22.72,0,12.88-12.4,19.76-27.12,19.76s-26.88-7.04-26.88-18.88"/><path d="M515.05,21.52l4.24-19.44c.08-.48,.4-.64,.8-.64h16.64c.48,0,.72,.32,.64,.8l-6.72,26.88-5.92,27.68c-.08,.48-.4,.64-.8,.64h-16.64c-.48,0-.72-.32-.64-.8l5.52-22.72h-18l-5.04,22.88c-.08,.48-.4,.64-.8,.64h-16.64c-.48,0-.72-.32-.64-.8l6.88-27.52,5.76-27.04c.08-.48,.4-.64,.8-.64h16.64c.48,0,.72,.32,.64,.8l-4.72,19.28h18Z"/></g></g></g></g></g></g></g></svg>