<?xml version="1.0" encoding="UTF-8"?><svg id="_レイヤー_2" xmlns="http://www.w3.org/2000/svg" width="482.09" height="55.37" viewBox="0 0 482.09 55.37"><defs><style>.cls-1{fill:#fff;}</style></defs><g id="_レイヤー_1-2"><g><path class="cls-1" d="M19.09,21.55c-1.62-2.76-2.4-5.64-2.22-8.76-4.86,1.68-8.28,2.82-10.5,3.3-2.16,.54-3.24,.54-3.3,.06-.06-.42-.06-.72,0-.84s1.68-.84,4.86-2.1c3.18-1.32,7.98-2.58,14.34-3.84-.3-.9-.54-1.86-.72-2.88-.18-.96-.48-1.86-1.14-2.76-.66-.84-.78-1.8-.42-2.82,.36-1.08,1.02-1.2,1.86-.36,.9,.78,1.38,1.68,1.44,2.64,.06,.9,.3,1.86,.72,2.82,.48,.9,1.08,1.68,1.8,2.34,4.98-.96,8.76-1.68,11.34-2.1,2.58-.36,3.96-.6,4.02-.6s.12,.3,.12,.78c0,.54-.84,1.08-2.46,1.5-1.68,.42-4.08,.96-7.32,1.68-.72,3.72-1.74,6.18-2.94,7.5-1.26,1.38-2.1,1.8-2.46,1.5-.42-.36-.48-.78-.18-1.26,.3-.48,.66-1.44,1.2-3,.54-1.5,.96-2.88,1.38-4.02-3.12,.24-6.18,.84-9.18,1.98l1.2,9.12c7.08-1.56,12.48-2.76,16.02-3.54,3.6-.84,5.7-1.32,6.3-1.38,.6-.06,1.02-.18,1.44-.3s.66,.06,.84,.48c.18,.42,.18,.9,.06,1.44-.12,.48-4.08,1.44-11.94,2.82-7.86,1.32-15.24,3.3-22.08,5.82C4.27,29.29,.73,30.49,.49,30.25s-.42-.54-.48-.9c-.06-.36,.06-.6,.48-.72,5.88-3,12.12-5.34,18.6-7.08Zm-2.76,32.34c-.42,1.14-.84,1.62-1.38,1.44-.54-.18-1.08-.72-1.86-1.62-.78-.84-1.5-3.3-2.16-7.38-.72-4.02-.9-7.44-.6-10.26,.3-2.88,.54-4.44,.6-4.62,.06-.18,.3-.3,.54-.3,.3,0,.66,.24,1.02,.66,.36,.42,.42,1.32,.18,2.52-.24,1.26-.24,2.88,0,4.92,.24,2.04,.54,4.38,.96,7.02,5.88-3.66,10.62-6.12,14.1-7.5,3.48-1.32,5.34-1.86,5.52-1.62,.18,.24,.42,.54,.6,.9,.12,.36,.12,.66-.12,1.08-.3,.42-2.46,1.32-6.6,2.76-4.08,1.5-8.4,3.84-13.08,7.08l.84,2.58,4.44-1.38c4.62-1.5,8.22-2.64,10.8-3.54,2.58-.84,4.08-.84,4.56,0,2.52-5.58,2.28-11.04-.6-16.38-4.62-.24-8.22,0-10.92,.78-2.7,.72-4.62,1.5-5.88,2.28-1.2,.72-1.98,1.5-2.34,2.22-.36,.66-.72,.9-1.08,.72-.42-.12-.6-.66-.54-1.56,.06-.9,.84-1.8,2.46-2.88,1.56-1.02,3.78-1.98,6.66-2.82,2.88-.78,5.7-1.2,8.58-1.26s4.68,.48,5.46,1.5c.84,1.08,1.68,2.7,2.46,4.98,.84,2.28,.36,5.94-1.38,10.92-1.74,4.98-3,7.26-3.66,6.72-.6-.54-.84-1.08-.54-1.86,.3-.78,.6-1.38,1.08-2.04-5.82,1.14-11.46,3-16.86,5.4l-1.26,.54Z"/><path class="cls-1" d="M59.17,12.61c1.62,.48,2.64,.78,3.24,.84,.54,.12,1.56,.24,3.06,.54,1.44,.3,2.46,.48,2.88,.54,.36,.06,.48,.42,.36,1.02-.18,.54-.66,.9-1.56,.96-.96,.06-1.92,.06-3.06-.06-1.08-.12-1.98-.24-2.64-.36-.6-.12-1.32-.3-2.22-.54-.84-.24-1.86-.6-2.88-1.08-.96-.42-1.38-1.02-1.2-1.86,1.08-.48,2.46-.48,4.02,0Zm.54,12.24c2.28-1.62,3.84-2.7,4.62-3.18,.78-.42,1.2-.18,1.32,.78,.06,1.02-1.38,2.52-4.38,4.56-2.94,2.1-4.68,2.58-5.22,1.44,.12-.72,1.38-1.92,3.66-3.6Zm9.84-13.62c-.66-.12-.66-.96,.06-2.64,.72-1.74,1.32-3,1.98-3.9l1.86-2.16c.3-.78,.72-1.2,1.2-1.26,.42-.06,.9,.06,1.32,.24,.42,.18,.6,.54,.42,.96-.18,.48-.72,1.14-1.68,1.98-.96,.9-1.8,2.4-2.64,4.56,.42,.78,.72,1.56,.84,2.34,4.56-4.68,9.9-6.78,16.02-6.24,.78,0,1.5,.36,2.1,1.02,.6,.6,.96,1.2,1.08,1.62,.12,.48,.24,1.86,.36,4.26s-.42,5.16-1.62,8.28c-1.26,3.12-2.1,4.62-2.46,4.44-.42-.18-.78-.54-1.08-1.14-1.44,.72-2.94,1.44-4.44,2.22,.18,.96,.3,2.4,.36,4.2,3.24-1.2,7.74-2.28,13.56-3.42,5.82-1.02,8.76-1.26,8.88-.66,.12,.6-.12,1.08-.66,1.38s-3.66,1.08-9.24,2.16c-5.7,1.14-9.84,2.22-12.36,3.3-.12,.6-.12,1.38-.06,2.4,.84,.18,1.32,.42,1.5,.72,.12,.3-.42,1.02-1.5,2.16-.06,1.02-.06,1.98,.06,2.88,4.38,1.74,8.76,3.48,13.26,5.28,4.44,1.86,6.9,2.82,7.44,3.12,.48,.3,.24,.84-.72,1.5-1.02,.6-1.74,.72-2.22,.3-.42-.36-2.82-1.5-7.2-3.3-4.38-1.8-7.92-3.18-10.56-4.02,0,3.18,0,5.46-.06,7.02-.06,1.44-.36,2.4-.84,2.88-.54,.48-1.14,.48-1.86,0-.78-.48-.96-1.02-.66-1.68,.3-.66,.6-1.2,.84-1.8v-7.5c-1.56-.6-1.62-1.38-.24-2.28v-.42c-3.54,3.54-6.48,6.54-8.76,9.12-2.28,2.64-3.54,4.02-3.84,4.2-.3,.18-.72,.06-1.14-.24-.48-.3,.6-2.04,3.12-5.28,2.52-3.18,6.06-6.9,10.62-11.22v-3c-9,2.7-14.64,4.74-16.92,6-2.28,1.32-3.9,1.5-4.86,.6-.9-.9,.06-1.86,3.06-2.94,3-1.02,9.12-3.12,18.54-6.3-.12-1.5-.18-2.7-.24-3.72-1.02,.48-1.92,.96-2.94,1.44-.42,.12-.84,.12-1.26,.06-.42-.06-.66-.36-.66-.96s.3-1.02,.9-1.32c-3.12-4.2-4.98-9.12-5.4-14.7-.18-.24-.6-.42-1.26-.54Zm5.4,7.8c3.3-2.46,6.72-4.56,10.32-6.3,.6-.36,1.2-.66,1.98-.84,.78-.18,1.32-.06,1.74,.24,.42,.3,.6,.66,.6,1.08s-.06,.78-.24,1.08c-.18,.36-.48,.54-.84,.54s-1.62,.36-3.78,1.02c-2.16,.66-5.16,2.52-8.88,5.4,.18,1.26,.96,2.58,2.22,4.2,.72-.36,2.16-1.02,4.14-1.92,1.92-.9,3.9-1.92,5.88-2.94,1.56-3.78,2.28-7.56,1.98-11.46-.24-.48-1.26-.9-3-1.38-1.74-.48-4.14-.12-7.14,1.02-3.24,1.92-5.4,3.66-6.48,5.28,.24,1.68,.72,3.3,1.5,4.98Zm20.82-1.74c.42-.06,1.56,.06,3.24,.48,1.74,.42,3.9,.84,6.54,1.08,2.64,.36,3.72,.84,3.42,1.5-.3,.66-1.74,.84-4.26,.72-2.58-.12-4.32-.3-5.28-.6-.96-.24-1.98-.54-3.12-.9-1.08-.36-1.56-.96-1.38-1.74,.06-.24,.36-.42,.84-.54Zm8.22-12.84c-.96,.66-2.04,1.56-3.12,2.64-1.2,1.2-1.98,2.16-2.4,3.06-.36,.9-1.02,.96-1.92,.24-.84-.72-.06-2.52,2.58-5.52,2.64-3,4.32-3.9,5.16-2.82,.78,1.02,.66,1.74-.3,2.4Z"/><path class="cls-1" d="M134.17,38.83c-.42-.6,.42-3.12,2.4-7.68,1.92-4.5,4.14-9.06,6.42-13.68,2.28-4.62,3.18-7.14,2.76-7.62-.48-.48-3.06-.12-7.8,1.02-4.74,1.14-9,3-12.72,5.64-3.78,2.64-5.82,4.02-6.12,4.02s-.6-.18-.78-.48-.18-.9,0-1.62c.18-.78,.6-1.26,1.14-1.5,.54-.18,2.58-1.38,6.18-3.66,3.54-2.22,9.72-4.38,18.42-6.36,1.56,.18,2.58,.6,3.12,1.26,.54,.6,.9,1.62,1.02,2.94,.12,1.26-.12,2.58-.78,4.08-.66,1.44-1.86,3.84-3.72,7.08-1.8,3.3-4.2,8.58-7.14,15.9,3.96,3.42,7.14,5.46,9.66,6.12,2.46,.66,3.9,1.2,4.26,1.5,.24,.3,.18,.78-.36,1.32s-2.1,.48-4.62-.3c-2.52-.72-5.76-2.7-9.6-6-.78-.66-1.38-1.32-1.74-1.98Zm18.84-19.92c.42,1.08,.84,1.98,1.2,2.64,.3,.72,.6,1.38,.9,1.98,.24,.54,.12,.96-.36,1.14-.48,.24-.96,.3-1.44,.18-.42-.12-1.02-1.02-1.8-2.58-.78-1.56-1.14-3.12-1.14-4.68-.06-1.5,0-2.46,.12-2.82,.12-.3,.6-.42,1.5-.36s1.2,.78,.78,1.98c-.3,.66-.24,1.56,.24,2.52Zm7.92,3c.24,0,.36,.3,.36,.9s-.54,.84-1.5,.78c-1.08,0-1.86-1.26-2.4-3.9-.54-2.64-.66-4.8-.36-6.54,.3-1.8,.96-2.58,1.8-2.4,.9,.18,1.14,.6,.84,1.38-.54,3.06-.18,6.36,.96,9.78h.3Z"/><path class="cls-1" d="M172.63,30.25c-.3-4.98-.48-7.74-.48-8.22s.18-.9,.6-1.32,.78-.6,1.14-.48c.36,.12,.54,.6,.54,1.32,0,.78,.18,2.94,.54,6.54,.3,3.54,.66,6.42,1.02,8.7,.3,2.28,.3,3.6-.06,3.96-.42,.36-.66,.42-.84,.3-1.32-2.22-2.16-5.82-2.46-10.8Zm9.24-1.44c-.36-4.2-.36-6.3,.06-6.3s.96,.3,1.62,.9c.6,.54,.84,1.98,.72,4.26s.3,4.5,1.2,6.78c1.44,2.88,2.82,4.74,4.08,5.64,1.26,.9,3.72,.72,7.26-.54,3.6-1.2,8.4-5.28,14.34-12.12-1.2-.3-1.68-1.02-1.5-2.1,.18-1.14,.72-1.68,1.68-1.68s1.8-.06,2.46-.12c.6-.12,.9,.42,.78,1.74-.12,1.26-2.52,4.44-7.26,9.48-4.74,5.04-9,7.86-12.84,8.46-3.78,.54-7.14-.9-10.02-4.44-1.32-2.4-2.22-5.7-2.58-9.96Zm17.1-17.52c.66,.36,1.08,.96,1.14,1.74,.06,.72,.6,2.46,1.56,5.1,1.02,2.64,1.92,3.96,2.76,4.14,.84,.18,1.32,.48,1.38,.9,.06,.42-.18,.84-.72,1.32s-.96,.78-1.26,.9c-.24,.12-1.26-.72-2.88-2.46-1.74-1.8-2.88-5.4-3.54-10.86,.42-.9,.96-1.08,1.56-.78Zm23.1,21.9c-.66,.9-1.08,.9-1.44,0-.42-.96-.66-3.18-.72-6.72-.06-3.48-.3-6.42-.6-8.7-.36-2.28-.48-3.66-.42-4.08,.06-.36,.42-.6,1.02-.78s.96,0,1.14,.42c.18,.36,.3,1.56,.54,3.48,.24,1.92,.54,5.22,.9,9.9,.36,3.36,.24,5.52-.42,6.48Z"/><path class="cls-1" d="M275.17,20.11c2.1,7.74,1.5,13.98-1.8,18.84-3.36,4.86-5.22,7.32-5.76,7.26-.54-.06-.9-.42-1.14-1.2-.24-.78,.42-1.92,1.92-3.48,1.44-1.5,2.94-4.14,4.44-7.92,1.44-3.84,1.38-8.1-.12-12.84-1.62-4.74-3.48-7.56-5.76-8.52-2.28-.9-4.44-1.08-6.48-.48,.48,.54,.48,1.68,.12,3.48-.48,1.8-2.22,6.48-5.22,14.16-3.06,7.68-6.06,12.06-9,13.2-3,1.08-4.86,1.62-5.64,1.44-.9-.12-1.92-1.2-3.06-3.36-1.2-2.1-1.38-5.28-.48-9.48,3.78-12.84,12.12-20.28,24.9-22.38,6.54-.18,10.92,3.6,13.08,11.28Zm-33.96,7.5c-2.52,6.48-2.46,11.16,.18,14.04,2.82-.54,4.98-1.8,6.6-3.96,1.5-2.1,3.24-5.34,5.34-9.72,2.04-4.38,3.72-9.72,5.1-16.2-8.94,4.08-14.7,9.36-17.22,15.84Z"/><path class="cls-1" d="M297.19,32.89c-2.16,1.74-3.96,3.12-5.34,4.08-1.32,1.02-2.22,1.32-2.58,1.02-.36-.3-.42-.6-.24-1.02,.18-.42,1.02-1.26,2.7-2.64,1.68-1.32,3.3-2.76,4.98-4.14,1.68-1.38,2.64-2.1,3.06-2.28,.42-.12,.6,.24,.54,1.08,.12,.84-.96,2.1-3.12,3.9Zm-5.22-16.14c1.68-1.26,3.48-2.22,5.4-2.88,1.92-.6,3.18-.84,3.72-.66,.48,.18,.48,.66,.06,1.5s-.9,1.32-1.38,1.38c-.54,.18-.78,.12-.9-.12-.18-.24-.96-.06-2.4,.42-1.5,.54-2.76,1.38-3.9,2.46-1.08,1.14-1.8,1.74-2.1,1.8-.3,.12-.6,0-.84-.3-.3-.3-.42-.66-.54-1.02,.24-.42,1.2-1.2,2.88-2.58Zm9.9,23.76c.06,.66-.72,1.74-2.4,3.12-1.62,1.44-3.24,2.7-4.98,3.9-1.68,1.14-2.7,1.8-2.94,1.92-.3,.12-.6-.18-.9-.84-.3-.6,.48-1.62,2.28-2.94,1.8-1.32,3.48-2.58,5.04-3.84,1.5-1.2,2.58-1.98,3.18-2.28,.42-.06,.66,.24,.72,.96Zm17.58-33.78c-.06,.54-.12,1.26-.18,2.16-.06,.96-.12,1.86-.12,2.64,0,.84,0,2.04-.06,3.6,2.28-.9,4.68-1.86,7.32-2.94,2.64-1.02,3.96-1.62,4.14-1.8,.12-.18,.3,.06,.48,.66s.18,1.14,0,1.62c-.24,.54-.9,1.2-1.86,2.22-1.02,1.02-1.68,1.2-1.92,.84-.24-.42-.3-.96-.12-1.5-2.94,1.14-5.64,2.16-8.16,3.18-.12,2.88-.12,4.98,0,6.3,.12,1.38,.24,2.58,.36,3.6,.12,1.08,.18,1.8,.24,2.34,3.66-1.68,7.74-3.42,12.3-5.04,4.62-1.62,7.08-2.28,7.38-1.98,.3,.36,.36,.84,.06,1.38-.24,.6-2.76,1.68-7.56,3.24s-8.46,3.06-11.04,4.38c.66,1.14,.9,2.34,.72,3.78-.24,1.38-.12,3.72,.36,7.02,.48,3.36,1.56,5.04,3.18,5.16,1.68,.12,4.8-.96,9.48-3.12,4.68-2.16,7.14-2.82,7.32-1.86,.24,.96-1.8,2.22-6.06,3.78l-8.82,3.84c-2.52,.9-4.5,.3-5.82-1.92-2.4-4.98-3.06-10.08-1.92-15.3-3.3,5.46-5.4,9.72-6.42,12.84-1.02,3.12-1.8,5.04-2.52,5.58-.72,.6-1.14,.6-1.32,.06-.24-.48,.12-2.28,1.02-5.16,.9-2.82,2.64-6.66,5.28-11.4-2.16,.9-4.56,1.74-7.08,2.76-2.58,.96-3.9,1.14-4.02,.54-.12-.66,1.02-1.56,3.54-2.76,2.46-1.2,4.02-1.92,4.5-2.22,.54-.3,2.22-1.14,5.1-2.46-.06-.6-.24-2.4-.48-5.52-.18-3.12-.3-5.34-.36-6.78-3.6,1.38-6.36,2.64-8.4,3.66-.24,1.02-.3,2.1-.24,3.48,.06,1.32-.24,2.04-1.02,2.22-.72,.18-1.26-.18-1.56-1.08-.36-.84-.24-2.16,.36-3.84,.96-6,1.74-9.6,2.4-10.86,.66-1.2,1.08-1.98,1.26-2.4,.12-.42,.42-.54,.84-.48,.36,.06,.72,.18,1.14,.36,.36,.18,.36,.54,.06,1.08-.3,.54-.6,1.02-.78,1.44-.18,.42-.84,2.82-1.86,7.2,2.88-1.08,5.46-2.16,7.74-3.06,0-.42,.06-1.2,.12-2.22,.06-.96,.06-3.12,.12-6.48s.48-4.8,1.38-4.38c.9,.42,1.32,1.02,1.32,2.04,.18,.6,.24,1.08,.18,1.56Z"/><path class="cls-1" d="M356.41,30.61c-2.46,1.86-4.44,3.3-5.94,4.32-1.56,1.08-2.52,1.38-2.94,1.14-.42-.3-.54-.72-.36-1.14,.18-.42,1.26-1.32,3.12-2.76s3.72-2.94,5.64-4.38c1.86-1.5,3-2.22,3.42-2.4s.6,.24,.54,1.14c.18,.9-1.02,2.22-3.48,4.08Zm-5.82-17.04c1.8-1.38,3.84-2.46,6-3.06,2.22-.66,3.6-.9,4.14-.72,.54,.18,.6,.72,.12,1.56-.48,.9-1.02,1.44-1.56,1.56-.48,.18-.84,.12-1.02-.18-.18-.3-1.08-.12-2.7,.48-1.68,.54-3.12,1.44-4.32,2.58-1.26,1.14-2.1,1.8-2.4,1.86-.24,.12-.6,0-.9-.3s-.54-.66-.6-1.08c.3-.36,1.44-1.32,3.24-2.7Zm11.04,25.08c.06,.78-.78,1.98-2.64,3.42-1.8,1.5-3.66,2.88-5.52,4.08-1.92,1.26-3,1.98-3.36,2.1-.36,.18-.72-.12-1.08-.9-.3-.72,.48-1.74,2.52-3.18,2.1-1.32,3.96-2.7,5.7-4.02,1.74-1.32,2.94-2.1,3.6-2.4,.48-.12,.72,.18,.78,.9Zm10.62-27.54c2.22-1.26,3.54-1.8,3.96-1.62,.42,.24,.78,.66,1.02,1.2,.24,.54,.3,1.02,.12,1.38-.18,.36-.48,.48-1.02,.42-.48-.06-.78-.06-.96,0-.18,.06-1.26,.54-3.18,1.38-1.92,.9-3.66,1.8-5.22,2.7-1.5,1.02-2.58,1.38-3.18,1.14-.54-.18-.48-.96,.18-2.16,3.3-1.74,6.06-3.24,8.28-4.44Zm4.38,4.68c1.2-1.62,1.38-4.14,.6-7.56-.42-1.44-1.32-2.1-2.88-1.98-1.5,.18-2.52,.36-3,.54-.42,.24-1.74,.72-3.9,1.38-2.16,.6-3.42,.78-3.66,.42-.3-.36-.3-.72,.06-1.14,.42-.36,1.56-.96,3.42-1.74,1.86-.84,4.26-1.44,7.26-1.86,2.1,.06,3.72,1.08,4.8,3,.78,3.6,.9,6.12,.24,7.56,.48,.3,.66,.6,.54,1.02-.12,.42-.48,.9-1.14,1.5-.24,1.68-.54,2.58-.78,2.64-.24,.06-.66,.12-1.32,.18-.6,.06-.84-.18-.78-.72-.78,.42-2.28,1.26-4.5,2.4-2.16,1.2-4.08,2.16-5.64,2.88-1.62,.78-2.34,.12-2.28-1.8,4.86-1.44,9.18-3.72,12.96-6.72Zm-2.94,10.08c-.36,.78-1.02,2.16-1.92,3.96-.84,1.86-1.5,3.78-1.8,5.76-.3,1.92-.6,3.18-.9,3.78-.24,.6-.54,.6-.96-.06s-.6-1.38-.6-2.4v-1.38c.66-3.42,1.26-5.82,1.86-7.14,.66-1.38,1.32-2.64,1.98-3.96,.72-1.26,1.5-1.5,2.28-.72,.36,.66,.36,1.38,.06,2.16Zm10.02,2.64c.06-1.26-.06-2.34-.48-3.24s-.72-1.68-.9-2.22c-.18-.6,0-1.2,.66-1.74,.66-.48,1.02-.6,1.32-.3,.3,.24,.54,.78,.84,1.44,.3,.72,.48,1.56,.66,2.58,.18,1.02,.18,1.92,.12,2.76,4.26-1.02,7.32-1.14,9-.36,1.68,.78,1.56,1.26-.48,1.5-2.04,.3-5.04,.84-9,1.74-.18,1.26-.3,2.82-.36,4.5,4.5-.96,7.38-1.56,8.52-1.68,1.08-.18,1.74-.12,1.92,.12,.18,.3,.18,.84,0,1.62-.18,.78-.84,1.02-2.04,.96-1.26-.06-4.02,.48-8.4,1.56-.24,1.14-.42,2.22-.48,3.18,4.5-1.38,7.38-1.98,8.58-1.86,1.14,.18,1.86,.66,2.04,1.56,.18,.84-.06,1.32-.72,1.26-.66,0-1.14,0-1.44-.06-.3-.06-1.62,.18-3.78,.6-2.16,.48-3.78,.9-4.8,1.2-.3,2.04-.36,3.36-.12,4.14,5.4-1.32,8.88-2.04,10.44-2.22s2.52-.24,2.88-.06,.42,.6,.12,1.2c-.3,.66-2.76,1.38-7.38,2.22-4.62,.9-8.34,1.98-11.1,3.3-2.76,1.38-4.38,1.8-4.92,1.5-.54-.24-.72-.72-.6-1.26,.06-.6,.48-1.02,1.2-1.26,.72-.18,3.06-1.02,7.02-2.52-.06-1.8-.12-2.94-.12-3.6-1.38,.54-2.94,1.02-4.62,1.68-1.68,.66-2.76,.84-3.18,.54-.36-.3-.48-.78-.24-1.5,.3-.72,.84-1.14,1.68-1.32,.78-.12,3.06-.84,6.6-2.22,.18-1.56,.3-2.76,.36-3.48-3.72,1.26-6,2.1-6.84,2.46-.9,.42-1.56,.48-1.92,.18-.42-.3-.48-.72-.3-1.26,.18-.54,.6-1.02,1.38-1.44,.78-.36,3.36-1.2,7.8-2.58,.18-1.62,.3-3.06,.48-4.44-4.02,1.38-7.14,2.64-9.48,3.78-.66,5.22-.72,9-.3,11.52s.48,4.08,.3,4.56c-.24,.48-.66,.66-1.32,.48-.66-.18-1.02-1.2-1.32-3.36-.3-2.04-.36-4.86-.3-8.4,.06-3.6,.24-6,.42-7.14,.18-1.2,.3-1.92,.48-2.16,.18-.3,.54-.54,1.14-.72s.96,.12,1.02,.78c.06,.66,.06,1.2,0,1.62,2.1-1.38,5.4-2.7,9.96-4.14Zm6.12-20.58c2.28-1.2,3.72-1.74,4.14-1.56,.42,.24,.72,.66,.96,1.26,.24,.6,.3,1.02,.18,1.32-.12,.36-.48,.48-1.02,.36-.48-.06-.9-.06-1.08,0-.18,.06-1.32,.54-3.3,1.38-1.98,.84-3.72,1.68-5.34,2.58-1.56,.84-2.64,1.2-3.18,.9-.6-.24-.48-.9,.36-2.1,3.24-1.56,6-3,8.28-4.14Zm-8.94,11.1c4.92-1.2,9.36-3.36,13.32-6.36,1.2-1.56,1.44-4.08,.72-7.62-.42-1.38-1.26-1.98-2.76-1.92-1.44,.06-2.46,.24-3.06,.42-.54,.12-1.92,.54-4.02,1.08-2.1,.6-3.36,.72-3.66,.36-.24-.36-.24-.72,.12-1.14,.42-.3,1.56-.9,3.48-1.68,1.92-.78,4.38-1.2,7.44-1.5,2.1,.12,3.66,1.14,4.56,3.18,.72,3.6,.78,6.18,.12,7.74,.48,.24,.66,.54,.48,.9-.18,.42-.54,.9-1.2,1.44-.36,1.74-.66,2.58-.9,2.64-.24,.12-.72,.18-1.38,.12-.6,0-.9-.24-.72-.72-3.24,1.74-5.88,3.06-7.98,3.96l-2.1,.9c-1.74,.36-2.52-.18-2.46-1.8Z"/><path class="cls-1" d="M449.29,42.43c-.3,.42-2.04,1.62-4.98,3.66-3.06,2.04-6.24,3.18-9.6,3.48-3.3,.3-5.28,.24-6-.3-.78-.48-1.68-1.62-2.88-3.48-1.2-1.92-.9-5.7,.84-11.4-1.8-.78-3.36-2.64-4.8-5.52-1.5-2.82-1.26-7.02,.66-12.36-3,1.02-5.28,1.92-6.66,2.58-1.38,.72-2.4,.72-2.94-.06-.54-.72,.24-1.5,2.28-2.34,2.04-.72,4.8-1.74,8.28-2.94,1.62-3.66,3.12-6.06,4.44-7.26,1.32-1.08,2.16-1.62,2.64-1.5,.48,.18,.78,.42,.9,.72,.12,.36-.24,.96-1.02,1.92-.78,.96-1.8,2.46-3.06,4.56,4.86-2.04,8.52-3.6,10.98-4.8,2.46-1.14,3.78-1.26,4.08-.48,.24,.9-.24,1.56-1.32,2.04-1.2,.54-1.98,1.08-2.46,1.68-.54,.6-.96,.78-1.32,.54-.36-.18-1.56,0-3.6,.72-2.04,.72-4.5,1.8-7.44,3.3-.78,.78-1.56,3.12-2.4,7.14-.9,4.02,.48,7.14,4.02,9.42,2.1-2.94,4.2-5.04,6.24-6.3,2.04-1.26,3.84-1.92,5.52-2.04,1.68-.06,2.46,.18,2.52,.66,.06,.6-.12,1.38-.66,2.34-.54,1.02-1.68,2.22-3.48,3.84-1.8,1.56-4.26,2.7-7.38,3.42-2.52,3.42-3.18,7.32-1.8,11.64,.66,1.38,1.98,2.1,3.9,2.1,4.38-.72,7.5-1.68,9.36-3,1.8-1.26,2.7-2.1,2.7-2.52,0-.36,.36-.66,1.08-.84,.72-.24,1.38-.3,2.16-.12,1.08,.6,1.5,1.08,1.2,1.5Zm-16.02-12.24c2.16-1.02,3.9-2.28,5.34-3.84-2.4,.54-4.2,1.86-5.34,3.84Z"/><path class="cls-1" d="M467.35,49.57c-.96-1.68-.84-3.54,.36-5.64,1.26-1.98,3.06-3.48,5.58-4.62,2.52-1.08,4.92-.72,7.32,1.02,1.32,1.68,1.74,3.72,1.32,6.12-2.76,5.46-6.24,7.68-10.62,6.78-1.68-.72-2.94-1.98-3.96-3.66Zm5.64,1.38c1.02,.06,1.98-.24,3.12-1.02,1.02-.84,2.04-1.86,2.94-3.3,.84-1.38,.9-2.82,.24-4.14-.6-1.38-1.74-1.8-3.18-1.32-1.56,.54-3.06,1.38-4.5,2.58-1.56,1.26-2.28,2.76-2.1,4.74,1.38,1.5,2.46,2.34,3.48,2.46Z"/></g></g></svg>