<?xml version="1.0" encoding="UTF-8"?><svg id="_レイヤー_2" xmlns="http://www.w3.org/2000/svg" width="239.05" height="130.95" viewBox="0 0 239.05 130.95"><defs><style>.cls-1{fill:#028038;}.cls-2{fill:#f5f5f5;}.cls-3{fill:#fe1818;}.cls-4{fill:#c9e166;}.cls-5{fill:#252525;}.cls-6{fill:#292929;}.cls-7{fill:#2b2b2b;}.cls-8{fill:#2c2c2c;}.cls-9{fill:#272727;}</style></defs><g id="_レイヤー_1-2"><path class="cls-9" d="M107.32,82.86v43.36h-8.7v-20.27c-2.71,1.01-4.94,1.85-7.46,2.8-.83-8.26-1.64-16.35-2.45-24.43-.16,.01-.33,.02-.49,.03-.61,7.03-1.02,14.08-1.87,21.08-1.35,11.08-6.4,18.65-15.83,24.28-.84-.75-1.73-1.56-2.97-2.67,11.37-10.91,10.46-25.29,11.25-39.11,.39-6.83,.07-13.69,.07-20.72h9.03v15.2c3.51-2.23,4.44-.09,5.25,2.5,1.54,4.97,3.19,9.9,5.17,14.88v-31.03h9.03v12.88c0,.41,0,.82-.01,1.23Z"/><path class="cls-1" d="M189.78,0c1.85,.54,3.23,.68,4.34,1.31,10.73,6.11,21.42,12.28,32.1,18.49,3.2,1.86,3.16,3.74-.08,5.67-10.5,6.26-21.01,12.51-31.53,18.73-4.22,2.49-5.07,1.98-5.08-2.97-.01-12.25-.01-24.49,0-36.74,0-1.23,.13-2.45,.25-4.49Z"/><path class="cls-3" d="M185.61,72.49c-10.58-2.69-20.71-5.27-30.85-7.85-2.65-.68-5.35-1.21-7.95-2.07-2.19-.73-3.1-2.08-1.06-4.12,9.45-9.43,18.89-18.88,28.32-28.33,2.05-2.06,3.38-1.19,4.01,1.1,3.47,12.6,6.89,25.22,10.21,37.86,.61,2.34-.77,3.46-2.69,3.41Z"/><path class="cls-4" d="M239.05,79.66c-1.88,.84-3.14,1.59-4.49,1.96-11.52,3.17-23.05,6.29-34.6,9.36-4.35,1.16-5.69-.17-4.6-4.53,2.93-11.71,5.91-23.41,8.91-35.1,1.09-4.25,2.3-4.6,5.3-1.6,9.01,8.99,17.99,18,26.98,27.02,.69,.69,1.28,1.48,2.51,2.89Z"/><path class="cls-8" d="M107.32,82.86c0-.41,0-.82,.01-1.23,1.31-.26,2.62-.52,4.58-.91,2.1,5.58,4.26,11.31,6.83,18.12v-31.62h9.22v62.05h-9.05v-24.06c-2.51,1.05-4.52,1.9-6.93,2.91-.8-5.88-1.46-11.64-2.41-17.34-.45-2.69-1.48-5.28-2.24-7.91Z"/><path class="cls-5" d="M11.68,66.07c2.72,.63,5.96,1.39,9.39,2.19-.37,1.23-.57,2.33-1.03,3.31-3.61,7.74-4.47,15.85-4.17,24.34,.38,11.08,.09,22.18,.09,33.53H7.36v-30.23c-2.05,2.46-3.43,4.12-4.96,5.96-1.01-.74-1.88-1.38-2.4-1.77,3.92-12.54,7.76-24.82,11.68-37.32Z"/><path class="cls-6" d="M59.9,127.14H22.22v-18.54H59.9v18.54Zm-9.29-4.25v-10.18H31.57v10.18h19.04Z"/><path class="cls-7" d="M192.5,100.24c-4.16,10.29-8.29,20.5-12.42,30.71h-5.1c-4.08-10.09-8.2-20.29-12.34-30.53,6.46-1.68,6.94-1.44,9.24,4.29,2.32,5.77,4.65,11.54,7.26,18,.85-1.85,1.52-3.19,2.09-4.57,2.13-5.18,4.33-10.33,6.28-15.57,.9-2.42,2.12-3.46,4.99-2.32Z"/><path class="cls-7" d="M151.14,130.91h-7.06v-27.71h-10.19v-3.41c8.68,0,17.26-.06,25.83,.11,.7,.01,1.38,1.56,2.73,3.2h-11.31v27.81Z"/><path class="cls-7" d="M63.71,79.27v4.14H19.17v-4.14H63.71Z"/><path class="cls-6" d="M72.48,109.01c-1.77-1.85-3.54-3.56-5.12-5.42-.45-.54-.64-1.57-.51-2.29,1.24-6.69,2.58-13.36,3.95-20.38h4.1c1.72,7.01,.45,23.02-2.42,28.1Z"/><path class="cls-7" d="M24.09,73.73v-4.25H58.55v4.25H24.09Z"/><path class="cls-9" d="M58.57,89.09v4.11H23.49v-4.11H58.57Z"/><path class="cls-5" d="M58.57,98.87v4.11H23.48v-4.11H58.57Z"/><path class="cls-2" d="M50.6,122.88H31.57v-10.18h19.04v10.18Z"/></g></svg>