<?xml version="1.0" encoding="UTF-8"?><svg id="_レイヤー_2" xmlns="http://www.w3.org/2000/svg" width="211.27" height="575.92" xmlns:xlink="http://www.w3.org/1999/xlink" viewBox="0 0 211.27 575.92"><defs><style>.cls-1{mask:url(#mask);}.cls-2{fill:#fff;}.cls-3,.cls-4{fill:#52b0d9;}.cls-5{fill:#3d3d3d;}.cls-6{fill:url(#_名称未設定グラデーション_13);}.cls-4{fill-rule:evenodd;}</style><linearGradient id="_名称未設定グラデーション_13" x1="66.7" y1="294.59" x2="143.05" y2="294.59" gradientUnits="userSpaceOnUse"><stop offset="0" stop-color="#fff"/><stop offset=".59" stop-color="#fff"/><stop offset=".69" stop-color="#fff"/><stop offset=".71" stop-color="#f3f3f3"/><stop offset=".76" stop-color="#d3d3d3"/><stop offset=".83" stop-color="#9f9f9f"/><stop offset=".91" stop-color="#585858"/><stop offset="1" stop-color="#000"/></linearGradient><mask id="mask" x="66.7" y="290.4" width="76.35" height="8.37" maskUnits="userSpaceOnUse"><path class="cls-6" d="M68.85,298.47c-.01,.07-.06,.09-.11,.09h-1.94c-.07,0-.1-.05-.09-.11l.95-3.94,.84-3.81c.01-.07,.06-.09,.11-.09h2.81c.06,0,.09,.03,.1,.09l.58,4.66,2.59-4.68s.06-.07,.11-.07h3.19c.07,0,.1,.05,.09,.11l-.93,3.79-.86,3.97c-.01,.07-.06,.09-.11,.09h-2.32c-.07,0-.1-.03-.09-.11l.77-3.4v-.06s.36-1.18,.36-1.18l-2.58,4.68s-.06,.07-.11,.07h-1.7c-.06,0-.09-.03-.1-.09l-.56-4.6-.19,1.13v.06s-.81,3.42-.81,3.42Zm9.01-3.19l.34-1.42,.68-3.16c.01-.07,.06-.09,.11-.09h2.3c.07,0,.1,.05,.09,.11l-.77,3.07-.34,1.51c-.24,1.02,.01,1.56,.88,1.56,.68,0,1.07-.32,1.27-1.22l.43-1.8,.68-3.15c.01-.07,.06-.09,.11-.09h2.26c.07,0,.1,.05,.09,.11l-.77,3.14-.41,1.81c-.48,2.05-1.58,3.1-3.82,3.1-2.38,0-3.66-1.3-3.14-3.49Zm7.51,.81c0-.07,.05-.1,.1-.1h2.32c.06,0,.1,.03,.1,.1,.03,.52,.52,.92,1.47,.92,.59,0,1.09-.18,1.09-.66,0-1.27-4.24-.38-4.24-3.24,0-1.77,1.83-2.71,3.77-2.71s3.48,.92,3.49,2.44c0,.07-.05,.1-.1,.1h-2.33c-.06,0-.1-.03-.1-.1-.06-.4-.48-.65-1.14-.65-.52,0-1.05,.13-1.05,.53,0,1.1,4.29,.41,4.29,3.23,0,1.83-1.76,2.81-3.85,2.81s-3.82-1-3.82-2.68Zm10.38,2.39c-.01,.07-.06,.09-.11,.09h-2.32c-.07,0-.1-.05-.09-.11l.93-3.79,.86-3.97c.01-.07,.06-.09,.11-.09h2.32c.07,0,.1,.05,.09,.11l-.98,3.94-.82,3.81Zm1.67-3.35c0-2.42,1.77-4.72,4.71-4.72,2.07,0,3.35,1.13,3.5,3,.01,.07-.02,.1-.09,.1h-2.13c-.06,0-.1-.03-.11-.1-.1-.82-.6-1.17-1.31-1.17-1.6,0-2.08,1.89-2.08,2.97,0,1.23,.61,1.74,1.45,1.74s1.27-.51,1.51-1.16c.02-.06,.07-.08,.13-.08h2.17c.07,0,.1,.03,.09,.09-.44,1.67-1.86,2.98-4.05,2.98s-3.8-1.31-3.8-3.65Zm13.7,3.36s-.06,.08-.11,.08h-2.56c-.06,0-.1-.05-.1-.1l.13-7.75c0-.06,.05-.1,.1-.1h2.08c.07,0,.09,.03,.09,.1l-.24,4.5,2.01-4.52s.06-.08,.11-.08h2.25c.06,0,.1,.05,.1,.1v4.51s1.78-4.54,1.78-4.54c.02-.05,.07-.08,.13-.08h2.31c.07,0,.11,.05,.08,.13l-3.48,7.75s-.06,.08-.11,.08h-2.56c-.06,0-.1-.05-.1-.1v-4.11l-1.91,4.14Zm13.37-7.77l.72,7.75c.01,.07-.02,.1-.09,.1h-2.21c-.06,0-.11-.05-.11-.1l-.09-1.53h-2.57l-.8,1.56c-.02,.06-.06,.08-.11,.08h-2.52c-.08,0-.1-.06-.07-.13l4.41-7.76s.07-.07,.13-.07h3.21c.06,0,.11,.05,.11,.1Zm-2.08,1.71l-1.32,2.6h1.49l-.17-2.6Zm3.18,3.67c0-.07,.05-.1,.1-.1h2.32c.06,0,.1,.03,.1,.1,.03,.52,.52,.92,1.47,.92,.59,0,1.09-.18,1.09-.66,0-1.27-4.24-.38-4.24-3.24,0-1.77,1.83-2.71,3.77-2.71s3.48,.92,3.49,2.44c0,.07-.05,.1-.1,.1h-2.33c-.06,0-.1-.03-.1-.1-.06-.4-.48-.65-1.14-.65-.52,0-1.05,.13-1.05,.53,0,1.1,4.29,.41,4.29,3.23,0,1.83-1.76,2.81-3.85,2.81s-3.82-1-3.82-2.68Zm14.29-2.63l.6-2.76c.01-.07,.06-.09,.11-.09h2.36c.07,0,.1,.05,.09,.11l-.95,3.82-.84,3.93c-.01,.07-.06,.09-.11,.09h-2.36c-.07,0-.1-.05-.09-.11l.78-3.23h-2.56l-.72,3.25c-.01,.07-.06,.09-.11,.09h-2.36c-.07,0-.1-.05-.09-.11l.98-3.91,.82-3.84c.01-.07,.06-.09,.11-.09h2.36c.07,0,.1,.05,.09,.11l-.67,2.74h2.56Z"/></mask></defs><g id="_レイヤー_1-2"><g><path class="cls-3" d="M2,64.2V15C2,7.83,7.83,2,15,2H196.27c7.17,0,13,5.83,13,13v49.2H2Z"/><path class="cls-5" d="M196.27,4c6.07,0,11,4.93,11,11V62.2H4V15c0-6.07,4.93-11,11-11H196.27m0-4H15C6.72,0,0,6.72,0,15v51.2H211.27V15c0-8.28-6.72-15-15-15h0Z"/></g><g><rect class="cls-2" x="14.31" y="64.36" width="182.66" height="16.35"/><path class="cls-5" d="M194.96,66.36v12.35H16.31v-12.35H194.96m4-4H12.31v20.35H198.96v-20.35h0Z"/></g><g><rect class="cls-2" x="2" y="80.87" width="207.27" height="493.05" rx="13" ry="13"/><path class="cls-5" d="M196.27,82.87c6.07,0,11,4.93,11,11v467.05c0,6.07-4.93,11-11,11H15c-6.07,0-11-4.93-11-11V93.87c0-6.07,4.93-11,11-11H196.27m0-4H15C6.72,78.87,0,85.59,0,93.87v467.05c0,8.28,6.72,15,15,15H196.27c8.28,0,15-6.72,15-15V93.87c0-8.28-6.72-15-15-15h0Z"/></g></g><g id="_レイヤー_2-2"><g><path class="cls-3" d="M130.71,283.94h-51.67c-3.23,0-6.04-2.29-6.69-5.45-.07-.32,.14-.64,.46-.7,.32-.07,.64,.14,.7,.46,.53,2.61,2.86,4.5,5.52,4.5h51.67c3.11,0,5.64-2.53,5.64-5.64v-6.73c0-.33,.27-.59,.59-.59s.59,.27,.59,.59v6.73c0,3.76-3.06,6.83-6.83,6.83Z"/><path class="cls-3" d="M72.81,263.92c-.33,0-.59-.27-.59-.59v-59.25c0-3.76,3.06-6.83,6.83-6.83h51.67c3.76,0,6.83,3.06,6.83,6.83v49.6c0,.33-.27,.59-.59,.59s-.59-.27-.59-.59v-49.6c0-3.11-2.53-5.64-5.64-5.64h-51.67c-3.11,0-5.64,2.53-5.64,5.64v59.25c0,.33-.27,.59-.59,.59Z"/><path class="cls-3" d="M92.21,261.63c-.11,0-.22-.03-.31-.09-7.3-4.53-11.66-12.37-11.66-20.95,0-13.59,11.05-24.64,24.64-24.64s24.64,11.05,24.64,24.64c0,4.7-1.33,9.27-3.84,13.21-.18,.28-.54,.36-.82,.18-.28-.18-.36-.54-.18-.82,2.39-3.75,3.65-8.1,3.65-12.57,0-12.93-10.52-23.45-23.45-23.45s-23.45,10.52-23.45,23.45c0,8.17,4.15,15.62,11.1,19.94,.28,.17,.36,.54,.19,.82-.11,.18-.31,.28-.51,.28Z"/><rect class="cls-3" x="72.81" y="207.93" width="64.13" height="1.19"/><path class="cls-3" d="M80.83,206.45c-1.8,0-3.27-1.47-3.27-3.27s1.47-3.27,3.27-3.27,3.27,1.47,3.27,3.27-1.47,3.27-3.27,3.27Zm0-5.34c-1.15,0-2.08,.93-2.08,2.08s.93,2.08,2.08,2.08,2.08-.93,2.08-2.08-.93-2.08-2.08-2.08Z"/><path class="cls-3" d="M88.84,206.45c-1.8,0-3.27-1.47-3.27-3.27s1.47-3.27,3.27-3.27,3.27,1.47,3.27,3.27-1.47,3.27-3.27,3.27Zm0-5.34c-1.15,0-2.08,.93-2.08,2.08s.93,2.08,2.08,2.08,2.08-.93,2.08-2.08-.93-2.08-2.08-2.08Z"/><path class="cls-3" d="M96.11,260.62c-.08,0-.17-.02-.25-.05-3.94-1.8-7.04-4.7-8.97-8.4l-.17-.33,.22-.3c.33-.45,8.26-10.93,13.84-10.93,2.92,0,3.72,.8,4.43,1.51,.62,.62,1.16,1.16,3.59,1.16,2.24,0,5.27-2.54,7.95-4.78,2.79-2.33,5.19-4.34,7.04-4.05,.64,.1,1.16,.47,1.55,1.09l.05,.09c2.27,5.62,.87,12.87-3.57,18.46-.2,.26-.58,.3-.83,.1-.26-.2-.3-.58-.1-.83,4.1-5.17,5.47-12.08,3.42-17.23-.26-.39-.52-.47-.7-.5-1.31-.21-3.74,1.82-6.09,3.79-2.97,2.49-6.04,5.06-8.71,5.06-2.92,0-3.72-.8-4.43-1.51-.62-.62-1.16-1.16-3.59-1.16-4.5,0-11.32,8.44-12.66,10.15,1.82,3.3,4.66,5.91,8.24,7.54,.3,.14,.43,.49,.29,.79-.1,.22-.32,.35-.54,.35Z"/><g><path class="cls-4" d="M124.89,254.08c-3.78,.27-7.2,.83-11.42,1.9-1.18,.3-2.17,.54-2.2,.54s-.05-.16-.05-.35c0-.41-.29-.84-.7-1.05-.45-.23-1.4-.19-1.97,.09-.74,.36-1.01,.79-1.07,1.7l-.05,.75-1.95,.62c-1.07,.34-3.57,1.15-5.55,1.79-10.65,3.44-15.97,4.62-22.39,4.96-4.49,.24-9.42-.34-13.48-1.57-.45-.14-.85-.24-.87-.22-.02,.03-.05,.15-.06,.28-.03,.2,.04,.25,.57,.42,.93,.28,2.79,.74,4,.98l1.1,.22,.51,.87c.28,.47,.48,.88,.43,.89-.23,.09-4.72-.99-5.74-1.38-.2-.08-.24-.05-.3,.17-.03,.14-.05,.27-.03,.28,.19,.2,4.54,1.29,6.29,1.59,.32,.05,.41,.15,.88,.94,.28,.48,.47,.88,.42,.9-.27,.09-3.97-.77-5.73-1.34-.59-.19-1.11-.33-1.16-.3s-.11,.15-.14,.26c-.05,.18,.08,.24,1.21,.6,1.72,.53,2.95,.84,4.59,1.15,.76,.14,1.47,.28,1.59,.3,.22,.05,1.32,1.71,1.2,1.82-.17,.17-4.18-.75-6.39-1.47-1.45-.47-1.49-.47-1.59-.28-.06,.12-.07,.24-.02,.29,.15,.15,2.77,.97,4.27,1.34,.78,.19,2.03,.45,2.78,.58,1.28,.23,1.68,.36,1.68,.58,0,.05-.06,.09-.12,.09-.37,0-.9,.25-1.3,.59l-.44,.39-1.54-.39c-.85-.21-2.24-.62-3.08-.91-1.29-.44-1.55-.5-1.62-.38-.06,.08-.1,.2-.1,.26,0,.18,2.53,1.05,4.5,1.54,.47,.12,1.01,.25,1.21,.3l.35,.1-.04,.6c-.05,.69,.1,1,.6,1.26,.34,.18,.91,.14,1.37-.11,.26-.13,.88-.75,1.07-1.07,.08-.13,.23-.13,1.14-.02,.58,.07,1.8,.16,2.73,.2,1.1,.05,1.67,.11,1.67,.18,0,.06-.18,.94-.39,1.96-.23,1.06-.36,1.89-.31,1.94,.24,.24,.37-.1,.74-1.9,.22-1.04,.41-1.94,.43-2,.03-.07,.68-.13,1.86-.17,2.01-.07,3.17-.17,5.45-.48,1.12-.15,1.66-.19,2.05-.12,.71,.12,1.41,0,1.9-.33,.3-.2,.86-.36,2.21-.65,1-.22,2.75-.62,3.89-.9,1.15-.28,2.11-.49,2.14-.45,.03,.03-.05,.46-.17,.95l-.22,.91-.28-.2c-.47-.33-1.2-.45-1.87-.3-.46,.1-.67,.21-1,.55-.37,.36-.43,.49-.43,.83,0,1.01,1.27,1.65,2.53,1.28,.39-.11,.64-.27,.88-.53,.31-.34,.38-.55,.72-2.03,.21-.91,.4-1.66,.42-1.68,.06-.06,6.97-1.85,9.36-2.42,2.23-.53,5.29-1.17,6.56-1.37,.39-.07,.57-.05,.84,.09,.58,.3,1.33,.18,2.06-.32,.35-.24,.57-.29,1.75-.41,1.79-.19,7.43-.19,9.06-.01,3.76,.42,7.42,1.36,10.81,2.77,.75,.31,1.38,.55,1.4,.53,.03-.02,.06-.15,.07-.28,.03-.21-.09-.28-1.27-.77-3.39-1.42-7.04-2.36-10.76-2.78-2.65-.31-6.98-.3-9.7,.02l-.54,.06,.07-.35c.04-.24-.02-.65-.18-1.27-.18-.67-.22-.93-.13-.96,.57-.18,6.39-.51,7.23-.4,.47,.05,.57,.11,.7,.35,.47,.9,2.39,1.06,3.15,.25,.29-.3,.44-.31,1.97-.05,2.5,.43,5.33,1.23,7.82,2.21,.68,.27,1.27,.47,1.31,.44,.05-.02,.11-.13,.14-.24,.04-.17-.1-.26-.96-.61-1.41-.59-3.7-1.34-5.26-1.73l-1.31-.33,.36-.35c.42-.4,.69-.95,.79-1.62,.03-.26,.1-.47,.14-.47,.24,0,3.07,.89,4.35,1.37,1.5,.57,1.65,.58,1.66,.16,0-.16-2.32-1.05-4.18-1.59-.86-.25-1.68-.49-1.81-.53-.18-.05-.29-.2-.39-.5l-.14-.42,.41-.35c.28-.25,.45-.5,.55-.82,.1-.37,.18-.46,.32-.44,.45,.07,2.1,.58,3.38,1.05,1.32,.47,1.4,.49,1.53,.31,.07-.1,.13-.21,.13-.24,0-.11-2.41-.97-3.89-1.39l-1.35-.39-.13-.37c-.19-.56-.54-1-1.61-2.02-.94-.89-.96-.92-.62-.87,1.27,.21,3.73,.85,5.32,1.38l1.87,.62,.06-.24c.04-.15,.01-.28-.06-.33-.07-.04-.81-.3-1.66-.58-1.63-.55-3.65-1.07-5.28-1.37-.59-.11-1.05-.24-1.11-.33-.09-.12-.15-.13-.26-.04s-.42,.09-1.33-.03c-1.15-.14-5.71-.26-6.86-.18Zm6.81,.73c.52,.07,1,.13,1.06,.16,.08,.02,.04,.42-.14,1.32-.14,.7-.26,1.29-.27,1.31-.01,.01-.78-.05-1.71-.14-3.18-.3-8.31-.08-11.65,.51-.47,.08-.88,.15-.91,.15-.04,0-.14-.31-.24-.69-.16-.67-.4-.97-.52-.66-.03,.09,.02,.43,.1,.77,.09,.35,.15,.64,.13,.65-.01,.01-.69,.16-1.52,.33-.82,.17-2.18,.49-3.02,.7l-1.53,.38-.16-.32c-.26-.5-.65-.97-1.05-1.26l-.37-.27,.62-.31c1.54-.77,8.62-2.25,12.43-2.62,.61-.05,1.28-.12,1.5-.14,.81-.08,6.34,.02,7.26,.13Zm2.31,2.22c.47,.23,1.26,.96,1.16,1.06-.02,.01-.52-.07-1.12-.17-.59-.11-1.12-.2-1.17-.2-.08,0-.04-.49,.09-.93,.06-.21,.22-.18,1.04,.24Zm-24.11,1.16c.41,.47,.74,1,.83,1.33,.06,.25,.04,.26-1.39,.66l-1.46,.41v-1.23c0-.75,.04-1.25,.1-1.29s.41-.1,.78-.15c.37-.04,.7-.08,.73-.09,.04,0,.22,.16,.41,.36Zm20.77-.15c.72,.06,1.37,.14,1.43,.18,.09,.06,.06,.38-.12,1.31l-.23,1.24h-.45c-.25-.01-1.4-.08-2.57-.15-2.28-.14-5.12-.05-7.59,.25-.66,.08-1.45,.18-1.76,.21l-.55,.06-.33-1.22c-.18-.67-.31-1.23-.29-1.25,.04-.04,2.72-.42,3.93-.55,2.58-.29,5.67-.32,8.53-.08Zm-23.19,1.48v1.19l-.72,.22c-.4,.11-2.24,.67-4.08,1.24s-4.04,1.24-4.88,1.5l-1.53,.46-1.01-.22q-1.11-.25-1.22,.43c-.08,.46-.07,.46-1.86,.92-5.53,1.43-9.84,2.1-14.42,2.23l-2.26,.06-.43-.47c-.82-.89-1.55-1.19-3.39-1.4-1.28-.15-2.36-.35-2.29-.42,.02-.02,.56,.03,1.19,.12,1.58,.21,6.37,.3,8.26,.15,4.79-.38,9.74-1.39,15.99-3.27,1.22-.36,11.13-3.52,12.07-3.84,.6-.2,.6-.21,.6,1.1Zm27.67-.81c.28,.07,.3,.1,.33,.62,.02,.31-.02,.67-.07,.82q-.1,.26-1.11-.72c-.55-.53-1-1-1-1.03,0-.05,1.2,.15,1.85,.31Zm-17.08,1.28c.2,.75,.28,1.19,.21,1.23-.05,.04-.56,.15-1.12,.24-.56,.1-1.94,.38-3.07,.63s-2.15,.48-2.27,.5c-.21,.05-.21,.04-.07-.43,.16-.55,.18-1.15,.04-1.63-.05-.19-.08-.36-.06-.39,.13-.12,5.26-1.3,5.72-1.31h.31s.31,1.16,.31,1.16Zm14.98,.32c.49,.28,1.18,.91,.99,.91-.19-.01-1.78-.3-1.82-.34-.09-.09,.1-.86,.21-.86,.07,0,.35,.13,.62,.29Zm-22.27,.49c0,.51-.46,1.39-.9,1.74-.33,.26-1.06,.56-1.72,.72l-.28,.06v-2.15l1.28-.37c1.64-.47,1.62-.47,1.62,0Zm19.96,.51c.43,.06,.8,.12,.82,.14s-.04,.42-.13,.89l-.17,.87-.26-.19c-.46-.32-1.14-.44-1.75-.31-.59,.13-1.3,.59-1.4,.9-.06,.2-.13,.21-2.03,.21-1.72,0-4.31,.16-5.72,.36l-.45,.06-.32-1.23c-.18-.68-.3-1.25-.28-1.27,.06-.07,2.89-.41,4.17-.51,1.45-.11,6.4-.06,7.53,.08Zm-23.28,1.23l-.03,1.23-2.8,.82-2.8,.82-2.05-.46c-1.13-.25-2.11-.49-2.18-.52-.11-.06,1.61-.61,8.34-2.67,.77-.24,1.44-.43,1.48-.44,.04,0,.06,.55,.05,1.22Zm26.07-.83c.57,.1,1.03,.24,1.08,.32,.24,.38,.02,1.83-.36,2.33-.13,.18-.17,.18-1.38-.03-.69-.12-1.27-.21-1.29-.21-.03,0,.07-.59,.21-1.3,.29-1.51,.13-1.41,1.74-1.11Zm-14.65,1.32c.18,.67,.31,1.22,.29,1.24s-.52,.1-1.13,.2c-1.86,.28-5.38,1.01-7.83,1.63-2.03,.5-2.33,.56-2.33,.41,0-.19,.7-.85,1.8-1.69,.41-.31,.94-.78,1.18-1.04,.43-.46,.45-.47,1.85-.81,1.18-.28,4.21-.92,5.17-1.08,.69-.12,.64-.17,.99,1.14Zm-11.38,2.57l.03,1.18-3.03,.84c-1.66,.45-3.04,.81-3.06,.79-.05-.05,.49-2.37,.56-2.45,.08-.07,5.1-1.53,5.3-1.53,.15-.01,.17,.14,.2,1.17Zm11.96-.39l.1,.38-.44-.05c-1.11-.12-2.43,.95-2.43,1.98,0,.16-.02,.3-.05,.3s-1.05,.2-2.28,.44c-2.91,.58-5.73,1.25-10.08,2.4-1.95,.51-3.56,.92-3.58,.9-.02-.01,.09-.57,.24-1.23l.28-1.22,.5-.14c6.78-1.95,12.57-3.34,16.35-3.94,.64-.11,1.2-.19,1.23-.2,.04-.01,.11,.16,.16,.38Zm-25.73,.38c-.02,.1-.15,.63-.27,1.18s-.23,1.01-.24,1.03c-.06,.08-4.69,1.06-6.26,1.33-1.77,.3-1.85,.3-1.95,.13-.47-.85-1.74-1.19-2.75-.73-.57,.26-.87,.54-1,.94-.14,.43-.26,.45-2.95,.45h-2.23l-.1-.68c-.06-.37-.14-.76-.17-.88-.06-.21-.03-.21,1.87-.28,4.63-.17,8.84-.81,13.84-2.09,2.5-.65,2.27-.61,2.21-.4Zm2.01,.75c.79,.18,1.4,.35,1.35,.39-.1,.11-3.23,.91-3.29,.85-.1-.09,.28-1.56,.4-1.56,.07,0,.76,.14,1.54,.32Zm4.11,.95c1.32,.3,1.3,.29,1.12,.95-.12,.42-.01,.37-2.25,.97-2.73,.73-5.57,1.42-5.62,1.37-.07-.07,.38-2.08,.49-2.21,.1-.11,4.41-1.32,4.78-1.34,.14-.01,.8,.11,1.48,.26Zm-25.18,1.13c.34,.4,.57,.81,.68,1.22q.08,.27-.33,.23c-.23-.02-.94-.09-1.57-.15s-1.23-.13-1.32-.16c-.16-.05-1.08-1.44-1.08-1.64,0-.15,.3-.15,1.83,0l1.49,.15,.3,.35Zm18.35,.27c-.03,.16-.16,.68-.28,1.18l-.22,.9-1.83,.37c-3.12,.63-7.27,1.18-8.89,1.18-.77,0-.74,.09-.39-1.47l.05-.22,.46,.26c.35,.2,.59,.25,1.09,.25,.93,0,1.55-.33,2-1.09,.01-.02,.8-.16,1.76-.32,1.6-.27,4.26-.82,5.59-1.15,.3-.08,.59-.14,.63-.15,.05-.01,.06,.11,.02,.26Zm7.66,.75c-.01,.36-.51,2.22-.61,2.29-.31,.19-7.56,1.86-7.66,1.77-.02-.03,.07-.55,.21-1.15l.26-1.1,1.57-.37c.86-.2,2.54-.63,3.72-.95,2.33-.64,2.5-.67,2.5-.49Zm-26.18,.95l.98,.06-.06,.41c-.04,.23-.14,.63-.22,.89l-.16,.49-.52-.07c-1.01-.12-.98-.1-1.51-.97-.28-.44-.52-.86-.54-.91-.02-.07,.16-.08,.5-.04,.3,.04,.98,.1,1.53,.14Zm6.53,.2c-.02,.1-.12,.56-.22,1.02l-.18,.84-2.35-.06c-1.3-.04-2.52-.1-2.72-.13l-.37-.06,.23-.35c.13-.18,.31-.56,.4-.83l.16-.5,2.17-.03c1.19-.01,2.34-.03,2.55-.05,.32-.02,.38,.01,.33,.15Zm11.31,1.09c-.04,.15-.1,.39-.13,.55-.06,.32-.18,.36-.42,.15-.43-.37-1.39-.46-2.12-.21-.88,.31-1.37,1.12-1.06,1.74,.08,.17,.12,.31,.09,.31-.04,0-.72,.09-1.52,.19-1.48,.2-3.74,.38-5.57,.44-1,.04-1.02,.03-.98-.17,.03-.12,.12-.54,.2-.95,.09-.41,.17-.76,.18-.76,.01-.01,.78-.07,1.71-.14,.93-.06,2.52-.23,3.53-.36,1.79-.25,5.53-.91,5.62-1,.02-.03,.15-.05,.29-.05,.21,0,.23,.03,.18,.26Zm-15.07,1.25c1.13,.06,2.31,.09,2.63,.07,.67-.05,.66-.07,.39,1.11l-.17,.73h-1.2c-1.11-.03-2.44-.12-3.72-.28-.49-.06-.53-.08-.53-.33s-.13-.57-.52-1.2l-.22-.34,.65,.06c.35,.04,1.56,.12,2.69,.18Z"/><path class="cls-3" d="M79.38,279.73c-.07,0-.16-.03-.25-.12-.06-.06-.16-.16,.26-2.11,.11-.54,.3-1.46,.37-1.81-.16-.03-.54-.07-1.47-.11-.92-.04-2.16-.13-2.75-.2-.37-.04-.89-.11-.96-.07-.21,.35-.85,.99-1.14,1.14-.5,.27-1.14,.32-1.54,.11-.57-.3-.75-.67-.7-1.44l.03-.45-.48-.13c-.26-.06-.61-.15-.93-.23-.05-.01-4.64-1.21-4.64-1.72,0-.11,.06-.27,.14-.37,.14-.25,.44-.16,1.83,.32,.83,.29,2.21,.69,3.07,.91l1.45,.37,.37-.33c.38-.33,.85-.56,1.23-.62-.31-.12-1.08-.26-1.4-.32-.76-.13-2.02-.39-2.79-.58-1.23-.3-4.14-1.17-4.36-1.39-.11-.11-.11-.3-.01-.5,.18-.34,.3-.3,1.81,.19,2.08,.68,5.3,1.41,6.1,1.48-.2-.4-.84-1.35-1.03-1.48-.07-.01-.22-.04-.42-.08-.3-.06-.72-.14-1.15-.22-1.63-.31-2.88-.62-4.61-1.16-1.16-.37-1.44-.46-1.33-.83,.01-.05,.08-.28,.22-.37,.07-.04,.15-.09,1.31,.28,1.66,.54,4.59,1.21,5.43,1.32-.07-.14-.18-.35-.33-.62-.47-.79-.52-.82-.75-.85-1.28-.22-5.76-1.27-6.34-1.61h0c-.15-.08-.12-.26-.07-.48,.04-.14,.08-.27,.2-.33,.12-.06,.24-.02,.35,.02,.91,.35,4.45,1.2,5.42,1.35-.07-.14-.18-.35-.33-.6l-.47-.8-1.02-.2c-1.17-.23-3.05-.69-4.02-.98-.47-.15-.76-.24-.7-.62,0-.01,.02-.25,.09-.35l.02-.03c.08-.08,.12-.12,1.06,.17,4.07,1.23,8.96,1.8,13.42,1.56,6.43-.34,11.65-1.5,22.34-4.96l1.02-.33c1.75-.57,3.64-1.18,4.54-1.46l1.83-.58,.04-.63c.06-.98,.37-1.46,1.17-1.85,.62-.3,1.63-.35,2.14-.09,.47,.24,.8,.74,.8,1.21,0,.05,0,.1,0,.13,.3-.07,1.07-.26,2.02-.5,4.19-1.06,7.62-1.63,11.45-1.91h0c1.15-.08,5.73,.04,6.89,.18,.27,.04,1.08,.14,1.19,.07,.06-.05,.15-.11,.27-.1,.12,.01,.2,.1,.25,.17,.03,.02,.29,.13,1,.26,1.66,.31,3.7,.83,5.31,1.38,.59,.2,1.58,.53,1.69,.59,.15,.11,.21,.32,.15,.54l-.11,.43-2.06-.68c-1.51-.5-3.75-1.09-5.06-1.33,.14,.14,.34,.33,.54,.51,1.1,1.05,1.46,1.5,1.66,2.1l.1,.28,1.26,.36c.69,.2,1.65,.51,2.51,.82,1.51,.54,1.51,.61,1.51,.75,0,.07-.05,.19-.16,.35-.22,.3-.36,.25-1.74-.24-1.24-.46-2.9-.97-3.35-1.04,0,0-.04,.05-.11,.31-.11,.36-.3,.63-.61,.91l-.32,.27,.1,.3c.1,.31,.19,.36,.27,.38,.13,.04,.95,.28,1.81,.53,.04,.01,4.32,1.29,4.32,1.77,0,.11,0,.31-.17,.41-.22,.15-.55,.05-1.74-.4-1.2-.45-3.62-1.21-4.19-1.34-.02,.06-.04,.16-.06,.29-.11,.72-.39,1.3-.85,1.73l-.12,.12,.99,.25c1.6,.4,3.88,1.15,5.29,1.74,.81,.33,1.15,.47,1.07,.82-.02,.07-.09,.28-.22,.36-.08,.06-.21,.07-1.48-.43-2.46-.97-5.29-1.77-7.78-2.2-1.56-.26-1.59-.22-1.81,0-.42,.44-1.2,.66-2,.55-.68-.09-1.22-.41-1.45-.85-.08-.16-.11-.21-.56-.25-.75-.1-6.17,.19-7.07,.37,0,.12,.07,.37,.17,.76,.17,.67,.23,1.08,.18,1.35l-.02,.11,.29-.03c2.72-.32,7.09-.33,9.74-.02,3.76,.42,7.39,1.36,10.81,2.8,1.19,.49,1.43,.6,1.38,.97-.02,.28-.09,.36-.13,.4-.09,.09-.17,.09-1.59-.5-3.4-1.41-7.02-2.34-10.76-2.76-1.63-.18-7.28-.17-9.02,.01-1.15,.12-1.35,.16-1.67,.38-.79,.54-1.61,.66-2.25,.33-.22-.11-.35-.14-.72-.07-1.26,.2-4.32,.84-6.55,1.37-2.32,.55-8.49,2.15-9.25,2.39-.06,.2-.21,.8-.39,1.58-.34,1.47-.42,1.73-.76,2.11-.28,.3-.56,.47-.97,.58-.77,.23-1.6,.11-2.16-.31-.39-.29-.61-.7-.61-1.14,0-.4,.09-.57,.49-.96,.35-.36,.58-.49,1.09-.6,.71-.16,1.5-.03,2.02,.33l.06,.04,.16-.65c.08-.31,.13-.55,.15-.7-.29,.05-.93,.19-1.9,.43-1.09,.27-2.83,.67-3.9,.9-1.34,.29-1.88,.44-2.15,.62-.53,.36-1.27,.49-2.03,.36-.35-.06-.84-.03-2,.12-2.26,.31-3.44,.41-5.47,.48-1.2,.04-1.59,.09-1.71,.12-.05,.22-.21,.97-.37,1.76l-.03,.15c-.34,1.67-.47,2.03-.72,2.1-.02,0-.05,.01-.08,.01Zm-4.67-4.8c.2,0,.47,.03,.87,.08,.58,.07,1.8,.16,2.72,.2,1.85,.08,1.85,.17,1.85,.36,0,.06-.04,.27-.39,2-.14,.65-.23,1.15-.28,1.47,.12-.42,.27-1.11,.35-1.5l.03-.15c.28-1.31,.38-1.81,.4-1.87,.06-.14,.1-.23,2.03-.3,2.02-.07,3.19-.17,5.44-.48,1.2-.16,1.71-.19,2.11-.12,.66,.11,1.32,0,1.77-.3,.32-.21,.85-.37,2.28-.68,1.06-.23,2.81-.63,3.89-.9,2.21-.54,2.25-.5,2.33-.38,.05,.05,.11,.1-.14,1.1l-.28,1.18-.5-.36c-.43-.3-1.11-.41-1.72-.27-.43,.09-.61,.19-.91,.5-.35,.34-.38,.42-.38,.7,0,.33,.16,.63,.46,.85,.47,.35,1.17,.45,1.84,.25,.35-.1,.57-.23,.8-.48,.28-.3,.34-.49,.68-1.95,.39-1.69,.43-1.73,.47-1.77,.15-.15,8.73-2.3,9.45-2.47,2.23-.53,5.3-1.17,6.57-1.37,.42-.08,.65-.05,.95,.11,.51,.27,1.2,.15,1.87-.31,.4-.27,.68-.32,1.84-.44,1.79-.19,7.4-.2,9.1,0,3.78,.42,7.43,1.36,10.86,2.79,.59,.24,1,.4,1.21,.48,0-.02,0-.04,0-.07v-.04c-.05-.09-.64-.33-1.16-.55-3.38-1.42-6.99-2.35-10.71-2.77-2.62-.31-6.95-.3-9.66,.02l-.79,.09,.12-.6c.03-.2-.02-.59-.18-1.19-.2-.73-.28-1.09-.01-1.18,.6-.19,6.48-.52,7.31-.41,.48,.05,.66,.12,.84,.44,.17,.33,.61,.58,1.18,.66,.68,.09,1.34-.08,1.68-.44,.37-.38,.61-.37,2.14-.11,2.51,.43,5.37,1.24,7.85,2.22,.6,.24,1.01,.38,1.17,.42,.01-.02,.03-.06,.04-.09-.05-.07-.57-.28-.85-.39-1.38-.58-3.68-1.33-5.24-1.72l-1.63-.41,.6-.58c.4-.38,.64-.89,.74-1.52,.07-.63,.25-.63,.32-.63,.31,0,3.29,.96,4.42,1.38,.5,.19,1.26,.48,1.41,.44,0,0,0-.01,0-.04-.35-.22-2.29-.97-4.05-1.48-.86-.25-1.68-.49-1.81-.53-.3-.08-.42-.36-.51-.62l-.18-.54,.5-.43c.26-.23,.41-.45,.49-.74,.07-.24,.17-.62,.52-.57,.48,.07,2.14,.59,3.42,1.06,.67,.24,1.2,.43,1.3,.4,0,0,0,0,.02-.03,.02-.02,.03-.05,.04-.07-.48-.23-2.35-.89-3.71-1.28l-1.44-.42-.16-.46c-.18-.53-.52-.95-1.56-1.95-.86-.81-.95-.9-.86-1.08,.07-.15,.25-.13,.39-.11,1.28,.21,3.73,.85,5.36,1.39l1.68,.56v-.05c.03-.07,.02-.12,.02-.14-.14-.06-.76-.28-1.61-.56-1.6-.54-3.61-1.06-5.26-1.37-1.06-.2-1.18-.34-1.23-.4-.17,.13-.49,.13-1.47,0-1.15-.14-5.68-.26-6.82-.18h0c-3.81,.27-7.22,.84-11.39,1.9-.02,0-2.15,.55-2.25,.55-.23,0-.23-.31-.23-.53,0-.34-.25-.71-.6-.89-.4-.2-1.3-.16-1.81,.09-.68,.33-.91,.71-.97,1.55l-.06,.88-2.07,.66c-.89,.28-2.78,.9-4.54,1.46l-1.02,.33c-10.73,3.47-15.97,4.63-22.44,4.97-4.5,.24-9.44-.33-13.54-1.58-.3-.09-.54-.16-.68-.19,0,.03,0,.06-.01,.09,0,.05,0,.06,0,.06,.04,.04,.32,.13,.45,.17,.96,.29,2.83,.75,3.98,.98l1.18,.24,.55,.94c.52,.88,.48,.98,.45,1.05l-.04,.09-.1,.02h0c-.54,.07-5.1-1.1-5.85-1.39-.02,0-.03-.01-.04-.01,0,.02-.01,.04-.02,.06-.01,.06-.02,.1-.02,.13,.55,.24,4.36,1.21,6.13,1.51,.42,.07,.55,.27,1.01,1.03,.51,.87,.47,.98,.44,1.05l-.03,.08-.08,.04c-.39,.13-4.45-.88-5.86-1.34-.55-.18-.89-.26-1.02-.29-.01,.03-.03,.06-.04,.11,.12,.08,.63,.25,1.09,.39,1.72,.53,2.96,.84,4.57,1.15,.43,.08,.85,.16,1.16,.22,.22,.04,.38,.07,.43,.08,.34,.08,1.27,1.59,1.35,1.88,.04,.14,0,.22-.06,.26-.33,.33-5.36-1.04-6.57-1.43-.67-.22-1.25-.4-1.37-.39,0,0,0,.01,0,.02-.02,.04-.03,.07-.03,.09,.32,.17,2.69,.92,4.16,1.28,.77,.19,2.01,.45,2.77,.58,1.4,.25,1.83,.39,1.83,.76,0,.15-.14,.27-.3,.27-.32,0-.8,.22-1.18,.55l-.51,.45-1.64-.41c-.87-.21-2.26-.62-3.1-.92-.5-.17-1.24-.42-1.43-.43-.01,.02-.03,.05-.03,.07,.4,.24,2.47,.96,4.35,1.42,.32,.08,.67,.17,.93,.23l.78,.21-.05,.75c-.04,.62,.07,.86,.5,1.09,.29,.15,.8,.11,1.2-.11,.22-.11,.82-.69,1-1,.09-.14,.21-.19,.45-.19Zm-9.1-2.51s0,0,0,.01c0,0,0,0,0-.01Zm15.35,2.64c-.3,0-.41-.03-.48-.12-.08-.1-.06-.22-.05-.29,.03-.12,.12-.53,.2-.95q.2-.91,.36-.91h0c.17-.02,.58-.06,1.7-.14,.92-.06,2.51-.23,3.52-.36,1.81-.25,5.19-.86,5.54-.97,.05-.04,.16-.08,.39-.08,.1,0,.24,0,.33,.11,.09,.11,.06,.26,.03,.38h0c-.04,.16-.1,.39-.13,.55-.03,.15-.09,.35-.26,.41-.18,.06-.35-.06-.46-.16-.38-.33-1.27-.41-1.94-.17-.45,.16-.81,.47-.96,.84-.06,.16-.12,.4,0,.65,.17,.36,.12,.44,.09,.49l-.05,.09h-.11s-.31,.04-.64,.08l-.86,.11c-1.51,.2-3.76,.38-5.59,.44-.28,.01-.48,.02-.64,.02Zm-.16-.37c.15,0,.47,0,.78-.01,1.83-.06,4.06-.24,5.56-.44l.86-.11c.22-.03,.36-.05,.46-.06,0-.02-.02-.05-.03-.07-.14-.28-.15-.62-.02-.94,.14-.35,.42-.65,.79-.87-1.26,.22-2.55,.42-2.94,.47-1.02,.13-2.63,.3-3.55,.36-.33,.03-1.26,.1-1.58,.12-.02,.09-.07,.28-.14,.63-.07,.37-.15,.75-.19,.91Zm10.12-2.81c.4,.05,.75,.18,.98,.37,.04,.04,.07,.06,.09,.07,0-.02,.02-.06,.03-.11,.03-.16,.09-.4,.13-.56,0-.01,0-.02,0-.03-.11,0-.19,.01-.2,.02,0,0,.01,0,.02-.02-.08,.05-.49,.15-1.06,.26Zm-10.66,3.16h-1.35c-1.18-.03-2.51-.13-3.74-.28-.46-.06-.69-.08-.69-.51,0-.22-.13-.52-.49-1.1l-.42-.66,1.03,.09c.34,.04,1.52,.12,2.69,.18h0c1.21,.06,2.32,.09,2.61,.07h.03c.31-.03,.51-.04,.64,.11,.15,.18,.09,.42-.07,1.15l-.22,.95Zm-5.98-2.12v.02c.42,.66,.56,1,.56,1.3,0,.07,0,.09,0,.1,.03,.01,.24,.04,.36,.05,1.22,.15,2.53,.25,3.7,.27h1.05s.15-.65,.15-.65c.09-.41,.17-.76,.15-.84-.02,0-.18,.02-.33,.03h-.04c-.34,.02-1.53,0-2.66-.07-1.17-.06-2.36-.14-2.7-.18l-.27-.02Zm18.14,.75c-.07,0-.11,0-.12-.02l-.03-.03c-.04-.06-.09-.13,.18-1.3l.29-1.21,1.68-.4c.83-.19,2.5-.62,3.72-.95,2.27-.62,2.46-.66,2.63-.53,.07,.05,.1,.12,.1,.22h0c0,.2-.46,2.29-.69,2.44-.06,.04-6.73,1.78-7.76,1.78Zm.62-2.26l-.23,.99c-.09,.4-.15,.72-.18,.91,1.14-.19,6.74-1.49,7.33-1.71,.12-.26,.48-1.6,.54-2.05-.3,.04-1.22,.29-2.26,.58-1.22,.33-2.9,.76-3.73,.95l-1.46,.34Zm7.64-1.96h0Zm-.18,0h0s0,0,0,0h0Zm-19.73,3.2l-2.5-.06c-1.27-.04-2.53-.1-2.74-.13l-.34-.05-.02,.06-.73-.1c-.99-.12-1.04-.15-1.56-1l-.03-.05c-.25-.4-.52-.86-.55-.94l-.04-.1,.08-.11c.09-.1,.25-.12,.66-.07,.31,.04,1,.1,1.52,.14l1.18,.07-.09,.61c-.02,.1-.04,.22-.08,.36,.04-.1,.08-.19,.11-.28l.2-.62,2.3-.03c1.29-.01,2.35-.03,2.54-.05,.23-.01,.4-.02,.5,.11,.08,.1,.05,.22,.03,.27-.03,.12-.12,.57-.22,1.01l-.21,.99Zm-5.28-.57h.09c.18,.04,1.33,.1,2.7,.14l2.2,.06,.15-.69c.09-.39,.17-.79,.21-.95-.03,0-.07,0-.12,0-.23,.02-1.45,.04-2.56,.05l-2.04,.03-.12,.37c-.09,.26-.27,.67-.43,.88l-.07,.11Zm-2.75-1.65c.09,.16,.24,.41,.42,.69l.03,.05q.44,.73,1.29,.83l.43,.06,.11-.34c.08-.26,.18-.65,.21-.87l.03-.21-.78-.05c-.53-.04-1.23-.1-1.54-.14-.08,0-.15-.02-.2-.02Zm8.85,2.09c-.24,0-.41-.01-.52-.15-.15-.19-.09-.46,.09-1.28l.17-.73,.68,.38c.31,.18,.52,.23,1,.23,.88,0,1.43-.3,1.84-1q.05-.1,1.89-.41c1.56-.26,4.22-.81,5.58-1.15,.24-.06,.47-.11,.58-.14l.16-.04,.1,.09c.1,.1,.08,.28,.04,.42-.02,.12-.09,.41-.18,.75l-.35,1.45-1.95,.39c-3.13,.63-7.3,1.18-8.92,1.18h-.12s-.06,0-.09,0Zm0-1.59l-.06,.25c-.11,.5-.2,.89-.16,.97,.03,.01,.18,0,.32,0h.12c1.61,0,5.75-.55,8.85-1.18l1.72-.35,.3-1.22c.08-.34,.15-.63,.17-.73h0c-.12,.02-.27,.06-.42,.1-1.37,.34-4.04,.89-5.61,1.15-1.01,.17-1.51,.26-1.67,.3-.48,.77-1.16,1.12-2.12,1.12-.54,0-.81-.06-1.18-.27l-.24-.14Zm19.1,.82s-.07,0-.09-.02c-.13-.07-.13-.14,.16-1.43l.3-1.33,.61-.17c6.73-1.94,12.54-3.34,16.37-3.95,.37-.06,.72-.12,.95-.15,.14-.02,.24-.04,.26-.04l.08-.03,.07,.05s.14,.08,.23,.49l.17,.64-.71-.08c-.51-.06-1.12,.17-1.59,.6-.41,.36-.64,.8-.64,1.2,0,.17,0,.48-.23,.48-.05,0-.94,.18-1.88,.37l-.36,.07c-2.94,.59-5.76,1.26-10.07,2.4-2.75,.72-3.43,.9-3.65,.9Zm.69-2.48l-.26,1.11c-.1,.43-.17,.76-.2,.96,.42-.1,1.44-.36,3.32-.85,4.31-1.14,7.14-1.82,10.09-2.4l.36-.07c1.17-.23,1.63-.32,1.81-.35,0-.04,0-.08,0-.14,0-.5,.28-1.04,.76-1.47,.56-.5,1.26-.76,1.88-.69l.17,.02-.03-.13c-.02-.1-.05-.17-.06-.22-.04,0-.09,.01-.17,.03-.23,.04-.58,.09-.95,.15-3.82,.61-9.62,2-16.33,3.94l-.4,.11Zm15.27-1.62s-.02,0-.03,0c.02,0,.03,0,.03,0Zm0,0h0Zm-23.55,3.11c-.09,0-.11-.02-.12-.03-.23-.23,.47-2.44,.48-2.46,.22-.24,4.88-1.4,4.91-1.41,.24-.02,1.4,.24,1.53,.26h.03c.82,.19,1.13,.26,1.26,.49,.11,.18,.05,.37-.03,.66l-.02,.08c-.12,.45-.16,.46-2.04,.96l-.32,.09c-4.33,1.16-5.39,1.36-5.68,1.36Zm.63-2.24c-.08,.2-.36,1.39-.43,1.86,.68-.13,3.03-.71,5.38-1.34l.32-.09q1.72-.46,1.78-.7l.02-.08c.04-.16,.09-.33,.07-.38-.05-.09-.46-.18-1.03-.31h-.03c-.83-.19-1.34-.27-1.43-.26-.32,.02-4.22,1.1-4.67,1.3Zm-15.41,1.6h-2.39l-.12-.84c-.06-.37-.14-.75-.17-.86-.02-.06-.05-.17,.03-.27,.12-.17,.3-.17,1.99-.23,4.66-.17,8.78-.79,13.83-2.09l.63-.16q1.67-.44,1.79-.3c.09,.1,.04,.21,.02,.26,0,0,0,.02-.01,.03,0,.04-.03,.14-.06,.28-.05,.23-.13,.56-.21,.9,0,.01-.22,1-.26,1.07l-.02,.03c-.16,.22-6.31,1.39-6.37,1.4-1.82,.31-1.97,.33-2.14,.04-.43-.77-1.6-1.07-2.52-.66-.52,.24-.79,.49-.9,.83-.19,.58-.47,.58-3.13,.58Zm-2.07-.37h2.07c2.67,0,2.68-.04,2.78-.32,.15-.45,.48-.77,1.1-1.05,1.1-.5,2.47-.13,2.99,.81,.11,.06,.84-.07,1.76-.22,1.57-.27,5.54-1.12,6.14-1.29,.03-.14,.12-.5,.21-.93,.07-.34,.15-.68,.21-.91,.01-.06,.03-.12,.04-.16-.23,.05-.66,.16-1.33,.34l-.63,.16c-5.08,1.3-9.23,1.93-13.88,2.1-.93,.03-1.49,.05-1.69,.09,.04,.17,.11,.52,.16,.86l.08,.53Zm-.96,.34c-.07,0-.16,0-.27-.02-.14-.01-.45-.04-.81-.08l-.76-.07c-.2-.02-1.21-.12-1.36-.17-.27-.08-1.21-1.57-1.21-1.82,0-.08,.03-.15,.09-.2,.15-.14,.44-.14,1.95,.01l1.57,.16,.35,.41c.36,.42,.6,.86,.72,1.29,.05,.15,.08,.28,0,.39-.06,.07-.13,.09-.25,.09Zm-3.07-.68c.12,.03,.61,.09,1.27,.15l.76,.07c.36,.03,.67,.06,.81,.08,.05,0,.1,0,.14,.01h0c-.1-.39-.32-.78-.64-1.16l-.25-.29-1.42-.14c-.54-.05-1.33-.13-1.6-.11,.14,.31,.77,1.25,.94,1.4Zm29.22-.8c-.07,0-.09-.02-.12-.05-.19-.19,.54-2.69,.55-2.7,.21-.18,5.41-1.59,5.44-1.59,.07,0,.15,.02,.2,.07,.14,.12,.15,.32,.18,1.28h0s.02,.85,.02,.85c.08-.3,.71-.89,1.86-1.78,.39-.29,.92-.76,1.16-1.02,.47-.51,.56-.53,1.94-.86,1.2-.28,4.24-.93,5.19-1.08h.08c.74-.15,.79,.02,1.07,1.09l.05,.18c.35,1.31,.33,1.33,.24,1.42q-.06,.06-1.06,.22l-.18,.03c-1.9,.29-5.4,1.02-7.81,1.63-2.12,.52-2.31,.55-2.47,.43-.04-.03-.06-.07-.08-.11v.33s-3.16,.88-3.16,.88c-2.32,.63-2.93,.79-3.13,.79Zm.72-2.49c-.1,.3-.39,1.56-.49,2.08,.4-.1,1.33-.34,2.8-.74l2.89-.8-.03-1.04c-.01-.37-.02-.82-.06-.98-.56,.12-4.56,1.28-5.12,1.48Zm16.16-4.09c-.05,0-.14,.01-.29,.04h-.08c-.94,.17-3.97,.81-5.16,1.09q-1.36,.33-1.76,.76c-.25,.28-.8,.75-1.2,1.06-.93,.71-1.43,1.18-1.63,1.42,.35-.05,1.13-.25,2.01-.46,2.42-.61,5.94-1.35,7.84-1.63l.17-.03c.3-.05,.6-.1,.78-.13-.04-.18-.12-.54-.26-1.05h0s-.05-.18-.05-.18c-.13-.48-.2-.77-.28-.85-.02-.02-.04-.03-.08-.03Zm-24.55,5.76l-.08-.06c-.24-.21,.24-1.55,.25-1.56,.05-.13,.12-.31,.29-.31,.12,0,1.01,.19,1.58,.32,1.45,.33,1.46,.4,1.49,.52l.03,.11-.09,.08c-.16,.18-3.21,.89-3.38,.89h-.08Zm.53-1.55c-.1,.22-.26,.86-.31,1.16,.49-.09,1.85-.44,2.57-.65-.2-.06-.48-.12-.84-.21h0c-.65-.15-1.2-.26-1.42-.3Zm-18.88,1.52l-.49-.53c-.78-.85-1.49-1.14-3.28-1.34-2.36-.28-2.42-.44-2.45-.53l-.04-.11,.08-.09c.06-.06,.11-.11,1.35,.07,1.59,.21,6.35,.3,8.22,.15,4.79-.38,9.71-1.39,15.96-3.27,1.2-.35,11.15-3.53,12.06-3.84,.3-.1,.49-.16,.65-.05,.2,.14,.2,.42,.2,1.32v1.33l-.85,.26c-.39,.11-2.18,.65-4.08,1.24-1.1,.34-2.33,.72-3.32,1.02-.67,.2-1.22,.37-1.56,.48l-1.58,.47-1.06-.23c-.46-.1-.82-.19-.9-.14-.04,.03-.07,.23-.1,.42-.1,.58-.17,.6-2,1.07-5.56,1.44-9.89,2.11-14.46,2.24l-2.35,.06Zm-2.28-2c.92,.23,1.47,.57,2.06,1.22l.37,.41,2.18-.06c4.54-.13,8.85-.79,14.38-2.23q1.67-.43,1.72-.77c.06-.35,.09-.55,.26-.67,.2-.14,.47-.08,1.18,.08l.96,.21,1.49-.45c.34-.1,.89-.28,1.56-.48,.99-.3,2.22-.68,3.32-1.02,1.9-.59,3.7-1.14,4.09-1.24l.59-.18v-1.05c0-.53,0-.95-.05-1.03-.02,0-.16,.06-.29,.1-.93,.32-10.89,3.5-12.09,3.85-6.27,1.89-11.21,2.9-16.03,3.28-1.23,.1-3.69,.09-5.71,.02Zm28.71-.13l-2.1-.47c-1.02-.23-2.12-.49-2.21-.53l-.12-.05v-.14c.03-.22,.03-.23,8.48-2.82,.78-.24,1.45-.43,1.49-.44h.05s.08,0,.08,0l.06,.06c.05,.05,.12,.12,.1,1.35h0s-.03,1.37-.03,1.37l-5.78,1.69Zm-3.69-1.22c.4,.1,1,.24,1.67,.39l2.01,.45,5.43-1.59,.03-1.1c0-.46,0-.8-.01-.98-.26,.07-.75,.22-1.28,.38-4.25,1.3-6.85,2.11-7.84,2.45Zm35.85,.29c-.21,0-.55-.06-1.16-.16-.68-.12-1.23-.2-1.27-.21h-.09l-.04-.07c-.06-.08-.09-.11,.17-1.45l.06-.32c.11-.58,.16-.87,.38-1.02,.23-.16,.54-.1,1.17,.03l.34,.06c.4,.07,1.09,.22,1.2,.4,.31,.48,.03,2.01-.37,2.54-.1,.14-.18,.2-.4,.2Zm-2.22-.71c.28,.04,.78,.13,1.13,.19,1.13,.2,1.14,.18,1.2,.1,.35-.46,.53-1.78,.36-2.11-.08-.05-.42-.16-.97-.26h0s-.34-.07-.34-.07c-.48-.09-.79-.15-.89-.08-.1,.07-.15,.35-.23,.78l-.06,.33c-.11,.57-.17,.93-.2,1.11Zm-12.27,.48l-.36-1.39c-.35-1.33-.31-1.37-.23-1.45,.16-.19,4.25-.56,4.29-.56,1.48-.11,6.43-.06,7.56,.08h0c.85,.12,.88,.14,.93,.19,.07,.07,.1,.1-.08,1.06l-.23,1.16-.49-.36c-.41-.29-1.04-.4-1.6-.28-.59,.13-1.2,.57-1.26,.78-.1,.34-.22,.34-2.21,.34-1.75,0-4.3,.16-5.7,.36l-.61,.08Zm-.26-2.57c.04,.2,.12,.59,.26,1.09l.28,1.07,.29-.04c1.41-.2,3.99-.36,5.75-.36,1.02,0,1.76,0,1.86-.06,.13-.44,.94-.91,1.54-1.04,.66-.14,1.39-.01,1.9,.34l.03,.02,.11-.59c.06-.33,.1-.58,.12-.71-.12-.02-.32-.05-.65-.1-1.13-.14-6.02-.19-7.49-.08-1.2,.09-3.41,.36-3.99,.46Zm-11.55,1.67v-2.52l1.47-.43c1.18-.34,1.47-.42,1.66-.27,.14,.1,.14,.26,.14,.45l-.18,.02h.18c0,.56-.48,1.5-.97,1.89-.35,.27-1.08,.58-1.79,.76l-.51,.11Zm.37-2.24v1.79h.06c.64-.17,1.35-.46,1.65-.7,.4-.31,.83-1.15,.83-1.6v-.02c0-.05,0-.12,0-.15-.15-.02-.62,.13-1.32,.33l-1.21,.35Zm3.63,1.49c-.06,0-.12-.02-.17-.07-.11-.11-.07-.24,.04-.62,.15-.53,.17-1.09,.04-1.53-.11-.43-.07-.49-.04-.54l.03-.03c.22-.2,5.5-1.35,5.85-1.36h.45s.35,1.3,.35,1.3c.33,1.25,.27,1.36,.12,1.44-.1,.08-.86,.21-1.18,.26-.55,.1-1.92,.38-3.06,.63l-1.01,.22c-.78,.17-1.19,.26-1.27,.28-.04,.01-.09,.02-.15,.02Zm.21-2.53c0,.05,.03,.13,.05,.22,.15,.5,.13,1.13-.04,1.73-.02,.06-.04,.12-.05,.18,.2-.04,.66-.14,1.17-.26l1.01-.22c1.15-.25,2.52-.53,3.08-.63,.47-.08,.84-.15,.99-.2,0-.11-.05-.38-.23-1.05h0s-.27-1.03-.27-1.03h-.16c-.39,.01-4.79,1.01-5.54,1.25Zm22.13,1.14s-1.83-.27-1.95-.39c-.2-.2,.07-.92,.07-.93,.03-.07,.1-.25,.27-.25,.18,0,.66,.28,.71,.32h0c.06,.04,1.2,.76,1.11,1.1-.02,.09-.11,.15-.21,.15Zm-1.66-.67c.23,.05,.84,.17,1.26,.24-.19-.17-.45-.37-.69-.51h0c-.19-.11-.36-.2-.46-.24-.05,.13-.11,.37-.12,.5Zm-13.69,.6l-.37-1.37c-.35-1.32-.33-1.35-.24-1.43,.14-.14,4.01-.6,4.04-.6,2.59-.29,5.71-.32,8.56-.08,.63,.05,1.4,.13,1.52,.21,.19,.12,.18,.36-.04,1.5l-.26,1.39h-.61c-.24-.01-1.28-.08-2.39-.14h-.19c-2.29-.15-5.12-.06-7.55,.24l-.55,.07c-.5,.06-.99,.12-1.21,.14l-.7,.08Zm-.28-2.53c.04,.19,.13,.55,.26,1.06l.29,1.07,.39-.04c.23-.02,.71-.08,1.21-.14l.55-.07c2.46-.3,5.3-.39,7.62-.25h.19c1.1,.08,2.14,.14,2.37,.14h.3s.2-1.08,.2-1.08c.05-.26,.18-.93,.17-1.13-.13-.02-.62-.09-1.31-.14h0c-2.83-.24-5.92-.21-8.49,.08-1.09,.12-3.17,.41-3.75,.51Zm-10.72,2.02v-1.47c0-1.32,.1-1.39,.18-1.44,.04-.03,.12-.08,.86-.18,.43-.05,.67-.08,.71-.09h.03s.02,0,.02,0c.03,0,.06,0,.12,.04l.82-.41c1.56-.78,8.56-2.26,12.5-2.64,.44-.04,.9-.08,1.21-.11l.29-.03c.82-.08,6.35,.02,7.29,.13h0s.24,.03,.24,.03c.59,.08,.77,.11,.86,.14,.21,.06,.23,.28-.02,1.53-.26,1.31-.27,1.33-.29,1.36l-.03,.05c-.08,.08-.08,.08-1.86-.09-3.19-.3-8.28-.08-11.6,.51-.81,.14-.91,.15-.94,.15-.15,0-.22-.06-.42-.83-.05-.23-.11-.38-.16-.49,.02,.12,.04,.29,.1,.51,.18,.72,.17,.79,.03,.86h0c-.09,.04-.38,.1-1.57,.35-.81,.17-2.17,.49-3.01,.7l-1.67,.42-.23-.45c-.25-.48-.62-.92-.99-1.19l-.07-.05c.41,.48,.73,1.01,.83,1.36,.1,.43-.05,.48-1.52,.89l-1.69,.48Zm.42-2.62c-.03,.13-.06,.5-.06,1.15v.99l1.23-.34c.69-.19,1.16-.33,1.27-.4,0-.01,0-.03,0-.04-.08-.3-.4-.8-.79-1.25-.14-.15-.25-.25-.31-.29-.09,.01-.28,.04-.68,.08-.37,.05-.57,.09-.66,.11Zm2.12-.44l.13,.09c.42,.3,.83,.8,1.11,1.33l.1,.19,1.39-.34c.85-.21,2.22-.53,3.03-.7,.61-.12,1.12-.24,1.36-.29-.02-.1-.06-.26-.11-.47-.06-.26-.15-.71-.1-.87,.09-.24,.25-.25,.31-.25,.23,.02,.42,.33,.56,.92,.07,.28,.13,.44,.16,.53,.17-.03,.51-.09,.78-.13,3.34-.59,8.48-.82,11.7-.51,.7,.07,1.29,.12,1.55,.13,.03-.15,.1-.47,.23-1.16,.15-.73,.18-1.02,.18-1.13-.13-.02-.43-.06-.7-.1l-.24-.03c-.91-.11-6.43-.21-7.22-.13l-.29,.03c-.31,.03-.78,.08-1.21,.11-3.82,.37-10.87,1.85-12.36,2.6l-.35,.18Zm25.05,2.71c-.17,0-.34-.17-1.12-.92-1.06-1.02-1.06-1.09-1.06-1.16v-.09l.07-.06c.19-.15,1.99,.27,2.01,.28h0c.41,.1,.44,.26,.47,.79,.02,.31-.02,.7-.08,.89-.04,.11-.09,.24-.23,.27-.02,0-.04,0-.07,0Zm-1.54-1.86c.17,.17,.4,.4,.68,.67,.39,.38,.68,.66,.82,.77,.03-.12,.07-.43,.05-.72q-.02-.41-.19-.45c-.4-.1-.97-.2-1.36-.26Zm1.42-.35c-.1,0-.35-.04-1.15-.17-.63-.12-1.09-.19-1.15-.2h-.08s-.07-.08-.07-.08c-.17-.22,.08-1.07,.08-1.08,.03-.11,.1-.19,.19-.23,.19-.08,.45,.02,1.11,.36,.41,.2,1.22,.88,1.27,1.16,.01,.07,0,.14-.06,.19l-.05,.03s-.04,.02-.08,.02Zm-2.15-.72c.32,.05,1.05,.18,1.06,.19,.32,.05,.55,.09,.71,.12-.23-.22-.59-.52-.87-.66h0c-.18-.09-.63-.32-.78-.35-.08,.29-.12,.57-.12,.71Zm-.14-.02s0,0,.02,0c0,0-.01,0-.02,0Z"/></g><path class="cls-3" d="M96.21,260.33c-.07,0-.14-.02-.21-.05-7.73-3.49-12.72-11.22-12.72-19.7,0-11.91,9.69-21.6,21.6-21.6s21.6,9.69,21.6,21.6c0,4.95-1.63,9.61-4.71,13.47-.18,.22-.51,.26-.73,.08-.22-.18-.26-.51-.08-.73,2.93-3.67,4.48-8.11,4.48-12.82,0-11.34-9.22-20.56-20.56-20.56s-20.56,9.22-20.56,20.56c0,8.07,4.75,15.43,12.11,18.75,.26,.12,.38,.43,.26,.69-.09,.19-.28,.31-.47,.31Z"/><g><path class="cls-3" d="M67.24,190.69c.45,.63,.89,1.26,1.34,1.89,.02,.02,0,.07-.02,.09-.22,.16-.45,.32-.67,.48-.03,.02-.07,.01-.09,0-.49-.69-.99-1.39-1.48-2.08-.5-.68-1-1.35-1.5-2.03-.02-.02,0-.07,.02-.09,.31-.23,.63-.45,.95-.67,.04-.03,.09-.03,.12-.02,1.55,.54,3.05,1.14,4.52,1.78-.05-.07-.1-.14-.15-.21-.23-.34-.47-.69-.7-1.03-.44-.7-.89-1.39-1.33-2.09-.02-.02,0-.07,.03-.09,.24-.16,.49-.31,.74-.46,.03-.02,.08-.01,.09,.01,.43,.72,.87,1.44,1.3,2.16,.45,.72,.91,1.44,1.36,2.16,.02,.03,0,.07-.02,.08-.31,.19-.62,.39-.94,.59-.03,.02-.08,.03-.11,0-1.44-.63-2.92-1.22-4.43-1.76,.07,.1,.15,.19,.22,.29,.25,.33,.49,.67,.74,1Z"/><path class="cls-3" d="M76.01,188.15s-.07,.01-.11-.01c-.35-.33-.71-.66-1.07-.98-.67,.35-1.34,.72-2,1.1,.08,.48,.17,.95,.26,1.43,.01,.04,0,.07-.04,.09-.25,.15-.5,.3-.75,.45-.03,.02-.06,0-.07-.03-.32-1.79-.59-3.59-.81-5.41,0-.04,.02-.08,.05-.1,.37-.21,.75-.42,1.12-.62,.04-.02,.08-.02,.11,0,1.4,1.17,2.77,2.37,4.09,3.6,.03,.02,.02,.06,0,.07-.26,.13-.53,.26-.79,.4Zm-1.78-1.53c-.63-.56-1.27-1.11-1.92-1.66,.12,.84,.25,1.67,.39,2.5,.51-.29,1.02-.57,1.53-.85Z"/><path class="cls-3" d="M79.66,186.52c-1.43,.63-2.89,.15-3.61-1.3-.73-1.47-.13-2.96,1.41-3.63,1.31-.57,2.41-.33,3.08,.57,.02,.02,0,.06-.03,.07-.29,.11-.57,.23-.86,.34-.04,.02-.08,0-.1-.02-.43-.53-1.05-.63-1.8-.31-1.01,.45-1.28,1.41-.75,2.53,.52,1.09,1.41,1.5,2.37,1.08,.86-.38,1.18-1.07,.86-1.92-.49,.2-.98,.41-1.46,.62-.03,.01-.07,0-.08-.03-.08-.18-.16-.36-.24-.54-.01-.03,0-.07,.04-.08,.8-.35,1.61-.69,2.42-1,.03-.01,.07,0,.08,.03,.69,1.73,.19,2.93-1.33,3.59Z"/><path class="cls-3" d="M86.32,183.93s-.07,0-.1-.03c-.29-.39-.58-.77-.88-1.16-.71,.23-1.42,.47-2.12,.72,0,.48,0,.97,.01,1.45,0,.04-.02,.07-.05,.08-.27,.1-.54,.2-.8,.3-.03,.01-.06,0-.06-.04,0-1.81,.03-3.63,.12-5.45,0-.04,.03-.07,.07-.09,.4-.14,.79-.27,1.19-.4,.04-.01,.08,0,.11,.03,1.17,1.4,2.29,2.82,3.36,4.27,.02,.02,0,.06-.02,.07-.28,.08-.55,.16-.83,.25Zm-1.47-1.82c-.52-.66-1.05-1.32-1.58-1.98-.03,.84-.04,1.69-.05,2.53,.54-.19,1.08-.37,1.63-.55Z"/><path class="cls-3" d="M87.95,180.99c.2,.74,.41,1.49,.61,2.23,0,.03-.01,.07-.05,.07-.25,.07-.51,.14-.76,.21-.03,0-.07-.01-.08-.04-.22-.82-.45-1.64-.67-2.46-.24-.81-.48-1.61-.71-2.42,0-.03,.02-.07,.05-.08,.36-.1,.72-.2,1.08-.3,.04-.01,.09,0,.11,.02,1.23,1.05,2.41,2.14,3.54,3.25-.02-.08-.04-.17-.06-.25-.1-.4-.2-.81-.3-1.21-.18-.81-.36-1.61-.54-2.42,0-.03,.02-.07,.05-.07,.27-.06,.55-.12,.82-.18,.03,0,.07,.02,.08,.04,.16,.83,.32,1.65,.49,2.48,.18,.83,.36,1.66,.54,2.49,0,.03-.02,.06-.05,.07-.35,.07-.7,.15-1.05,.23-.04,0-.08,0-.1-.03-1.11-1.09-2.26-2.16-3.46-3.19,.04,.12,.07,.23,.11,.35,.12,.4,.23,.8,.35,1.2Z"/><path class="cls-3" d="M95.51,181.94c-1.6,.24-2.85-.61-3.17-2.18-.33-1.62,.6-2.89,2.36-3.16,1.75-.26,3.02,.66,3.19,2.33,.16,1.6-.79,2.78-2.38,3.02Zm-.11-.73c1.08-.16,1.62-.96,1.47-2.17-.14-1.21-.91-1.89-2.06-1.72-1.16,.18-1.68,1.03-1.45,2.25,.22,1.19,.97,1.8,2.04,1.64Z"/><path class="cls-3" d="M103.08,180.27c-.37-.48-.74-.97-1.12-1.44-.17,.22-.35,.43-.52,.65,.03,.56,.07,1.13,.1,1.69,0,.03-.03,.06-.06,.06-.28,.02-.56,.03-.84,.05-.03,0-.06-.03-.07-.05-.05-.85-.1-1.71-.15-2.56-.07-.83-.14-1.67-.21-2.5,0-.03,.03-.06,.06-.06,.3-.02,.61-.04,.91-.06,.03,0,.07,.03,.07,.06,.04,.77,.07,1.54,.11,2.31,.59-.81,1.2-1.61,1.84-2.4,.02-.02,.07-.05,.11-.05,.36,0,.73-.01,1.09-.02,.02,0,.04,.03,.03,.04-.64,.69-1.26,1.39-1.86,2.1,.8,.99,1.56,1.99,2.29,3,0,.02,0,.05-.03,.05-.35,0-.7,0-1.06,.01-.04,0-.08-.02-.09-.05-.2-.28-.41-.55-.61-.82Z"/><path class="cls-3" d="M109.23,181.28s-.07-.03-.08-.07c-.13-.46-.26-.93-.4-1.39-.74-.04-1.48-.07-2.22-.09-.17,.45-.34,.9-.5,1.36,0,.04-.04,.06-.08,.06-.28,0-.56,0-.85,0-.03,0-.05-.03-.04-.06,.63-1.69,1.32-3.37,2.05-5.04,.02-.04,.05-.06,.09-.06,.41,.01,.83,.03,1.24,.05,.04,0,.08,.03,.09,.06,.58,1.72,1.11,3.46,1.58,5.19,.01,.03-.01,.06-.04,.06-.29-.02-.57-.04-.86-.06Zm-.71-2.23c-.24-.81-.49-1.61-.76-2.41-.32,.78-.64,1.56-.94,2.34,.57,.02,1.13,.04,1.7,.07Z"/><path class="cls-3" d="M113.39,180.65c-.19-.35-.38-.7-.57-1.05-.34-.04-.67-.08-1.01-.12-.06,.65-.13,1.29-.19,1.94,0,.03-.04,.06-.07,.05-.28-.03-.56-.06-.84-.08-.03,0-.06-.04-.06-.06,.09-.85,.17-1.7,.26-2.55,.07-.83,.14-1.67,.2-2.5,0-.03,.04-.06,.07-.05,.75,.07,1.49,.15,2.23,.24,1.41,.18,2.16,.85,1.99,1.89-.13,.78-.69,1.21-1.53,1.3,.38,.74,.75,1.49,1.1,2.24,.01,.02,0,.05-.04,.05-.33-.05-.66-.1-.99-.15-.04,0-.07-.03-.09-.06-.16-.35-.31-.71-.48-1.06Zm0-3.49c-.44-.05-.87-.11-1.31-.15-.07,.59-.14,1.18-.2,1.77,.44,.05,.88,.1,1.32,.15,.63,.08,1.14-.1,1.23-.72,.09-.59-.29-.96-1.04-1.05Z"/><path class="cls-3" d="M117.61,182.52c-1.38-.28-1.97-1.11-1.75-2.41,.08-.49,.17-.99,.25-1.49,.09-.55,.18-1.11,.27-1.66,0-.03,.04-.05,.08-.05,.31,.05,.62,.11,.93,.17,.03,0,.06,.04,.06,.07-.11,.54-.21,1.09-.32,1.63-.09,.5-.19,1-.28,1.5-.15,.8,.11,1.34,.92,1.5,.85,.18,1.32-.22,1.5-1.01,.11-.49,.22-.97,.33-1.46,.12-.55,.24-1.1,.35-1.65,0-.03,.05-.05,.08-.04,.28,.06,.55,.13,.83,.19,.03,0,.06,.04,.05,.07-.14,.54-.27,1.09-.41,1.63-.12,.49-.23,.98-.35,1.46-.31,1.28-1.16,1.82-2.53,1.53Z"/><path class="cls-3" d="M120.71,183.13s-.05-.04-.05-.07c.22-.82,.45-1.65,.67-2.47,.2-.81,.4-1.63,.59-2.44,0-.03,.05-.05,.08-.04,.3,.08,.59,.16,.89,.24,.03,0,.06,.05,.05,.08-.23,.81-.46,1.61-.7,2.42-.21,.83-.43,1.65-.64,2.48,0,.03-.05,.05-.08,.04-.27-.07-.55-.15-.82-.22Z"/><path class="cls-3" d="M126.47,184.85s-.05,.05-.08,.03c-1.29-.47-2.59-.89-3.9-1.27-.03,0-.05-.05-.04-.07,.06-.21,.12-.42,.18-.63,0-.04,.04-.07,.07-.09,1.31-.89,2.67-1.74,4.09-2.55-.94-.32-1.88-.62-2.83-.9-.03,0-.06-.05-.05-.08,.06-.19,.11-.38,.17-.57,0-.03,.05-.05,.08-.04,1.34,.39,2.66,.82,3.98,1.3,.03,.01,.05,.05,.04,.08-.08,.21-.16,.43-.23,.64-.01,.03-.04,.07-.08,.08-1.41,.78-2.77,1.6-4.08,2.47,.95,.29,1.9,.61,2.85,.95,.03,.01,.05,.05,.04,.08-.07,.19-.13,.37-.2,.56Z"/><path class="cls-3" d="M130.87,186.7s-.06-.05-.06-.09c.04-.48,.07-.96,.1-1.45-.69-.3-1.38-.59-2.08-.87-.32,.36-.64,.73-.95,1.09-.02,.03-.06,.04-.1,.03-.27-.1-.53-.21-.8-.31-.03-.01-.04-.05-.02-.07,1.19-1.36,2.42-2.7,3.7-4.01,.03-.03,.07-.04,.11-.02,.39,.16,.78,.32,1.17,.49,.04,.02,.06,.05,.06,.09-.05,1.82-.14,3.64-.29,5.44,0,.03-.03,.05-.06,.04-.27-.12-.53-.25-.8-.37Zm.1-2.34c.05-.84,.09-1.69,.11-2.53-.58,.62-1.15,1.24-1.71,1.86,.53,.22,1.07,.44,1.6,.67Z"/><path class="cls-3" d="M135.64,189.1s-.05-.05-.04-.09c.33-1.3,.65-2.61,.94-3.92-.91,.99-1.8,1.99-2.68,2.99-.02,.03-.07,.03-.1,.02-.32-.16-.64-.33-.96-.48-.04-.02-.06-.05-.05-.09,.34-1.72,.65-3.45,.92-5.18,0-.03,.04-.05,.07-.03,.28,.13,.57,.27,.85,.4,.04,.02,.06,.05,.05,.09-.27,1.41-.57,2.81-.88,4.2,.92-1.09,1.85-2.17,2.8-3.23,.02-.03,.07-.03,.1-.01,.32,.17,.65,.34,.97,.52,.03,.02,.06,.06,.05,.09-.35,1.4-.73,2.8-1.13,4.19,.99-1.05,2-2.08,3.03-3.11,.03-.03,.08-.02,.11,0,.25,.15,.51,.3,.76,.46,.03,.02,.04,.06,.01,.08-1.31,1.18-2.59,2.39-3.83,3.62-.03,.03-.07,.03-.1,.01-.3-.18-.61-.35-.91-.52Z"/><path class="cls-3" d="M141.26,192.63s-.05-.06-.04-.1c.12-.47,.25-.94,.37-1.41-.64-.44-1.28-.87-1.93-1.28-.39,.29-.77,.59-1.15,.89-.03,.03-.07,.03-.1,0-.25-.16-.5-.31-.75-.46-.03-.02-.03-.05,0-.07,1.43-1.11,2.91-2.18,4.42-3.22,.03-.02,.08-.02,.11,0,.36,.24,.72,.48,1.08,.72,.04,.02,.05,.06,.05,.1-.37,1.79-.8,3.56-1.26,5.32,0,.03-.04,.04-.07,.02-.24-.18-.49-.35-.73-.52Zm.52-2.3c.2-.82,.39-1.65,.57-2.48-.69,.49-1.37,.99-2.05,1.5,.5,.32,.99,.65,1.48,.98Z"/></g><g><path class="cls-3" d="M97.17,307.47s-.06-.03-.06-.06v-.63c0-1.99,2.47-1.8,2.47-2.85,.02-.48-.24-.76-.7-.76-.45,0-.73,.33-.75,.94,0,.04-.03,.06-.06,.06h-.86s-.06-.03-.06-.06c0-1.08,.58-1.71,1.74-1.72,1.11,0,1.67,.56,1.7,1.5,0,1.85-2.46,1.74-2.46,2.69v.09h2.39s.06,.03,.06,.06v.68s-.03,.06-.06,.06h-3.34Z"/><path class="cls-3" d="M102.96,307.58c-1.2,0-1.98-.92-1.98-2.59s.78-2.62,1.98-2.62,1.99,.86,1.99,2.62-.78,2.59-1.99,2.59Zm0-.83c.56,0,.86-.51,.86-1.75s-.31-1.78-.87-1.78-.86,.52-.86,1.78,.31,1.75,.87,1.75Z"/><path class="cls-3" d="M105.4,307.47s-.06-.03-.06-.06v-.63c0-1.99,2.47-1.8,2.47-2.85,.02-.48-.24-.76-.7-.76-.45,0-.73,.33-.75,.94,0,.04-.03,.06-.06,.06h-.86s-.06-.03-.06-.06c0-1.08,.58-1.71,1.74-1.72,1.11,0,1.67,.56,1.7,1.5,0,1.85-2.46,1.74-2.46,2.69v.09h2.39s.06,.03,.06,.06v.68s-.03,.06-.06,.06h-3.34Z"/><path class="cls-3" d="M109.3,307.47s-.06-.03-.06-.06v-.63c0-1.99,2.47-1.8,2.47-2.85,.02-.48-.24-.76-.7-.76-.45,0-.73,.33-.75,.94,0,.04-.03,.06-.06,.06h-.86s-.06-.03-.06-.06c0-1.08,.58-1.71,1.74-1.72,1.11,0,1.67,.56,1.7,1.5,0,1.85-2.46,1.74-2.46,2.69v.09h2.39s.06,.03,.06,.06v.68s-.03,.06-.06,.06h-3.34Z"/></g><g class="cls-1"><g><path class="cls-3" d="M68.85,298.47c-.01,.07-.06,.09-.11,.09h-1.94c-.07,0-.1-.05-.09-.11l.95-3.94,.84-3.81c.01-.07,.06-.09,.11-.09h2.81c.06,0,.09,.03,.1,.09l.58,4.66,2.59-4.68s.06-.07,.11-.07h3.19c.07,0,.1,.05,.09,.11l-.93,3.79-.86,3.97c-.01,.07-.06,.09-.11,.09h-2.32c-.07,0-.1-.03-.09-.11l.77-3.4v-.06s.36-1.18,.36-1.18l-2.58,4.68s-.06,.07-.11,.07h-1.7c-.06,0-.09-.03-.1-.09l-.56-4.6-.19,1.13v.06s-.81,3.42-.81,3.42Z"/><path class="cls-3" d="M77.86,295.28l.34-1.42,.68-3.16c.01-.07,.06-.09,.11-.09h2.3c.07,0,.1,.05,.09,.11l-.77,3.07-.34,1.51c-.24,1.02,.01,1.56,.88,1.56,.68,0,1.07-.32,1.27-1.22l.43-1.8,.68-3.15c.01-.07,.06-.09,.11-.09h2.26c.07,0,.1,.05,.09,.11l-.77,3.14-.41,1.81c-.48,2.05-1.58,3.1-3.82,3.1-2.38,0-3.66-1.3-3.14-3.49Z"/><path class="cls-3" d="M85.38,296.09c0-.07,.05-.1,.1-.1h2.32c.06,0,.1,.03,.1,.1,.03,.52,.52,.92,1.47,.92,.59,0,1.09-.18,1.09-.66,0-1.27-4.24-.38-4.24-3.24,0-1.77,1.83-2.71,3.77-2.71s3.48,.92,3.49,2.44c0,.07-.05,.1-.1,.1h-2.33c-.06,0-.1-.03-.1-.1-.06-.4-.48-.65-1.14-.65-.52,0-1.05,.13-1.05,.53,0,1.1,4.29,.41,4.29,3.23,0,1.83-1.76,2.81-3.85,2.81s-3.82-1-3.82-2.68Z"/><path class="cls-3" d="M95.75,298.47c-.01,.07-.06,.09-.11,.09h-2.32c-.07,0-.1-.05-.09-.11l.93-3.79,.86-3.97c.01-.07,.06-.09,.11-.09h2.32c.07,0,.1,.05,.09,.11l-.98,3.94-.82,3.81Z"/><path class="cls-3" d="M97.43,295.12c0-2.42,1.77-4.72,4.71-4.72,2.07,0,3.35,1.13,3.5,3,.01,.07-.02,.1-.09,.1h-2.13c-.06,0-.1-.03-.11-.1-.1-.82-.6-1.17-1.31-1.17-1.6,0-2.08,1.89-2.08,2.97,0,1.23,.61,1.74,1.45,1.74s1.27-.51,1.51-1.16c.02-.06,.07-.08,.13-.08h2.17c.07,0,.1,.03,.09,.09-.44,1.67-1.86,2.98-4.05,2.98s-3.8-1.31-3.8-3.65Z"/><path class="cls-3" d="M111.12,298.49s-.06,.08-.11,.08h-2.56c-.06,0-.1-.05-.1-.1l.13-7.75c0-.06,.05-.1,.1-.1h2.08c.07,0,.09,.03,.09,.1l-.24,4.5,2.01-4.52s.06-.08,.11-.08h2.25c.06,0,.1,.05,.1,.1v4.51s1.78-4.54,1.78-4.54c.02-.05,.07-.08,.13-.08h2.31c.07,0,.11,.05,.08,.13l-3.48,7.75s-.06,.08-.11,.08h-2.56c-.06,0-.1-.05-.1-.1v-4.11l-1.91,4.14Z"/><path class="cls-3" d="M124.49,290.71l.72,7.75c.01,.07-.02,.1-.09,.1h-2.21c-.06,0-.11-.05-.11-.1l-.09-1.53h-2.57l-.8,1.56c-.02,.06-.06,.08-.11,.08h-2.52c-.08,0-.1-.06-.07-.13l4.41-7.76s.07-.07,.13-.07h3.21c.06,0,.11,.05,.11,.1Zm-2.08,1.71l-1.32,2.6h1.49l-.17-2.6Z"/><path class="cls-3" d="M125.59,296.09c0-.07,.05-.1,.1-.1h2.32c.06,0,.1,.03,.1,.1,.03,.52,.52,.92,1.47,.92,.59,0,1.09-.18,1.09-.66,0-1.27-4.24-.38-4.24-3.24,0-1.77,1.83-2.71,3.77-2.71s3.48,.92,3.49,2.44c0,.07-.05,.1-.1,.1h-2.33c-.06,0-.1-.03-.1-.1-.06-.4-.48-.65-1.14-.65-.52,0-1.05,.13-1.05,.53,0,1.1,4.29,.41,4.29,3.23,0,1.83-1.76,2.81-3.85,2.81s-3.82-1-3.82-2.68Z"/><path class="cls-3" d="M139.88,293.46l.6-2.76c.01-.07,.06-.09,.11-.09h2.36c.07,0,.1,.05,.09,.11l-.95,3.82-.84,3.93c-.01,.07-.06,.09-.11,.09h-2.36c-.07,0-.1-.05-.09-.11l.78-3.23h-2.56l-.72,3.25c-.01,.07-.06,.09-.11,.09h-2.36c-.07,0-.1-.05-.09-.11l.98-3.91,.82-3.84c.01-.07,.06-.09,.11-.09h2.36c.07,0,.1,.05,.09,.11l-.67,2.74h2.56Z"/></g></g><path class="cls-3" d="M105.63,320.76c-20.71,0-40.17-8.06-54.82-22.71-14.64-14.64-22.71-34.11-22.71-54.82,0-7.35,1.03-14.63,3.06-21.62,.09-.32,.42-.5,.74-.41,.32,.09,.5,.42,.41,.74-2,6.89-3.01,14.05-3.01,21.29,0,20.39,7.94,39.56,22.36,53.98,14.42,14.42,33.59,22.36,53.98,22.36,22.09,0,43.09-9.57,57.61-26.25,.22-.25,.59-.27,.84-.06,.25,.22,.27,.59,.06,.84-14.74,16.94-36.06,26.66-58.5,26.66Z"/><path class="cls-3" d="M179.13,266.62c-.06,0-.12,0-.18-.03-.31-.1-.49-.43-.39-.74,2.26-7.29,3.4-14.9,3.4-22.61,0-20.39-7.94-39.56-22.36-53.98-14.42-14.42-33.59-22.36-53.98-22.36-10.95,0-21.51,2.27-31.41,6.74-9.56,4.32-18,10.46-25.09,18.26-.22,.24-.6,.26-.84,.04-.24-.22-.26-.6-.04-.84,7.2-7.91,15.77-14.15,25.48-18.54,10.05-4.54,20.78-6.85,31.9-6.85,20.71,0,40.17,8.06,54.82,22.71,14.64,14.64,22.71,34.11,22.71,54.82,0,7.83-1.16,15.55-3.46,22.96-.08,.25-.31,.42-.57,.42Z"/><path class="cls-3" d="M42.06,207.74c-3.99,0-7.24-3.25-7.24-7.24s3.25-7.24,7.24-7.24,7.24,3.25,7.24,7.24-3.25,7.24-7.24,7.24Zm0-13.28c-3.33,0-6.05,2.71-6.05,6.05s2.71,6.05,6.05,6.05,6.05-2.71,6.05-6.05-2.71-6.05-6.05-6.05Z"/><path class="cls-3" d="M168.92,293.42c-3.99,0-7.24-3.25-7.24-7.24s3.25-7.24,7.24-7.24,7.24,3.25,7.24,7.24-3.25,7.24-7.24,7.24Zm0-13.28c-3.33,0-6.05,2.71-6.05,6.05s2.71,6.05,6.05,6.05,6.05-2.71,6.05-6.05-2.71-6.05-6.05-6.05Z"/><path class="cls-3" d="M35.42,219.6c-3.22,0-5.84-2.62-5.84-5.84s2.62-5.84,5.84-5.84,5.84,2.62,5.84,5.84-2.62,5.84-5.84,5.84Zm0-10.49c-2.56,0-4.65,2.09-4.65,4.65s2.09,4.65,4.65,4.65,4.65-2.09,4.65-4.65-2.09-4.65-4.65-4.65Z"/><path class="cls-3" d="M175.56,279.35c-3.22,0-5.84-2.62-5.84-5.84s2.62-5.84,5.84-5.84,5.84,2.62,5.84,5.84-2.62,5.84-5.84,5.84Zm0-10.49c-2.56,0-4.65,2.09-4.65,4.65s2.09,4.65,4.65,4.65,4.65-2.09,4.65-4.65-2.09-4.65-4.65-4.65Z"/><path class="cls-3" d="M93.78,305.53h-4.35c-.33,0-.59-.27-.59-.59s.27-.59,.59-.59h4.35c.33,0,.59,.27,.59,.59s-.27,.59-.59,.59Z"/><path class="cls-3" d="M120.38,305.57h-4.35c-.33,0-.59-.27-.59-.59s.27-.59,.59-.59h4.35c.33,0,.59,.27,.59,.59s-.27,.59-.59,.59Z"/></g></g></svg>