<?xml version="1.0" encoding="UTF-8"?><svg id="_レイヤー_2" xmlns="http://www.w3.org/2000/svg" width="367mm" height="568.42mm" xmlns:xlink="http://www.w3.org/1999/xlink" viewBox="0 0 1040.31 1611.26"><defs><style>.cls-1{mask:url(#mask);}.cls-2{fill:#fff;}.cls-3,.cls-4{fill:#52a7cd;}.cls-5{fill:#808285;}.cls-6{fill:url(#_名称未設定グラデーション_13);}.cls-4{fill-rule:evenodd;}</style><linearGradient id="_名称未設定グラデーション_13" x1="325.62" y1="1374.98" x2="701.69" y2="1374.98" gradientUnits="userSpaceOnUse"><stop offset="0" stop-color="#fff"/><stop offset=".59" stop-color="#fff"/><stop offset=".69" stop-color="#fff"/><stop offset=".71" stop-color="#f3f3f3"/><stop offset=".76" stop-color="#d3d3d3"/><stop offset=".83" stop-color="#9f9f9f"/><stop offset=".91" stop-color="#585858"/><stop offset="1" stop-color="#000"/></linearGradient><mask id="mask" x="325.62" y="1354.38" width="376.07" height="41.21" maskUnits="userSpaceOnUse"><path class="cls-6" d="M336.22,1394.13c-.06,.34-.28,.45-.56,.45h-9.57c-.34,0-.5-.22-.45-.56l4.7-19.43,4.14-18.76c.06-.34,.28-.45,.56-.45h13.83c.28,0,.45,.17,.5,.45l2.86,22.95,12.76-23.07c.11-.22,.28-.34,.56-.34h15.73c.34,0,.5,.22,.45,.56l-4.59,18.64-4.25,19.54c-.06,.34-.28,.45-.56,.45h-11.42c-.34,0-.5-.17-.45-.56l3.81-16.74,.06-.28,1.74-5.82-12.71,23.07c-.11,.22-.28,.34-.56,.34h-8.4c-.28,0-.45-.17-.5-.45l-2.74-22.67-.95,5.54-.06,.28-3.92,16.85Zm44.4-15.73l1.68-7,3.36-15.56c.06-.34,.28-.45,.56-.45h11.31c.34,0,.5,.22,.45,.56l-3.81,15.12-1.68,7.45c-1.18,5.04,.06,7.67,4.31,7.67,3.36,0,5.26-1.57,6.27-5.99l2.13-8.85,3.36-15.51c.06-.34,.28-.45,.56-.45h11.14c.34,0,.5,.22,.45,.56l-3.81,15.45-2.02,8.9c-2.35,10.08-7.78,15.28-18.81,15.28-11.7,0-18.03-6.38-15.45-17.19Zm37.01,3.98c0-.34,.22-.5,.5-.5h11.42c.28,0,.5,.17,.5,.5,.17,2.58,2.58,4.53,7.22,4.53,2.91,0,5.37-.9,5.37-3.25,0-6.27-20.88-1.85-20.88-15.96,0-8.73,9.01-13.32,18.59-13.32s17.13,4.54,17.19,12.04c0,.34-.22,.5-.5,.5h-11.48c-.28,0-.5-.17-.5-.5-.28-1.96-2.35-3.19-5.6-3.19-2.58,0-5.15,.62-5.15,2.63,0,5.43,21.11,2.02,21.11,15.9,0,9.01-8.68,13.83-18.98,13.83s-18.81-4.93-18.81-13.21Zm51.11,11.76c-.06,.34-.28,.45-.56,.45h-11.42c-.34,0-.5-.22-.45-.56l4.59-18.64,4.25-19.54c.06-.34,.28-.45,.56-.45h11.42c.34,0,.5,.22,.45,.56l-4.81,19.43-4.03,18.76Zm8.23-16.52c0-11.92,8.73-23.23,23.18-23.23,10.19,0,16.52,5.54,17.24,14.78,.06,.34-.11,.5-.45,.5h-10.47c-.28,0-.5-.17-.56-.5-.5-4.03-2.97-5.77-6.44-5.77-7.89,0-10.25,9.29-10.25,14.61,0,6.05,3.02,8.57,7.17,8.57s6.27-2.52,7.45-5.71c.11-.28,.34-.39,.62-.39h10.69c.34,0,.5,.17,.45,.45-2.18,8.23-9.18,14.67-19.93,14.67s-18.7-6.44-18.7-17.97Zm67.46,16.57c-.11,.22-.28,.39-.56,.39h-12.6c-.28,0-.5-.22-.5-.5l.62-38.18c0-.28,.22-.5,.5-.5h10.25c.34,0,.45,.17,.45,.5l-1.18,22.17,9.91-22.28c.11-.22,.28-.39,.56-.39h11.09c.28,0,.5,.22,.5,.5l-.06,22.23,8.85-22.34c.11-.22,.34-.39,.62-.39h11.37c.34,0,.56,.22,.39,.62l-17.13,38.18c-.11,.22-.28,.39-.56,.39h-12.6c-.28,0-.5-.22-.5-.5v-20.27l-9.41,20.38Zm65.84-38.29l3.53,38.18c.06,.34-.11,.5-.45,.5h-10.86c-.28,0-.56-.22-.56-.5l-.45-7.56h-12.65l-3.92,7.67c-.11,.28-.28,.39-.56,.39h-12.43c-.39,0-.5-.28-.34-.62l21.72-38.24c.11-.22,.34-.34,.62-.34h15.79c.28,0,.56,.22,.56,.5Zm-10.25,8.4l-6.49,12.82h7.33l-.84-12.82Zm15.67,18.08c0-.34,.22-.5,.5-.5h11.42c.28,0,.5,.17,.5,.5,.17,2.58,2.58,4.53,7.22,4.53,2.91,0,5.38-.9,5.38-3.25,0-6.27-20.88-1.85-20.88-15.96,0-8.73,9.01-13.32,18.59-13.32s17.13,4.54,17.19,12.04c0,.34-.22,.5-.5,.5h-11.48c-.28,0-.5-.17-.5-.5-.28-1.96-2.35-3.19-5.6-3.19-2.58,0-5.15,.62-5.15,2.63,0,5.43,21.11,2.02,21.11,15.9,0,9.01-8.68,13.83-18.98,13.83s-18.81-4.93-18.81-13.21Zm70.37-12.93l2.97-13.6c.06-.34,.28-.45,.56-.45h11.64c.34,0,.5,.22,.45,.56l-4.7,18.81-4.14,19.37c-.06,.34-.28,.45-.56,.45h-11.64c-.34,0-.5-.22-.45-.56l3.86-15.9h-12.6l-3.53,16.01c-.06,.34-.28,.45-.56,.45h-11.65c-.34,0-.5-.22-.45-.56l4.82-19.26,4.03-18.92c.06-.34,.28-.45,.56-.45h11.65c.34,0,.5,.22,.45,.56l-3.3,13.49h12.6Z"/></mask></defs><g id="M"><path class="cls-2" d="M757.23,301.43c0-170.39-105.64-291.51-235.93-291.51s-235.94,121.12-235.94,291.51v248.78H9.92v888.41l147.96,162.72H883.56l146.84-162.72V550.21h-273.16v-248.78Zm-419.42,248.78v-248.78c0-132.51,82.16-239.95,183.5-239.95s183.5,107.44,183.5,239.95v248.78H337.81Z"/><g><path class="cls-5" d="M767.15,540.29v-238.86c0-83.66-25.35-160.37-71.39-215.98C650.15,30.35,588.19,0,521.31,0s-128.87,30.35-174.49,85.45c-46.03,55.61-71.38,132.31-71.38,215.98v238.86H0v902.16l153.49,168.8H887.97l152.35-168.83V540.29h-273.16Zm-471.87-238.86c0-160.53,97.17-281.59,226.02-281.59s226,121.06,226,281.59v238.86h-32.59v-238.86c0-66.26-19.81-128.65-55.78-175.69-36.58-47.83-85.46-74.18-137.63-74.18s-101.05,26.34-137.63,74.18c-35.98,47.04-55.79,109.44-55.79,175.69v238.86h-32.61v-238.86Zm399.6,0v238.86H347.73v-238.86c0-126.84,77.87-230.03,173.58-230.03s173.57,103.19,173.57,230.03Zm325.59,313.76h-2.79c-1.17,0-2.12,.95-2.12,2.13s.95,2.13,2.12,2.13h2.79v815.37l-141.33,156.61H162.27L19.84,1434.78V619.44h5.26c1.17,0,2.13-.95,2.13-2.13s-.95-2.13-2.13-2.13h-5.26v-55.05H1020.47v55.05Z"/><path class="cls-5" d="M368.22,615.19h-12.25c-1.17,0-2.12,.95-2.12,2.13s.95,2.13,2.12,2.13h12.25c1.17,0,2.13-.95,2.13-2.13s-.95-2.13-2.13-2.13Z"/><path class="cls-5" d="M343.71,615.19h-12.25c-1.17,0-2.13,.95-2.13,2.13s.95,2.13,2.13,2.13h12.25c1.17,0,2.13-.95,2.13-2.13s-.95-2.13-2.13-2.13Z"/><path class="cls-5" d="M319.2,615.19h-12.25c-1.17,0-2.13,.95-2.13,2.13s.95,2.13,2.13,2.13h12.25c1.17,0,2.12-.95,2.12-2.13s-.95-2.13-2.12-2.13Z"/><path class="cls-5" d="M294.69,615.19h-12.25c-1.17,0-2.13,.95-2.13,2.13s.95,2.13,2.13,2.13h12.25c1.17,0,2.13-.95,2.13-2.13s-.95-2.13-2.13-2.13Z"/><path class="cls-5" d="M270.18,615.19h-12.25c-1.17,0-2.12,.95-2.12,2.13s.95,2.13,2.12,2.13h12.25c1.17,0,2.13-.95,2.13-2.13s-.95-2.13-2.13-2.13Z"/><path class="cls-5" d="M466.25,615.19h-12.25c-1.17,0-2.12,.95-2.12,2.13s.95,2.13,2.12,2.13h12.25c1.18,0,2.13-.95,2.13-2.13s-.95-2.13-2.13-2.13Z"/><path class="cls-5" d="M490.76,615.19h-12.25c-1.18,0-2.13,.95-2.13,2.13s.95,2.13,2.13,2.13h12.25c1.17,0,2.13-.95,2.13-2.13s-.95-2.13-2.13-2.13Z"/><path class="cls-5" d="M441.74,615.19h-12.25c-1.17,0-2.13,.95-2.13,2.13s.95,2.13,2.13,2.13h12.25c1.17,0,2.13-.95,2.13-2.13s-.95-2.13-2.13-2.13Z"/><path class="cls-5" d="M417.23,615.19h-12.25c-1.17,0-2.13,.95-2.13,2.13s.95,2.13,2.13,2.13h12.25c1.17,0,2.12-.95,2.12-2.13s-.95-2.13-2.12-2.13Z"/><path class="cls-5" d="M392.73,615.19h-12.26c-1.17,0-2.12,.95-2.12,2.13s.95,2.13,2.12,2.13h12.26c1.17,0,2.12-.95,2.12-2.13s-.95-2.13-2.12-2.13Z"/><path class="cls-5" d="M74.12,615.19h-12.25c-1.17,0-2.13,.95-2.13,2.13s.95,2.13,2.13,2.13h12.25c1.17,0,2.13-.95,2.13-2.13s-.95-2.13-2.13-2.13Z"/><path class="cls-5" d="M245.68,615.19h-12.25c-1.17,0-2.13,.95-2.13,2.13s.95,2.13,2.13,2.13h12.25c1.17,0,2.12-.95,2.12-2.13s-.95-2.13-2.12-2.13Z"/><path class="cls-5" d="M49.61,615.19h-12.25c-1.18,0-2.13,.95-2.13,2.13s.95,2.13,2.13,2.13h12.25c1.17,0,2.12-.95,2.12-2.13s-.95-2.13-2.12-2.13Z"/><path class="cls-5" d="M147.64,615.19h-12.25c-1.17,0-2.13,.95-2.13,2.13s.95,2.13,2.13,2.13h12.25c1.17,0,2.12-.95,2.12-2.13s-.95-2.13-2.12-2.13Z"/><path class="cls-5" d="M98.63,615.19h-12.25c-1.17,0-2.13,.95-2.13,2.13s.95,2.13,2.13,2.13h12.25c1.17,0,2.13-.95,2.13-2.13s-.95-2.13-2.13-2.13Z"/><path class="cls-5" d="M172.15,615.19h-12.25c-1.17,0-2.12,.95-2.12,2.13s.95,2.13,2.12,2.13h12.25c1.17,0,2.13-.95,2.13-2.13s-.95-2.13-2.13-2.13Z"/><path class="cls-5" d="M221.17,615.19h-12.25c-1.17,0-2.13,.95-2.13,2.13s.95,2.13,2.13,2.13h12.25c1.17,0,2.12-.95,2.12-2.13s-.95-2.13-2.12-2.13Z"/><path class="cls-5" d="M196.66,615.19h-12.25c-1.17,0-2.12,.95-2.12,2.13s.95,2.13,2.12,2.13h12.25c1.18,0,2.13-.95,2.13-2.13s-.95-2.13-2.13-2.13Z"/><path class="cls-5" d="M123.13,615.19h-12.25c-1.17,0-2.12,.95-2.12,2.13s.95,2.13,2.12,2.13h12.25c1.17,0,2.13-.95,2.13-2.13s-.95-2.13-2.13-2.13Z"/><path class="cls-5" d="M846.13,619.44h12.26c1.17,0,2.12-.95,2.12-2.13s-.95-2.13-2.12-2.13h-12.26c-1.17,0-2.12,.95-2.12,2.13s.95,2.13,2.12,2.13Z"/><path class="cls-5" d="M870.64,619.44h12.25c1.17,0,2.12-.95,2.12-2.13s-.95-2.13-2.12-2.13h-12.25c-1.17,0-2.13,.95-2.13,2.13s.95,2.13,2.13,2.13Z"/><path class="cls-5" d="M895.15,619.44h12.25c1.17,0,2.13-.95,2.13-2.13s-.95-2.13-2.13-2.13h-12.25c-1.17,0-2.13,.95-2.13,2.13s.95,2.13,2.13,2.13Z"/><path class="cls-5" d="M772.61,619.44h12.25c1.17,0,2.12-.95,2.12-2.13s-.95-2.13-2.12-2.13h-12.25c-1.18,0-2.13,.95-2.13,2.13s.95,2.13,2.13,2.13Z"/><path class="cls-5" d="M797.11,619.44h12.25c1.17,0,2.13-.95,2.13-2.13s-.95-2.13-2.13-2.13h-12.25c-1.17,0-2.13,.95-2.13,2.13s.95,2.13,2.13,2.13Z"/><path class="cls-5" d="M821.62,619.44h12.25c1.17,0,2.13-.95,2.13-2.13s-.95-2.13-2.13-2.13h-12.25c-1.17,0-2.12,.95-2.12,2.13s.95,2.13,2.12,2.13Z"/><path class="cls-5" d="M515.27,615.19h-12.25c-1.18,0-2.13,.95-2.13,2.13s.95,2.13,2.13,2.13h12.25c1.17,0,2.12-.95,2.12-2.13s-.95-2.13-2.12-2.13Z"/><path class="cls-5" d="M968.67,619.44h12.25c1.17,0,2.12-.95,2.12-2.13s-.95-2.13-2.12-2.13h-12.25c-1.17,0-2.13,.95-2.13,2.13s.95,2.13,2.13,2.13Z"/><path class="cls-5" d="M944.16,619.44h12.26c1.17,0,2.12-.95,2.12-2.13s-.95-2.13-2.12-2.13h-12.26c-1.17,0-2.12,.95-2.12,2.13s.95,2.13,2.12,2.13Z"/><path class="cls-5" d="M919.65,619.44h12.25c1.17,0,2.13-.95,2.13-2.13s-.95-2.13-2.13-2.13h-12.25c-1.17,0-2.12,.95-2.12,2.13s.95,2.13,2.12,2.13Z"/><path class="cls-5" d="M993.18,619.44h12.25c1.17,0,2.13-.95,2.13-2.13s-.95-2.13-2.13-2.13h-12.25c-1.17,0-2.12,.95-2.12,2.13s.95,2.13,2.12,2.13Z"/><path class="cls-5" d="M637.81,615.19h-12.25c-1.17,0-2.13,.95-2.13,2.13s.95,2.13,2.13,2.13h12.25c1.17,0,2.13-.95,2.13-2.13s-.95-2.13-2.13-2.13Z"/><path class="cls-5" d="M588.79,615.19h-12.26c-1.17,0-2.12,.95-2.12,2.13s.95,2.13,2.12,2.13h12.26c1.17,0,2.12-.95,2.12-2.13s-.95-2.13-2.12-2.13Z"/><path class="cls-5" d="M613.3,615.19h-12.25c-1.17,0-2.13,.95-2.13,2.13s.95,2.13,2.13,2.13h12.25c1.17,0,2.12-.95,2.12-2.13s-.95-2.13-2.12-2.13Z"/><path class="cls-5" d="M539.78,615.19h-12.25c-1.17,0-2.13,.95-2.13,2.13s.95,2.13,2.13,2.13h12.25c1.17,0,2.12-.95,2.12-2.13s-.95-2.13-2.12-2.13Z"/><path class="cls-5" d="M564.28,615.19h-12.25c-1.17,0-2.12,.95-2.12,2.13s.95,2.13,2.12,2.13h12.25c1.18,0,2.13-.95,2.13-2.13s-.95-2.13-2.13-2.13Z"/><path class="cls-5" d="M662.32,615.19h-12.25c-1.17,0-2.12,.95-2.12,2.13s.95,2.13,2.12,2.13h12.25c1.18,0,2.13-.95,2.13-2.13s-.95-2.13-2.13-2.13Z"/><path class="cls-5" d="M735.84,615.19h-12.25c-1.17,0-2.13,.95-2.13,2.13s.95,2.13,2.13,2.13h12.25c1.17,0,2.13-.95,2.13-2.13s-.95-2.13-2.13-2.13Z"/><path class="cls-5" d="M760.35,615.19h-12.25c-1.17,0-2.12,.95-2.12,2.13s.95,2.13,2.12,2.13h12.25c1.18,0,2.13-.95,2.13-2.13s-.95-2.13-2.13-2.13Z"/><path class="cls-5" d="M711.33,615.19h-12.25c-1.18,0-2.13,.95-2.13,2.13s.95,2.13,2.13,2.13h12.25c1.17,0,2.12-.95,2.12-2.13s-.95-2.13-2.12-2.13Z"/><path class="cls-5" d="M686.83,615.19h-12.26c-1.17,0-2.12,.95-2.12,2.13s.95,2.13,2.12,2.13h12.26c1.17,0,2.12-.95,2.12-2.13s-.95-2.13-2.12-2.13Z"/></g></g><g id="_レイヤー_7"><path class="cls-3" d="M640.9,1322.52h-254.48c-15.9,0-29.76-11.29-32.94-26.85-.32-1.58,.7-3.13,2.28-3.45,1.59-.33,3.13,.7,3.45,2.28,2.63,12.85,14.07,22.17,27.21,22.17h254.48c15.31,0,27.77-12.46,27.77-27.77v-33.13c0-1.62,1.31-2.92,2.92-2.92s2.92,1.31,2.92,2.92v33.13c0,18.54-15.08,33.62-33.62,33.62Z"/><path class="cls-3" d="M355.72,1223.92c-1.62,0-2.92-1.31-2.92-2.92v-291.86c0-18.54,15.08-33.62,33.62-33.62h254.48c18.54,0,33.62,15.08,33.62,33.62v244.29c0,1.62-1.31,2.92-2.92,2.92s-2.92-1.31-2.92-2.92v-244.29c0-15.31-12.46-27.77-27.77-27.77h-254.48c-15.31,0-27.77,12.46-27.77,27.77v291.86c0,1.62-1.31,2.92-2.92,2.92Z"/><path class="cls-3" d="M451.25,1212.64c-.53,0-1.06-.14-1.54-.44-35.96-22.33-57.43-60.91-57.43-103.19,0-66.93,54.45-121.38,121.38-121.38s121.38,54.45,121.38,121.38c0,23.14-6.54,45.65-18.9,65.08-.87,1.36-2.67,1.77-4.04,.9-1.36-.87-1.76-2.67-.9-4.04,11.77-18.49,17.99-39.91,17.99-61.94,0-63.7-51.83-115.53-115.53-115.53s-115.53,51.83-115.53,115.53c0,40.24,20.44,76.96,54.67,98.22,1.37,.85,1.79,2.66,.94,4.03-.55,.89-1.51,1.38-2.49,1.38Z"/><rect class="cls-3" x="355.72" y="948.16" width="315.87" height="5.85"/><path class="cls-3" d="M395.21,940.84c-8.87,0-16.09-7.22-16.09-16.09s7.22-16.09,16.09-16.09,16.09,7.22,16.09,16.09-7.22,16.09-16.09,16.09Zm0-26.32c-5.64,0-10.24,4.59-10.24,10.24s4.59,10.24,10.24,10.24,10.24-4.59,10.24-10.24-4.59-10.24-10.24-10.24Z"/><path class="cls-3" d="M434.69,940.84c-8.87,0-16.09-7.22-16.09-16.09s7.22-16.09,16.09-16.09,16.09,7.22,16.09,16.09-7.22,16.09-16.09,16.09Zm0-26.32c-5.64,0-10.24,4.59-10.24,10.24s4.59,10.24,10.24,10.24,10.24-4.59,10.24-10.24-4.59-10.24-10.24-10.24Z"/><path class="cls-3" d="M470.51,1207.66c-.41,0-.82-.08-1.21-.26-19.39-8.86-34.68-23.17-44.2-41.39l-.85-1.63,1.11-1.48c1.65-2.2,40.68-53.82,68.15-53.82,14.37,0,18.32,3.95,21.81,7.44,3.07,3.07,5.72,5.72,17.67,5.72,11.03,0,25.98-12.5,39.16-23.54,13.72-11.48,25.57-21.39,34.67-19.93,3.16,.51,5.73,2.31,7.62,5.37l.23,.44c11.2,27.68,4.3,63.37-17.57,90.93-1.01,1.26-2.84,1.48-4.11,.47-1.27-1-1.48-2.84-.47-4.11,20.2-25.46,26.95-59.52,16.83-84.86-1.26-1.92-2.57-2.33-3.45-2.48-6.46-1.04-18.42,8.97-29.99,18.64-14.63,12.24-29.76,24.9-42.92,24.9-14.37,0-18.32-3.95-21.81-7.44-3.07-3.07-5.72-5.72-17.67-5.72-22.19,0-55.77,41.59-62.33,50.01,8.97,16.27,22.96,29.09,40.57,37.14,1.47,.67,2.12,2.41,1.44,3.88-.49,1.08-1.55,1.71-2.66,1.71Z"/><g><path class="cls-4" d="M612.26,1175.44c-18.63,1.33-35.44,4.09-56.25,9.37-5.82,1.48-10.7,2.66-10.85,2.66s-.25-.79-.25-1.73c0-2.02-1.43-4.14-3.45-5.18-2.22-1.13-6.9-.94-9.71,.44-3.65,1.77-4.98,3.89-5.27,8.38l-.25,3.7-9.61,3.06c-5.27,1.68-17.6,5.67-27.36,8.82-52.45,16.96-78.68,22.78-110.28,24.45-22.13,1.18-46.39-1.68-66.4-7.74-2.22-.69-4.19-1.18-4.29-1.08-.1,.15-.25,.74-.3,1.38-.15,.99,.2,1.23,2.81,2.07,4.58,1.38,13.75,3.65,19.72,4.83l5.42,1.08,2.51,4.29c1.38,2.32,2.37,4.34,2.12,4.39-1.13,.44-23.27-4.88-28.3-6.8-.99-.39-1.18-.25-1.48,.84-.15,.69-.25,1.33-.15,1.38,.94,.99,22.38,6.36,30.96,7.84,1.58,.25,2.02,.74,4.34,4.63,1.38,2.37,2.32,4.34,2.07,4.44-1.33,.44-19.57-3.8-28.25-6.61-2.91-.94-5.47-1.63-5.72-1.48s-.54,.74-.69,1.28c-.25,.89,.39,1.18,5.96,2.96,8.48,2.61,14.54,4.14,22.63,5.67,3.75,.69,7.25,1.38,7.84,1.48,1.08,.25,6.51,8.43,5.92,8.97-.84,.84-20.61-3.7-31.45-7.25-7.15-2.32-7.35-2.32-7.84-1.38-.3,.59-.35,1.18-.1,1.43,.74,.74,13.66,4.78,21.05,6.61,3.85,.94,10.01,2.22,13.7,2.86,6.31,1.13,8.28,1.77,8.28,2.86,0,.25-.3,.44-.59,.44-1.82,0-4.44,1.23-6.41,2.91l-2.17,1.92-7.59-1.92c-4.19-1.04-11.04-3.06-15.18-4.49-6.36-2.17-7.64-2.46-7.99-1.87-.3,.39-.49,.99-.49,1.28,0,.89,12.47,5.18,22.18,7.59,2.32,.59,4.98,1.23,5.96,1.48l1.73,.49-.2,2.96c-.25,3.4,.49,4.93,2.96,6.21,1.68,.89,4.49,.69,6.75-.54,1.28-.64,4.34-3.7,5.27-5.27,.39-.64,1.13-.64,5.62-.1,2.86,.35,8.87,.79,13.46,.99,5.42,.25,8.23,.54,8.23,.89,0,.3-.89,4.63-1.92,9.66-1.13,5.23-1.77,9.32-1.53,9.56,1.18,1.18,1.82-.49,3.65-9.37,1.08-5.13,2.02-9.56,2.12-9.86,.15-.35,3.35-.64,9.17-.84,9.91-.35,15.63-.84,26.87-2.37,5.52-.74,8.18-.94,10.11-.59,3.5,.59,6.95,0,9.37-1.63,1.48-.99,4.24-1.77,10.89-3.2,4.93-1.08,13.56-3.06,19.18-4.44,5.67-1.38,10.4-2.42,10.55-2.22,.15,.15-.25,2.27-.84,4.68l-1.08,4.49-1.38-.99c-2.32-1.63-5.92-2.22-9.22-1.48-2.27,.49-3.3,1.04-4.93,2.71-1.82,1.77-2.12,2.42-2.12,4.09,0,4.98,6.26,8.13,12.47,6.31,1.92-.54,3.16-1.33,4.34-2.61,1.53-1.68,1.87-2.71,3.55-10.01,1.04-4.49,1.97-8.18,2.07-8.28,.3-.3,34.31-9.12,46.09-11.93,10.99-2.61,26.08-5.77,32.29-6.75,1.92-.35,2.81-.25,4.14,.44,2.86,1.48,6.56,.89,10.16-1.58,1.73-1.18,2.81-1.43,8.63-2.02,8.82-.94,36.58-.94,44.61-.05,18.54,2.07,36.53,6.7,53.24,13.66,3.7,1.53,6.8,2.71,6.9,2.61,.15-.1,.3-.74,.35-1.38,.15-1.04-.44-1.38-6.26-3.8-16.71-7-34.66-11.63-52.99-13.7-13.06-1.53-34.36-1.48-47.77,.1l-2.66,.3,.35-1.73c.2-1.18-.1-3.2-.89-6.26-.89-3.3-1.08-4.58-.64-4.73,2.81-.89,31.45-2.51,35.59-1.97,2.32,.25,2.81,.54,3.45,1.73,2.32,4.44,11.78,5.23,15.53,1.23,1.43-1.48,2.17-1.53,9.71-.25,12.32,2.12,26.28,6.06,38.5,10.89,3.35,1.33,6.26,2.32,6.46,2.17,.25-.1,.54-.64,.69-1.18,.2-.84-.49-1.28-4.73-3.01-6.95-2.91-18.24-6.61-25.93-8.53l-6.46-1.63,1.77-1.73c2.07-1.97,3.4-4.68,3.89-7.99,.15-1.28,.49-2.32,.69-2.32,1.18,0,15.13,4.39,21.44,6.75,7.39,2.81,8.13,2.86,8.18,.79,0-.79-11.44-5.18-20.61-7.84-4.24-1.23-8.28-2.42-8.92-2.61-.89-.25-1.43-.99-1.92-2.46l-.69-2.07,2.02-1.73c1.38-1.23,2.22-2.46,2.71-4.04,.49-1.82,.89-2.27,1.58-2.17,2.22,.35,10.35,2.86,16.66,5.18,6.51,2.32,6.9,2.42,7.54,1.53,.35-.49,.64-1.04,.64-1.18,0-.54-11.88-4.78-19.18-6.85l-6.66-1.92-.64-1.82c-.94-2.76-2.66-4.93-7.94-9.96-4.63-4.39-4.73-4.54-3.06-4.29,6.26,1.04,18.39,4.19,26.23,6.8l9.22,3.06,.3-1.18c.2-.74,.05-1.38-.3-1.63-.35-.2-3.99-1.48-8.18-2.86-8.04-2.71-17.99-5.27-26.03-6.75-2.91-.54-5.18-1.18-5.47-1.63-.44-.59-.74-.64-1.28-.2s-2.07,.44-6.56-.15c-5.67-.69-28.15-1.28-33.77-.89Zm33.52,3.6c2.56,.35,4.93,.64,5.23,.79,.39,.1,.2,2.07-.69,6.51-.69,3.45-1.28,6.36-1.33,6.46-.05,.05-3.85-.25-8.43-.69-15.68-1.48-40.92-.39-57.38,2.51-2.32,.39-4.34,.74-4.49,.74-.2,0-.69-1.53-1.18-3.4-.79-3.3-1.97-4.78-2.56-3.25-.15,.44,.1,2.12,.49,3.8,.44,1.73,.74,3.16,.64,3.2-.05,.05-3.4,.79-7.49,1.63-4.04,.84-10.75,2.42-14.89,3.45l-7.54,1.87-.79-1.58c-1.28-2.46-3.2-4.78-5.18-6.21l-1.82-1.33,3.06-1.53c7.59-3.8,42.44-11.09,61.23-12.92,3.01-.25,6.31-.59,7.39-.69,3.99-.39,31.21,.1,35.74,.64Zm11.39,10.94c2.32,1.13,6.21,4.73,5.72,5.23-.1,.05-2.56-.35-5.52-.84-2.91-.54-5.52-.99-5.77-.99-.39,0-.2-2.42,.44-4.58,.3-1.04,1.08-.89,5.13,1.18Zm-118.76,5.72c2.02,2.32,3.65,4.93,4.09,6.56,.3,1.23,.2,1.28-6.85,3.25l-7.2,2.02v-6.06c0-3.7,.2-6.16,.49-6.36s2.02-.49,3.85-.74c1.82-.2,3.45-.39,3.6-.44,.2,0,1.08,.79,2.02,1.77Zm102.29-.74c3.55,.3,6.75,.69,7.05,.89,.44,.3,.3,1.87-.59,6.46l-1.13,6.11-2.22-.05c-1.23,0-6.9-.35-12.67-.69-11.24-.69-25.24-.25-37.37,1.23-3.25,.39-7.15,.89-8.68,1.04l-2.71,.3-1.63-6.01c-.89-3.3-1.53-6.06-1.43-6.16,.2-.2,13.41-2.07,19.37-2.71,12.72-1.43,27.95-1.58,42-.39Zm-114.22,7.3v5.87l-3.55,1.08c-1.97,.54-11.04,3.3-20.11,6.11s-19.92,6.11-24.06,7.39l-7.54,2.27-4.98-1.08q-5.47-1.23-6.01,2.12c-.39,2.27-.35,2.27-9.17,4.54-27.26,7.05-48.46,10.35-71.04,10.99l-11.14,.3-2.12-2.32c-4.04-4.39-7.64-5.87-16.71-6.9-6.31-.74-11.63-1.73-11.29-2.07,.1-.1,2.76,.15,5.87,.59,7.79,1.04,31.35,1.48,40.67,.74,23.61-1.87,47.97-6.85,78.78-16.12,6.01-1.77,54.82-17.35,59.45-18.93,2.96-.99,2.96-1.04,2.96,5.42Zm136.31-3.99c1.38,.35,1.48,.49,1.63,3.06,.1,1.53-.1,3.3-.35,4.04q-.49,1.28-5.47-3.55c-2.71-2.61-4.93-4.93-4.93-5.08,0-.25,5.92,.74,9.12,1.53Zm-84.15,6.31c.99,3.7,1.38,5.87,1.04,6.06-.25,.2-2.76,.74-5.52,1.18-2.76,.49-9.56,1.87-15.13,3.11-5.57,1.23-10.6,2.37-11.19,2.46-1.04,.25-1.04,.2-.35-2.12,.79-2.71,.89-5.67,.2-8.04-.25-.94-.39-1.77-.3-1.92,.64-.59,25.93-6.41,28.2-6.46l1.53-.05,1.53,5.77Zm73.8,1.58c2.42,1.38,5.82,4.49,4.88,4.49-.94-.05-8.77-1.48-8.97-1.68-.44-.44,.49-4.24,1.04-4.24,.35,0,1.73,.64,3.06,1.43Zm-109.69,2.42c0,2.51-2.27,6.85-4.44,8.58-1.63,1.28-5.23,2.76-8.48,3.55l-1.38,.3v-10.6l6.31-1.82c8.08-2.32,7.99-2.32,7.99,0Zm98.3,2.51c2.12,.3,3.94,.59,4.04,.69s-.2,2.07-.64,4.39l-.84,4.29-1.28-.94c-2.27-1.58-5.62-2.17-8.63-1.53-2.91,.64-6.41,2.91-6.9,4.44-.3,.99-.64,1.04-10.01,1.04-8.48,0-21.25,.79-28.2,1.77l-2.22,.3-1.58-6.06c-.89-3.35-1.48-6.16-1.38-6.26,.3-.35,14.25-2.02,20.56-2.51,7.15-.54,31.5-.3,37.07,.39Zm-114.67,6.06l-.15,6.06-13.8,4.04-13.8,4.04-10.11-2.27c-5.57-1.23-10.4-2.42-10.75-2.56-.54-.3,7.94-3.01,41.06-13.16,3.8-1.18,7.1-2.12,7.3-2.17,.2,0,.3,2.71,.25,6.01Zm128.42-4.09c2.81,.49,5.08,1.18,5.32,1.58,1.18,1.87,.1,9.02-1.77,11.49-.64,.89-.84,.89-6.8-.15-3.4-.59-6.26-1.04-6.36-1.04-.15,0,.35-2.91,1.04-6.41,1.43-7.44,.64-6.95,8.58-5.47Zm-72.17,6.51c.89,3.3,1.53,6.01,1.43,6.11s-2.56,.49-5.57,.99c-9.17,1.38-26.52,4.98-38.55,8.04-10.01,2.46-11.49,2.76-11.49,2.02,0-.94,3.45-4.19,8.87-8.33,2.02-1.53,4.63-3.85,5.82-5.13,2.12-2.27,2.22-2.32,9.12-3.99,5.82-1.38,20.75-4.54,25.49-5.32,3.4-.59,3.16-.84,4.88,5.62Zm-56.05,12.67l.15,5.82-14.94,4.14c-8.18,2.22-14.99,3.99-15.08,3.89-.25-.25,2.42-11.68,2.76-12.08,.39-.35,25.14-7.54,26.13-7.54,.74-.05,.84,.69,.99,5.77Zm58.91-1.92l.49,1.87-2.17-.25c-5.47-.59-11.98,4.68-11.98,9.76,0,.79-.1,1.48-.25,1.48s-5.18,.99-11.24,2.17c-14.35,2.86-28.25,6.16-49.64,11.83-9.61,2.51-17.55,4.54-17.65,4.44-.1-.05,.44-2.81,1.18-6.06l1.38-6.01,2.46-.69c33.37-9.61,61.92-16.47,80.55-19.42,3.16-.54,5.92-.94,6.06-.99,.2-.05,.54,.79,.79,1.87Zm-126.74,1.87c-.1,.49-.74,3.11-1.33,5.82-.59,2.71-1.13,4.98-1.18,5.08-.3,.39-23.12,5.23-30.81,6.56-8.73,1.48-9.12,1.48-9.61,.64-2.32-4.19-8.58-5.87-13.56-3.6-2.81,1.28-4.29,2.66-4.93,4.63-.69,2.12-1.28,2.22-14.54,2.22h-10.99l-.49-3.35c-.3-1.82-.69-3.75-.84-4.34-.3-1.04-.15-1.04,9.22-1.38,22.82-.84,43.53-3.99,68.18-10.3,12.32-3.2,11.19-3.01,10.89-1.97Zm9.91,3.7c3.89,.89,6.9,1.73,6.66,1.92-.49,.54-15.92,4.49-16.22,4.19-.49-.44,1.38-7.69,1.97-7.69,.35,0,3.75,.69,7.59,1.58Zm20.26,4.68c6.51,1.48,6.41,1.43,5.52,4.68-.59,2.07-.05,1.82-11.09,4.78-13.46,3.6-27.46,7-27.7,6.75-.35-.35,1.87-10.25,2.42-10.89,.49-.54,21.74-6.51,23.56-6.61,.69-.05,3.94,.54,7.3,1.28Zm-124.03,5.57c1.68,1.97,2.81,3.99,3.35,6.01q.39,1.33-1.63,1.13c-1.13-.1-4.63-.44-7.74-.74-3.11-.3-6.06-.64-6.51-.79-.79-.25-5.32-7.1-5.32-8.08,0-.74,1.48-.74,9.02,0l7.35,.74,1.48,1.73Zm90.36,1.33c-.15,.79-.79,3.35-1.38,5.82l-1.08,4.44-9.02,1.82c-15.38,3.11-35.79,5.82-43.78,5.82-3.8,0-3.65,.44-1.92-7.25l.25-1.08,2.27,1.28c1.73,.99,2.91,1.23,5.37,1.23,4.58,0,7.64-1.63,9.86-5.37,.05-.1,3.94-.79,8.68-1.58,7.89-1.33,21-4.04,27.56-5.67,1.48-.39,2.91-.69,3.11-.74,.25-.05,.3,.54,.1,1.28Zm37.71,3.7c-.05,1.77-2.51,10.94-3.01,11.29-1.53,.94-37.22,9.17-37.71,8.73-.1-.15,.35-2.71,1.04-5.67l1.28-5.42,7.74-1.82c4.24-.99,12.52-3.11,18.34-4.68,11.49-3.16,12.32-3.3,12.32-2.42Zm-128.96,4.68l4.83,.3-.3,2.02c-.2,1.13-.69,3.11-1.08,4.39l-.79,2.42-2.56-.35c-4.98-.59-4.83-.49-7.44-4.78-1.38-2.17-2.56-4.24-2.66-4.49-.1-.35,.79-.39,2.46-.2,1.48,.2,4.83,.49,7.54,.69Zm32.14,.99c-.1,.49-.59,2.76-1.08,5.03l-.89,4.14-11.58-.3c-6.41-.2-12.42-.49-13.41-.64l-1.82-.3,1.13-1.73c.64-.89,1.53-2.76,1.97-4.09l.79-2.46,10.7-.15c5.87-.05,11.54-.15,12.57-.25,1.58-.1,1.87,.05,1.63,.74Zm55.71,5.37c-.2,.74-.49,1.92-.64,2.71-.3,1.58-.89,1.77-2.07,.74-2.12-1.82-6.85-2.27-10.45-1.04-4.34,1.53-6.75,5.52-5.23,8.58,.39,.84,.59,1.53,.44,1.53-.2,0-3.55,.44-7.49,.94-7.3,.99-18.44,1.87-27.46,2.17-4.93,.2-5.03,.15-4.83-.84,.15-.59,.59-2.66,.99-4.68,.44-2.02,.84-3.75,.89-3.75,.05-.05,3.85-.35,8.43-.69,4.58-.3,12.42-1.13,17.4-1.77,8.82-1.23,27.26-4.49,27.7-4.93,.1-.15,.74-.25,1.43-.25,1.04,0,1.13,.15,.89,1.28Zm-74.24,6.16c5.57,.3,11.39,.44,12.97,.35,3.3-.25,3.25-.35,1.92,5.47l-.84,3.6-5.92-.05c-5.47-.1-12.03-.54-18.34-1.33-2.42-.3-2.61-.39-2.61-1.63s-.64-2.81-2.56-5.92l-1.08-1.68,3.2,.3c1.73,.2,7.69,.59,13.26,.89Z"/><path class="cls-3" d="M388.07,1301.8c-.35,0-.78-.14-1.24-.6-.32-.32-.8-.8,1.28-10.4,.54-2.64,1.48-7.2,1.8-8.9-.77-.13-2.66-.35-7.26-.56-4.55-.2-10.62-.64-13.53-.99-1.84-.22-4.36-.53-4.75-.32-1.02,1.73-4.18,4.89-5.63,5.61-2.48,1.35-5.61,1.57-7.58,.53-2.81-1.46-3.71-3.31-3.44-7.08l.15-2.22-2.38-.63c-1.26-.31-3-.73-4.58-1.14-.22-.06-22.87-5.94-22.87-8.47,0-.53,.29-1.31,.67-1.83,.7-1.22,2.18-.77,9,1.56,4.11,1.42,10.88,3.42,15.11,4.46l7.13,1.81,1.81-1.6c1.88-1.6,4.2-2.75,6.08-3.06-1.52-.62-5.31-1.3-6.92-1.59-3.76-.65-9.93-1.94-13.76-2.87-6.07-1.5-20.41-5.78-21.48-6.84-.54-.54-.57-1.49-.07-2.48,.89-1.68,1.5-1.49,8.93,.92,10.26,3.36,26.09,6.95,30.04,7.29-.96-1.99-4.14-6.64-5.06-7.28-.34-.06-1.07-.2-2.05-.39-1.48-.28-3.54-.68-5.68-1.07-8.01-1.51-14.17-3.06-22.73-5.69-5.72-1.82-7.07-2.25-6.57-4.07,.06-.23,.41-1.4,1.1-1.82,.35-.21,.74-.45,6.46,1.39,8.2,2.65,22.62,5.98,26.74,6.52-.32-.69-.86-1.73-1.63-3.03-2.31-3.88-2.56-4.02-3.69-4.19-6.32-1.09-28.35-6.27-31.23-7.93h0c-.76-.38-.57-1.26-.33-2.38,.19-.7,.4-1.32,.99-1.61,.58-.29,1.19-.09,1.71,.12,4.5,1.72,21.92,5.92,26.67,6.65-.34-.7-.88-1.7-1.61-2.93l-2.31-3.94-5.02-1.01c-5.75-1.14-15-3.41-19.8-4.85-2.33-.75-3.73-1.2-3.45-3.07,0-.07,.1-1.24,.44-1.75l.11-.14c.37-.37,.58-.58,5.2,.86,20.03,6.07,44.12,8.88,66.08,7.7,31.68-1.68,57.39-7.38,110.05-24.41l5.02-1.62c8.63-2.79,17.95-5.81,22.35-7.2l9.02-2.87,.2-3.08c.32-4.82,1.83-7.21,5.78-9.14,3.03-1.49,8.05-1.7,10.52-.44,2.32,1.19,3.95,3.65,3.95,5.98,0,.25,0,.47,.02,.66,1.49-.36,5.27-1.28,9.94-2.47,20.65-5.23,37.52-8.04,56.41-9.39h0c5.68-.4,28.2,.19,33.94,.89,1.32,.17,5.3,.7,5.88,.34,.29-.24,.76-.55,1.34-.48,.59,.07,.97,.49,1.24,.84,.14,.09,1.41,.63,4.91,1.28,8.2,1.51,18.22,4.11,26.15,6.79,2.93,.96,7.79,2.61,8.34,2.93,.76,.53,1.01,1.55,.72,2.65l-.53,2.12-10.15-3.36c-7.45-2.48-18.45-5.37-24.9-6.56,.71,.7,1.66,1.6,2.64,2.53,5.42,5.17,7.17,7.38,8.17,10.33l.48,1.37,6.21,1.79c3.4,.96,8.14,2.5,12.38,4.02,7.45,2.66,7.45,2.99,7.45,3.71,0,.37-.27,.94-.8,1.7-1.07,1.48-1.78,1.23-8.59-1.19-6.12-2.25-14.29-4.79-16.5-5.14,0,0-.22,.23-.56,1.51-.55,1.75-1.47,3.13-2.98,4.48l-1.57,1.34,.5,1.49c.52,1.54,.95,1.78,1.31,1.88,.66,.2,4.7,1.39,8.93,2.61,.21,.06,21.26,6.36,21.26,8.71-.01,.54-.04,1.52-.82,2.04-1.07,.72-2.7,.25-8.59-1.99-5.9-2.21-17.83-5.97-20.63-6.6-.09,.31-.21,.8-.28,1.43-.53,3.54-1.93,6.41-4.17,8.54l-.6,.59,4.88,1.23c7.9,1.97,19.1,5.66,26.06,8.57,4.01,1.63,5.68,2.31,5.27,4.05-.1,.35-.42,1.37-1.1,1.75-.39,.27-1.05,.37-7.27-2.1-12.11-4.78-26.07-8.74-38.32-10.84-7.66-1.3-7.85-1.11-8.9-.02-2.06,2.19-5.92,3.27-9.83,2.73-3.35-.46-6.03-2.02-7.15-4.17-.42-.77-.55-1.01-2.74-1.24-3.72-.49-30.4,.96-34.82,1.84,.05,.59,.33,1.84,.84,3.73,.85,3.28,1.13,5.33,.91,6.64l-.11,.54,1.43-.16c13.42-1.58,34.94-1.62,47.97-.1,18.5,2.09,36.42,6.72,53.24,13.77,5.85,2.43,7.07,2.93,6.81,4.76-.1,1.37-.45,1.79-.65,1.95-.46,.44-.81,.43-7.84-2.47-16.74-6.96-34.57-11.53-53-13.59-8.05-.89-35.87-.86-44.42,.05-5.66,.58-6.66,.8-8.21,1.87-3.9,2.67-7.94,3.26-11.08,1.64-1.07-.56-1.74-.69-3.56-.36-6.22,.99-21.27,4.14-32.24,6.74-11.42,2.72-41.83,10.61-45.58,11.75-.28,1-1.02,3.95-1.91,7.78-1.66,7.24-2.06,8.54-3.76,10.41-1.36,1.47-2.74,2.3-4.76,2.87-3.8,1.12-7.88,.52-10.64-1.54-1.93-1.44-2.99-3.44-2.99-5.64,0-1.98,.43-2.82,2.39-4.74,1.72-1.77,2.87-2.4,5.37-2.95,3.51-.79,7.41-.15,9.93,1.62l.29,.21,.77-3.18c.38-1.54,.62-2.73,.74-3.47-1.44,.25-4.56,.93-9.36,2.1-5.34,1.31-13.96,3.29-19.2,4.44-6.59,1.42-9.26,2.19-10.59,3.07-2.61,1.76-6.26,2.4-10.02,1.77-1.74-.31-4.13-.17-9.84,.6-11.15,1.52-16.94,2.03-26.96,2.37-5.89,.2-7.82,.46-8.44,.59-.24,1.08-1.02,4.78-1.84,8.66l-.15,.73c-1.69,8.24-2.29,9.99-3.54,10.37-.11,.03-.24,.06-.39,.06Zm-23.02-23.64c.97,0,2.32,.16,4.29,.4,2.87,.35,8.88,.79,13.39,.98,9.1,.41,9.1,.82,9.1,1.79,0,.29-.19,1.35-1.94,9.85-.7,3.22-1.14,5.67-1.37,7.24,.61-2.05,1.32-5.47,1.71-7.41l.16-.73c1.37-6.46,1.89-8.93,1.99-9.23,.3-.71,.48-1.14,10-1.46,9.94-.35,15.7-.85,26.78-2.36,5.92-.79,8.45-.93,10.39-.59,3.24,.55,6.5,0,8.7-1.49,1.58-1.05,4.2-1.83,11.21-3.34,5.22-1.15,13.82-3.12,19.15-4.43,10.91-2.66,11.06-2.46,11.49-1.88,.26,.25,.52,.52-.68,5.44l-1.4,5.79-2.47-1.77c-2.12-1.49-5.45-2.01-8.49-1.33-2.13,.46-3.01,.95-4.48,2.46-1.72,1.67-1.86,2.09-1.86,3.46,0,1.61,.8,3.1,2.26,4.19,2.31,1.73,5.78,2.21,9.05,1.25,1.71-.48,2.81-1.14,3.93-2.36,1.37-1.5,1.68-2.39,3.33-9.6,1.92-8.33,2.14-8.55,2.31-8.72,.72-.72,43.01-11.33,46.52-12.17,11.01-2.62,26.13-5.78,32.36-6.77,2.08-.37,3.19-.25,4.7,.53,2.54,1.32,5.9,.76,9.23-1.52,1.96-1.35,3.37-1.6,9.05-2.17,8.84-.94,36.47-.97,44.8-.05,18.6,2.08,36.6,6.69,53.49,13.72,2.91,1.2,4.95,1.99,5.96,2.34,.01-.1,.03-.22,.04-.34l.02-.18c-.24-.43-3.15-1.64-5.72-2.7-16.67-6.98-34.42-11.57-52.75-13.64-12.92-1.51-34.25-1.47-47.56,.1l-3.9,.43,.59-2.94c.17-1-.12-2.92-.88-5.86-.97-3.62-1.38-5.38-.05-5.82,2.96-.94,31.9-2.55,36-2.01,2.37,.25,3.26,.59,4.13,2.19,.86,1.65,3.02,2.85,5.8,3.23,3.35,.45,6.6-.4,8.27-2.18,1.8-1.86,3-1.8,10.52-.52,12.37,2.13,26.47,6.12,38.68,10.95,2.95,1.17,4.97,1.85,5.77,2.06,.06-.12,.13-.28,.18-.47-.25-.32-2.82-1.37-4.2-1.93-6.78-2.84-18.12-6.57-25.81-8.49l-8.03-2.02,2.94-2.86c1.95-1.86,3.17-4.37,3.63-7.47,.36-3.09,1.25-3.09,1.59-3.09,1.51,0,16.21,4.73,21.76,6.81,2.49,.94,6.21,2.37,6.94,2.17-.02,0-.01-.06,0-.19-1.7-1.11-11.27-4.8-19.93-7.31-4.25-1.24-8.3-2.42-8.94-2.62-1.45-.4-2.09-1.77-2.52-3.04l-.88-2.65,2.48-2.12c1.26-1.13,2-2.21,2.43-3.62,.32-1.19,.84-3.04,2.57-2.8,2.35,.37,10.53,2.9,16.85,5.22,3.3,1.17,5.91,2.11,6.4,1.99,0,0,.03-.04,.1-.14,.08-.11,.15-.22,.21-.33-2.38-1.12-11.57-4.41-18.26-6.31l-7.11-2.05-.79-2.26c-.89-2.62-2.54-4.68-7.71-9.6-4.22-4-4.66-4.42-4.23-5.32,.36-.76,1.23-.63,1.93-.52,6.3,1.04,18.37,4.17,26.38,6.84l8.29,2.75,.06-.23c.09-.35,.06-.57,.03-.67-.67-.28-3.76-1.37-7.91-2.74-7.86-2.65-17.79-5.23-25.91-6.72-5.24-.98-5.83-1.67-6.05-1.99-.84,.66-2.41,.66-7.22,.03-5.67-.69-27.96-1.27-33.59-.88h0c-18.78,1.34-35.55,4.14-56.09,9.34-.1,.03-10.59,2.69-11.07,2.69-1.15,0-1.15-1.52-1.15-2.63,0-1.65-1.24-3.49-2.96-4.37-1.97-1.01-6.38-.78-8.9,.45-3.34,1.62-4.5,3.48-4.77,7.63l-.29,4.31-10.2,3.24c-4.4,1.4-13.71,4.41-22.34,7.2l-5.02,1.62c-52.83,17.08-78.65,22.8-110.51,24.49-22.16,1.19-46.48-1.65-66.71-7.78-1.45-.45-2.66-.78-3.37-.94-.02,.13-.04,.28-.05,.44-.03,.24-.03,.29-.02,.3,.18,.19,1.6,.64,2.21,.84,4.74,1.43,13.92,3.67,19.62,4.8l5.82,1.17,2.72,4.64c2.58,4.33,2.36,4.83,2.2,5.19l-.19,.43-.49,.12h0c-2.65,.34-25.12-5.44-28.79-6.84-.08-.03-.14-.05-.19-.07-.02,.07-.05,.17-.09,.3-.06,.27-.1,.48-.12,.64,2.68,1.17,21.48,5.94,30.21,7.45,2.06,.32,2.73,1.32,4.96,5.06,2.49,4.27,2.3,4.82,2.18,5.16l-.13,.39-.42,.19c-1.93,.66-21.9-4.33-28.86-6.58-2.72-.88-4.37-1.3-5.03-1.42-.06,.12-.14,.31-.2,.53,.6,.41,3.11,1.22,5.35,1.93,8.48,2.61,14.58,4.14,22.52,5.64,2.14,.4,4.21,.79,5.69,1.08,1.1,.21,1.88,.36,2.13,.4,1.69,.38,6.27,7.82,6.65,9.26,.18,.68-.05,1.07-.27,1.28-1.61,1.62-26.4-5.11-32.35-7.05-3.28-1.06-6.14-1.97-6.73-1.92,.03,0,0,.05-.02,.1-.09,.18-.13,.33-.15,.43,1.6,.84,13.26,4.51,20.51,6.3,3.79,.92,9.91,2.2,13.64,2.85,6.89,1.24,9.03,1.92,9.03,3.75,0,.75-.67,1.35-1.5,1.35-1.56,0-3.96,1.11-5.82,2.69l-2.51,2.23-8.06-2.04c-4.26-1.05-11.11-3.08-15.26-4.51-2.46-.84-6.12-2.09-7.02-2.1-.07,.12-.13,.24-.17,.35,1.96,1.17,12.16,4.71,21.41,7.01,1.58,.4,3.31,.83,4.57,1.14l3.86,1.05-.25,3.69c-.22,3.04,.33,4.24,2.47,5.35,1.42,.75,3.96,.52,5.9-.54,1.07-.54,4.03-3.42,4.93-4.94,.42-.68,1.02-.94,2.22-.94Zm-44.83-12.34s-.03,.04-.04,.05c.01-.02,.03-.03,.04-.05Zm75.62,13.01c-1.48,0-2-.14-2.38-.59-.42-.49-.3-1.08-.23-1.43,.14-.58,.58-2.6,.99-4.68q.98-4.48,1.78-4.48h0c.81-.12,2.83-.27,8.36-.69,4.51-.29,12.36-1.13,17.35-1.77,8.89-1.24,25.54-4.21,27.31-4.79,.26-.19,.78-.39,1.94-.39,.47,0,1.18,0,1.61,.53,.44,.55,.28,1.27,.16,1.85v.04c-.21,.75-.5,1.9-.64,2.64-.14,.73-.42,1.74-1.3,2.04-.87,.3-1.71-.3-2.26-.79-1.86-1.6-6.24-2-9.56-.86-2.24,.79-4.01,2.33-4.74,4.14-.32,.79-.57,1.98,.03,3.18,.83,1.77,.59,2.15,.43,2.4l-.27,.42-.53,.02c-.15,.01-1.54,.19-3.15,.39l-4.23,.54c-7.43,1-18.5,1.88-27.54,2.17-1.37,.06-2.39,.09-3.14,.09Zm-.79-1.83c.74,.05,2.32-.01,3.86-.07,8.99-.3,19.99-1.16,27.37-2.16l4.23-.54c1.06-.14,1.79-.23,2.28-.29-.05-.11-.1-.23-.16-.36-.7-1.39-.73-3.05-.08-4.65,.69-1.7,2.08-3.21,3.87-4.26-6.19,1.06-12.54,2.06-14.48,2.33-5.03,.65-12.93,1.49-17.47,1.78-1.65,.13-6.21,.47-7.78,.62-.11,.47-.32,1.37-.71,3.11-.35,1.8-.75,3.69-.94,4.49Zm49.84-13.86c1.96,.24,3.72,.87,4.84,1.83,.2,.17,.34,.28,.44,.34,.04-.11,.09-.29,.14-.56,.15-.79,.44-1.97,.65-2.76,.01-.06,.02-.11,.03-.16-.53,0-.92,.06-1,.09,0,0,.05-.02,.12-.07-.4,.27-2.43,.74-5.24,1.29Zm-52.51,15.56l-6.64-.06c-5.83-.11-12.38-.58-18.44-1.34-2.27-.28-3.41-.42-3.41-2.53,0-1.11-.66-2.58-2.43-5.44l-2.09-3.23,5.06,.47c1.68,.19,7.49,.58,13.23,.88h0c5.94,.32,11.44,.44,12.86,.35h.16c1.51-.13,2.51-.2,3.14,.53,.74,.86,.47,2.08-.36,5.68l-1.09,4.68Zm-29.46-10.44l.07,.11c2,3.23,2.71,4.91,2.71,6.41,0,.34,.02,.44,.03,.47,.13,.05,1.17,.18,1.79,.25,6.01,.75,12.49,1.22,18.24,1.32l5.18,.04,.76-3.26c.46-2.02,.86-3.76,.72-4.14-.1,.02-.9,.08-1.6,.13h-.17c-1.69,.12-7.55-.04-13.08-.33-5.77-.31-11.62-.7-13.32-.89l-1.33-.12Zm89.33,3.7c-.32,0-.53-.04-.61-.11l-.14-.17c-.18-.27-.43-.64,.9-6.38l1.41-5.97,8.29-1.95c4.1-.95,12.31-3.05,18.31-4.68,11.17-3.07,12.14-3.26,12.98-2.62,.32,.25,.49,.61,.49,1.08v.03c-.03,.95-2.28,11.23-3.4,12.01-.31,.19-33.15,8.76-38.22,8.76Zm3.06-11.12l-1.15,4.88c-.46,1.95-.76,3.53-.91,4.46,5.62-.93,33.2-7.35,36.08-8.44,.58-1.29,2.36-7.87,2.68-10.12-1.5,.19-6.01,1.43-11.13,2.83-6.02,1.63-14.26,3.74-18.37,4.69l-7.19,1.7Zm37.65-9.68h0Zm-.91-.01h0s0,0,0,0h0Zm-97.16,15.78l-12.34-.32c-6.26-.19-12.45-.49-13.52-.65l-1.66-.27-.09,.27-3.59-.48c-4.89-.58-5.11-.72-7.68-4.94l-.14-.24c-1.25-1.97-2.57-4.23-2.73-4.62l-.2-.51,.38-.56c.43-.51,1.25-.6,3.23-.37,1.51,.2,4.91,.5,7.5,.69l5.81,.36-.44,3c-.08,.47-.21,1.09-.37,1.75,.21-.48,.39-.95,.54-1.38l.98-3.07,11.35-.16c6.33-.05,11.58-.16,12.5-.24,1.15-.07,1.99-.08,2.45,.54,.38,.51,.22,1.09,.13,1.34-.12,.6-.6,2.79-1.07,4.98l-1.04,4.87Zm-26.02-2.83l.44,.07c.87,.13,6.55,.42,13.29,.63l10.83,.28,.73-3.41c.42-1.94,.84-3.87,1.02-4.7-.15,0-.35,0-.62,.03-1.11,.11-7.15,.2-12.62,.25l-10.04,.14-.59,1.85c-.43,1.29-1.35,3.31-2.1,4.35l-.34,.52Zm-13.52-8.14c.46,.79,1.21,2.04,2.06,3.39l.15,.25q2.19,3.59,6.34,4.08l2.12,.28,.55-1.7c.39-1.28,.87-3.2,1.05-4.26l.15-1.02-3.86-.24c-2.61-.19-6.06-.49-7.6-.7-.41-.05-.73-.08-.98-.09Zm43.6,10.31c-1.19,0-2-.07-2.54-.74-.75-.93-.44-2.28,.47-6.29l.82-3.6,3.33,1.88c1.55,.89,2.56,1.11,4.93,1.11,4.32,0,7.03-1.47,9.08-4.93q.24-.49,9.31-2.01c7.69-1.3,20.79-3.99,27.49-5.65,1.16-.31,2.31-.56,2.85-.68l.78-.19,.48,.42c.48,.51,.38,1.4,.2,2.06-.12,.6-.46,2.03-.86,3.68l-1.74,7.15-9.59,1.94c-15.39,3.11-35.94,5.84-43.96,5.84h-.58c-.16,0-.31,0-.45,0Zm-.03-7.85l-.28,1.23c-.55,2.44-.99,4.38-.81,4.78,.13,.05,.89,.05,1.55,.04h.59c7.92,0,28.3-2.71,43.6-5.8l8.46-1.71,1.47-6.03c.4-1.66,.75-3.08,.85-3.62h0c-.57,.12-1.32,.3-2.08,.5-6.75,1.68-19.91,4.38-27.64,5.69-4.97,.83-7.45,1.29-8.24,1.46-2.37,3.77-5.69,5.51-10.45,5.51-2.68,0-3.99-.3-5.82-1.35l-1.2-.68Zm94.06,4.06c-.22,0-.34-.04-.43-.1-.64-.33-.63-.69,.81-7.02l1.5-6.54,2.98-.83c33.14-9.54,61.78-16.45,80.65-19.45,1.84-.32,3.56-.58,4.7-.76,.7-.11,1.17-.18,1.29-.21l.4-.13,.37,.25c.18,.11,.67,.41,1.12,2.41l.83,3.14-3.49-.39c-2.5-.28-5.5,.86-7.83,2.95-2,1.79-3.14,3.94-3.14,5.91,0,.83,0,2.39-1.15,2.39-.26,.04-4.64,.9-9.27,1.8l-1.79,.35c-14.47,2.88-28.37,6.2-49.58,11.82-13.56,3.54-16.91,4.42-17.96,4.42Zm3.4-12.21l-1.26,5.49c-.48,2.13-.81,3.74-1,4.72,2.07-.49,7.09-1.75,16.35-4.17,21.25-5.63,35.18-8.95,49.69-11.84l1.8-.35c5.76-1.13,8.01-1.56,8.93-1.73,.02-.17,.03-.4,.03-.68,0-2.48,1.36-5.12,3.74-7.26,2.74-2.46,6.2-3.73,9.24-3.4l.86,.1-.16-.62c-.11-.48-.22-.84-.31-1.08-.2,.03-.46,.07-.82,.13-1.13,.18-2.84,.44-4.68,.76-18.81,2.98-47.38,9.88-80.45,19.4l-1.95,.55Zm75.2-7.99c-.05,0-.11,0-.16,.02,.09-.01,.12-.02,.16-.02Zm0,0h0Zm-115.99,15.32c-.43,0-.52-.09-.59-.17-1.13-1.12,2.3-12.04,2.37-12.12,1.09-1.2,24.02-6.92,24.21-6.93,1.18-.08,6.89,1.16,7.54,1.3l.15,.03c4.05,.92,5.57,1.26,6.22,2.36,.52,.87,.26,1.82-.13,3.26l-.12,.42c-.61,2.2-.78,2.25-10.07,4.73l-1.59,.43c-21.31,5.7-26.55,6.68-27.99,6.68Zm3.1-11.01c-.41,.97-1.75,6.85-2.1,9.17,3.35-.66,14.93-3.49,26.52-6.59l1.59-.43q8.46-2.26,8.79-3.46l.11-.41c.22-.81,.45-1.64,.33-1.85-.26-.43-2.28-.89-5.07-1.52l-.14-.03c-4.11-.91-6.62-1.28-7.03-1.26-1.59,.09-20.77,5.43-22.99,6.39Zm-75.91,7.86h-11.78l-.61-4.13c-.3-1.83-.69-3.71-.82-4.25-.08-.27-.24-.83,.14-1.35,.59-.82,1.46-.85,9.78-1.16,22.93-.84,43.26-3.91,68.13-10.28l3.11-.81q8.24-2.15,8.82-1.5c.43,.48,.22,1.05,.12,1.29-.02,.05-.04,.09-.05,.15-.05,.22-.16,.7-.31,1.36-.26,1.12-.65,2.76-1.01,4.43-.01,.05-1.08,4.93-1.26,5.29l-.09,.14c-.8,1.06-31.08,6.85-31.38,6.9-8.97,1.52-9.7,1.65-10.55,.21-2.1-3.79-7.88-5.29-12.4-3.23-2.56,1.17-3.89,2.39-4.44,4.09-.93,2.84-2.3,2.84-15.4,2.84Zm-10.21-1.81h10.21c13.16,0,13.22-.18,13.68-1.59,.72-2.23,2.34-3.78,5.42-5.18,5.42-2.46,12.17-.64,14.73,3.99,.54,.29,4.12-.33,8.67-1.1,7.72-1.34,27.27-5.5,30.22-6.35,.16-.68,.58-2.47,1.04-4.58,.37-1.69,.75-3.33,1.02-4.46,.07-.3,.13-.57,.18-.79-1.13,.25-3.26,.8-6.54,1.66l-3.11,.81c-25,6.4-45.45,9.49-68.37,10.33-4.59,.17-7.35,.27-8.33,.45,.19,.81,.54,2.56,.81,4.22l.38,2.59Zm-4.71,1.66c-.35,0-.79-.04-1.34-.1-.67-.06-2.21-.21-4-.38l-3.74-.36c-.99-.09-5.94-.58-6.71-.83-1.31-.41-5.94-7.75-5.94-8.94,0-.37,.15-.72,.42-.96,.75-.68,2.18-.67,9.6,.06l7.71,.78,1.72,2c1.77,2.09,2.96,4.23,3.54,6.37,.22,.76,.41,1.37-.03,1.91-.29,.35-.65,.46-1.22,.46Zm-15.14-3.37c.58,.13,3,.42,6.24,.73l3.74,.36c1.78,.17,3.31,.32,3.99,.38,.24,.02,.48,.05,.69,.06v-.04c-.52-1.9-1.59-3.8-3.18-5.68l-1.24-1.45-6.98-.7c-2.67-.26-6.54-.64-7.88-.54,.71,1.53,3.79,6.16,4.63,6.87Zm143.92-3.96c-.34,0-.44-.1-.57-.23-.95-.95,2.64-13.23,2.72-13.32,1.02-.9,26.63-7.85,26.81-7.85,.36-.03,.72,.09,1,.35,.67,.61,.75,1.58,.89,6.3h0s.11,4.2,.11,4.2c.41-1.46,3.49-4.4,9.18-8.74,1.92-1.45,4.53-3.75,5.7-5.02,2.34-2.5,2.75-2.6,9.57-4.26,5.91-1.4,20.91-4.56,25.55-5.34l.39-.07c3.65-.65,3.87,.17,5.28,5.46l.24,.89c1.73,6.45,1.62,6.57,1.2,6.99q-.29,.29-5.2,1.1l-.87,.14c-9.36,1.41-26.61,5.01-38.47,8.02-10.45,2.57-11.36,2.73-12.16,2.1-.18-.14-.31-.33-.39-.55l.04,1.61-15.62,4.33c-11.43,3.1-14.42,3.89-15.4,3.89Zm3.53-12.25c-.49,1.49-1.93,7.68-2.41,10.25,1.97-.47,6.53-1.66,13.8-3.63l14.25-3.95-.13-5.11c-.05-1.82-.12-4.04-.28-4.84-2.78,.61-22.44,6.29-25.23,7.28Zm79.57-20.13c-.27,0-.7,.07-1.42,.2l-.41,.07c-4.62,.77-19.55,3.92-25.43,5.31q-6.7,1.63-8.67,3.73c-1.25,1.36-3.92,3.71-5.93,5.23-4.57,3.49-7.06,5.82-8.04,6.99,1.74-.27,5.58-1.22,9.89-2.28,11.9-3.02,29.23-6.64,38.63-8.05l.85-.14c1.47-.24,2.98-.49,3.84-.64-.19-.9-.61-2.66-1.29-5.18h0s-.24-.89-.24-.89c-.62-2.35-1-3.77-1.39-4.21-.07-.09-.18-.13-.39-.13Zm-120.9,28.36l-.38-.29c-1.16-1.04,1.18-7.64,1.21-7.7,.25-.65,.59-1.54,1.4-1.54,.59,0,5,.96,7.8,1.6,7.13,1.63,7.21,1.98,7.35,2.57l.13,.56-.46,.39c-.78,.88-15.82,4.39-16.66,4.41h-.39Zm2.63-7.64c-.49,1.1-1.3,4.21-1.51,5.71,2.4-.46,9.11-2.17,12.65-3.2-1.01-.27-2.38-.61-4.15-1.02h0c-3.2-.74-5.92-1.3-6.98-1.49Zm-92.98,7.49l-2.4-2.62c-3.85-4.19-7.32-5.61-16.15-6.61-11.62-1.36-11.9-2.18-12.06-2.62l-.19-.54,.41-.45c.31-.31,.54-.54,6.64,.33,7.81,1.04,31.27,1.46,40.47,.73,23.6-1.87,47.83-6.83,78.59-16.08,5.91-1.74,54.91-17.38,59.42-18.92,1.47-.49,2.39-.8,3.18-.23,.98,.7,.98,2.05,.98,6.51v6.54l-4.19,1.28c-1.94,.53-10.76,3.21-20.11,6.11-5.43,1.68-11.49,3.54-16.37,5.03-3.28,1-6.03,1.85-7.69,2.36l-7.77,2.34-5.21-1.13c-2.27-.51-4.05-.91-4.41-.67-.21,.14-.37,1.11-.52,2.05-.5,2.87-.85,2.96-9.84,5.27-27.4,7.08-48.71,10.38-71.24,11.02l-11.56,.31Zm-11.23-9.87c4.53,1.11,7.23,2.83,10.17,6.02l1.84,2.01,10.73-.29c22.38-.64,43.57-3.91,70.83-10.96q8.21-2.11,8.5-3.77c.27-1.7,.44-2.71,1.3-3.29,1.01-.68,2.32-.39,5.82,.4l4.74,1.03,7.32-2.2c1.66-.51,4.41-1.36,7.69-2.36,4.88-1.5,10.94-3.35,16.36-5.03,9.37-2.9,18.21-5.59,20.14-6.12l2.88-.88v-5.2c0-2.63,0-4.7-.26-5.08-.09,.04-.8,.28-1.44,.49-4.58,1.56-53.64,17.22-59.55,18.96-30.88,9.29-55.23,14.27-78.96,16.15-6.04,.48-18.19,.46-28.11,.1Zm141.4-.66l-10.33-2.32c-5.02-1.11-10.42-2.4-10.91-2.61l-.61-.26,.04-.7c.11-1.06,.12-1.15,41.72-13.9,3.83-1.19,7.12-2.13,7.34-2.18l.22-.03h.38l.29,.28c.26,.26,.58,.59,.49,6.65h0s-.16,6.73-.16,6.73l-28.47,8.34Zm-18.16-5.99c1.95,.47,4.94,1.17,8.22,1.9l9.88,2.22,26.75-7.83,.13-5.4c.03-2.29,0-3.93-.06-4.85-1.28,.37-3.69,1.07-6.3,1.89-20.93,6.42-33.76,10.39-38.61,12.08Zm176.58,1.43c-1.04,0-2.71-.29-5.69-.81-3.35-.58-6.04-1-6.28-1.03h-.43l-.21-.33c-.32-.39-.45-.55,.86-7.15l.3-1.6c.53-2.85,.79-4.28,1.89-5.03,1.13-.77,2.68-.47,5.76,.12l1.67,.32c1.97,.35,5.35,1.06,5.93,1.99,1.51,2.38,.15,9.92-1.82,12.52-.5,.69-.91,1-1.99,1Zm-10.94-3.51c1.36,.21,3.85,.62,5.57,.92,5.57,.97,5.63,.9,5.91,.51,1.72-2.26,2.63-8.75,1.8-10.38-.41-.23-2.08-.79-4.77-1.26h0s-1.69-.32-1.69-.32c-2.34-.45-3.89-.76-4.4-.41-.48,.33-.74,1.73-1.13,3.86l-.3,1.62c-.55,2.81-.85,4.57-.98,5.46Zm-60.44,2.37l-1.78-6.84c-1.73-6.54-1.51-6.76-1.14-7.13,.78-.92,20.93-2.76,21.13-2.78,7.3-.55,31.67-.29,37.25,.4h.01c4.2,.59,4.31,.7,4.56,.95,.36,.36,.51,.51-.39,5.2l-1.11,5.69-2.43-1.78c-2.04-1.42-5.14-1.96-7.9-1.37-2.91,.64-5.9,2.81-6.23,3.83-.5,1.66-1.08,1.66-10.87,1.66-8.61,0-21.2,.79-28.07,1.77l-3.02,.4Zm-1.29-12.65c.18,.96,.61,2.9,1.26,5.35l1.38,5.29,1.42-.19c6.93-.98,19.64-1.78,28.32-1.78,5.03,0,8.66,0,9.14-.31,.66-2.15,4.61-4.49,7.57-5.14,3.27-.7,6.85-.06,9.34,1.67l.15,.11,.57-2.89c.31-1.64,.5-2.84,.59-3.51-.57-.1-1.58-.27-3.22-.5-5.54-.68-29.65-.94-36.88-.39-5.9,.46-16.81,1.78-19.63,2.29Zm-56.87,8.23v-12.4l7.26-2.1c5.84-1.67,7.22-2.07,8.18-1.35,.67,.51,.67,1.3,.67,2.22l-.91,.08h.91c0,2.77-2.37,7.37-4.78,9.29-1.71,1.35-5.34,2.87-8.83,3.72l-2.5,.54Zm1.81-11.04v8.8l.28-.06c3.14-.76,6.63-2.21,8.11-3.37,1.95-1.55,4.09-5.67,4.09-7.87v-.08c0-.26,0-.57-.02-.75-.74-.08-3.07,.64-6.52,1.63l-5.94,1.72Zm17.9,7.32c-.3,0-.6-.08-.85-.35-.53-.56-.34-1.18,.21-3.03,.76-2.6,.83-5.35,.2-7.52-.56-2.11-.35-2.42-.18-2.68l.14-.17c1.07-.98,27.07-6.66,28.79-6.7l2.24-.07,1.71,6.46c1.64,6.15,1.32,6.68,.61,7.08-.47,.39-4.24,1.04-5.83,1.29-2.73,.49-9.45,1.85-15.08,3.09l-4.98,1.11c-3.83,.85-5.84,1.3-6.25,1.37-.21,.05-.46,.11-.72,.11Zm1.05-12.48c.05,.26,.12,.63,.25,1.09,.72,2.47,.65,5.59-.2,8.52-.09,.3-.18,.61-.26,.89,.99-.21,3.23-.71,5.74-1.27l4.99-1.11c5.66-1.25,12.41-2.62,15.17-3.11,2.34-.38,4.14-.76,4.89-.97-.04-.53-.24-1.87-1.12-5.16h0s-1.34-5.07-1.34-5.07l-.81,.03c-1.91,.04-23.57,4.96-27.3,6.16Zm109.01,5.63c-.13,0-9-1.33-9.61-1.94-1-1,.34-4.52,.36-4.56,.15-.37,.51-1.23,1.32-1.23,.87,0,3.25,1.4,3.52,1.56h0c.3,.18,5.9,3.73,5.45,5.42-.12,.46-.53,.76-1.03,.76Zm-8.18-3.29c1.15,.27,4.16,.83,6.23,1.18-.92-.83-2.21-1.83-3.37-2.5h-.01c-.94-.57-1.77-.97-2.26-1.17-.25,.64-.54,1.84-.58,2.48Zm-67.42,2.98l-1.83-6.76c-1.74-6.49-1.61-6.63-1.2-7.04,.69-.69,19.73-2.95,19.92-2.97,12.75-1.43,28.13-1.58,42.17-.4,3.09,.26,6.89,.65,7.48,1.04,.91,.61,.88,1.79-.21,7.38l-1.27,6.86-2.99-.07c-1.17,0-6.33-.31-11.78-.64l-.92-.05c-11.3-.69-25.21-.24-37.2,1.23l-2.72,.33c-2.47,.3-4.86,.6-5.98,.71l-3.47,.38Zm-1.37-12.45c.19,.92,.62,2.72,1.29,5.22l1.42,5.26,1.94-.21c1.12-.11,3.49-.4,5.94-.7l2.72-.33c12.1-1.48,26.13-1.94,37.53-1.24l.92,.06c5.43,.33,10.55,.63,11.69,.63l1.47,.03,.99-5.36c.25-1.3,.89-4.59,.82-5.57-.66-.11-3.06-.42-6.46-.71h0c-13.93-1.17-29.18-1.03-41.82,.39-5.38,.58-15.63,2.02-18.46,2.52Zm-52.79,9.96v-7.26c0-6.51,.5-6.85,.9-7.11,.19-.13,.59-.39,4.23-.88,2.13-.23,3.32-.39,3.49-.42l.14-.05,.09,.02c.13,0,.29,0,.6,.19l4.02-2.01c7.67-3.83,42.18-11.13,61.54-13.01,2.15-.18,4.43-.4,5.96-.55l1.44-.14c4.05-.4,31.26,.08,35.93,.64h.01s1.17,.16,1.17,.16c2.88,.38,3.81,.52,4.22,.67,1.06,.3,1.15,1.36-.09,7.54-1.29,6.45-1.33,6.53-1.41,6.68l-.17,.24c-.37,.37-.42,.42-9.16-.43-15.7-1.48-40.8-.38-57.14,2.5-3.98,.68-4.46,.75-4.64,.75-.75,0-1.07-.32-2.06-4.08-.27-1.12-.55-1.89-.78-2.4,.07,.58,.22,1.44,.47,2.5,.91,3.52,.86,3.87,.17,4.22h0c-.45,.17-1.88,.51-7.71,1.71-3.98,.82-10.67,2.4-14.85,3.44l-8.25,2.05-1.11-2.23c-1.22-2.34-3.05-4.54-4.9-5.88l-.37-.27c2.03,2.37,3.62,4.97,4.09,6.69,.51,2.13-.25,2.34-7.48,4.36l-8.35,2.35Zm2.09-12.91c-.13,.66-.27,2.47-.27,5.65v4.87l6.05-1.7c3.41-.95,5.72-1.6,6.26-1.97-.01-.07-.03-.16-.05-.2-.4-1.48-1.96-3.96-3.88-6.16-.68-.72-1.23-1.22-1.51-1.44-.45,.07-1.38,.19-3.34,.4-1.82,.25-2.82,.44-3.25,.55Zm10.46-2.15l.62,.45c2.06,1.5,4.1,3.94,5.45,6.53l.47,.94,6.84-1.7c4.19-1.05,10.92-2.63,14.92-3.46,3-.61,5.52-1.16,6.69-1.43-.1-.5-.27-1.28-.53-2.29-.3-1.27-.75-3.48-.48-4.31,.45-1.17,1.23-1.24,1.53-1.22,1.14,.08,2.07,1.61,2.77,4.55,.36,1.36,.62,2.19,.79,2.63,.83-.14,2.52-.43,3.85-.65,16.47-2.91,41.78-4.02,57.62-2.52,3.46,.34,6.37,.58,7.63,.66,.15-.72,.47-2.31,1.15-5.7,.72-3.58,.86-5.01,.87-5.58-.65-.11-2.13-.31-3.47-.48l-1.16-.16c-4.46-.53-31.69-1.02-35.54-.64l-1.44,.14c-1.54,.15-3.83,.38-5.97,.55-18.8,1.83-53.52,9.14-60.9,12.82l-1.73,.86Zm123.36,13.33c-.82,0-1.69-.85-5.5-4.54-5.21-5.01-5.21-5.38-5.21-5.73v-.44l.36-.29c.93-.73,9.8,1.35,9.89,1.38h0c2.03,.51,2.16,1.28,2.31,3.88,.1,1.5-.07,3.43-.39,4.38-.21,.54-.45,1.16-1.14,1.32-.11,.02-.22,.04-.33,.04Zm-7.57-9.16c.83,.85,1.97,1.99,3.34,3.31,1.93,1.87,3.33,3.23,4.03,3.78,.16-.6,.35-2.14,.26-3.56q-.12-2.03-.94-2.23c-1.96-.48-4.76-1-6.68-1.3Zm6.99-1.74c-.5,0-1.73-.19-5.66-.85-3.08-.57-5.37-.95-5.65-.98l-.41-.03-.37-.38c-.83-1.11,.38-5.29,.39-5.33,.16-.56,.47-.95,.92-1.14,.94-.41,2.19,.09,5.49,1.77,2.02,.99,6.01,4.31,6.24,5.72,.06,.36-.05,.71-.29,.96l-.24,.17c-.11,.05-.19,.09-.41,.09Zm-10.58-3.55c1.6,.24,5.19,.91,5.23,.92,1.58,.26,2.71,.45,3.51,.57-1.11-1.1-2.91-2.58-4.27-3.25h-.01c-.88-.46-3.1-1.6-3.85-1.71-.42,1.44-.6,2.79-.61,3.47Zm-.7-.08s.05,0,.08,0c-.03,0-.05,0-.08,0Z"/></g><path class="cls-3" d="M470.98,1206.26c-.35,0-.71-.07-1.05-.23-38.07-17.18-62.66-55.27-62.66-97.02,0-58.66,47.73-106.39,106.39-106.39s106.39,47.73,106.39,106.39c0,24.38-8.02,47.32-23.2,66.33-.88,1.11-2.5,1.29-3.6,.4-1.11-.88-1.29-2.5-.4-3.6,14.45-18.1,22.08-39.93,22.08-63.13,0-55.84-45.43-101.27-101.27-101.27s-101.27,45.43-101.27,101.27c0,39.74,23.41,75.99,59.65,92.35,1.29,.58,1.86,2.1,1.28,3.39-.43,.95-1.36,1.51-2.34,1.51Z"/><g><path class="cls-3" d="M328.3,863.25c2.2,3.1,4.4,6.2,6.6,9.3,.08,.12,.04,.33-.1,.43-1.1,.78-2.2,1.56-3.29,2.35-.13,.09-.35,.07-.43-.05-2.43-3.41-4.86-6.83-7.29-10.25-2.47-3.33-4.94-6.65-7.41-9.98-.09-.12-.03-.34,.11-.44,1.55-1.12,3.1-2.23,4.67-3.32,.18-.13,.42-.16,.58-.09,7.61,2.68,15.04,5.61,22.28,8.78-.24-.35-.48-.71-.72-1.06-1.15-1.7-2.29-3.39-3.44-5.09-2.19-3.43-4.37-6.86-6.56-10.3-.08-.12-.01-.34,.14-.43,1.21-.77,2.42-1.53,3.63-2.28,.15-.09,.37-.06,.45,.07,2.14,3.55,4.28,7.1,6.42,10.64,2.24,3.54,4.47,7.09,6.71,10.64,.08,.12,.02,.33-.12,.42-1.54,.95-3.08,1.92-4.61,2.91-.17,.11-.4,.12-.54,.05-7.09-3.11-14.36-6-21.81-8.65,.37,.47,.73,.94,1.1,1.41,1.21,1.65,2.43,3.3,3.64,4.95Z"/><path class="cls-3" d="M371.49,850.71c-.18,.09-.37,.07-.52-.06-1.75-1.62-3.51-3.23-5.28-4.83-3.31,1.75-6.59,3.55-9.85,5.43,.41,2.35,.83,4.69,1.28,7.03,.06,.18-.02,.35-.2,.45-1.24,.73-2.47,1.46-3.7,2.2-.14,.08-.31,.02-.32-.15-1.57-8.79-2.89-17.67-3.98-26.63-.02-.2,.08-.38,.27-.49,1.84-1.03,3.68-2.05,5.54-3.04,.19-.1,.39-.09,.55,.03,6.92,5.75,13.64,11.66,20.14,17.73,.14,.1,.1,.28-.05,.35-1.3,.65-2.59,1.3-3.88,1.97Zm-8.77-7.53c-3.11-2.76-6.27-5.48-9.47-8.17,.59,4.13,1.22,8.24,1.91,12.34,2.5-1.42,5.02-2.81,7.56-4.16Z"/><path class="cls-3" d="M389.46,842.71c-7.07,3.1-14.25,.73-17.8-6.41-3.61-7.25-.64-14.55,6.97-17.9,6.46-2.83,11.89-1.64,15.18,2.83,.09,.12,.03,.3-.12,.36-1.41,.56-2.82,1.12-4.22,1.7-.19,.08-.39,.04-.49-.11-2.1-2.61-5.19-3.12-8.86-1.52-5,2.2-6.32,6.93-3.71,12.45,2.54,5.36,6.92,7.38,11.67,5.3,4.24-1.85,5.79-5.27,4.22-9.45-2.41,.99-4.81,2.01-7.2,3.05-.15,.07-.36,0-.41-.14-.39-.89-.78-1.78-1.18-2.68-.06-.13,.03-.33,.18-.4,3.94-1.73,7.92-3.38,11.91-4.94,.15-.06,.36,.02,.41,.15,3.41,8.53,.94,14.44-6.53,17.7Z"/><path class="cls-3" d="M422.26,829.96c-.19,.06-.37,0-.5-.15-1.42-1.91-2.86-3.8-4.31-5.7-3.5,1.12-6.99,2.29-10.47,3.53,0,2.38,.02,4.76,.06,7.13,.03,.19-.08,.34-.27,.41-1.32,.49-2.64,.98-3.95,1.48-.15,.06-.31-.04-.29-.2-.05-8.91,.16-17.86,.61-26.85,.02-.2,.14-.36,.34-.43,1.96-.68,3.91-1.34,5.88-1.98,.2-.07,.39-.01,.53,.13,5.75,6.89,11.27,13.91,16.56,21.05,.12,.12,.05,.29-.1,.34-1.37,.4-2.73,.81-4.1,1.23Zm-7.24-8.98c-2.55-3.27-5.16-6.52-7.8-9.74-.12,4.16-.2,8.31-.22,12.45,2.67-.94,5.34-1.84,8.03-2.71Z"/><path class="cls-3" d="M430.29,815.48c1,3.67,2,7.34,3,11,.04,.14-.07,.32-.22,.36-1.25,.34-2.5,.68-3.75,1.03-.15,.04-.34-.06-.38-.2-1.11-4.04-2.21-8.09-3.32-12.13-1.17-3.97-2.34-7.95-3.51-11.92-.04-.14,.08-.33,.24-.37,1.77-.5,3.54-.98,5.31-1.46,.2-.05,.43,0,.55,.12,6.06,5.18,11.88,10.52,17.45,16.01-.1-.41-.21-.83-.31-1.24-.49-1.99-.99-3.97-1.48-5.96-.88-3.97-1.76-7.95-2.64-11.92-.03-.14,.1-.32,.26-.36,1.35-.3,2.7-.59,4.06-.87,.16-.03,.36,.08,.39,.22,.8,4.07,1.6,8.13,2.4,12.2,.89,4.1,1.78,8.19,2.66,12.29,.03,.14-.09,.32-.24,.35-1.72,.36-3.43,.73-5.15,1.11-.19,.04-.4-.02-.51-.15-5.45-5.39-11.14-10.63-17.06-15.73,.18,.57,.36,1.14,.54,1.71,.57,1.97,1.14,3.93,1.71,5.9Z"/><path class="cls-3" d="M467.54,820.15c-7.88,1.2-14.06-3.01-15.63-10.76-1.61-7.98,2.94-14.23,11.65-15.55,8.62-1.29,14.88,3.25,15.71,11.46,.8,7.87-3.89,13.68-11.73,14.85Zm-.54-3.58c5.3-.8,7.96-4.74,7.24-10.7-.71-5.94-4.47-9.31-10.14-8.46-5.72,.87-8.25,5.07-7.15,11.07,1.07,5.87,4.79,8.88,10.05,8.08Z"/><path class="cls-3" d="M504.79,811.9c-1.8-2.39-3.65-4.76-5.53-7.11-.86,1.06-1.71,2.13-2.55,3.2,.16,2.77,.33,5.55,.49,8.32,0,.15-.14,.3-.29,.31-1.39,.08-2.77,.16-4.16,.26-.15,.01-.32-.12-.33-.27-.24-4.21-.48-8.42-.72-12.63-.34-4.1-.68-8.21-1.02-12.31,0-.15,.15-.3,.31-.31,1.5-.1,3-.19,4.5-.28,.17,0,.34,.13,.35,.27,.18,3.79,.35,7.57,.53,11.36,2.9-3.98,5.92-7.91,9.05-11.81,.12-.11,.33-.23,.54-.23,1.79-.04,3.59-.07,5.38-.08,.12,0,.21,.14,.13,.22-3.14,3.4-6.19,6.84-9.14,10.32,3.94,4.86,7.7,9.79,11.3,14.78,.04,.11,0,.26-.15,.26-1.73,0-3.47,.02-5.2,.05-.19,0-.39-.1-.47-.25-.99-1.36-2-2.71-3.01-4.06Z"/><path class="cls-3" d="M535.13,816.87c-.19-.01-.34-.13-.4-.32-.63-2.29-1.28-4.58-1.95-6.86-3.63-.21-7.27-.37-10.91-.46-.84,2.22-1.67,4.45-2.48,6.67-.04,.18-.2,.29-.39,.29-1.39-.02-2.78-.04-4.16-.04-.15,0-.27-.15-.19-.29,3.12-8.33,6.48-16.61,10.1-24.83,.09-.18,.26-.28,.47-.28,2.04,.07,4.09,.15,6.13,.26,.21,.01,.37,.13,.44,.32,2.85,8.5,5.45,17.03,7.8,25.58,.06,.15-.06,.29-.22,.28-1.41-.12-2.82-.22-4.23-.32Zm-3.49-10.98c-1.19-3.97-2.44-7.93-3.73-11.89-1.59,3.84-3.14,7.68-4.63,11.54,2.79,.08,5.58,.2,8.37,.35Z"/><path class="cls-3" d="M555.61,813.78c-.92-1.73-1.85-3.46-2.81-5.18-1.66-.2-3.32-.39-4.99-.57-.31,3.19-.62,6.38-.94,9.57-.02,.15-.19,.27-.34,.26-1.38-.15-2.76-.28-4.15-.41-.15-.01-.29-.17-.28-.32,.42-4.19,.84-8.39,1.26-12.58,.33-4.1,.67-8.21,1-12.31,.01-.15,.19-.28,.36-.26,3.67,.34,7.34,.73,11,1.19,6.94,.88,10.62,4.17,9.78,9.28-.62,3.86-3.4,5.96-7.52,6.39,1.88,3.65,3.69,7.33,5.42,11.01,.06,.12-.04,.25-.19,.23-1.62-.26-3.23-.5-4.85-.74-.19-.03-.37-.16-.42-.32-.77-1.75-1.55-3.49-2.35-5.23Zm-.01-17.18c-2.15-.27-4.3-.52-6.45-.75-.34,2.9-.67,5.81-1.01,8.71,2.16,.23,4.32,.48,6.48,.75,3.11,.39,5.64-.49,6.08-3.53,.43-2.93-1.45-4.72-5.11-5.19Z"/><path class="cls-3" d="M576.38,822.99c-6.79-1.38-9.69-5.48-8.63-11.88,.42-2.44,.83-4.88,1.25-7.31,.44-2.73,.87-5.46,1.31-8.19,.02-.14,.21-.26,.38-.23,1.53,.26,3.05,.53,4.57,.81,.16,.03,.3,.21,.28,.35-.53,2.68-1.05,5.36-1.58,8.03-.46,2.46-.91,4.91-1.37,7.37-.72,3.92,.53,6.59,4.55,7.41,4.2,.87,6.49-1.07,7.38-4.96,.54-2.4,1.08-4.8,1.62-7.2,.58-2.7,1.16-5.41,1.74-8.11,.03-.14,.23-.25,.39-.21,1.36,.31,2.73,.63,4.09,.95,.16,.04,.29,.22,.26,.36-.67,2.68-1.35,5.37-2.02,8.05-.58,2.4-1.16,4.81-1.73,7.21-1.54,6.3-5.73,8.95-12.48,7.56Z"/><path class="cls-3" d="M591.63,825.99c-.15-.04-.26-.22-.23-.36,1.1-4.06,2.19-8.12,3.29-12.17,.98-4.01,1.95-8.03,2.93-12.04,.04-.14,.23-.24,.4-.2,1.46,.38,2.93,.76,4.39,1.16,.16,.04,.29,.23,.25,.37-1.14,3.97-2.29,7.94-3.43,11.91-1.05,4.07-2.11,8.14-3.17,12.21-.04,.14-.23,.24-.38,.2-1.35-.37-2.7-.73-4.05-1.07Z"/><path class="cls-3" d="M620.02,834.46c-.05,.14-.25,.22-.39,.17-6.34-2.29-12.75-4.37-19.19-6.24-.15-.04-.26-.23-.22-.37,.3-1.04,.6-2.08,.9-3.13,.05-.18,.19-.36,.33-.44,6.46-4.39,13.17-8.58,20.12-12.55-4.63-1.58-9.28-3.05-13.95-4.42-.16-.05-.28-.23-.24-.37,.27-.94,.55-1.87,.82-2.81,.04-.14,.24-.23,.41-.19,6.58,1.93,13.12,4.06,19.6,6.4,.16,.06,.27,.25,.22,.39-.38,1.05-.76,2.11-1.15,3.16-.06,.17-.22,.35-.37,.41-6.94,3.84-13.64,7.9-20.11,12.15,4.7,1.45,9.38,3.02,14.02,4.7,.15,.05,.25,.24,.2,.38-.33,.92-.66,1.83-1,2.75Z"/><path class="cls-3" d="M641.71,843.59c-.18-.08-.28-.25-.27-.44,.19-2.37,.36-4.75,.51-7.13-3.4-1.49-6.81-2.93-10.25-4.3-1.57,1.79-3.13,3.58-4.68,5.38-.1,.16-.29,.2-.47,.13-1.31-.51-2.63-1.01-3.95-1.5-.15-.05-.21-.23-.08-.34,5.85-6.71,11.93-13.29,18.23-19.73,.15-.14,.34-.17,.54-.09,1.92,.79,3.84,1.59,5.76,2.42,.2,.08,.31,.25,.31,.45-.23,8.98-.7,17.91-1.41,26.78,0,.17-.16,.25-.3,.18-1.31-.61-2.62-1.22-3.94-1.81Zm.47-11.54c.24-4.15,.42-8.31,.56-12.48-2.85,3.03-5.66,6.09-8.42,9.18,2.63,1.06,5.25,2.16,7.86,3.29Z"/><path class="cls-3" d="M665.2,855.4c-.17-.1-.26-.27-.21-.45,1.64-6.4,3.19-12.85,4.65-19.32-4.48,4.86-8.87,9.78-13.18,14.75-.12,.14-.34,.15-.49,.08-1.57-.81-3.15-1.6-4.73-2.38-.18-.09-.27-.26-.23-.44,1.68-8.46,3.2-16.97,4.55-25.53,.02-.15,.2-.23,.36-.16,1.4,.65,2.8,1.32,4.2,1.99,.19,.09,.3,.27,.26,.45-1.35,6.93-2.79,13.82-4.35,20.68,4.52-5.36,9.12-10.67,13.81-15.91,.12-.14,.36-.14,.52-.06,1.59,.84,3.18,1.69,4.77,2.55,.15,.08,.29,.28,.24,.46-1.75,6.92-3.6,13.8-5.55,20.64,4.89-5.17,9.87-10.27,14.93-15.3,.13-.14,.37-.12,.52-.03,1.25,.74,2.5,1.49,3.74,2.25,.15,.09,.18,.28,.07,.38-6.44,5.83-12.74,11.78-18.89,17.85-.13,.14-.32,.15-.49,.05-1.49-.87-2.99-1.72-4.5-2.55Z"/><path class="cls-3" d="M692.89,872.8c-.16-.12-.23-.3-.19-.49,.62-2.31,1.21-4.62,1.8-6.94-3.13-2.16-6.29-4.26-9.48-6.3-1.9,1.45-3.78,2.91-5.65,4.38-.13,.13-.32,.14-.49,.04-1.22-.76-2.45-1.52-3.68-2.27-.14-.08-.16-.27-.02-.35,7.06-5.46,14.33-10.75,21.79-15.84,.17-.11,.38-.1,.56,.01,1.78,1.16,3.56,2.34,5.32,3.54,.18,.12,.26,.31,.23,.51-1.84,8.83-3.92,17.56-6.23,26.18-.02,.17-.21,.21-.34,.12-1.2-.87-2.41-1.73-3.62-2.59Zm2.55-11.31c.98-4.05,1.92-8.12,2.81-12.21-3.4,2.42-6.76,4.88-10.08,7.38,2.44,1.57,4.87,3.18,7.27,4.83Z"/></g><g><path class="cls-3" d="M475.69,1438.46c-.17,0-.32-.14-.32-.32v-3.12c0-9.79,12.14-8.88,12.14-14.04,.11-2.35-1.16-3.76-3.44-3.72-2.21,.03-3.58,1.65-3.69,4.63,0,.18-.14,.32-.32,.32h-4.25c-.18,0-.32-.14-.32-.32,0-5.34,2.88-8.42,8.56-8.46,5.48,0,8.25,2.77,8.39,7.37,0,9.09-12.11,8.56-12.11,13.27v.42h11.79c.17,0,.32,.14,.32,.32v3.33c0,.18-.14,.32-.32,.32h-16.46Z"/><path class="cls-3" d="M504.23,1438.98c-5.9,0-9.76-4.53-9.76-12.74s3.83-12.88,9.76-12.88,9.79,4.25,9.79,12.88-3.86,12.74-9.79,12.74Zm.03-4.11c2.74,0,4.25-2.53,4.25-8.63s-1.51-8.78-4.28-8.78-4.25,2.56-4.25,8.78,1.54,8.63,4.28,8.63Z"/><path class="cls-3" d="M516.26,1438.46c-.17,0-.32-.14-.32-.32v-3.12c0-9.79,12.14-8.88,12.14-14.04,.1-2.35-1.16-3.76-3.44-3.72-2.21,.03-3.58,1.65-3.69,4.63,0,.18-.14,.32-.32,.32h-4.25c-.18,0-.32-.14-.32-.32,0-5.34,2.88-8.42,8.56-8.46,5.48,0,8.25,2.77,8.39,7.37,0,9.09-12.11,8.56-12.11,13.27v.42h11.79c.17,0,.32,.14,.32,.32v3.33c0,.18-.14,.32-.32,.32h-16.46Z"/><path class="cls-3" d="M535.46,1438.46c-.17,0-.32-.14-.32-.32v-3.12c0-9.79,12.14-8.88,12.14-14.04,.1-2.35-1.16-3.76-3.44-3.72-2.21,.03-3.58,1.65-3.69,4.63,0,.18-.14,.32-.32,.32h-4.25c-.18,0-.32-.14-.32-.32,0-5.34,2.88-8.42,8.56-8.46,5.48,0,8.25,2.77,8.39,7.37,0,9.09-12.11,8.56-12.11,13.27v.42h11.79c.17,0,.32,.14,.32,.32v3.33c0,.18-.14,.32-.32,.32h-16.46Z"/></g><g class="cls-1"><g><path class="cls-3" d="M336.22,1394.13c-.06,.34-.28,.45-.56,.45h-9.57c-.34,0-.5-.22-.45-.56l4.7-19.43,4.14-18.76c.06-.34,.28-.45,.56-.45h13.83c.28,0,.45,.17,.5,.45l2.86,22.95,12.76-23.07c.11-.22,.28-.34,.56-.34h15.73c.34,0,.5,.22,.45,.56l-4.59,18.64-4.25,19.54c-.06,.34-.28,.45-.56,.45h-11.42c-.34,0-.5-.17-.45-.56l3.81-16.74,.06-.28,1.74-5.82-12.71,23.07c-.11,.22-.28,.34-.56,.34h-8.4c-.28,0-.45-.17-.5-.45l-2.74-22.67-.95,5.54-.06,.28-3.92,16.85Z"/><path class="cls-3" d="M380.61,1378.4l1.68-7,3.36-15.56c.06-.34,.28-.45,.56-.45h11.31c.34,0,.5,.22,.45,.56l-3.81,15.12-1.68,7.45c-1.18,5.04,.06,7.67,4.31,7.67,3.36,0,5.26-1.57,6.27-5.99l2.13-8.85,3.36-15.51c.06-.34,.28-.45,.56-.45h11.14c.34,0,.5,.22,.45,.56l-3.81,15.45-2.02,8.9c-2.35,10.08-7.78,15.28-18.81,15.28-11.7,0-18.03-6.38-15.45-17.19Z"/><path class="cls-3" d="M417.62,1382.37c0-.34,.22-.5,.5-.5h11.42c.28,0,.5,.17,.5,.5,.17,2.58,2.58,4.53,7.22,4.53,2.91,0,5.37-.9,5.37-3.25,0-6.27-20.88-1.85-20.88-15.96,0-8.73,9.01-13.32,18.59-13.32s17.13,4.54,17.19,12.04c0,.34-.22,.5-.5,.5h-11.48c-.28,0-.5-.17-.5-.5-.28-1.96-2.35-3.19-5.6-3.19-2.58,0-5.15,.62-5.15,2.63,0,5.43,21.11,2.02,21.11,15.9,0,9.01-8.68,13.83-18.98,13.83s-18.81-4.93-18.81-13.21Z"/><path class="cls-3" d="M468.73,1394.13c-.06,.34-.28,.45-.56,.45h-11.42c-.34,0-.5-.22-.45-.56l4.59-18.64,4.25-19.54c.06-.34,.28-.45,.56-.45h11.42c.34,0,.5,.22,.45,.56l-4.81,19.43-4.03,18.76Z"/><path class="cls-3" d="M476.96,1377.61c0-11.92,8.73-23.23,23.18-23.23,10.19,0,16.52,5.54,17.24,14.78,.06,.34-.11,.5-.45,.5h-10.47c-.28,0-.5-.17-.56-.5-.5-4.03-2.97-5.77-6.44-5.77-7.89,0-10.25,9.29-10.25,14.61,0,6.05,3.02,8.57,7.17,8.57s6.27-2.52,7.45-5.71c.11-.28,.34-.39,.62-.39h10.69c.34,0,.5,.17,.45,.45-2.18,8.23-9.18,14.67-19.93,14.67s-18.7-6.44-18.7-17.97Z"/><path class="cls-3" d="M544.42,1394.18c-.11,.22-.28,.39-.56,.39h-12.6c-.28,0-.5-.22-.5-.5l.62-38.18c0-.28,.22-.5,.5-.5h10.25c.34,0,.45,.17,.45,.5l-1.18,22.17,9.91-22.28c.11-.22,.28-.39,.56-.39h11.09c.28,0,.5,.22,.5,.5l-.06,22.23,8.85-22.34c.11-.22,.34-.39,.62-.39h11.37c.34,0,.56,.22,.39,.62l-17.13,38.18c-.11,.22-.28,.39-.56,.39h-12.6c-.28,0-.5-.22-.5-.5v-20.27l-9.41,20.38Z"/><path class="cls-3" d="M610.26,1355.89l3.53,38.18c.06,.34-.11,.5-.45,.5h-10.86c-.28,0-.56-.22-.56-.5l-.45-7.56h-12.65l-3.92,7.67c-.11,.28-.28,.39-.56,.39h-12.43c-.39,0-.5-.28-.34-.62l21.72-38.24c.11-.22,.34-.34,.62-.34h15.79c.28,0,.56,.22,.56,.5Zm-10.25,8.4l-6.49,12.82h7.33l-.84-12.82Z"/><path class="cls-3" d="M615.69,1382.37c0-.34,.22-.5,.5-.5h11.42c.28,0,.5,.17,.5,.5,.17,2.58,2.58,4.53,7.22,4.53,2.91,0,5.38-.9,5.38-3.25,0-6.27-20.88-1.85-20.88-15.96,0-8.73,9.01-13.32,18.59-13.32s17.13,4.54,17.19,12.04c0,.34-.22,.5-.5,.5h-11.48c-.28,0-.5-.17-.5-.5-.28-1.96-2.35-3.19-5.6-3.19-2.58,0-5.15,.62-5.15,2.63,0,5.43,21.11,2.02,21.11,15.9,0,9.01-8.68,13.83-18.98,13.83s-18.81-4.93-18.81-13.21Z"/><path class="cls-3" d="M686.06,1369.44l2.97-13.6c.06-.34,.28-.45,.56-.45h11.64c.34,0,.5,.22,.45,.56l-4.7,18.81-4.14,19.37c-.06,.34-.28,.45-.56,.45h-11.64c-.34,0-.5-.22-.45-.56l3.86-15.9h-12.6l-3.53,16.01c-.06,.34-.28,.45-.56,.45h-11.65c-.34,0-.5-.22-.45-.56l4.82-19.26,4.03-18.92c.06-.34,.28-.45,.56-.45h11.65c.34,0,.5,.22,.45,.56l-3.3,13.49h12.6Z"/></g></g><path class="cls-3" d="M517.39,1503.91c-101.99,0-197.88-39.72-269.99-111.84-72.12-72.12-111.84-168-111.84-269.99,0-36.22,5.06-72.05,15.05-106.51,.45-1.55,2.07-2.44,3.62-2,1.55,.45,2.44,2.07,2,3.62-9.83,33.93-14.82,69.21-14.82,104.88,0,100.43,39.11,194.84,110.12,265.86,71.01,71.01,165.43,110.12,265.86,110.12,108.82,0,212.24-47.12,283.73-129.28,1.06-1.22,2.91-1.35,4.13-.29,1.22,1.06,1.35,2.91,.29,4.13-72.61,83.44-177.63,131.29-288.15,131.29Z"/><path class="cls-3" d="M879.4,1237.23c-.29,0-.58-.04-.87-.13-1.54-.48-2.41-2.12-1.93-3.66,11.12-35.92,16.76-73.38,16.76-111.36,0-100.43-39.11-194.85-110.12-265.86-71.01-71.01-165.43-110.12-265.86-110.12-53.91,0-105.96,11.17-154.69,33.2-47.08,21.28-88.66,51.54-123.56,89.93-1.09,1.19-2.94,1.28-4.13,.2-1.2-1.09-1.28-2.94-.2-4.13,35.45-38.98,77.67-69.71,125.48-91.32,49.5-22.37,102.35-33.72,157.1-33.72,101.99,0,197.88,39.72,269.99,111.84,72.12,72.12,111.84,168,111.84,269.99,0,38.56-5.73,76.61-17.03,113.09-.39,1.25-1.54,2.06-2.79,2.06Z"/><path class="cls-3" d="M204.26,947.23c-19.65,0-35.64-15.99-35.64-35.64s15.99-35.64,35.64-35.64,35.64,15.99,35.64,35.64-15.99,35.64-35.64,35.64Zm0-65.42c-16.42,0-29.79,13.36-29.79,29.79s13.36,29.79,29.79,29.79,29.79-13.36,29.79-29.79-13.36-29.79-29.79-29.79Z"/><path class="cls-3" d="M829.09,1369.24c-19.65,0-35.64-15.99-35.64-35.64s15.99-35.64,35.64-35.64,35.64,15.99,35.64,35.64-15.99,35.64-35.64,35.64Zm0-65.42c-16.42,0-29.79,13.36-29.79,29.79s13.36,29.79,29.79,29.79,29.79-13.36,29.79-29.79-13.36-29.79-29.79-29.79Z"/><path class="cls-3" d="M171.55,1005.66c-15.85,0-28.75-12.9-28.75-28.75s12.9-28.75,28.75-28.75,28.75,12.9,28.75,28.75-12.9,28.75-28.75,28.75Zm0-51.65c-12.63,0-22.9,10.27-22.9,22.9s10.27,22.9,22.9,22.9,22.9-10.27,22.9-22.9-10.27-22.9-22.9-22.9Z"/><path class="cls-3" d="M861.8,1299.94c-15.85,0-28.75-12.9-28.75-28.75s12.9-28.75,28.75-28.75,28.75,12.9,28.75,28.75-12.9,28.75-28.75,28.75Zm0-51.65c-12.63,0-22.9,10.27-22.9,22.9s10.27,22.9,22.9,22.9,22.9-10.27,22.9-22.9-10.27-22.9-22.9-22.9Z"/><path class="cls-3" d="M459.01,1428.87h-21.44c-1.62,0-2.92-1.31-2.92-2.92s1.31-2.92,2.92-2.92h21.44c1.62,0,2.92,1.31,2.92,2.92s-1.31,2.92-2.92,2.92Z"/><path class="cls-3" d="M590.04,1429.1h-21.44c-1.62,0-2.92-1.31-2.92-2.92s1.31-2.92,2.92-2.92h21.44c1.62,0,2.92,1.31,2.92,2.92s-1.31,2.92-2.92,2.92Z"/></g></svg>