<?xml version="1.0" encoding="UTF-8"?><svg id="_レイヤー_2" xmlns="http://www.w3.org/2000/svg" width="1107mm" height="217.02mm" xmlns:xlink="http://www.w3.org/1999/xlink" viewBox="0 0 3137.95 615.16"><defs><style>.cls-1{fill:none;}.cls-2{clip-path:url(#clippath);}.cls-3{mask:url(#mask);}.cls-4{fill:#f8b500;}.cls-5{fill:#fff;}.cls-6{fill:#424242;}.cls-7{clip-path:url(#clippath-1);}.cls-8{clip-path:url(#clippath-4);}.cls-9{clip-path:url(#clippath-3);}.cls-10{clip-path:url(#clippath-2);}.cls-11{clip-path:url(#clippath-5);}.cls-12{fill:url(#_名称未設定グラデーション);}.cls-13{isolation:isolate;}</style><clipPath id="clippath"><rect class="cls-1" x=".93" width="3111.12" height="602.83"/></clipPath><clipPath id="clippath-1"><rect class="cls-1" x=".93" width="3111.12" height="602.83"/></clipPath><clipPath id="clippath-2"><rect class="cls-1" x="9.43" y="8.5" width="3094.11" height="585.82"/></clipPath><clipPath id="clippath-3"><rect class="cls-1" x="-114.41" y="114.91" width="3318.33" height="379.99"/></clipPath><clipPath id="clippath-4"><path class="cls-1" d="M-20.87,486.02c-.47,2.97-2.44,3.97-4.92,3.99l-84.54,.64c-2.97,.02-4.47-1.94-3.99-4.91l40.24-171.87L-38.75,147.97c.47-2.97,2.44-3.97,4.92-3.99l122.11-.92c2.47-.02,3.97,1.45,4.48,3.92l26.74,202.51,111.19-204.54c.97-1.98,2.45-2.98,4.92-3l138.92-1.05c2.97-.02,4.46,1.95,3.99,4.92l-39.3,164.94-36.27,172.82c-.47,2.97-2.44,3.97-4.91,3.99l-100.85,.76c-2.97,.02-4.46-1.45-3.99-4.91l32.51-148.08,.48-2.48,14.94-51.53-110.69,204.53c-.97,1.98-2.45,2.99-4.92,3l-74.16,.56c-2.47,.02-3.97-1.45-4.48-3.92l-25.73-200.04-8.03,49.01-.48,2.47L-20.87,486.02Zm390.99-141.87l14.37-61.91,28.63-137.66c.47-2.97,2.44-3.97,4.92-3.99l99.87-.75c2.97-.02,4.47,1.95,3.99,4.91l-32.61,133.74-14.34,65.87c-10.05,44.57,1.01,67.72,38.58,67.44,29.67-.22,46.37-14.19,54.98-53.32l18.2-78.25,28.63-137.17c.47-2.97,2.44-3.98,4.91-3.99l98.38-.74c2.97-.02,4.47,1.95,3.99,4.92l-32.59,136.7-17.21,78.74c-20.1,89.15-67.7,135.48-165.1,136.21-103.33,.78-159.62-55.16-137.59-150.75m327.04,32.64c-.02-2.97,1.94-4.47,4.42-4.48l100.85-.76c2.47-.02,4.46,1.45,4.48,4.42,1.65,22.73,23.04,39.87,64.08,39.56,25.71-.19,47.4-8.26,47.25-29.03-.42-55.37-184.53-14.93-185.47-139.51-.58-77.13,78.71-118.26,163.25-118.9,85.53-.64,151.58,38.91,152.58,105.15,.02,2.97-1.95,4.46-4.42,4.48l-101.35,.76c-2.47,.02-4.46-1.45-4.48-4.41-2.6-17.29-20.98-28.02-49.65-27.81-22.74,.17-45.44,5.78-45.31,23.58,.36,47.96,186.52,16.4,187.44,139,.6,79.6-75.71,122.69-166.68,123.37-93.44,.7-166.44-42.25-166.99-115.42m452.14,100.42c-.47,2.97-2.44,3.97-4.92,3.99l-100.85,.76c-2.97,.02-4.46-1.94-3.99-4.91l39.3-164.94,36.27-172.82c.47-2.97,2.44-3.98,4.91-3.99l100.85-.76c2.97-.02,4.46,1.95,3.99,4.92l-41.23,171.87-34.35,165.89Zm71.57-146.39c-.79-105.3,75.58-205.75,203.13-206.71,89.98-.68,146.21,47.85,153.25,129.37,.52,2.96-.95,4.46-3.92,4.48l-92.45,.7c-2.47,.02-4.46-1.45-4.98-4.41-4.72-35.56-26.58-50.73-57.24-50.49-69.71,.52-89.85,82.75-89.5,129.72,.4,53.39,27.27,75.44,63.85,75.16,35.6-.27,55.21-22.66,65.37-50.92,.97-2.48,2.94-3.48,5.41-3.5l94.43-.71c2.97-.02,4.46,1.45,3.98,3.93-18.73,72.82-80.1,130.14-175.03,130.85-94.92,.71-165.55-55.61-166.32-157.45m596.82,141.86c-.98,1.98-2.45,3.48-4.92,3.5l-111.23,.84c-2.47,.02-4.47-1.94-4.48-4.42l2.9-337.21c-.02-2.47,1.95-4.47,4.42-4.48l90.47-.68c2.97-.02,3.97,1.45,3.99,4.42l-8.91,195.85,86.03-197.43c.97-1.98,2.45-3.48,4.92-3.5l97.89-.74c2.47-.02,4.46,1.95,4.48,4.42l.98,196.27,76.63-197.85c.97-1.98,2.94-3.48,5.41-3.5l100.36-.76c2.97-.02,4.96,1.94,3.5,5.41l-148.74,338.31c-.98,1.99-2.45,3.48-4.92,3.5l-111.24,.84c-2.47,.02-4.46-1.94-4.48-4.42l-1.35-178.97-81.7,180.58Zm578.84-342.54l33.68,336.94c.52,2.96-.96,4.46-3.92,4.48l-95.91,.72c-2.47,.02-4.96-1.94-4.98-4.41l-4.46-66.71-111.73,.84-34.1,67.99c-.97,2.48-2.44,3.48-4.92,3.5l-109.75,.83c-3.46,.03-4.47-2.44-3.01-5.42l189.28-339.11c.97-1.98,2.94-2.99,5.42-3.01l139.42-1.05c2.47-.02,4.96,1.94,4.98,4.41m-89.92,74.84l-56.5,113.65,64.77-.49-8.27-113.16Zm139.62,158.64c-.02-2.97,1.94-4.46,4.42-4.48l100.85-.76c2.47-.02,4.46,1.45,4.48,4.42,1.66,22.73,23.05,39.87,64.08,39.56,25.71-.19,47.41-8.26,47.25-29.03-.42-55.37-184.53-14.93-185.47-139.51-.58-77.13,78.71-118.26,163.25-118.9,85.53-.64,151.58,38.91,152.58,105.15,.02,2.97-1.95,4.46-4.41,4.48l-101.35,.76c-2.47,.02-4.46-1.45-4.49-4.41-2.6-17.29-20.97-28.02-49.65-27.81-22.74,.17-45.44,5.78-45.31,23.58,.36,47.96,186.52,16.4,187.44,139,.6,79.6-75.71,122.69-166.68,123.37-93.44,.7-166.44-42.25-166.99-115.42m620.57-118.88l25.29-120.33c.47-2.97,2.45-3.98,4.92-3.99l102.83-.77c2.97-.02,4.47,1.95,4,4.92l-40.28,166.43-35.3,171.33c-.47,2.97-2.44,3.97-4.91,3.99l-102.83,.77c-2.96,.02-4.46-1.94-3.99-4.91l33.05-140.66-111.23,.84-30.08,141.63c-.47,2.97-2.44,3.97-4.91,3.99l-102.83,.77c-2.97,.02-4.46-1.94-4-4.91l41.24-170.39,34.34-167.37c.47-2.97,2.44-3.97,4.91-3.99l102.83-.77c2.97-.02,4.46,1.95,3.99,4.92l-28.27,119.37,111.24-.84Z"/></clipPath><linearGradient id="_名称未設定グラデーション" x1="1147.32" y1="493.45" x2="1148.32" y2="493.45" gradientTransform="translate(-3810337.8 1639047.57) scale(3320.96 -3320.96)" gradientUnits="userSpaceOnUse"><stop offset="0" stop-color="#fff"/><stop offset=".59" stop-color="#fff"/><stop offset=".69" stop-color="#fff"/><stop offset=".71" stop-color="#f3f3f3"/><stop offset=".77" stop-color="#d6d3d3"/><stop offset=".84" stop-color="#a5a19f"/><stop offset=".92" stop-color="#635b59"/><stop offset="1" stop-color="#231815"/></linearGradient><mask id="mask" x="-117.65" y="89.38" width="3324.83" height="431.18" maskUnits="userSpaceOnUse"><g class="cls-9"><rect x="-114.79" y="114.27" width="3319.11" height="381.4"/><g class="cls-13"><g class="cls-8"><rect class="cls-12" x="-116.18" y="101.83" width="3321.87" height="406.28" transform="translate(-2.24 11.59) rotate(-.43)"/></g></g></g></mask><clipPath id="clippath-5"><rect class="cls-1" x="-114.41" y="114.91" width="3318.33" height="379.99"/></clipPath></defs><g id="_538-CMT_カラーマフラータオル"><path class="cls-4" d="M3116.03,29.34H21.92c-12.09,0-21.92,9.57-21.92,21.33V593.83c0,11.76,9.83,21.33,21.92,21.33H3116.03c12.09,0,21.92-9.57,21.92-21.33V50.67c0-11.76-9.83-21.33-21.92-21.33Z"/><g id="_ロゴ"><g id="_ロゴ_white"><g class="cls-2"><g class="cls-7"><g class="cls-10"><g class="cls-3"><g class="cls-11"><path class="cls-5" d="M-20.87,486.02c-.47,2.97-2.44,3.97-4.92,3.99l-84.54,.64c-2.97,.02-4.47-1.94-3.99-4.91l40.24-171.87L-38.75,147.97c.47-2.97,2.44-3.97,4.92-3.99l122.11-.92c2.48-.02,3.97,1.45,4.48,3.92l26.74,202.51,111.19-204.54c.98-1.98,2.45-2.98,4.92-3l138.92-1.05c2.97-.02,4.46,1.95,3.99,4.92l-39.3,164.94-36.27,172.82c-.47,2.97-2.44,3.97-4.91,3.99l-100.85,.76c-2.97,.02-4.46-1.45-3.99-4.91l32.5-148.08,.48-2.47,14.94-51.53-110.69,204.53c-.98,1.98-2.45,2.99-4.92,3l-74.16,.56c-2.47,.02-3.97-1.45-4.48-3.92l-25.73-200.04-8.03,49.01-.48,2.47L-20.87,486.02Z"/><path class="cls-5" d="M370.12,344.15l14.37-61.91,28.63-137.66c.47-2.97,2.45-3.97,4.92-3.99l99.87-.75c2.97-.02,4.47,1.95,3.99,4.92l-32.61,133.74-14.34,65.86c-10.05,44.57,1.01,67.73,38.58,67.44,29.66-.22,46.37-14.19,54.97-53.32l18.2-78.25,28.63-137.17c.47-2.97,2.44-3.97,4.91-3.99l98.38-.74c2.97-.02,4.46,1.95,3.99,4.92l-32.59,136.7-17.2,78.74c-20.1,89.15-67.7,135.48-165.1,136.21-103.33,.78-159.61-55.16-137.59-150.75"/><path class="cls-5" d="M697.16,376.79c-.02-2.97,1.94-4.46,4.42-4.48l100.85-.76c2.47-.02,4.46,1.45,4.48,4.42,1.66,22.73,23.04,39.87,64.08,39.56,25.71-.19,47.4-8.27,47.24-29.03-.42-55.37-184.53-14.92-185.47-139.51-.58-77.12,78.71-118.26,163.25-118.9,85.53-.64,151.58,38.91,152.58,105.15,.02,2.97-1.95,4.46-4.42,4.48l-101.35,.76c-2.47,.02-4.46-1.45-4.48-4.41-2.6-17.29-20.97-28.02-49.65-27.81-22.74,.17-45.44,5.78-45.31,23.58,.36,47.96,186.52,16.4,187.44,139,.6,79.6-75.71,122.69-166.68,123.37-93.44,.7-166.44-42.25-166.99-115.42"/><path class="cls-5" d="M1149.31,477.21c-.47,2.97-2.44,3.97-4.92,3.99l-100.85,.76c-2.97,.02-4.46-1.94-3.99-4.91l39.3-164.94,36.27-172.82c.47-2.97,2.44-3.98,4.91-3.99l100.85-.76c2.97-.02,4.47,1.95,3.99,4.92l-41.23,171.87-34.35,165.89Z"/><path class="cls-5" d="M1220.88,330.82c-.79-105.3,75.58-205.75,203.13-206.71,89.98-.68,146.21,47.85,153.25,129.37,.52,2.96-.95,4.46-3.92,4.48l-92.45,.7c-2.47,.02-4.46-1.45-4.98-4.41-4.72-35.56-26.58-50.72-57.24-50.49-69.71,.52-89.85,82.75-89.5,129.71,.4,53.39,27.27,75.44,63.85,75.17,35.6-.27,55.21-22.67,65.37-50.92,.97-2.48,2.94-3.48,5.41-3.5l94.43-.71c2.97-.02,4.46,1.45,3.98,3.93-18.73,72.82-80.1,130.14-175.03,130.85-94.92,.71-165.55-55.61-166.32-157.45"/><path class="cls-5" d="M1817.7,472.68c-.97,1.98-2.44,3.48-4.92,3.5l-111.23,.84c-2.47,.02-4.47-1.94-4.48-4.42l2.9-337.21c-.02-2.47,1.95-4.47,4.42-4.48l90.47-.68c2.97-.02,3.97,1.45,3.99,4.42l-8.91,195.86,86.03-197.43c.97-1.98,2.45-3.48,4.92-3.5l97.89-.74c2.47-.02,4.47,1.95,4.48,4.42l.98,196.28,76.63-197.85c.97-1.98,2.94-3.48,5.41-3.5l100.36-.76c2.97-.02,4.96,1.94,3.5,5.41l-148.74,338.31c-.97,1.98-2.45,3.48-4.92,3.5l-111.24,.84c-2.47,.02-4.46-1.94-4.48-4.42l-1.35-178.97-81.7,180.58Z"/><path class="cls-5" d="M2396.54,130.14l33.68,336.94c.52,2.96-.96,4.46-3.92,4.48l-95.91,.72c-2.47,.02-4.96-1.94-4.98-4.41l-4.46-66.71-111.73,.84-34.1,67.99c-.97,2.48-2.45,3.48-4.92,3.5l-109.75,.83c-3.46,.03-4.47-2.44-3.01-5.41l189.28-339.11c.98-1.98,2.94-2.99,5.42-3.01l139.42-1.05c2.47-.02,4.96,1.94,4.98,4.41m-89.92,74.84l-56.5,113.65,64.77-.49-8.27-113.16Z"/><path class="cls-5" d="M2446.24,363.62c-.02-2.97,1.94-4.47,4.42-4.48l100.85-.76c2.47-.02,4.46,1.45,4.48,4.42,1.66,22.73,23.05,39.87,64.08,39.56,25.71-.19,47.41-8.27,47.25-29.03-.42-55.37-184.53-14.92-185.47-139.51-.58-77.13,78.71-118.26,163.25-118.9,85.53-.64,151.58,38.91,152.58,105.15,.02,2.97-1.95,4.46-4.42,4.48l-101.35,.76c-2.47,.02-4.47-1.45-4.49-4.41-2.6-17.29-20.97-28.02-49.65-27.81-22.74,.17-45.44,5.78-45.31,23.58,.36,47.96,186.52,16.4,187.44,139,.6,79.6-75.71,122.69-166.68,123.37-93.44,.7-166.44-42.25-166.99-115.42"/><path class="cls-5" d="M3066.8,244.74l25.29-120.33c.47-2.97,2.45-3.98,4.92-3.99l102.83-.77c2.97-.02,4.47,1.95,4,4.92l-40.28,166.42-35.3,171.33c-.47,2.97-2.44,3.97-4.91,3.99l-102.83,.77c-2.96,.02-4.46-1.94-3.99-4.91l33.05-140.66-111.24,.84-30.08,141.63c-.47,2.97-2.44,3.97-4.91,3.99l-102.83,.77c-2.97,.02-4.46-1.94-4-4.91l41.24-170.39,34.34-167.37c.47-2.97,2.45-3.98,4.91-3.99l102.83-.77c2.97-.02,4.46,1.95,3.99,4.92l-28.27,119.37,111.24-.84Z"/></g></g></g></g></g></g></g><g><path class="cls-6" d="M3116.03,29.34H21.92c-12.09,0-21.92,9.57-21.92,21.33V593.83c0,11.76,9.83,21.33,21.92,21.33H3116.03c12.09,0,21.92-9.57,21.92-21.33V50.67c0-11.76-9.83-21.33-21.92-21.33Zm2.08,564.49c0,.7-.85,1.49-2.08,1.49h-39.02v-7.83c0-1.33-.46-2.56-1.24-3.53h2.51c3.13,0,5.67-2.54,5.67-5.67s-2.54-5.67-5.67-5.67h-24.88c-3.13,0-5.67,2.54-5.67,5.67s2.54,5.67,5.67,5.67h13.5c-.77,.97-1.24,2.19-1.24,3.53v7.83H72.28v-7.83c0-1.33-.46-2.56-1.24-3.53h22.12c3.13,0,5.67-2.54,5.67-5.67s-2.54-5.67-5.67-5.67h-24.88c-3.13,0-5.67,2.54-5.67,5.67,0,1.58,.64,3,1.68,4.03-1.97,.89-3.35,2.87-3.35,5.17v7.83H21.92c-1.22,0-2.08-.78-2.08-1.49v-9.87h23.57c3.13,0,5.67-2.54,5.67-5.67s-2.54-5.67-5.67-5.67H19.84V71.88h23.57c3.13,0,5.67-2.54,5.67-5.67s-2.54-5.67-5.67-5.67H19.84v-9.87c0-.7,.85-1.49,2.08-1.49H60.94v15.91c0,2.32,1.4,4.32,3.4,5.19,1.02,.99,2.41,1.6,3.94,1.6h24.88c3.13,0,5.67-2.54,5.67-5.67s-2.54-5.67-5.67-5.67h-20.88v-11.36H3065.67v11.36h-12.27c-3.13,0-5.67,2.54-5.67,5.67s2.54,5.67,5.67,5.67h24.88c3.13,0,5.67-2.54,5.67-5.67s-2.54-5.67-5.67-5.67h-1.27v-11.36h39.02c1.23,0,2.08,.78,2.08,1.49v9.87h-14.96c-3.13,0-5.67,2.54-5.67,5.67s2.54,5.67,5.67,5.67h14.96v500.74h-14.96c-3.13,0-5.67,2.54-5.67,5.67s2.54,5.67,5.67,5.67h14.96v9.87Z"/><path class="cls-6" d="M3071.34,183.8c-3.13,0-5.67,2.54-5.67,5.67v24.88c0,3.13,2.54,5.67,5.67,5.67s5.67-2.54,5.67-5.67v-24.88c0-3.13-2.54-5.67-5.67-5.67Z"/><path class="cls-6" d="M3071.34,283.31c-3.13,0-5.67,2.54-5.67,5.67v24.88c0,3.13,2.54,5.67,5.67,5.67s5.67-2.54,5.67-5.67v-24.88c0-3.13-2.54-5.67-5.67-5.67Z"/><path class="cls-6" d="M3071.34,432.56c-3.13,0-5.67,2.54-5.67,5.67v24.88c0,3.13,2.54,5.67,5.67,5.67s5.67-2.54,5.67-5.67v-24.88c0-3.13-2.54-5.67-5.67-5.67Z"/><path class="cls-6" d="M3071.34,233.55c-3.13,0-5.67,2.54-5.67,5.67v24.88c0,3.13,2.54,5.67,5.67,5.67s5.67-2.54,5.67-5.67v-24.88c0-3.13-2.54-5.67-5.67-5.67Z"/><path class="cls-6" d="M3071.34,382.81c-3.13,0-5.67,2.54-5.67,5.67v24.88c0,3.13,2.54,5.67,5.67,5.67s5.67-2.54,5.67-5.67v-24.88c0-3.13-2.54-5.67-5.67-5.67Z"/><path class="cls-6" d="M3071.34,532.07c-3.13,0-5.67,2.54-5.67,5.67v24.88c0,3.13,2.54,5.67,5.67,5.67s5.67-2.54,5.67-5.67v-24.88c0-3.13-2.54-5.67-5.67-5.67Z"/><path class="cls-6" d="M3071.34,482.31c-3.13,0-5.67,2.54-5.67,5.67v24.88c0,3.13,2.54,5.67,5.67,5.67s5.67-2.54,5.67-5.67v-24.88c0-3.13-2.54-5.67-5.67-5.67Z"/><path class="cls-6" d="M3071.34,333.06c-3.13,0-5.67,2.54-5.67,5.67v24.88c0,3.13,2.54,5.67,5.67,5.67s5.67-2.54,5.67-5.67v-24.88c0-3.13-2.54-5.67-5.67-5.67Z"/><path class="cls-6" d="M3071.34,134.05c-3.13,0-5.67,2.54-5.67,5.67v24.88c0,3.13,2.54,5.67,5.67,5.67s5.67-2.54,5.67-5.67v-24.88c0-3.13-2.54-5.67-5.67-5.67Z"/><path class="cls-6" d="M3071.34,84.3c-3.13,0-5.67,2.54-5.67,5.67v24.88c0,3.13,2.54,5.67,5.67,5.67s5.67-2.54,5.67-5.67v-24.88c0-3.13-2.54-5.67-5.67-5.67Z"/><path class="cls-6" d="M66.61,482.31c-3.13,0-5.67,2.54-5.67,5.67v24.88c0,3.13,2.54,5.67,5.67,5.67s5.67-2.54,5.67-5.67v-24.88c0-3.13-2.54-5.67-5.67-5.67Z"/><path class="cls-6" d="M66.61,432.56c-3.13,0-5.67,2.54-5.67,5.67v24.88c0,3.13,2.54,5.67,5.67,5.67s5.67-2.54,5.67-5.67v-24.88c0-3.13-2.54-5.67-5.67-5.67Z"/><path class="cls-6" d="M66.61,84.3c-3.13,0-5.67,2.54-5.67,5.67v24.88c0,3.13,2.54,5.67,5.67,5.67s5.67-2.54,5.67-5.67v-24.88c0-3.13-2.54-5.67-5.67-5.67Z"/><path class="cls-6" d="M66.61,382.81c-3.13,0-5.67,2.54-5.67,5.67v24.88c0,3.13,2.54,5.67,5.67,5.67s5.67-2.54,5.67-5.67v-24.88c0-3.13-2.54-5.67-5.67-5.67Z"/><path class="cls-6" d="M66.61,333.06c-3.13,0-5.67,2.54-5.67,5.67v24.88c0,3.13,2.54,5.67,5.67,5.67s5.67-2.54,5.67-5.67v-24.88c0-3.13-2.54-5.67-5.67-5.67Z"/><path class="cls-6" d="M66.61,532.07c-3.13,0-5.67,2.54-5.67,5.67v24.88c0,3.13,2.54,5.67,5.67,5.67s5.67-2.54,5.67-5.67v-24.88c0-3.13-2.54-5.67-5.67-5.67Z"/><path class="cls-6" d="M66.61,233.55c-3.13,0-5.67,2.54-5.67,5.67v24.88c0,3.13,2.54,5.67,5.67,5.67s5.67-2.54,5.67-5.67v-24.88c0-3.13-2.54-5.67-5.67-5.67Z"/><path class="cls-6" d="M66.61,134.05c-3.13,0-5.67,2.54-5.67,5.67v24.88c0,3.13,2.54,5.67,5.67,5.67s5.67-2.54,5.67-5.67v-24.88c0-3.13-2.54-5.67-5.67-5.67Z"/><path class="cls-6" d="M66.61,183.8c-3.13,0-5.67,2.54-5.67,5.67v24.88c0,3.13,2.54,5.67,5.67,5.67s5.67-2.54,5.67-5.67v-24.88c0-3.13-2.54-5.67-5.67-5.67Z"/><path class="cls-6" d="M66.61,283.31c-3.13,0-5.67,2.54-5.67,5.67v24.88c0,3.13,2.54,5.67,5.67,5.67s5.67-2.54,5.67-5.67v-24.88c0-3.13-2.54-5.67-5.67-5.67Z"/><path class="cls-6" d="M1088.2,60.55h-24.88c-3.13,0-5.67,2.54-5.67,5.67s2.54,5.67,5.67,5.67h24.88c3.13,0,5.67-2.54,5.67-5.67s-2.54-5.67-5.67-5.67Z"/><path class="cls-6" d="M1187.71,60.55h-24.88c-3.13,0-5.67,2.54-5.67,5.67s2.54,5.67,5.67,5.67h24.88c3.13,0,5.67-2.54,5.67-5.67s-2.54-5.67-5.67-5.67Z"/><path class="cls-6" d="M1137.95,60.55h-24.88c-3.13,0-5.67,2.54-5.67,5.67s2.54,5.67,5.67,5.67h24.88c3.13,0,5.67-2.54,5.67-5.67s-2.54-5.67-5.67-5.67Z"/><path class="cls-6" d="M1038.45,60.55h-24.88c-3.13,0-5.67,2.54-5.67,5.67s2.54,5.67,5.67,5.67h24.88c3.13,0,5.67-2.54,5.67-5.67s-2.54-5.67-5.67-5.67Z"/><path class="cls-6" d="M938.95,60.55h-24.88c-3.13,0-5.67,2.54-5.67,5.67s2.54,5.67,5.67,5.67h24.88c3.13,0,5.67-2.54,5.67-5.67s-2.54-5.67-5.67-5.67Z"/><path class="cls-6" d="M988.7,60.55h-24.88c-3.13,0-5.67,2.54-5.67,5.67s2.54,5.67,5.67,5.67h24.88c3.13,0,5.67-2.54,5.67-5.67s-2.54-5.67-5.67-5.67Z"/><path class="cls-6" d="M889.19,60.55h-24.88c-3.13,0-5.67,2.54-5.67,5.67s2.54,5.67,5.67,5.67h24.88c3.13,0,5.67-2.54,5.67-5.67s-2.54-5.67-5.67-5.67Z"/><path class="cls-6" d="M1685.22,60.55h-24.88c-3.13,0-5.67,2.54-5.67,5.67s2.54,5.67,5.67,5.67h24.88c3.13,0,5.67-2.54,5.67-5.67s-2.54-5.67-5.67-5.67Z"/><path class="cls-6" d="M1585.72,60.55h-24.88c-3.13,0-5.67,2.54-5.67,5.67s2.54,5.67,5.67,5.67h24.88c3.13,0,5.67-2.54,5.67-5.67s-2.54-5.67-5.67-5.67Z"/><path class="cls-6" d="M1486.22,60.55h-24.88c-3.13,0-5.67,2.54-5.67,5.67s2.54,5.67,5.67,5.67h24.88c3.13,0,5.67-2.54,5.67-5.67s-2.54-5.67-5.67-5.67Z"/><path class="cls-6" d="M1535.97,60.55h-24.88c-3.13,0-5.67,2.54-5.67,5.67s2.54,5.67,5.67,5.67h24.88c3.13,0,5.67-2.54,5.67-5.67s-2.54-5.67-5.67-5.67Z"/><path class="cls-6" d="M839.44,60.55h-24.88c-3.13,0-5.67,2.54-5.67,5.67s2.54,5.67,5.67,5.67h24.88c3.13,0,5.67-2.54,5.67-5.67s-2.54-5.67-5.67-5.67Z"/><path class="cls-6" d="M1635.47,60.55h-24.88c-3.13,0-5.67,2.54-5.67,5.67s2.54,5.67,5.67,5.67h24.88c3.13,0,5.67-2.54,5.67-5.67s-2.54-5.67-5.67-5.67Z"/><path class="cls-6" d="M1287.21,60.55h-24.88c-3.13,0-5.67,2.54-5.67,5.67s2.54,5.67,5.67,5.67h24.88c3.13,0,5.67-2.54,5.67-5.67s-2.54-5.67-5.67-5.67Z"/><path class="cls-6" d="M1336.96,60.55h-24.88c-3.13,0-5.67,2.54-5.67,5.67s2.54,5.67,5.67,5.67h24.88c3.13,0,5.67-2.54,5.67-5.67s-2.54-5.67-5.67-5.67Z"/><path class="cls-6" d="M1436.46,60.55h-24.88c-3.13,0-5.67,2.54-5.67,5.67s2.54,5.67,5.67,5.67h24.88c3.13,0,5.67-2.54,5.67-5.67s-2.54-5.67-5.67-5.67Z"/><path class="cls-6" d="M1386.71,60.55h-24.88c-3.13,0-5.67,2.54-5.67,5.67s2.54,5.67,5.67,5.67h24.88c3.13,0,5.67-2.54,5.67-5.67s-2.54-5.67-5.67-5.67Z"/><path class="cls-6" d="M1237.46,60.55h-24.88c-3.13,0-5.67,2.54-5.67,5.67s2.54,5.67,5.67,5.67h24.88c3.13,0,5.67-2.54,5.67-5.67s-2.54-5.67-5.67-5.67Z"/><path class="cls-6" d="M142.91,60.55h-24.88c-3.13,0-5.67,2.54-5.67,5.67s2.54,5.67,5.67,5.67h24.88c3.13,0,5.67-2.54,5.67-5.67s-2.54-5.67-5.67-5.67Z"/><path class="cls-6" d="M789.69,60.55h-24.88c-3.13,0-5.67,2.54-5.67,5.67s2.54,5.67,5.67,5.67h24.88c3.13,0,5.67-2.54,5.67-5.67s-2.54-5.67-5.67-5.67Z"/><path class="cls-6" d="M242.42,60.55h-24.88c-3.13,0-5.67,2.54-5.67,5.67s2.54,5.67,5.67,5.67h24.88c3.13,0,5.67-2.54,5.67-5.67s-2.54-5.67-5.67-5.67Z"/><path class="cls-6" d="M341.92,60.55h-24.88c-3.13,0-5.67,2.54-5.67,5.67s2.54,5.67,5.67,5.67h24.88c3.13,0,5.67-2.54,5.67-5.67s-2.54-5.67-5.67-5.67Z"/><path class="cls-6" d="M292.17,60.55h-24.88c-3.13,0-5.67,2.54-5.67,5.67s2.54,5.67,5.67,5.67h24.88c3.13,0,5.67-2.54,5.67-5.67s-2.54-5.67-5.67-5.67Z"/><path class="cls-6" d="M1734.98,60.55h-24.88c-3.13,0-5.67,2.54-5.67,5.67s2.54,5.67,5.67,5.67h24.88c3.13,0,5.67-2.54,5.67-5.67s-2.54-5.67-5.67-5.67Z"/><path class="cls-6" d="M192.67,60.55h-24.88c-3.13,0-5.67,2.54-5.67,5.67s2.54,5.67,5.67,5.67h24.88c3.13,0,5.67-2.54,5.67-5.67s-2.54-5.67-5.67-5.67Z"/><path class="cls-6" d="M690.19,60.55h-24.88c-3.13,0-5.67,2.54-5.67,5.67s2.54,5.67,5.67,5.67h24.88c3.13,0,5.67-2.54,5.67-5.67s-2.54-5.67-5.67-5.67Z"/><path class="cls-6" d="M640.43,60.55h-24.88c-3.13,0-5.67,2.54-5.67,5.67s2.54,5.67,5.67,5.67h24.88c3.13,0,5.67-2.54,5.67-5.67s-2.54-5.67-5.67-5.67Z"/><path class="cls-6" d="M590.68,60.55h-24.88c-3.13,0-5.67,2.54-5.67,5.67s2.54,5.67,5.67,5.67h24.88c3.13,0,5.67-2.54,5.67-5.67s-2.54-5.67-5.67-5.67Z"/><path class="cls-6" d="M391.67,60.55h-24.88c-3.13,0-5.67,2.54-5.67,5.67s2.54,5.67,5.67,5.67h24.88c3.13,0,5.67-2.54,5.67-5.67s-2.54-5.67-5.67-5.67Z"/><path class="cls-6" d="M739.94,60.55h-24.88c-3.13,0-5.67,2.54-5.67,5.67s2.54,5.67,5.67,5.67h24.88c3.13,0,5.67-2.54,5.67-5.67s-2.54-5.67-5.67-5.67Z"/><path class="cls-6" d="M441.43,60.55h-24.88c-3.13,0-5.67,2.54-5.67,5.67s2.54,5.67,5.67,5.67h24.88c3.13,0,5.67-2.54,5.67-5.67s-2.54-5.67-5.67-5.67Z"/><path class="cls-6" d="M540.93,60.55h-24.88c-3.13,0-5.67,2.54-5.67,5.67s2.54,5.67,5.67,5.67h24.88c3.13,0,5.67-2.54,5.67-5.67s-2.54-5.67-5.67-5.67Z"/><path class="cls-6" d="M491.18,60.55h-24.88c-3.13,0-5.67,2.54-5.67,5.67s2.54,5.67,5.67,5.67h24.88c3.13,0,5.67-2.54,5.67-5.67s-2.54-5.67-5.67-5.67Z"/><path class="cls-6" d="M2332,60.55h-24.88c-3.13,0-5.67,2.54-5.67,5.67s2.54,5.67,5.67,5.67h24.88c3.13,0,5.67-2.54,5.67-5.67s-2.54-5.67-5.67-5.67Z"/><path class="cls-6" d="M2381.75,60.55h-24.88c-3.13,0-5.67,2.54-5.67,5.67s2.54,5.67,5.67,5.67h24.88c3.13,0,5.67-2.54,5.67-5.67s-2.54-5.67-5.67-5.67Z"/><path class="cls-6" d="M2531.01,60.55h-24.88c-3.13,0-5.67,2.54-5.67,5.67s2.54,5.67,5.67,5.67h24.88c3.13,0,5.67-2.54,5.67-5.67s-2.54-5.67-5.67-5.67Z"/><path class="cls-6" d="M2481.26,60.55h-24.88c-3.13,0-5.67,2.54-5.67,5.67s2.54,5.67,5.67,5.67h24.88c3.13,0,5.67-2.54,5.67-5.67s-2.54-5.67-5.67-5.67Z"/><path class="cls-6" d="M2282.25,60.55h-24.88c-3.13,0-5.67,2.54-5.67,5.67s2.54,5.67,5.67,5.67h24.88c3.13,0,5.67-2.54,5.67-5.67s-2.54-5.67-5.67-5.67Z"/><path class="cls-6" d="M2033.49,60.55h-24.88c-3.13,0-5.67,2.54-5.67,5.67s2.54,5.67,5.67,5.67h24.88c3.13,0,5.67-2.54,5.67-5.67s-2.54-5.67-5.67-5.67Z"/><path class="cls-6" d="M2232.5,60.55h-24.88c-3.13,0-5.67,2.54-5.67,5.67s2.54,5.67,5.67,5.67h24.88c3.13,0,5.67-2.54,5.67-5.67s-2.54-5.67-5.67-5.67Z"/><path class="cls-6" d="M2083.24,60.55h-24.88c-3.13,0-5.67,2.54-5.67,5.67s2.54,5.67,5.67,5.67h24.88c3.13,0,5.67-2.54,5.67-5.67s-2.54-5.67-5.67-5.67Z"/><path class="cls-6" d="M2132.99,60.55h-24.88c-3.13,0-5.67,2.54-5.67,5.67s2.54,5.67,5.67,5.67h24.88c3.13,0,5.67-2.54,5.67-5.67s-2.54-5.67-5.67-5.67Z"/><path class="cls-6" d="M2182.74,60.55h-24.88c-3.13,0-5.67,2.54-5.67,5.67s2.54,5.67,5.67,5.67h24.88c3.13,0,5.67-2.54,5.67-5.67s-2.54-5.67-5.67-5.67Z"/><path class="cls-6" d="M2431.5,60.55h-24.88c-3.13,0-5.67,2.54-5.67,5.67s2.54,5.67,5.67,5.67h24.88c3.13,0,5.67-2.54,5.67-5.67s-2.54-5.67-5.67-5.67Z"/><path class="cls-6" d="M2929.02,60.55h-24.88c-3.13,0-5.67,2.54-5.67,5.67s2.54,5.67,5.67,5.67h24.88c3.13,0,5.67-2.54,5.67-5.67s-2.54-5.67-5.67-5.67Z"/><path class="cls-6" d="M2879.27,60.55h-24.88c-3.13,0-5.67,2.54-5.67,5.67s2.54,5.67,5.67,5.67h24.88c3.13,0,5.67-2.54,5.67-5.67s-2.54-5.67-5.67-5.67Z"/><path class="cls-6" d="M2829.52,60.55h-24.88c-3.13,0-5.67,2.54-5.67,5.67s2.54,5.67,5.67,5.67h24.88c3.13,0,5.67-2.54,5.67-5.67s-2.54-5.67-5.67-5.67Z"/><path class="cls-6" d="M3028.53,60.55h-24.88c-3.13,0-5.67,2.54-5.67,5.67s2.54,5.67,5.67,5.67h24.88c3.13,0,5.67-2.54,5.67-5.67s-2.54-5.67-5.67-5.67Z"/><path class="cls-6" d="M2630.51,60.55h-24.88c-3.13,0-5.67,2.54-5.67,5.67s2.54,5.67,5.67,5.67h24.88c3.13,0,5.67-2.54,5.67-5.67s-2.54-5.67-5.67-5.67Z"/><path class="cls-6" d="M2580.76,60.55h-24.88c-3.13,0-5.67,2.54-5.67,5.67s2.54,5.67,5.67,5.67h24.88c3.13,0,5.67-2.54,5.67-5.67s-2.54-5.67-5.67-5.67Z"/><path class="cls-6" d="M2779.77,60.55h-24.88c-3.13,0-5.67,2.54-5.67,5.67s2.54,5.67,5.67,5.67h24.88c3.13,0,5.67-2.54,5.67-5.67s-2.54-5.67-5.67-5.67Z"/><path class="cls-6" d="M2680.26,60.55h-24.88c-3.13,0-5.67,2.54-5.67,5.67s2.54,5.67,5.67,5.67h24.88c3.13,0,5.67-2.54,5.67-5.67s-2.54-5.67-5.67-5.67Z"/><path class="cls-6" d="M2730.02,60.55h-24.88c-3.13,0-5.67,2.54-5.67,5.67s2.54,5.67,5.67,5.67h24.88c3.13,0,5.67-2.54,5.67-5.67s-2.54-5.67-5.67-5.67Z"/><path class="cls-6" d="M2978.78,60.55h-24.88c-3.13,0-5.67,2.54-5.67,5.67s2.54,5.67,5.67,5.67h24.88c3.13,0,5.67-2.54,5.67-5.67s-2.54-5.67-5.67-5.67Z"/><path class="cls-6" d="M1884.23,60.55h-24.88c-3.13,0-5.67,2.54-5.67,5.67s2.54,5.67,5.67,5.67h24.88c3.13,0,5.67-2.54,5.67-5.67s-2.54-5.67-5.67-5.67Z"/><path class="cls-6" d="M1834.48,60.55h-24.88c-3.13,0-5.67,2.54-5.67,5.67s2.54,5.67,5.67,5.67h24.88c3.13,0,5.67-2.54,5.67-5.67s-2.54-5.67-5.67-5.67Z"/><path class="cls-6" d="M1983.74,60.55h-24.88c-3.13,0-5.67,2.54-5.67,5.67s2.54,5.67,5.67,5.67h24.88c3.13,0,5.67-2.54,5.67-5.67s-2.54-5.67-5.67-5.67Z"/><path class="cls-6" d="M1784.73,60.55h-24.88c-3.13,0-5.67,2.54-5.67,5.67s2.54,5.67,5.67,5.67h24.88c3.13,0,5.67-2.54,5.67-5.67s-2.54-5.67-5.67-5.67Z"/><path class="cls-6" d="M1933.98,60.55h-24.88c-3.13,0-5.67,2.54-5.67,5.67s2.54,5.67,5.67,5.67h24.88c3.13,0,5.67-2.54,5.67-5.67s-2.54-5.67-5.67-5.67Z"/><path class="cls-6" d="M2630.51,572.62h-24.88c-3.13,0-5.67,2.54-5.67,5.67s2.54,5.67,5.67,5.67h24.88c3.13,0,5.67-2.54,5.67-5.67s-2.54-5.67-5.67-5.67Z"/><path class="cls-6" d="M1734.98,572.62h-24.88c-3.13,0-5.67,2.54-5.67,5.67s2.54,5.67,5.67,5.67h24.88c3.13,0,5.67-2.54,5.67-5.67s-2.54-5.67-5.67-5.67Z"/><path class="cls-6" d="M1884.23,572.62h-24.88c-3.13,0-5.67,2.54-5.67,5.67s2.54,5.67,5.67,5.67h24.88c3.13,0,5.67-2.54,5.67-5.67s-2.54-5.67-5.67-5.67Z"/><path class="cls-6" d="M2680.26,572.62h-24.88c-3.13,0-5.67,2.54-5.67,5.67s2.54,5.67,5.67,5.67h24.88c3.13,0,5.67-2.54,5.67-5.67s-2.54-5.67-5.67-5.67Z"/><path class="cls-6" d="M2730.02,572.62h-24.88c-3.13,0-5.67,2.54-5.67,5.67s2.54,5.67,5.67,5.67h24.88c3.13,0,5.67-2.54,5.67-5.67s-2.54-5.67-5.67-5.67Z"/><path class="cls-6" d="M1237.46,572.62h-24.88c-3.13,0-5.67,2.54-5.67,5.67s2.54,5.67,5.67,5.67h24.88c3.13,0,5.67-2.54,5.67-5.67s-2.54-5.67-5.67-5.67Z"/><path class="cls-6" d="M242.42,572.62h-24.88c-3.13,0-5.67,2.54-5.67,5.67s2.54,5.67,5.67,5.67h24.88c3.13,0,5.67-2.54,5.67-5.67s-2.54-5.67-5.67-5.67Z"/><path class="cls-6" d="M2580.76,572.62h-24.88c-3.13,0-5.67,2.54-5.67,5.67s2.54,5.67,5.67,5.67h24.88c3.13,0,5.67-2.54,5.67-5.67s-2.54-5.67-5.67-5.67Z"/><path class="cls-6" d="M1933.98,572.62h-24.88c-3.13,0-5.67,2.54-5.67,5.67s2.54,5.67,5.67,5.67h24.88c3.13,0,5.67-2.54,5.67-5.67s-2.54-5.67-5.67-5.67Z"/><path class="cls-6" d="M142.91,572.62h-24.88c-3.13,0-5.67,2.54-5.67,5.67s2.54,5.67,5.67,5.67h24.88c3.13,0,5.67-2.54,5.67-5.67s-2.54-5.67-5.67-5.67Z"/><path class="cls-6" d="M1535.97,572.62h-24.88c-3.13,0-5.67,2.54-5.67,5.67s2.54,5.67,5.67,5.67h24.88c3.13,0,5.67-2.54,5.67-5.67s-2.54-5.67-5.67-5.67Z"/><path class="cls-6" d="M192.67,572.62h-24.88c-3.13,0-5.67,2.54-5.67,5.67s2.54,5.67,5.67,5.67h24.88c3.13,0,5.67-2.54,5.67-5.67s-2.54-5.67-5.67-5.67Z"/><path class="cls-6" d="M1585.72,572.62h-24.88c-3.13,0-5.67,2.54-5.67,5.67s2.54,5.67,5.67,5.67h24.88c3.13,0,5.67-2.54,5.67-5.67s-2.54-5.67-5.67-5.67Z"/><path class="cls-6" d="M1635.47,572.62h-24.88c-3.13,0-5.67,2.54-5.67,5.67s2.54,5.67,5.67,5.67h24.88c3.13,0,5.67-2.54,5.67-5.67s-2.54-5.67-5.67-5.67Z"/><path class="cls-6" d="M3028.53,572.62h-24.88c-3.13,0-5.67,2.54-5.67,5.67s2.54,5.67,5.67,5.67h24.88c3.13,0,5.67-2.54,5.67-5.67s-2.54-5.67-5.67-5.67Z"/><path class="cls-6" d="M2929.02,572.62h-24.88c-3.13,0-5.67,2.54-5.67,5.67s2.54,5.67,5.67,5.67h24.88c3.13,0,5.67-2.54,5.67-5.67s-2.54-5.67-5.67-5.67Z"/><path class="cls-6" d="M1834.48,572.62h-24.88c-3.13,0-5.67,2.54-5.67,5.67s2.54,5.67,5.67,5.67h24.88c3.13,0,5.67-2.54,5.67-5.67s-2.54-5.67-5.67-5.67Z"/><path class="cls-6" d="M1784.73,572.62h-24.88c-3.13,0-5.67,2.54-5.67,5.67s2.54,5.67,5.67,5.67h24.88c3.13,0,5.67-2.54,5.67-5.67s-2.54-5.67-5.67-5.67Z"/><path class="cls-6" d="M2978.78,572.62h-24.88c-3.13,0-5.67,2.54-5.67,5.67s2.54,5.67,5.67,5.67h24.88c3.13,0,5.67-2.54,5.67-5.67s-2.54-5.67-5.67-5.67Z"/><path class="cls-6" d="M292.17,572.62h-24.88c-3.13,0-5.67,2.54-5.67,5.67s2.54,5.67,5.67,5.67h24.88c3.13,0,5.67-2.54,5.67-5.67s-2.54-5.67-5.67-5.67Z"/><path class="cls-6" d="M2829.52,572.62h-24.88c-3.13,0-5.67,2.54-5.67,5.67s2.54,5.67,5.67,5.67h24.88c3.13,0,5.67-2.54,5.67-5.67s-2.54-5.67-5.67-5.67Z"/><path class="cls-6" d="M1685.22,572.62h-24.88c-3.13,0-5.67,2.54-5.67,5.67s2.54,5.67,5.67,5.67h24.88c3.13,0,5.67-2.54,5.67-5.67s-2.54-5.67-5.67-5.67Z"/><path class="cls-6" d="M2879.27,572.62h-24.88c-3.13,0-5.67,2.54-5.67,5.67s2.54,5.67,5.67,5.67h24.88c3.13,0,5.67-2.54,5.67-5.67s-2.54-5.67-5.67-5.67Z"/><path class="cls-6" d="M2779.77,572.62h-24.88c-3.13,0-5.67,2.54-5.67,5.67s2.54,5.67,5.67,5.67h24.88c3.13,0,5.67-2.54,5.67-5.67s-2.54-5.67-5.67-5.67Z"/><path class="cls-6" d="M889.19,572.62h-24.88c-3.13,0-5.67,2.54-5.67,5.67s2.54,5.67,5.67,5.67h24.88c3.13,0,5.67-2.54,5.67-5.67s-2.54-5.67-5.67-5.67Z"/><path class="cls-6" d="M2232.5,572.62h-24.88c-3.13,0-5.67,2.54-5.67,5.67s2.54,5.67,5.67,5.67h24.88c3.13,0,5.67-2.54,5.67-5.67s-2.54-5.67-5.67-5.67Z"/><path class="cls-6" d="M2083.24,572.62h-24.88c-3.13,0-5.67,2.54-5.67,5.67s2.54,5.67,5.67,5.67h24.88c3.13,0,5.67-2.54,5.67-5.67s-2.54-5.67-5.67-5.67Z"/><path class="cls-6" d="M1336.96,572.62h-24.88c-3.13,0-5.67,2.54-5.67,5.67s2.54,5.67,5.67,5.67h24.88c3.13,0,5.67-2.54,5.67-5.67s-2.54-5.67-5.67-5.67Z"/><path class="cls-6" d="M1287.21,572.62h-24.88c-3.13,0-5.67,2.54-5.67,5.67s2.54,5.67,5.67,5.67h24.88c3.13,0,5.67-2.54,5.67-5.67s-2.54-5.67-5.67-5.67Z"/><path class="cls-6" d="M2531.01,572.62h-24.88c-3.13,0-5.67,2.54-5.67,5.67s2.54,5.67,5.67,5.67h24.88c3.13,0,5.67-2.54,5.67-5.67s-2.54-5.67-5.67-5.67Z"/><path class="cls-6" d="M2282.25,572.62h-24.88c-3.13,0-5.67,2.54-5.67,5.67s2.54,5.67,5.67,5.67h24.88c3.13,0,5.67-2.54,5.67-5.67s-2.54-5.67-5.67-5.67Z"/><path class="cls-6" d="M839.44,572.62h-24.88c-3.13,0-5.67,2.54-5.67,5.67s2.54,5.67,5.67,5.67h24.88c3.13,0,5.67-2.54,5.67-5.67s-2.54-5.67-5.67-5.67Z"/><path class="cls-6" d="M2033.49,572.62h-24.88c-3.13,0-5.67,2.54-5.67,5.67s2.54,5.67,5.67,5.67h24.88c3.13,0,5.67-2.54,5.67-5.67s-2.54-5.67-5.67-5.67Z"/><path class="cls-6" d="M988.7,572.62h-24.88c-3.13,0-5.67,2.54-5.67,5.67s2.54,5.67,5.67,5.67h24.88c3.13,0,5.67-2.54,5.67-5.67s-2.54-5.67-5.67-5.67Z"/><path class="cls-6" d="M2132.99,572.62h-24.88c-3.13,0-5.67,2.54-5.67,5.67s2.54,5.67,5.67,5.67h24.88c3.13,0,5.67-2.54,5.67-5.67s-2.54-5.67-5.67-5.67Z"/><path class="cls-6" d="M1088.2,572.62h-24.88c-3.13,0-5.67,2.54-5.67,5.67s2.54,5.67,5.67,5.67h24.88c3.13,0,5.67-2.54,5.67-5.67s-2.54-5.67-5.67-5.67Z"/><path class="cls-6" d="M1137.95,572.62h-24.88c-3.13,0-5.67,2.54-5.67,5.67s2.54,5.67,5.67,5.67h24.88c3.13,0,5.67-2.54,5.67-5.67s-2.54-5.67-5.67-5.67Z"/><path class="cls-6" d="M1187.71,572.62h-24.88c-3.13,0-5.67,2.54-5.67,5.67s2.54,5.67,5.67,5.67h24.88c3.13,0,5.67-2.54,5.67-5.67s-2.54-5.67-5.67-5.67Z"/><path class="cls-6" d="M789.69,572.62h-24.88c-3.13,0-5.67,2.54-5.67,5.67s2.54,5.67,5.67,5.67h24.88c3.13,0,5.67-2.54,5.67-5.67s-2.54-5.67-5.67-5.67Z"/><path class="cls-6" d="M2182.74,572.62h-24.88c-3.13,0-5.67,2.54-5.67,5.67s2.54,5.67,5.67,5.67h24.88c3.13,0,5.67-2.54,5.67-5.67s-2.54-5.67-5.67-5.67Z"/><path class="cls-6" d="M1038.45,572.62h-24.88c-3.13,0-5.67,2.54-5.67,5.67s2.54,5.67,5.67,5.67h24.88c3.13,0,5.67-2.54,5.67-5.67s-2.54-5.67-5.67-5.67Z"/><path class="cls-6" d="M938.95,572.62h-24.88c-3.13,0-5.67,2.54-5.67,5.67s2.54,5.67,5.67,5.67h24.88c3.13,0,5.67-2.54,5.67-5.67s-2.54-5.67-5.67-5.67Z"/><path class="cls-6" d="M540.93,572.62h-24.88c-3.13,0-5.67,2.54-5.67,5.67s2.54,5.67,5.67,5.67h24.88c3.13,0,5.67-2.54,5.67-5.67s-2.54-5.67-5.67-5.67Z"/><path class="cls-6" d="M491.18,572.62h-24.88c-3.13,0-5.67,2.54-5.67,5.67s2.54,5.67,5.67,5.67h24.88c3.13,0,5.67-2.54,5.67-5.67s-2.54-5.67-5.67-5.67Z"/><path class="cls-6" d="M1386.71,572.62h-24.88c-3.13,0-5.67,2.54-5.67,5.67s2.54,5.67,5.67,5.67h24.88c3.13,0,5.67-2.54,5.67-5.67s-2.54-5.67-5.67-5.67Z"/><path class="cls-6" d="M2481.26,572.62h-24.88c-3.13,0-5.67,2.54-5.67,5.67s2.54,5.67,5.67,5.67h24.88c3.13,0,5.67-2.54,5.67-5.67s-2.54-5.67-5.67-5.67Z"/><path class="cls-6" d="M441.43,572.62h-24.88c-3.13,0-5.67,2.54-5.67,5.67s2.54,5.67,5.67,5.67h24.88c3.13,0,5.67-2.54,5.67-5.67s-2.54-5.67-5.67-5.67Z"/><path class="cls-6" d="M341.92,572.62h-24.88c-3.13,0-5.67,2.54-5.67,5.67s2.54,5.67,5.67,5.67h24.88c3.13,0,5.67-2.54,5.67-5.67s-2.54-5.67-5.67-5.67Z"/><path class="cls-6" d="M1486.22,572.62h-24.88c-3.13,0-5.67,2.54-5.67,5.67s2.54,5.67,5.67,5.67h24.88c3.13,0,5.67-2.54,5.67-5.67s-2.54-5.67-5.67-5.67Z"/><path class="cls-6" d="M391.67,572.62h-24.88c-3.13,0-5.67,2.54-5.67,5.67s2.54,5.67,5.67,5.67h24.88c3.13,0,5.67-2.54,5.67-5.67s-2.54-5.67-5.67-5.67Z"/><path class="cls-6" d="M2431.5,572.62h-24.88c-3.13,0-5.67,2.54-5.67,5.67s2.54,5.67,5.67,5.67h24.88c3.13,0,5.67-2.54,5.67-5.67s-2.54-5.67-5.67-5.67Z"/><path class="cls-6" d="M690.19,572.62h-24.88c-3.13,0-5.67,2.54-5.67,5.67s2.54,5.67,5.67,5.67h24.88c3.13,0,5.67-2.54,5.67-5.67s-2.54-5.67-5.67-5.67Z"/><path class="cls-6" d="M1983.74,572.62h-24.88c-3.13,0-5.67,2.54-5.67,5.67s2.54,5.67,5.67,5.67h24.88c3.13,0,5.67-2.54,5.67-5.67s-2.54-5.67-5.67-5.67Z"/><path class="cls-6" d="M2332,572.62h-24.88c-3.13,0-5.67,2.54-5.67,5.67s2.54,5.67,5.67,5.67h24.88c3.13,0,5.67-2.54,5.67-5.67s-2.54-5.67-5.67-5.67Z"/><path class="cls-6" d="M739.94,572.62h-24.88c-3.13,0-5.67,2.54-5.67,5.67s2.54,5.67,5.67,5.67h24.88c3.13,0,5.67-2.54,5.67-5.67s-2.54-5.67-5.67-5.67Z"/><path class="cls-6" d="M1436.46,572.62h-24.88c-3.13,0-5.67,2.54-5.67,5.67s2.54,5.67,5.67,5.67h24.88c3.13,0,5.67-2.54,5.67-5.67s-2.54-5.67-5.67-5.67Z"/><path class="cls-6" d="M640.43,572.62h-24.88c-3.13,0-5.67,2.54-5.67,5.67s2.54,5.67,5.67,5.67h24.88c3.13,0,5.67-2.54,5.67-5.67s-2.54-5.67-5.67-5.67Z"/><path class="cls-6" d="M590.68,572.62h-24.88c-3.13,0-5.67,2.54-5.67,5.67s2.54,5.67,5.67,5.67h24.88c3.13,0,5.67-2.54,5.67-5.67s-2.54-5.67-5.67-5.67Z"/><path class="cls-6" d="M2381.75,572.62h-24.88c-3.13,0-5.67,2.54-5.67,5.67s2.54,5.67,5.67,5.67h24.88c3.13,0,5.67-2.54,5.67-5.67s-2.54-5.67-5.67-5.67Z"/></g></g></svg>