<?xml version="1.0" encoding="UTF-8"?><svg id="_レイヤー_2" xmlns="http://www.w3.org/2000/svg" width="882.39mm" height="707mm" xmlns:xlink="http://www.w3.org/1999/xlink" viewBox="0 0 2501.26 2004.1"><defs><style>.cls-1{mask:url(#mask);}.cls-2,.cls-3{fill:#fff;}.cls-4{fill:#53a5d6;}.cls-5{fill:#3d3d3d;}.cls-6{fill:url(#_名称未設定グラデーション_13);}.cls-3{fill-rule:evenodd;}</style><linearGradient id="_名称未設定グラデーション_13" x1="1021.86" y1="1332.35" x2="1499.67" y2="1332.35" gradientUnits="userSpaceOnUse"><stop offset="0" stop-color="#fff"/><stop offset=".59" stop-color="#fff"/><stop offset=".69" stop-color="#fff"/><stop offset=".71" stop-color="#f3f3f3"/><stop offset=".76" stop-color="#d3d3d3"/><stop offset=".83" stop-color="#9f9f9f"/><stop offset=".91" stop-color="#585858"/><stop offset="1" stop-color="#000"/></linearGradient><mask id="mask" x="1021.86" y="1306.17" width="477.8" height="52.35" maskUnits="userSpaceOnUse"><path class="cls-6" d="M1035.32,1356.68c-.07,.43-.36,.57-.71,.57h-12.16c-.43,0-.64-.28-.57-.71l5.98-24.68,5.26-23.83c.07-.43,.36-.57,.71-.57h17.57c.36,0,.57,.21,.64,.57l3.63,29.16,16.22-29.31c.14-.28,.36-.43,.71-.43h19.99c.43,0,.64,.28,.57,.71l-5.83,23.69-5.41,24.82c-.07,.43-.36,.57-.71,.57h-14.51c-.43,0-.64-.21-.57-.71l4.84-21.27,.07-.36,2.21-7.4-16.15,29.31c-.14,.28-.36,.43-.71,.43h-10.67c-.36,0-.57-.21-.64-.57l-3.49-28.81-1.21,7.04-.07,.36-4.98,21.41Zm56.41-19.99l2.13-8.89,4.27-19.77c.07-.43,.36-.57,.71-.57h14.37c.43,0,.64,.28,.57,.71l-4.84,19.21-2.13,9.46c-1.49,6.4,.07,9.74,5.48,9.74,4.27,0,6.69-1.99,7.97-7.61l2.7-11.24,4.27-19.7c.07-.43,.36-.57,.71-.57h14.16c.43,0,.64,.28,.57,.71l-4.84,19.63-2.56,11.31c-2.99,12.8-9.89,19.42-23.9,19.42-14.87,0-22.9-8.11-19.63-21.84Zm47.02,5.05c0-.43,.28-.64,.64-.64h14.51c.36,0,.64,.21,.64,.64,.21,3.27,3.27,5.76,9.18,5.76,3.7,0,6.83-1.14,6.83-4.13,0-7.97-26.53-2.35-26.53-20.27,0-11.1,11.45-16.93,23.62-16.93s21.77,5.76,21.84,15.29c0,.43-.28,.64-.64,.64h-14.58c-.36,0-.64-.21-.64-.64-.36-2.49-2.99-4.05-7.11-4.05-3.27,0-6.54,.78-6.54,3.34,0,6.9,26.82,2.56,26.82,20.2,0,11.45-11.03,17.57-24.11,17.57s-23.9-6.26-23.9-16.79Zm64.94,14.94c-.07,.43-.36,.57-.71,.57h-14.51c-.43,0-.64-.28-.57-.71l5.83-23.69,5.41-24.83c.07-.43,.36-.57,.71-.57h14.51c.43,0,.64,.28,.57,.71l-6.12,24.68-5.12,23.83Zm10.46-20.98c0-15.15,11.1-29.52,29.45-29.52,12.95,0,20.98,7.04,21.91,18.78,.07,.43-.14,.64-.57,.64h-13.3c-.36,0-.64-.21-.71-.64-.64-5.12-3.77-7.33-8.18-7.33-10.03,0-13.02,11.81-13.02,18.57,0,7.68,3.84,10.88,9.1,10.88s7.97-3.2,9.46-7.26c.14-.36,.43-.5,.78-.5h13.59c.43,0,.64,.21,.57,.57-2.77,10.46-11.67,18.64-25.32,18.64s-23.76-8.18-23.76-22.83Zm85.71,21.06c-.14,.28-.36,.5-.71,.5h-16c-.36,0-.64-.28-.64-.64l.78-48.51c0-.36,.28-.64,.64-.64h13.02c.43,0,.57,.21,.57,.64l-1.49,28.17,12.59-28.31c.14-.28,.36-.5,.71-.5h14.08c.36,0,.64,.28,.64,.64l-.07,28.24,11.24-28.38c.14-.28,.43-.5,.78-.5h14.44c.43,0,.71,.28,.5,.78l-21.77,48.51c-.14,.28-.36,.5-.71,.5h-16c-.36,0-.64-.28-.64-.64v-25.75l-11.95,25.89Zm83.65-48.65l4.48,48.51c.07,.43-.14,.64-.57,.64h-13.8c-.36,0-.71-.28-.71-.64l-.57-9.6h-16.08l-4.98,9.75c-.14,.36-.36,.5-.71,.5h-15.79c-.5,0-.64-.36-.43-.78l27.6-48.58c.14-.28,.43-.43,.78-.43h20.06c.36,0,.71,.28,.71,.64Zm-13.02,10.67l-8.25,16.29h9.32l-1.07-16.29Zm19.91,22.98c0-.43,.28-.64,.64-.64h14.51c.36,0,.64,.21,.64,.64,.21,3.27,3.27,5.76,9.18,5.76,3.7,0,6.83-1.14,6.83-4.13,0-7.97-26.53-2.35-26.53-20.27,0-11.1,11.45-16.93,23.62-16.93s21.77,5.76,21.84,15.29c0,.43-.28,.64-.64,.64h-14.58c-.36,0-.64-.21-.64-.64-.36-2.49-2.99-4.05-7.11-4.05-3.27,0-6.54,.78-6.54,3.34,0,6.9,26.82,2.56,26.82,20.2,0,11.45-11.03,17.57-24.11,17.57s-23.9-6.26-23.9-16.79Zm89.41-16.43l3.77-17.28c.07-.43,.36-.57,.71-.57h14.79c.43,0,.64,.28,.57,.71l-5.98,23.9-5.26,24.61c-.07,.43-.36,.57-.71,.57h-14.8c-.43,0-.64-.28-.57-.71l4.91-20.2h-16l-4.48,20.34c-.07,.43-.36,.57-.71,.57h-14.8c-.43,0-.64-.28-.57-.71l6.12-24.47,5.12-24.04c.07-.43,.36-.57,.71-.57h14.8c.43,0,.64,.28,.57,.71l-4.2,17.14h16Z"/></mask></defs><g id="M"><path class="cls-4" d="M2496.17,415.52l-64.81-36.16-456.58-253.56c-.73-.41-1.51-.72-2.32-.93l-12.28-3.2c-.48-.21-.98-.4-1.5-.53L1534.32,10.65c-1.66-.66-3.39-1.31-5.19-1.94-5.7-2.01-18.62-6.17-32.13-7.78l-1.81-.47c-1.53-.4-3.12-.41-4.63-.08-.18,0-.35-.02-.53-.03-.4-.08-.67-.14-.78-.16-3.07-.62-6.23,.26-8.54,2.3-.26,.21-.5,.43-.74,.66-.34,.34-.64,.7-.92,1.08-24.09,25.93-117.53,43.98-228.44,43.98s-204.35-18.04-228.44-43.98c-.28-.38-.58-.74-.92-1.08-.24-.23-.48-.46-.74-.66-2.31-2.05-5.46-2.92-8.54-2.3-.11,.02-.38,.08-.78,.16-.18,0-.35,.02-.53,.03-1.51-.33-3.1-.32-4.63,.08l-1.8,.47c-13.5,1.6-26.43,5.76-32.13,7.78-1.8,.63-3.53,1.28-5.19,1.94l-424.36,110.49c-.52,.14-1.02,.32-1.5,.53l-12.28,3.2c-.81,.21-1.59,.52-2.32,.93L69.88,379.37,5.09,415.52c-4.42,2.47-6.28,7.87-4.3,12.53l202.34,478.27c1.58,3.74,5.23,6.06,9.13,6.06,.84,0,1.7-.11,2.55-.33l288.94-76.74V1994.17c0,5.48,4.44,9.92,9.92,9.92H1987.59c5.48,0,9.92-4.44,9.92-9.92V835.31l288.94,76.74c.85,.22,1.7,.33,2.55,.33,3.9,0,7.55-2.32,9.13-6.06l202.34-478.27c1.97-4.66,.12-10.06-4.3-12.53Z"/><g><path class="cls-5" d="M2496.17,415.52l-64.81-36.16-456.58-253.56c-.73-.41-1.51-.72-2.32-.93l-12.28-3.2c-.48-.21-.98-.4-1.5-.53L1534.32,10.65c-1.66-.66-3.39-1.31-5.19-1.94-5.7-2.01-18.62-6.17-32.13-7.78l-1.81-.47c-1.53-.4-3.12-.41-4.63-.08-.18,0-.35-.02-.53-.03-.4-.08-.67-.14-.78-.16-3.07-.62-6.23,.26-8.54,2.3-.26,.21-.5,.43-.74,.66-.34,.34-.64,.7-.92,1.08-24.09,25.93-117.53,43.98-228.44,43.98s-204.35-18.04-228.44-43.98c-.28-.38-.58-.74-.92-1.08-.24-.23-.48-.46-.74-.66-2.31-2.05-5.46-2.92-8.54-2.3-.11,.02-.38,.08-.78,.16-.18,0-.35,.02-.53,.03-1.51-.33-3.1-.32-4.63,.08l-1.8,.47c-13.5,1.6-26.43,5.76-32.13,7.78-1.8,.63-3.53,1.28-5.19,1.94l-424.36,110.49c-.52,.14-1.02,.32-1.5,.53l-12.28,3.2c-.81,.21-1.59,.52-2.32,.93L69.88,379.37,5.09,415.52c-4.42,2.47-6.28,7.87-4.3,12.53l202.34,478.27c1.58,3.74,5.23,6.06,9.13,6.06,.84,0,1.7-.11,2.55-.33l288.94-76.74V1994.17c0,5.48,4.44,9.92,9.92,9.92H1987.59c5.48,0,9.92-4.44,9.92-9.92V835.31l288.94,76.74c.85,.22,1.7,.33,2.55,.33,3.9,0,7.55-2.32,9.13-6.06l202.34-478.27c1.97-4.66,.12-10.06-4.3-12.53Zm-518.51,408.54V1925.47h-8.18c-1.17,0-2.13,.95-2.13,2.12s.95,2.12,2.13,2.12h8.18v54.54H523.6v-55.37c.28-.36,.45-.81,.45-1.3s-.17-.94-.45-1.3V824.06c.56-1.57,1.11-3.15,1.66-4.73,1.29-3.72,2.56-7.48,3.81-11.28,20.59-62.61,35.03-134.67,42.96-214.54,6.93-69.78,8.95-145.67,6-225.56-3.69-99.72-14.34-181.17-19.82-217.89,.37,.3,.84,.48,1.34,.48,.17,0,.35-.02,.53-.07l9.81-2.5c1.14-.29,1.83-1.45,1.54-2.58h0c-.29-1.14-1.45-1.83-2.58-1.54l-9.81,2.5c-.53,.13-.96,.46-1.24,.89-.53-3.5-1-6.52-1.41-9.05,0-.04-.01-.09-.02-.14l125.23-32.61,9.98-2.6,253.38-65.97c.14,4.41,.4,8.83,.79,13.24,5.84,67.88,39.34,136.3,93.86,190.48,59.82,59.44,136.46,93.54,210.27,93.54h.78s.78,0,.78,0c73.81,0,150.46-34.09,210.27-93.54,54.59-54.25,88.09-122.76,93.88-190.73,.37-4.34,.63-8.67,.77-13l253.38,65.97,9.98,2.6,125.23,32.61s-.01,.09-.02,.14c-.4,2.53-.88,5.55-1.41,9.05-.28-.42-.71-.75-1.24-.89l-9.81-2.5c-1.14-.29-2.29,.4-2.59,1.53h0c-.29,1.14,.4,2.29,1.53,2.59l9.81,2.5c.18,.04,.35,.07,.53,.07,.5,0,.97-.18,1.34-.48-5.48,36.73-16.13,118.17-19.82,217.9-2.95,79.89-.94,155.78,6,225.56,7.93,79.87,22.37,151.92,42.96,214.54,1.25,3.79,2.52,7.55,3.81,11.28,.55,1.58,1.1,3.16,1.66,4.73Zm-1695.91,49.67l-.62-1.47c-.46-1.08-1.7-1.59-2.78-1.13-1.08,.46-1.59,1.7-1.13,2.79l.39,.92-59.56,15.82L22.53,428.51l54.21-30.25c.36,.76,1.11,1.22,1.91,1.22,.28,0,.56-.05,.82-.17h0c1.08-.46,1.59-1.7,1.13-2.78l-.15-.34,454.55-252.43,2.07-.54c4.64,29.38,17.07,116.24,21.11,225.48,4.53,122.62-.93,298.84-52.15,445.48l-224.28,59.56ZM1134.35,60.97c35.22,4.61,75.38,7.08,116.28,7.08s81.06-2.48,116.28-7.08c11.43-1.49,22.35-3.21,32.59-5.14,6.99-1.32,13.64-2.72,19.94-4.21,23.43-5.53,42.11-12.23,55.9-20.04-.11,.71-.21,1.41-.32,2.12-2.42,14.77-6.98,30.19-13.38,45.7-41.36,19.05-107.95,38.07-211.01,40.65-103.07-2.58-169.66-21.6-211.02-40.66-6.41-15.51-10.96-30.93-13.38-45.7-.12-.71-.21-1.41-.32-2.12,13.79,7.81,32.47,14.51,55.9,20.04,6.3,1.49,12.95,2.89,19.94,4.21,10.25,1.93,21.16,3.65,32.6,5.14Zm-169.5-22.96c-.06-1.53-.13-3.05-.16-4.58,1.62-.94,3.9-2.04,6.66-3.19,.38-.16,.77-.32,1.17-.48,.15-.06,.31-.12,.46-.18,8.49-3.41,20.63-7.15,31.78-8.71,0,.14,.03,.28,.04,.42,.02,.23,.04,.45,.06,.68,1.08,13.95,3.99,28.62,8.62,43.58,1.47,4.74,3.11,9.51,4.93,14.3,1.81,4.77,3.79,9.57,5.93,14.36,.34,.76,.67,1.51,1.01,2.27,13.2,28.81,32.1,57.11,54.66,81.86,50.22,55.08,112.26,86.67,170.23,86.67h.37s.42,0,.42,0c57.97,0,120.02-31.6,170.24-86.67,22.56-24.74,41.46-53.05,54.66-81.85,.35-.75,.67-1.51,1.01-2.26,2.14-4.79,4.12-9.58,5.93-14.36,1.81-4.79,3.46-9.56,4.93-14.3,4.64-14.96,7.55-29.63,8.63-43.58,.02-.23,.04-.45,.06-.68,.01-.14,.03-.29,.04-.43,11.15,1.56,23.3,5.3,31.78,8.71,.15,.06,.31,.12,.46,.18,.4,.16,.78,.32,1.16,.48,2.75,1.16,5.04,2.26,6.66,3.2-.03,1.53-.1,3.05-.16,4.58-.22,5.37-.62,10.73-1.22,16.07-15.12,134.82-148.4,260.22-283.78,260.22h-.59s-.07,0-.11,0h-.86c-135.39,0-268.68-125.41-283.78-260.22-.6-5.34-1-10.7-1.22-16.07Zm441.75,126.94c-46.47,50.96-103.17,80.2-155.58,80.2h-.79c-52.4,0-109.11-29.23-155.57-80.19-16.59-18.2-30.77-38.11-41.98-58.45,45.32,17.27,108.96,31.17,197.65,33.38,.08,0,.16,0,.25,0h.12c.08,0,.16,0,.25,0,88.68-2.21,152.32-16.11,197.64-33.38-11.21,20.33-25.39,40.25-41.98,58.44Zm817.06,709.87l.39-.92c.46-1.08-.05-2.33-1.13-2.79-1.08-.46-2.33,.05-2.78,1.13l-.62,1.47-224.28-59.56c-51.2-146.55-56.68-322.64-52.16-445.17,4.02-109.3,16.48-196.36,21.12-225.78l2.07,.54,454.55,252.43-.15,.34c-.46,1.08,.05,2.33,1.13,2.78,.27,.11,.55,.17,.82,.17,.8,0,1.55-.46,1.91-1.22l54.21,30.25-195.52,462.14-59.56-15.82Z"/><path class="cls-5" d="M206.42,695.03l-3.93-9.33c-.46-1.08-1.7-1.59-2.78-1.13-1.08,.46-1.59,1.7-1.13,2.78l3.93,9.33c.34,.81,1.13,1.3,1.96,1.3,.27,0,.56-.05,.82-.17,1.08-.46,1.59-1.7,1.13-2.78Z"/><path class="cls-5" d="M230.01,751l-3.93-9.33c-.46-1.08-1.7-1.59-2.78-1.13-1.08,.46-1.59,1.7-1.13,2.79l3.93,9.33c.34,.81,1.13,1.3,1.96,1.3,.27,0,.56-.05,.82-.17,1.08-.46,1.59-1.7,1.13-2.79Z"/><path class="cls-5" d="M198.56,676.37l-3.93-9.33c-.46-1.08-1.7-1.59-2.78-1.13-1.08,.46-1.59,1.7-1.13,2.78l3.93,9.33c.34,.81,1.13,1.3,1.96,1.3,.27,0,.56-.05,.82-.17,1.08-.46,1.59-1.7,1.13-2.78Z"/><path class="cls-5" d="M190.7,657.72l-3.93-9.33c-.46-1.08-1.7-1.59-2.78-1.13-1.08,.46-1.59,1.7-1.13,2.78l3.93,9.33c.34,.81,1.13,1.3,1.96,1.3,.28,0,.56-.05,.82-.17,1.08-.46,1.59-1.7,1.13-2.78Z"/><path class="cls-5" d="M237.88,769.65l-3.93-9.33c-.46-1.08-1.7-1.59-2.78-1.13-1.08,.46-1.59,1.7-1.13,2.79l3.93,9.33c.34,.81,1.13,1.3,1.96,1.3,.28,0,.56-.05,.82-.17,1.08-.46,1.59-1.7,1.13-2.78Z"/><path class="cls-5" d="M214.29,713.68l-3.93-9.33c-.46-1.08-1.7-1.59-2.78-1.13-1.08,.46-1.59,1.7-1.13,2.78l3.93,9.33c.34,.81,1.13,1.3,1.96,1.3,.28,0,.56-.05,.82-.17,1.08-.46,1.59-1.7,1.13-2.78Z"/><path class="cls-5" d="M222.15,732.34l-3.93-9.33c-.46-1.08-1.7-1.59-2.78-1.13-1.08,.46-1.59,1.7-1.13,2.78l3.93,9.33c.34,.81,1.13,1.3,1.96,1.3,.28,0,.56-.05,.82-.17,1.08-.46,1.59-1.7,1.13-2.79Z"/><path class="cls-5" d="M245.74,788.31l-3.93-9.33c-.46-1.08-1.7-1.59-2.78-1.13-1.08,.46-1.59,1.7-1.13,2.78l3.93,9.33c.34,.81,1.13,1.3,1.96,1.3,.27,0,.56-.05,.82-.17,1.08-.46,1.59-1.7,1.13-2.78Z"/><path class="cls-5" d="M96.33,433.85l-3.93-9.33c-.46-1.08-1.7-1.59-2.78-1.13-1.08,.46-1.59,1.7-1.13,2.78l3.93,9.33c.34,.81,1.13,1.3,1.96,1.3,.28,0,.56-.05,.82-.17,1.08-.46,1.59-1.7,1.13-2.78Z"/><path class="cls-5" d="M88.47,415.19l-3.93-9.33c-.46-1.08-1.7-1.59-2.78-1.13-1.08,.46-1.59,1.7-1.13,2.78l3.93,9.33c.34,.81,1.13,1.3,1.96,1.3,.28,0,.55-.05,.82-.17h0c1.08-.45,1.59-1.7,1.13-2.78Z"/><path class="cls-5" d="M119.92,489.81l-3.93-9.33c-.46-1.08-1.7-1.59-2.78-1.13-1.08,.46-1.59,1.7-1.13,2.79l3.93,9.33c.34,.81,1.13,1.3,1.96,1.3,.28,0,.55-.05,.82-.17h0c1.08-.46,1.59-1.7,1.13-2.79Z"/><path class="cls-5" d="M104.19,452.5l-3.93-9.33c-.46-1.08-1.7-1.59-2.78-1.13-1.08,.46-1.59,1.7-1.13,2.78l3.93,9.33c.34,.81,1.13,1.3,1.96,1.3,.28,0,.56-.05,.82-.17h0c1.08-.46,1.59-1.7,1.13-2.78Z"/><path class="cls-5" d="M112.06,471.16l-3.93-9.33c-.46-1.08-1.7-1.59-2.78-1.13h0c-1.08,.46-1.59,1.7-1.13,2.78l3.93,9.33c.34,.81,1.13,1.3,1.96,1.3,.28,0,.56-.05,.82-.17h0c1.08-.46,1.59-1.7,1.13-2.79Z"/><path class="cls-5" d="M253.61,806.96l-3.93-9.33c-.46-1.08-1.7-1.59-2.78-1.13-1.08,.46-1.59,1.7-1.13,2.78l3.93,9.33c.34,.81,1.13,1.3,1.96,1.3,.28,0,.55-.05,.82-.17h0c1.08-.46,1.59-1.7,1.13-2.78Z"/><path class="cls-5" d="M261.47,825.62l-3.93-9.33c-.46-1.08-1.7-1.59-2.78-1.13-1.08,.46-1.59,1.7-1.13,2.78l3.93,9.33c.34,.81,1.13,1.3,1.96,1.3,.28,0,.56-.05,.82-.17,1.08-.46,1.59-1.7,1.13-2.78Z"/><path class="cls-5" d="M273.27,853.6c-.46-1.08-1.7-1.59-2.78-1.13h0c-1.08,.46-1.59,1.7-1.13,2.78l3.93,9.33c.34,.81,1.13,1.3,1.96,1.3,.28,0,.56-.05,.82-.17,1.08-.46,1.59-1.7,1.13-2.78l-3.93-9.33Z"/><path class="cls-5" d="M269.33,844.28l-3.93-9.33c-.46-1.08-1.7-1.59-2.78-1.13h0c-1.08,.46-1.59,1.7-1.13,2.78l3.93,9.33c.34,.81,1.13,1.3,1.96,1.3,.28,0,.56-.05,.82-.17h0c1.08-.46,1.59-1.7,1.13-2.78Z"/><path class="cls-5" d="M167.1,601.75l-3.93-9.33c-.46-1.08-1.7-1.59-2.78-1.13h0c-1.08,.46-1.59,1.7-1.13,2.78l3.93,9.33c.34,.81,1.13,1.3,1.96,1.3,.28,0,.56-.05,.82-.17,1.08-.46,1.59-1.7,1.13-2.79Z"/><path class="cls-5" d="M174.97,620.4l-3.93-9.33c-.46-1.08-1.7-1.59-2.78-1.13h0c-1.08,.46-1.59,1.7-1.13,2.79l3.93,9.33c.34,.81,1.13,1.3,1.96,1.3,.28,0,.56-.05,.82-.17,1.08-.46,1.59-1.7,1.13-2.79Z"/><path class="cls-5" d="M182.83,639.06l-3.93-9.33c-.46-1.08-1.7-1.59-2.78-1.13-1.08,.46-1.59,1.7-1.13,2.78l3.93,9.33c.34,.81,1.13,1.3,1.96,1.3,.28,0,.56-.05,.82-.17,1.08-.46,1.59-1.7,1.13-2.78Z"/><path class="cls-5" d="M159.24,583.09l-3.93-9.33c-.46-1.08-1.7-1.59-2.78-1.13h0c-1.08,.46-1.59,1.7-1.13,2.78l3.93,9.33c.34,.81,1.13,1.3,1.96,1.3,.28,0,.56-.05,.82-.17,1.08-.46,1.59-1.7,1.13-2.78Z"/><path class="cls-5" d="M135.65,527.12l-3.93-9.33c-.46-1.08-1.7-1.59-2.78-1.13-1.08,.46-1.59,1.7-1.13,2.78l3.93,9.33c.34,.81,1.13,1.3,1.96,1.3,.28,0,.56-.05,.82-.17,1.08-.46,1.59-1.7,1.13-2.78Z"/><path class="cls-5" d="M143.51,545.78l-3.93-9.33c-.46-1.08-1.7-1.59-2.78-1.13-1.08,.46-1.59,1.7-1.13,2.78l3.93,9.33c.34,.81,1.13,1.3,1.96,1.3,.28,0,.56-.05,.82-.17,1.08-.46,1.59-1.7,1.13-2.78Z"/><path class="cls-5" d="M127.79,508.47l-3.93-9.33c-.46-1.08-1.7-1.59-2.78-1.13-1.08,.46-1.59,1.7-1.13,2.78l3.93,9.33c.34,.81,1.13,1.3,1.96,1.3,.27,0,.55-.05,.82-.17h0c1.08-.46,1.59-1.7,1.13-2.78Z"/><path class="cls-5" d="M151.38,564.44l-3.93-9.33c-.46-1.08-1.7-1.59-2.78-1.13h0c-1.08,.46-1.59,1.7-1.13,2.78l3.93,9.33c.34,.81,1.13,1.3,1.96,1.3,.28,0,.55-.05,.82-.17h0c1.08-.46,1.59-1.7,1.13-2.78Z"/><path class="cls-5" d="M2395.92,460.7h0c-1.08-.46-2.33,.05-2.78,1.13l-3.93,9.33c-.46,1.08,.05,2.33,1.13,2.79h0c.27,.11,.55,.17,.82,.17,.83,0,1.62-.49,1.96-1.3l3.93-9.33c.46-1.08-.05-2.33-1.13-2.78Z"/><path class="cls-5" d="M2403.78,442.04c-1.08-.46-2.33,.05-2.78,1.13l-3.93,9.33c-.46,1.08,.05,2.33,1.13,2.78h0c.27,.11,.55,.17,.82,.17,.83,0,1.62-.49,1.96-1.3l3.93-9.33c.46-1.08-.05-2.33-1.13-2.78Z"/><path class="cls-5" d="M2411.65,423.38h0c-1.08-.46-2.33,.05-2.78,1.13l-3.93,9.33c-.46,1.08,.05,2.33,1.13,2.78,.27,.11,.55,.17,.82,.17,.83,0,1.62-.49,1.96-1.3l3.93-9.33c.46-1.08-.05-2.33-1.13-2.78Z"/><path class="cls-5" d="M2419.51,404.73c-1.08-.46-2.33,.05-2.78,1.13l-3.93,9.33c-.46,1.08,.05,2.33,1.13,2.78h0c.27,.11,.55,.17,.82,.17,.83,0,1.62-.49,1.96-1.3l3.93-9.33c.46-1.08-.05-2.33-1.13-2.78Z"/><path class="cls-5" d="M2254.37,796.5c-1.08-.46-2.33,.05-2.78,1.13l-3.93,9.33c-.46,1.08,.05,2.33,1.13,2.78h0c.27,.11,.55,.17,.82,.17,.83,0,1.62-.49,1.96-1.3l3.93-9.33c.46-1.08-.05-2.33-1.13-2.78Z"/><path class="cls-5" d="M2262.23,777.85c-1.08-.46-2.33,.05-2.78,1.13l-3.93,9.33c-.46,1.08,.05,2.33,1.13,2.78,.27,.11,.55,.17,.82,.17,.83,0,1.62-.49,1.96-1.3l3.93-9.33c.46-1.08-.05-2.33-1.13-2.78Z"/><path class="cls-5" d="M2246.51,815.16h0c-1.08-.46-2.33,.05-2.78,1.13l-3.93,9.33c-.46,1.08,.05,2.33,1.13,2.78,.27,.11,.55,.17,.82,.17,.83,0,1.62-.49,1.96-1.3l3.93-9.33c.46-1.08-.05-2.33-1.13-2.78Z"/><path class="cls-5" d="M2270.1,759.19c-1.08-.46-2.33,.05-2.78,1.13l-3.93,9.33c-.46,1.08,.05,2.33,1.13,2.78,.27,.11,.55,.17,.82,.17,.83,0,1.62-.49,1.96-1.3l3.93-9.33c.46-1.08-.05-2.33-1.13-2.79Z"/><path class="cls-5" d="M2388.06,479.35c-1.08-.46-2.33,.05-2.78,1.13l-3.93,9.33c-.46,1.08,.05,2.33,1.13,2.79h0c.27,.11,.55,.17,.82,.17,.83,0,1.62-.49,1.96-1.3l3.93-9.33c.46-1.08-.05-2.33-1.13-2.79Z"/><path class="cls-5" d="M2238.64,833.82c-1.08-.46-2.33,.05-2.78,1.13l-3.93,9.33c-.46,1.08,.05,2.33,1.13,2.78h0c.27,.11,.55,.17,.82,.17,.83,0,1.62-.49,1.96-1.3l3.93-9.33c.46-1.08-.05-2.33-1.13-2.78Z"/><path class="cls-5" d="M2230.78,852.47h0c-1.08-.46-2.33,.05-2.78,1.13l-3.93,9.33c-.46,1.08,.05,2.33,1.13,2.78,.27,.11,.55,.17,.82,.17,.83,0,1.62-.49,1.96-1.3l3.93-9.33c.46-1.08-.05-2.33-1.13-2.78Z"/><path class="cls-5" d="M2285.83,721.88c-1.08-.46-2.33,.05-2.78,1.13l-3.93,9.33c-.46,1.08,.05,2.33,1.13,2.79,.27,.11,.55,.17,.82,.17,.83,0,1.62-.49,1.96-1.3l3.93-9.33c.46-1.08-.05-2.33-1.13-2.78Z"/><path class="cls-5" d="M2277.96,740.53c-1.08-.46-2.33,.05-2.78,1.13l-3.93,9.33c-.46,1.08,.05,2.33,1.13,2.79,.27,.11,.55,.17,.82,.17,.83,0,1.62-.49,1.96-1.3l3.93-9.33c.46-1.08-.05-2.33-1.13-2.79Z"/><path class="cls-5" d="M2356.6,553.98c-1.08-.46-2.33,.05-2.78,1.13l-3.93,9.33c-.46,1.08,.05,2.33,1.13,2.78h0c.27,.11,.55,.17,.82,.17,.83,0,1.62-.49,1.96-1.3l3.93-9.33c.46-1.08-.05-2.33-1.13-2.78Z"/><path class="cls-5" d="M2348.74,572.63h0c-1.08-.46-2.33,.05-2.78,1.13l-3.93,9.33c-.46,1.08,.05,2.33,1.13,2.78,.27,.11,.55,.17,.82,.17,.83,0,1.62-.49,1.96-1.3l3.93-9.33c.46-1.08-.05-2.33-1.13-2.78Z"/><path class="cls-5" d="M2364.46,535.32h0c-1.08-.46-2.33,.05-2.78,1.13l-3.93,9.33c-.46,1.08,.05,2.33,1.13,2.78,.27,.11,.55,.17,.82,.17,.83,0,1.62-.49,1.96-1.3l3.93-9.33c.46-1.08-.05-2.33-1.13-2.78Z"/><path class="cls-5" d="M2372.33,516.66c-1.08-.46-2.33,.05-2.78,1.13l-3.93,9.33c-.46,1.08,.05,2.33,1.13,2.78,.27,.11,.55,.17,.82,.17,.83,0,1.62-.49,1.96-1.3l3.93-9.33c.46-1.08-.05-2.33-1.13-2.78Z"/><path class="cls-5" d="M2340.87,591.29h0c-1.08-.46-2.33,.05-2.78,1.13l-3.93,9.33c-.46,1.08,.05,2.33,1.13,2.79h0c.27,.11,.55,.17,.82,.17,.83,0,1.62-.49,1.96-1.3l3.93-9.33c.46-1.08-.05-2.33-1.13-2.78Z"/><path class="cls-5" d="M2380.19,498.01c-1.08-.46-2.33,.05-2.78,1.13l-3.93,9.33c-.46,1.08,.05,2.33,1.13,2.78,.27,.11,.55,.17,.82,.17,.83,0,1.62-.49,1.96-1.3l3.93-9.33c.46-1.08-.05-2.33-1.13-2.78Z"/><path class="cls-5" d="M2301.55,684.57c-1.08-.46-2.33,.05-2.78,1.13l-3.93,9.33c-.46,1.08,.05,2.33,1.13,2.78,.27,.11,.55,.17,.82,.17,.83,0,1.62-.49,1.96-1.3l3.93-9.33c.46-1.08-.05-2.33-1.13-2.78Z"/><path class="cls-5" d="M2309.42,665.91c-1.08-.46-2.33,.05-2.78,1.13l-3.93,9.33c-.46,1.08,.05,2.33,1.13,2.78,.27,.11,.55,.17,.82,.17,.83,0,1.62-.49,1.96-1.3l3.93-9.33c.46-1.08-.05-2.33-1.13-2.78Z"/><path class="cls-5" d="M2293.69,703.22c-1.08-.46-2.33,.05-2.78,1.13l-3.93,9.33c-.46,1.08,.05,2.33,1.13,2.78,.27,.11,.55,.17,.82,.17,.83,0,1.62-.49,1.96-1.3l3.93-9.33c.46-1.08-.05-2.33-1.13-2.78Z"/><path class="cls-5" d="M2333.01,609.94h0c-1.08-.46-2.33,.05-2.78,1.13l-3.93,9.33c-.46,1.08,.05,2.33,1.13,2.79,.27,.11,.55,.17,.82,.17,.83,0,1.62-.49,1.96-1.3l3.93-9.33c.46-1.08-.05-2.33-1.13-2.79Z"/><path class="cls-5" d="M2317.28,647.26c-1.08-.46-2.33,.05-2.78,1.13l-3.93,9.33c-.46,1.08,.05,2.33,1.13,2.78,.27,.11,.55,.17,.82,.17,.83,0,1.62-.49,1.96-1.3l3.93-9.33c.46-1.08-.05-2.33-1.13-2.78Z"/><path class="cls-5" d="M2325.15,628.6c-1.08-.46-2.33,.05-2.78,1.13l-3.93,9.33c-.46,1.08,.05,2.33,1.13,2.78,.27,.11,.55,.17,.82,.17,.83,0,1.62-.49,1.96-1.3l3.93-9.33c.46-1.08-.05-2.33-1.13-2.78Z"/><path class="cls-5" d="M1569,55.43c.95,0,1.81-.64,2.06-1.6,.29-1.14-.4-2.29-1.53-2.58l-9.81-2.5c-1.14-.29-2.29,.4-2.59,1.53-.29,1.14,.4,2.29,1.53,2.58l9.81,2.5c.18,.04,.35,.07,.53,.07Z"/><path class="cls-5" d="M1627.86,70.45c.95,0,1.81-.64,2.06-1.6,.29-1.14-.4-2.29-1.53-2.58l-9.81-2.5c-1.14-.29-2.29,.4-2.59,1.53h0c-.29,1.14,.4,2.29,1.53,2.58l9.81,2.5c.18,.04,.35,.07,.53,.07Z"/><path class="cls-5" d="M1656.75,77.89l9.81,2.5c.18,.04,.35,.07,.53,.07,.95,0,1.81-.64,2.06-1.6h0c.29-1.14-.4-2.29-1.53-2.58l-9.81-2.5c-1.14-.29-2.29,.4-2.59,1.53h0c-.29,1.14,.4,2.29,1.53,2.58Z"/><path class="cls-5" d="M1637.14,72.89l9.81,2.5c.18,.04,.35,.07,.53,.07,.95,0,1.81-.64,2.06-1.6,.29-1.14-.4-2.29-1.53-2.58l-9.81-2.5c-1.14-.29-2.29,.4-2.59,1.53h0c-.29,1.14,.4,2.29,1.53,2.58Z"/><path class="cls-5" d="M1676.37,82.9l9.81,2.5c.18,.04,.35,.07,.53,.07,.95,0,1.81-.64,2.06-1.6h0c.29-1.14-.4-2.29-1.53-2.58l-9.81-2.5c-1.14-.29-2.29,.4-2.59,1.54-.29,1.14,.4,2.29,1.53,2.58Z"/><path class="cls-5" d="M1608.24,65.44c.95,0,1.81-.64,2.06-1.6h0c.29-1.14-.4-2.29-1.53-2.58l-9.81-2.5c-1.14-.29-2.3,.4-2.59,1.53h0c-.29,1.14,.4,2.29,1.53,2.59l9.81,2.5c.18,.04,.35,.07,.53,.07Z"/><path class="cls-5" d="M1695.99,87.9l9.81,2.5c.18,.04,.35,.07,.53,.07,.95,0,1.81-.64,2.06-1.6h0c.29-1.14-.4-2.29-1.53-2.58l-9.81-2.5c-1.14-.29-2.3,.4-2.59,1.54-.29,1.14,.4,2.29,1.53,2.58Z"/><path class="cls-5" d="M1588.62,60.44c.95,0,1.81-.64,2.06-1.6h0c.29-1.14-.4-2.29-1.53-2.58l-9.81-2.5c-1.14-.29-2.3,.4-2.59,1.53-.29,1.14,.4,2.29,1.53,2.58l9.81,2.5c.18,.04,.35,.07,.53,.07Z"/><path class="cls-5" d="M1786.85,108.9c.29-1.14-.4-2.29-1.53-2.58l-9.81-2.5c-1.14-.29-2.29,.4-2.58,1.53-.29,1.14,.4,2.29,1.53,2.58l9.81,2.5c.18,.04,.35,.07,.53,.07,.95,0,1.81-.64,2.06-1.6Z"/><path class="cls-5" d="M1806.47,113.9c.29-1.14-.4-2.29-1.53-2.58l-9.81-2.5c-1.14-.29-2.29,.4-2.58,1.53-.29,1.14,.4,2.29,1.53,2.58l9.81,2.5c.18,.04,.35,.07,.53,.07,.95,0,1.81-.64,2.06-1.6Z"/><path class="cls-5" d="M1715.6,92.91l9.81,2.5c.18,.04,.35,.07,.53,.07,.95,0,1.81-.64,2.06-1.6h0c.29-1.14-.4-2.29-1.53-2.58l-9.81-2.5c-1.14-.29-2.3,.4-2.59,1.54-.29,1.14,.4,2.29,1.53,2.58Z"/><path class="cls-5" d="M1735.22,97.92l9.81,2.5c.18,.04,.35,.07,.53,.07,.95,0,1.81-.64,2.06-1.6h0c.29-1.14-.4-2.29-1.53-2.59l-9.81-2.5c-1.14-.29-2.3,.4-2.59,1.54-.29,1.14,.4,2.29,1.53,2.58Z"/><path class="cls-5" d="M1767.23,103.89c.29-1.14-.4-2.29-1.53-2.58l-9.81-2.5c-1.14-.29-2.29,.4-2.58,1.53-.29,1.14,.4,2.29,1.53,2.58l9.81,2.5c.18,.04,.35,.07,.53,.07,.95,0,1.81-.64,2.06-1.6Z"/><path class="cls-5" d="M1844.17,121.33l-9.81-2.5c-1.14-.29-2.29,.4-2.58,1.53-.29,1.14,.4,2.29,1.53,2.58l9.81,2.5c.18,.04,.35,.07,.53,.07,.95,0,1.81-.64,2.06-1.6,.29-1.14-.4-2.29-1.53-2.58Z"/><path class="cls-5" d="M1924.17,143.94c.29-1.14-.4-2.29-1.53-2.59l-9.81-2.5c-1.14-.29-2.3,.4-2.59,1.53h0c-.29,1.14,.4,2.29,1.53,2.59l9.81,2.5c.18,.04,.35,.07,.53,.07,.95,0,1.81-.64,2.06-1.6Z"/><path class="cls-5" d="M1883.4,131.34l-9.81-2.5c-1.14-.29-2.3,.4-2.59,1.53h0c-.29,1.14,.4,2.29,1.53,2.58l9.81,2.5c.18,.04,.35,.07,.53,.07,.95,0,1.81-.64,2.06-1.6h0c.29-1.14-.4-2.29-1.53-2.59Z"/><path class="cls-5" d="M1863.78,126.34l-9.81-2.5c-1.14-.29-2.29,.4-2.58,1.53-.29,1.14,.4,2.29,1.53,2.58l9.81,2.5c.18,.04,.35,.07,.53,.07,.95,0,1.81-.64,2.06-1.6h0c.29-1.14-.4-2.3-1.53-2.59Z"/><path class="cls-5" d="M1903.02,136.35l-9.81-2.5c-1.14-.29-2.3,.4-2.59,1.53h0c-.29,1.14,.4,2.29,1.53,2.59l9.81,2.5c.18,.04,.35,.07,.53,.07,.95,0,1.81-.64,2.06-1.6,.29-1.14-.4-2.29-1.53-2.59Z"/><path class="cls-5" d="M1824.55,116.32l-4.67-1.19-5.14-1.31c-1.14-.29-2.29,.4-2.58,1.53-.29,1.14,.4,2.29,1.53,2.58l6.28,1.6,3.53,.9c.18,.04,.35,.07,.53,.07,.95,0,1.81-.64,2.06-1.6,.29-1.14-.4-2.29-1.53-2.58Z"/><path class="cls-5" d="M1513.96,1925.47h-10.12c-1.17,0-2.13,.95-2.13,2.12s.95,2.12,2.13,2.12h10.12c1.17,0,2.13-.95,2.13-2.12s-.95-2.12-2.13-2.12Z"/><path class="cls-5" d="M1675.92,1925.47h-10.12c-1.17,0-2.13,.95-2.13,2.12s.95,2.12,2.13,2.12h10.12c1.17,0,2.13-.95,2.13-2.12s-.95-2.12-2.13-2.12Z"/><path class="cls-5" d="M1655.68,1925.47h-10.12c-1.17,0-2.13,.95-2.13,2.12s.95,2.12,2.13,2.12h10.12c1.17,0,2.13-.95,2.13-2.12s-.95-2.12-2.13-2.12Z"/><path class="cls-5" d="M1716.41,1925.47h-10.12c-1.17,0-2.13,.95-2.13,2.12s.95,2.12,2.13,2.12h10.12c1.17,0,2.13-.95,2.13-2.12s-.95-2.12-2.13-2.12Z"/><path class="cls-5" d="M1696.17,1925.47h-10.12c-1.17,0-2.13,.95-2.13,2.12s.95,2.12,2.13,2.12h10.12c1.17,0,2.13-.95,2.13-2.12s-.95-2.12-2.13-2.12Z"/><path class="cls-5" d="M1635.43,1925.47h-10.12c-1.17,0-2.13,.95-2.13,2.12s.95,2.12,2.13,2.12h10.12c1.17,0,2.13-.95,2.13-2.12s-.95-2.12-2.13-2.12Z"/><path class="cls-5" d="M1594.94,1925.47h-10.12c-1.17,0-2.13,.95-2.13,2.12s.95,2.12,2.13,2.12h10.12c1.17,0,2.13-.95,2.13-2.12s-.95-2.12-2.13-2.12Z"/><path class="cls-5" d="M1554.45,1925.47h-10.12c-1.17,0-2.13,.95-2.13,2.12s.95,2.12,2.13,2.12h10.12c1.17,0,2.13-.95,2.13-2.12s-.95-2.12-2.13-2.12Z"/><path class="cls-5" d="M1534.2,1925.47h-10.12c-1.17,0-2.13,.95-2.13,2.12s.95,2.12,2.13,2.12h10.12c1.17,0,2.13-.95,2.13-2.12s-.95-2.12-2.13-2.12Z"/><path class="cls-5" d="M1736.66,1925.47h-10.12c-1.17,0-2.13,.95-2.13,2.12s.95,2.12,2.13,2.12h10.12c1.17,0,2.13-.95,2.13-2.12s-.95-2.12-2.13-2.12Z"/><path class="cls-5" d="M1574.7,1925.47h-10.12c-1.17,0-2.13,.95-2.13,2.12s.95,2.12,2.13,2.12h10.12c1.17,0,2.13-.95,2.13-2.12s-.95-2.12-2.13-2.12Z"/><path class="cls-5" d="M1918.87,1925.47h-10.12c-1.17,0-2.13,.95-2.13,2.12s.95,2.12,2.13,2.12h10.12c1.17,0,2.13-.95,2.13-2.12s-.95-2.12-2.13-2.12Z"/><path class="cls-5" d="M1898.63,1925.47h-10.12c-1.17,0-2.13,.95-2.13,2.12s.95,2.12,2.13,2.12h10.12c1.17,0,2.13-.95,2.13-2.12s-.95-2.12-2.13-2.12Z"/><path class="cls-5" d="M1959.36,1925.47h-10.12c-1.17,0-2.13,.95-2.13,2.12s.95,2.12,2.13,2.12h10.12c1.17,0,2.13-.95,2.13-2.12s-.95-2.12-2.13-2.12Z"/><path class="cls-5" d="M1756.91,1925.47h-10.12c-1.17,0-2.13,.95-2.13,2.12s.95,2.12,2.13,2.12h10.12c1.17,0,2.13-.95,2.13-2.12s-.95-2.12-2.13-2.12Z"/><path class="cls-5" d="M1939.12,1925.47h-10.12c-1.17,0-2.13,.95-2.13,2.12s.95,2.12,2.13,2.12h10.12c1.17,0,2.13-.95,2.13-2.12s-.95-2.12-2.13-2.12Z"/><path class="cls-5" d="M1878.38,1925.47h-10.12c-1.17,0-2.13,.95-2.13,2.12s.95,2.12,2.13,2.12h10.12c1.17,0,2.13-.95,2.13-2.12s-.95-2.12-2.13-2.12Z"/><path class="cls-5" d="M1777.15,1925.47h-10.12c-1.17,0-2.13,.95-2.13,2.12s.95,2.12,2.13,2.12h10.12c1.17,0,2.13-.95,2.13-2.12s-.95-2.12-2.13-2.12Z"/><path class="cls-5" d="M1797.4,1925.47h-10.12c-1.17,0-2.13,.95-2.13,2.12s.95,2.12,2.13,2.12h10.12c1.17,0,2.13-.95,2.13-2.12s-.95-2.12-2.13-2.12Z"/><path class="cls-5" d="M1837.89,1925.47h-10.12c-1.17,0-2.13,.95-2.13,2.12s.95,2.12,2.13,2.12h10.12c1.17,0,2.13-.95,2.13-2.12s-.95-2.12-2.13-2.12Z"/><path class="cls-5" d="M1817.64,1925.47h-10.12c-1.17,0-2.13,.95-2.13,2.12s.95,2.12,2.13,2.12h10.12c1.17,0,2.13-.95,2.13-2.12s-.95-2.12-2.13-2.12Z"/><path class="cls-5" d="M1858.13,1925.47h-10.12c-1.17,0-2.13,.95-2.13,2.12s.95,2.12,2.13,2.12h10.12c1.17,0,2.13-.95,2.13-2.12s-.95-2.12-2.13-2.12Z"/><path class="cls-5" d="M1615.19,1925.47h-10.12c-1.17,0-2.13,.95-2.13,2.12s.95,2.12,2.13,2.12h10.12c1.17,0,2.13-.95,2.13-2.12s-.95-2.12-2.13-2.12Z"/><path class="cls-5" d="M845.85,1925.47h-10.12c-1.17,0-2.13,.95-2.13,2.12s.95,2.12,2.13,2.12h10.12c1.17,0,2.13-.95,2.13-2.12s-.95-2.12-2.13-2.12Z"/><path class="cls-5" d="M825.61,1925.47h-10.12c-1.17,0-2.13,.95-2.13,2.12s.95,2.12,2.13,2.12h10.12c1.17,0,2.13-.95,2.13-2.12s-.95-2.12-2.13-2.12Z"/><path class="cls-5" d="M866.1,1925.47h-10.12c-1.17,0-2.13,.95-2.13,2.12s.95,2.12,2.13,2.12h10.12c1.17,0,2.13-.95,2.13-2.12s-.95-2.12-2.13-2.12Z"/><path class="cls-5" d="M805.36,1925.47h-10.12c-1.17,0-2.13,.95-2.13,2.12s.95,2.12,2.13,2.12h10.12c1.17,0,2.13-.95,2.13-2.12s-.95-2.12-2.13-2.12Z"/><path class="cls-5" d="M764.87,1925.47h-10.12c-1.17,0-2.13,.95-2.13,2.12s.95,2.12,2.13,2.12h10.12c1.17,0,2.13-.95,2.13-2.12s-.95-2.12-2.13-2.12Z"/><path class="cls-5" d="M886.34,1925.47h-10.12c-1.17,0-2.13,.95-2.13,2.12s.95,2.12,2.13,2.12h10.12c1.17,0,2.13-.95,2.13-2.12s-.95-2.12-2.13-2.12Z"/><path class="cls-5" d="M785.12,1925.47h-10.12c-1.17,0-2.13,.95-2.13,2.12s.95,2.12,2.13,2.12h10.12c1.17,0,2.13-.95,2.13-2.12s-.95-2.12-2.13-2.12Z"/><path class="cls-5" d="M906.59,1925.47h-10.12c-1.17,0-2.13,.95-2.13,2.12s.95,2.12,2.13,2.12h10.12c1.17,0,2.13-.95,2.13-2.12s-.95-2.12-2.13-2.12Z"/><path class="cls-5" d="M1493.71,1925.47h-10.12c-1.17,0-2.13,.95-2.13,2.12s.95,2.12,2.13,2.12h10.12c1.17,0,2.13-.95,2.13-2.12s-.95-2.12-2.13-2.12Z"/><path class="cls-5" d="M967.33,1925.47h-10.12c-1.17,0-2.13,.95-2.13,2.12s.95,2.12,2.13,2.12h10.12c1.17,0,2.13-.95,2.13-2.12s-.95-2.12-2.13-2.12Z"/><path class="cls-5" d="M947.08,1925.47h-10.12c-1.17,0-2.13,.95-2.13,2.12s.95,2.12,2.13,2.12h10.12c1.17,0,2.13-.95,2.13-2.12s-.95-2.12-2.13-2.12Z"/><path class="cls-5" d="M926.84,1925.47h-10.12c-1.17,0-2.13,.95-2.13,2.12s.95,2.12,2.13,2.12h10.12c1.17,0,2.13-.95,2.13-2.12s-.95-2.12-2.13-2.12Z"/><path class="cls-5" d="M623.15,1925.47h-10.12c-1.17,0-2.13,.95-2.13,2.12s.95,2.12,2.13,2.12h10.12c1.17,0,2.13-.95,2.13-2.12s-.95-2.12-2.13-2.12Z"/><path class="cls-5" d="M582.66,1925.47h-10.12c-1.17,0-2.13,.95-2.13,2.12s.95,2.12,2.13,2.12h10.12c1.17,0,2.13-.95,2.13-2.12s-.95-2.12-2.13-2.12Z"/><path class="cls-5" d="M602.91,1925.47h-10.12c-1.17,0-2.13,.95-2.13,2.12s.95,2.12,2.13,2.12h10.12c1.17,0,2.13-.95,2.13-2.12s-.95-2.12-2.13-2.12Z"/><path class="cls-5" d="M562.41,1925.47h-10.12c-1.17,0-2.13,.95-2.13,2.12s.95,2.12,2.13,2.12h10.12c1.17,0,2.13-.95,2.13-2.12s-.95-2.12-2.13-2.12Z"/><path class="cls-5" d="M1007.82,1925.47h-10.12c-1.17,0-2.13,.95-2.13,2.12s.95,2.12,2.13,2.12h10.12c1.17,0,2.13-.95,2.13-2.12s-.95-2.12-2.13-2.12Z"/><path class="cls-5" d="M542.17,1925.47h-10.12c-1.17,0-2.13,.95-2.13,2.12s.95,2.12,2.13,2.12h10.12c1.17,0,2.13-.95,2.13-2.12s-.95-2.12-2.13-2.12Z"/><path class="cls-5" d="M744.63,1925.47h-10.12c-1.17,0-2.13,.95-2.13,2.12s.95,2.12,2.13,2.12h10.12c1.17,0,2.13-.95,2.13-2.12s-.95-2.12-2.13-2.12Z"/><path class="cls-5" d="M704.13,1925.47h-10.12c-1.17,0-2.13,.95-2.13,2.12s.95,2.12,2.13,2.12h10.12c1.17,0,2.13-.95,2.13-2.12s-.95-2.12-2.13-2.12Z"/><path class="cls-5" d="M643.4,1925.47h-10.12c-1.17,0-2.13,.95-2.13,2.12s.95,2.12,2.13,2.12h10.12c1.17,0,2.13-.95,2.13-2.12s-.95-2.12-2.13-2.12Z"/><path class="cls-5" d="M724.38,1925.47h-10.12c-1.17,0-2.13,.95-2.13,2.12s.95,2.12,2.13,2.12h10.12c1.17,0,2.13-.95,2.13-2.12s-.95-2.12-2.13-2.12Z"/><path class="cls-5" d="M683.89,1925.47h-10.12c-1.17,0-2.13,.95-2.13,2.12s.95,2.12,2.13,2.12h10.12c1.17,0,2.13-.95,2.13-2.12s-.95-2.12-2.13-2.12Z"/><path class="cls-5" d="M663.64,1925.47h-10.12c-1.17,0-2.13,.95-2.13,2.12s.95,2.12,2.13,2.12h10.12c1.17,0,2.13-.95,2.13-2.12s-.95-2.12-2.13-2.12Z"/><path class="cls-5" d="M987.57,1925.47h-10.12c-1.17,0-2.13,.95-2.13,2.12s.95,2.12,2.13,2.12h10.12c1.17,0,2.13-.95,2.13-2.12s-.95-2.12-2.13-2.12Z"/><path class="cls-5" d="M1392.49,1925.47h-10.12c-1.17,0-2.13,.95-2.13,2.12s.95,2.12,2.13,2.12h10.12c1.17,0,2.13-.95,2.13-2.12s-.95-2.12-2.13-2.12Z"/><path class="cls-5" d="M1453.22,1925.47h-10.12c-1.17,0-2.13,.95-2.13,2.12s.95,2.12,2.13,2.12h10.12c1.17,0,2.13-.95,2.13-2.12s-.95-2.12-2.13-2.12Z"/><path class="cls-5" d="M1331.75,1925.47h-10.12c-1.17,0-2.13,.95-2.13,2.12s.95,2.12,2.13,2.12h10.12c1.17,0,2.13-.95,2.13-2.12s-.95-2.12-2.13-2.12Z"/><path class="cls-5" d="M1351.99,1925.47h-10.12c-1.17,0-2.13,.95-2.13,2.12s.95,2.12,2.13,2.12h10.12c1.17,0,2.13-.95,2.13-2.12s-.95-2.12-2.13-2.12Z"/><path class="cls-5" d="M1432.98,1925.47h-10.12c-1.17,0-2.13,.95-2.13,2.12s.95,2.12,2.13,2.12h10.12c1.17,0,2.13-.95,2.13-2.12s-.95-2.12-2.13-2.12Z"/><path class="cls-5" d="M1412.73,1925.47h-10.12c-1.17,0-2.13,.95-2.13,2.12s.95,2.12,2.13,2.12h10.12c1.17,0,2.13-.95,2.13-2.12s-.95-2.12-2.13-2.12Z"/><path class="cls-5" d="M1372.24,1925.47h-10.12c-1.17,0-2.13,.95-2.13,2.12s.95,2.12,2.13,2.12h10.12c1.17,0,2.13-.95,2.13-2.12s-.95-2.12-2.13-2.12Z"/><path class="cls-5" d="M1230.52,1925.47h-10.12c-1.17,0-2.13,.95-2.13,2.12s.95,2.12,2.13,2.12h10.12c1.17,0,2.13-.95,2.13-2.12s-.95-2.12-2.13-2.12Z"/><path class="cls-5" d="M1028.06,1925.47h-10.12c-1.17,0-2.13,.95-2.13,2.12s.95,2.12,2.13,2.12h10.12c1.17,0,2.13-.95,2.13-2.12s-.95-2.12-2.13-2.12Z"/><path class="cls-5" d="M1311.5,1925.47h-10.12c-1.17,0-2.13,.95-2.13,2.12s.95,2.12,2.13,2.12h10.12c1.17,0,2.13-.95,2.13-2.12s-.95-2.12-2.13-2.12Z"/><path class="cls-5" d="M1250.77,1925.47h-10.12c-1.17,0-2.13,.95-2.13,2.12s.95,2.12,2.13,2.12h10.12c1.17,0,2.13-.95,2.13-2.12s-.95-2.12-2.13-2.12Z"/><path class="cls-5" d="M1271.01,1925.47h-10.12c-1.17,0-2.13,.95-2.13,2.12s.95,2.12,2.13,2.12h10.12c1.17,0,2.13-.95,2.13-2.12s-.95-2.12-2.13-2.12Z"/><path class="cls-5" d="M1291.26,1925.47h-10.12c-1.17,0-2.13,.95-2.13,2.12s.95,2.12,2.13,2.12h10.12c1.17,0,2.13-.95,2.13-2.12s-.95-2.12-2.13-2.12Z"/><path class="cls-5" d="M1190.03,1925.47h-10.12c-1.17,0-2.13,.95-2.13,2.12s.95,2.12,2.13,2.12h10.12c1.17,0,2.13-.95,2.13-2.12s-.95-2.12-2.13-2.12Z"/><path class="cls-5" d="M1109.05,1925.47h-10.12c-1.17,0-2.13,.95-2.13,2.12s.95,2.12,2.13,2.12h10.12c1.17,0,2.13-.95,2.13-2.12s-.95-2.12-2.13-2.12Z"/><path class="cls-5" d="M1088.8,1925.47h-10.12c-1.17,0-2.13,.95-2.13,2.12s.95,2.12,2.13,2.12h10.12c1.17,0,2.13-.95,2.13-2.12s-.95-2.12-2.13-2.12Z"/><path class="cls-5" d="M1129.29,1925.47h-10.12c-1.17,0-2.13,.95-2.13,2.12s.95,2.12,2.13,2.12h10.12c1.17,0,2.13-.95,2.13-2.12s-.95-2.12-2.13-2.12Z"/><path class="cls-5" d="M1068.56,1925.47h-10.12c-1.17,0-2.13,.95-2.13,2.12s.95,2.12,2.13,2.12h10.12c1.17,0,2.13-.95,2.13-2.12s-.95-2.12-2.13-2.12Z"/><path class="cls-5" d="M1048.31,1925.47h-10.12c-1.17,0-2.13,.95-2.13,2.12s.95,2.12,2.13,2.12h10.12c1.17,0,2.13-.95,2.13-2.12s-.95-2.12-2.13-2.12Z"/><path class="cls-5" d="M1473.47,1925.47h-10.12c-1.17,0-2.13,.95-2.13,2.12s.95,2.12,2.13,2.12h10.12c1.17,0,2.13-.95,2.13-2.12s-.95-2.12-2.13-2.12Z"/><path class="cls-5" d="M1149.54,1925.47h-10.12c-1.17,0-2.13,.95-2.13,2.12s.95,2.12,2.13,2.12h10.12c1.17,0,2.13-.95,2.13-2.12s-.95-2.12-2.13-2.12Z"/><path class="cls-5" d="M1169.78,1925.47h-10.12c-1.17,0-2.13,.95-2.13,2.12s.95,2.12,2.13,2.12h10.12c1.17,0,2.13-.95,2.13-2.12s-.95-2.12-2.13-2.12Z"/><path class="cls-5" d="M1210.27,1925.47h-10.12c-1.17,0-2.13,.95-2.13,2.12s.95,2.12,2.13,2.12h10.12c1.17,0,2.13-.95,2.13-2.12s-.95-2.12-2.13-2.12Z"/><path class="cls-5" d="M924.57,55.51c-.29-1.14-1.44-1.82-2.58-1.54l-9.81,2.5c-1.14,.29-1.83,1.45-1.54,2.58,.25,.96,1.11,1.6,2.06,1.6,.17,0,.35-.02,.53-.07l9.81-2.5c1.14-.29,1.83-1.45,1.54-2.58Z"/><path class="cls-5" d="M944.19,50.51c-.29-1.14-1.45-1.83-2.58-1.54l-9.81,2.5c-1.14,.29-1.83,1.45-1.54,2.58,.25,.96,1.11,1.6,2.06,1.6,.17,0,.35-.02,.53-.07l9.81-2.5c1.14-.29,1.83-1.45,1.54-2.58Z"/><path class="cls-5" d="M904.95,60.5c-.29-1.14-1.45-1.82-2.58-1.54l-9.81,2.5c-1.14,.29-1.83,1.45-1.54,2.58,.25,.96,1.11,1.6,2.06,1.6,.17,0,.35-.02,.53-.07l9.81-2.5c1.14-.29,1.83-1.45,1.54-2.58Z"/><path class="cls-5" d="M794.97,90.62c.17,0,.35-.02,.53-.07l9.81-2.5c1.14-.29,1.83-1.45,1.54-2.58-.29-1.14-1.45-1.82-2.58-1.54l-9.81,2.5c-1.14,.29-1.83,1.45-1.54,2.58,.25,.96,1.11,1.6,2.06,1.6Z"/><path class="cls-5" d="M815.12,85.56l9.81-2.5c1.14-.29,1.83-1.45,1.54-2.58-.29-1.14-1.45-1.82-2.58-1.54l-9.81,2.5c-1.14,.29-1.83,1.45-1.54,2.58,.25,.96,1.11,1.6,2.06,1.6,.17,0,.35-.02,.53-.07Z"/><path class="cls-5" d="M765.02,93.92l-9.81,2.5c-1.14,.29-1.83,1.45-1.54,2.58h0c.25,.96,1.11,1.6,2.06,1.6,.17,0,.35-.02,.53-.07l9.81-2.5c1.14-.29,1.83-1.45,1.54-2.58-.29-1.14-1.44-1.82-2.58-1.54Z"/><path class="cls-5" d="M745.4,98.92l-9.81,2.5c-1.14,.29-1.83,1.45-1.54,2.58,.25,.96,1.11,1.6,2.06,1.6,.17,0,.35-.02,.53-.07l9.81-2.5c1.14-.29,1.83-1.45,1.54-2.58-.29-1.14-1.45-1.82-2.58-1.54Z"/><path class="cls-5" d="M787.23,90.46c-.29-1.14-1.45-1.82-2.58-1.54l-9.81,2.5c-1.14,.29-1.83,1.45-1.54,2.58,.25,.96,1.11,1.6,2.06,1.6,.17,0,.35-.02,.53-.07l9.81-2.5c1.14-.29,1.83-1.45,1.54-2.58h0Z"/><path class="cls-5" d="M725.78,103.91l-9.81,2.5c-1.14,.29-1.83,1.45-1.54,2.58,.25,.96,1.11,1.6,2.06,1.6,.17,0,.35-.02,.53-.07l9.81-2.5c1.14-.29,1.83-1.45,1.54-2.58-.29-1.14-1.44-1.82-2.58-1.54Z"/><path class="cls-5" d="M706.16,108.9l-9.81,2.5c-1.14,.29-1.83,1.45-1.54,2.58h0c.25,.96,1.11,1.6,2.06,1.6,.17,0,.35-.02,.53-.07l9.81-2.5c1.14-.29,1.83-1.45,1.54-2.58-.29-1.14-1.45-1.82-2.58-1.54Z"/><path class="cls-5" d="M885.33,65.5c-.29-1.14-1.45-1.82-2.58-1.54l-9.81,2.5c-1.14,.29-1.83,1.45-1.54,2.58,.25,.96,1.11,1.6,2.06,1.6,.17,0,.35-.02,.53-.07l9.81-2.5c1.14-.29,1.83-1.45,1.54-2.58Z"/><path class="cls-5" d="M864.17,73.07c1.14-.29,1.83-1.45,1.54-2.58-.29-1.14-1.44-1.82-2.58-1.54l-9.81,2.5c-1.14,.29-1.83,1.45-1.54,2.58,.25,.96,1.11,1.6,2.06,1.6,.17,0,.35-.02,.53-.07l9.81-2.5Z"/><path class="cls-5" d="M834.74,80.56l9.81-2.5c1.14-.29,1.83-1.45,1.54-2.58-.29-1.14-1.45-1.83-2.58-1.54l-9.81,2.5c-1.14,.29-1.83,1.45-1.54,2.58,.25,.96,1.11,1.6,2.06,1.6,.17,0,.35-.02,.53-.07Z"/><path class="cls-5" d="M591.03,140.4c-.29-1.14-1.45-1.82-2.58-1.54l-9.81,2.5c-1.14,.29-1.83,1.45-1.54,2.58,.25,.96,1.11,1.6,2.06,1.6,.17,0,.35-.02,.53-.07l9.81-2.5c1.14-.29,1.83-1.45,1.54-2.58Z"/><path class="cls-5" d="M608.06,133.87l-9.81,2.5c-1.14,.29-1.83,1.45-1.54,2.58,.25,.96,1.11,1.6,2.06,1.6,.17,0,.35-.02,.53-.07l9.81-2.5c1.14-.29,1.82-1.45,1.54-2.58-.29-1.14-1.44-1.82-2.58-1.54Z"/><path class="cls-5" d="M666.92,118.89l-9.81,2.5c-1.14,.29-1.83,1.45-1.54,2.58,.25,.96,1.11,1.6,2.06,1.6,.17,0,.35-.02,.53-.07l9.81-2.5c1.14-.29,1.83-1.45,1.54-2.58-.29-1.14-1.44-1.82-2.58-1.54Z"/><path class="cls-5" d="M649.89,125.42c-.29-1.14-1.45-1.82-2.58-1.54l-9.81,2.5c-1.14,.29-1.83,1.45-1.54,2.58,.25,.96,1.11,1.6,2.06,1.6,.17,0,.35-.02,.53-.07l9.81-2.5c1.14-.29,1.83-1.45,1.54-2.58h0Z"/><path class="cls-5" d="M627.68,128.88l-9.81,2.5c-1.14,.29-1.83,1.45-1.54,2.58h0c.25,.96,1.11,1.6,2.06,1.6,.17,0,.35-.02,.53-.07l9.81-2.5c1.14-.29,1.83-1.45,1.54-2.58-.29-1.14-1.45-1.82-2.58-1.54Z"/><path class="cls-5" d="M686.54,113.9l-5.16,1.31-4.65,1.18c-1.14,.29-1.83,1.45-1.54,2.58,.25,.96,1.11,1.6,2.06,1.6,.17,0,.35-.02,.53-.07l3.51-.89,6.3-1.6c1.14-.29,1.83-1.45,1.54-2.58-.29-1.14-1.44-1.82-2.58-1.54Z"/></g></g><g id="_ロゴ"><path class="cls-2" d="M1422.42,1265.7h-323.32c-20.2,0-37.81-14.35-41.85-34.11-.41-2.01,.89-3.98,2.9-4.39,2.02-.42,3.97,.89,4.39,2.89,3.34,16.32,17.88,28.17,34.57,28.17h323.32c19.46,0,35.29-15.83,35.29-35.29v-42.09c0-2.05,1.66-3.72,3.72-3.72s3.72,1.66,3.72,3.72v42.09c0,23.55-19.16,42.72-42.72,42.72Z"/><path class="cls-2" d="M1060.1,1140.42c-2.05,0-3.72-1.66-3.72-3.72v-370.81c0-23.55,19.16-42.72,42.72-42.72h323.32c23.55,0,42.72,19.16,42.72,42.72v310.38c0,2.05-1.66,3.72-3.72,3.72s-3.72-1.66-3.72-3.72v-310.38c0-19.46-15.83-35.29-35.29-35.29h-323.32c-19.46,0-35.29,15.83-35.29,35.29v370.81c0,2.05-1.66,3.72-3.72,3.72Z"/><path class="cls-2" d="M1181.48,1126.1c-.67,0-1.35-.18-1.96-.56-45.69-28.37-72.97-77.38-72.97-131.1,0-85.03,69.18-154.21,154.21-154.21s154.21,69.18,154.21,154.21c0,29.4-8.3,57.99-24.02,82.69-1.1,1.73-3.4,2.24-5.13,1.14-1.73-1.1-2.24-3.4-1.14-5.13,14.95-23.5,22.86-50.71,22.86-78.69,0-80.93-65.85-146.78-146.78-146.78s-146.78,65.85-146.78,146.78c0,51.13,25.97,97.78,69.46,124.79,1.74,1.08,2.28,3.37,1.2,5.12-.7,1.13-1.92,1.76-3.16,1.76Z"/><rect class="cls-2" x="1060.1" y="790.06" width="401.32" height="7.43"/><path class="cls-2" d="M1110.27,780.77c-11.27,0-20.44-9.17-20.44-20.44s9.17-20.44,20.44-20.44,20.44,9.17,20.44,20.44-9.17,20.44-20.44,20.44Zm0-33.44c-7.17,0-13.01,5.83-13.01,13.01s5.83,13.01,13.01,13.01,13.01-5.83,13.01-13.01-5.83-13.01-13.01-13.01Z"/><path class="cls-2" d="M1160.43,780.77c-11.27,0-20.44-9.17-20.44-20.44s9.17-20.44,20.44-20.44,20.44,9.17,20.44,20.44-9.17,20.44-20.44,20.44Zm0-33.44c-7.17,0-13.01,5.83-13.01,13.01s5.83,13.01,13.01,13.01,13.01-5.83,13.01-13.01-5.83-13.01-13.01-13.01Z"/><path class="cls-2" d="M1205.94,1119.77c-.52,0-1.04-.11-1.54-.34-24.64-11.26-44.06-29.44-56.16-52.58l-1.09-2.08,1.41-1.88c2.09-2.79,51.68-68.37,86.58-68.37,18.26,0,23.28,5.02,27.71,9.45,3.9,3.9,7.27,7.27,22.46,7.27,14.02,0,33-15.89,49.76-29.9,17.43-14.59,32.49-27.18,44.05-25.33,4.02,.65,7.28,2.94,9.68,6.82l.29,.57c14.23,35.16,5.46,80.51-22.32,115.53-1.28,1.61-3.61,1.88-5.22,.6-1.61-1.28-1.88-3.61-.6-5.22,25.67-32.35,34.24-75.62,21.38-107.82-1.6-2.44-3.26-2.97-4.38-3.15-8.21-1.32-23.41,11.39-38.1,23.69-18.59,15.55-37.81,31.64-54.53,31.64-18.26,0-23.28-5.02-27.71-9.45-3.9-3.9-7.27-7.27-22.46-7.27-28.19,0-70.85,52.84-79.2,63.53,11.39,20.67,29.17,36.96,51.55,47.18,1.87,.85,2.69,3.06,1.83,4.92-.62,1.37-1.97,2.17-3.38,2.17Z"/><g><path class="cls-3" d="M1386.04,1078.83c-23.68,1.69-45.03,5.2-71.46,11.9-7.39,1.88-13.59,3.38-13.78,3.38s-.31-1-.31-2.19c0-2.57-1.82-5.26-4.38-6.58-2.82-1.44-8.77-1.19-12.34,.56-4.63,2.25-6.33,4.95-6.7,10.65l-.31,4.7-12.21,3.88c-6.7,2.13-22.36,7.2-34.76,11.21-66.64,21.55-99.96,28.94-140.11,31.07-28.12,1.5-58.94-2.13-84.37-9.83-2.82-.88-5.32-1.5-5.45-1.38-.13,.19-.31,.94-.38,1.75-.19,1.25,.25,1.57,3.57,2.63,5.82,1.75,17.47,4.63,25.05,6.14l6.89,1.38,3.19,5.45c1.75,2.94,3.01,5.51,2.69,5.57-1.44,.56-29.56-6.2-35.95-8.64-1.25-.5-1.5-.31-1.88,1.06-.19,.88-.31,1.69-.19,1.75,1.19,1.25,28.44,8.08,39.33,9.96,2,.31,2.57,.94,5.51,5.89,1.75,3.01,2.94,5.51,2.63,5.64-1.69,.56-24.87-4.82-35.89-8.39-3.7-1.19-6.95-2.07-7.27-1.88s-.69,.94-.88,1.63c-.31,1.13,.5,1.5,7.58,3.76,10.77,3.32,18.48,5.26,28.75,7.2,4.76,.88,9.21,1.75,9.96,1.88,1.38,.31,8.27,10.71,7.52,11.4-1.06,1.06-26.18-4.7-39.96-9.21-9.08-2.94-9.33-2.94-9.96-1.75-.38,.75-.44,1.5-.13,1.82,.94,.94,17.35,6.08,26.74,8.39,4.89,1.19,12.71,2.82,17.41,3.63,8.02,1.44,10.52,2.25,10.52,3.63,0,.31-.38,.56-.75,.56-2.32,0-5.64,1.57-8.14,3.7l-2.76,2.44-9.65-2.44c-5.32-1.32-14.03-3.88-19.29-5.7-8.08-2.76-9.71-3.13-10.15-2.38-.38,.5-.63,1.25-.63,1.63,0,1.13,15.85,6.58,28.18,9.65,2.94,.75,6.33,1.57,7.58,1.88l2.19,.63-.25,3.76c-.31,4.32,.63,6.26,3.76,7.89,2.13,1.13,5.7,.88,8.58-.69,1.63-.81,5.51-4.7,6.7-6.7,.5-.81,1.44-.81,7.14-.13,3.63,.44,11.27,1,17.1,1.25,6.89,.31,10.46,.69,10.46,1.13,0,.38-1.13,5.89-2.44,12.28-1.44,6.64-2.25,11.84-1.94,12.15,1.5,1.5,2.32-.63,4.63-11.9,1.38-6.51,2.57-12.15,2.69-12.53,.19-.44,4.26-.81,11.65-1.06,12.59-.44,19.85-1.06,34.14-3.01,7.01-.94,10.4-1.19,12.84-.75,4.45,.75,8.83,0,11.9-2.07,1.88-1.25,5.39-2.25,13.84-4.07,6.26-1.38,17.22-3.88,24.36-5.64,7.2-1.75,13.22-3.07,13.4-2.82,.19,.19-.31,2.88-1.06,5.95l-1.38,5.7-1.75-1.25c-2.94-2.07-7.52-2.82-11.71-1.88-2.88,.63-4.2,1.32-6.26,3.44-2.32,2.25-2.69,3.07-2.69,5.2,0,6.33,7.95,10.33,15.85,8.02,2.44-.69,4.01-1.69,5.51-3.32,1.94-2.13,2.38-3.44,4.51-12.71,1.32-5.7,2.51-10.4,2.63-10.52,.38-.38,43.59-11.59,58.56-15.16,13.97-3.32,33.13-7.33,41.02-8.58,2.44-.44,3.57-.31,5.26,.56,3.63,1.88,8.33,1.13,12.9-2,2.19-1.5,3.57-1.82,10.96-2.57,11.21-1.19,46.47-1.19,56.68-.06,23.55,2.63,46.41,8.52,67.64,17.35,4.7,1.94,8.64,3.44,8.77,3.32,.19-.13,.38-.94,.44-1.75,.19-1.32-.56-1.75-7.95-4.82-21.23-8.89-44.03-14.78-67.33-17.41-16.6-1.94-43.66-1.88-60.69,.13l-3.38,.38,.44-2.19c.25-1.5-.13-4.07-1.13-7.95-1.13-4.2-1.38-5.82-.81-6.01,3.57-1.13,39.96-3.19,45.22-2.51,2.94,.31,3.57,.69,4.38,2.19,2.94,5.64,14.97,6.64,19.73,1.57,1.82-1.88,2.76-1.94,12.34-.31,15.66,2.69,33.38,7.7,48.92,13.84,4.26,1.69,7.95,2.94,8.2,2.76,.31-.13,.69-.81,.88-1.5,.25-1.06-.63-1.63-6.01-3.82-8.83-3.7-23.17-8.39-32.95-10.84l-8.2-2.07,2.25-2.19c2.63-2.51,4.32-5.95,4.95-10.15,.19-1.63,.63-2.94,.88-2.94,1.5,0,19.23,5.57,27.25,8.58,9.39,3.57,10.33,3.63,10.4,1,0-1-14.53-6.58-26.18-9.96-5.39-1.57-10.52-3.07-11.34-3.32-1.13-.31-1.82-1.25-2.44-3.13l-.88-2.63,2.57-2.19c1.75-1.57,2.82-3.13,3.44-5.14,.63-2.32,1.13-2.88,2-2.76,2.82,.44,13.15,3.63,21.17,6.58,8.27,2.94,8.77,3.07,9.58,1.94,.44-.63,.81-1.32,.81-1.5,0-.69-15.09-6.08-24.36-8.71l-8.46-2.44-.81-2.32c-1.19-3.51-3.38-6.26-10.08-12.65-5.89-5.57-6.01-5.76-3.88-5.45,7.95,1.32,23.36,5.32,33.32,8.64l11.71,3.88,.38-1.5c.25-.94,.06-1.75-.38-2.07-.44-.25-5.07-1.88-10.4-3.63-10.21-3.44-22.86-6.7-33.07-8.58-3.7-.69-6.58-1.5-6.95-2.07-.56-.75-.94-.81-1.63-.25s-2.63,.56-8.33-.19c-7.2-.88-35.76-1.63-42.9-1.13Zm42.59,4.57c3.26,.44,6.26,.81,6.64,1,.5,.13,.25,2.63-.88,8.27-.88,4.38-1.63,8.08-1.69,8.2-.06,.06-4.89-.31-10.71-.88-19.92-1.88-51.99-.5-72.9,3.19-2.94,.5-5.51,.94-5.7,.94-.25,0-.88-1.94-1.5-4.32-1-4.2-2.51-6.08-3.26-4.13-.19,.56,.13,2.69,.63,4.82,.56,2.19,.94,4.01,.81,4.07-.06,.06-4.32,1-9.52,2.07-5.14,1.06-13.65,3.07-18.92,4.38l-9.58,2.38-1-2c-1.63-3.13-4.07-6.08-6.58-7.89l-2.32-1.69,3.88-1.94c9.65-4.82,53.93-14.09,77.79-16.41,3.82-.31,8.02-.75,9.39-.88,5.07-.5,39.65,.13,45.41,.81Zm14.47,13.9c2.94,1.44,7.89,6.01,7.27,6.64-.13,.06-3.26-.44-7.01-1.06-3.7-.69-7.01-1.25-7.33-1.25-.5,0-.25-3.07,.56-5.82,.38-1.32,1.38-1.13,6.51,1.5Zm-150.88,7.27c2.57,2.94,4.63,6.26,5.2,8.33,.38,1.57,.25,1.63-8.71,4.13l-9.14,2.57v-7.7c0-4.7,.25-7.83,.63-8.08s2.57-.63,4.89-.94c2.32-.25,4.38-.5,4.57-.56,.25,0,1.38,1,2.57,2.25Zm129.96-.94c4.51,.38,8.58,.88,8.96,1.13,.56,.38,.38,2.38-.75,8.2l-1.44,7.77-2.82-.06c-1.57,0-8.77-.44-16.1-.88-14.28-.88-32.07-.31-47.48,1.57-4.13,.5-9.08,1.13-11.02,1.32l-3.44,.38-2.07-7.64c-1.13-4.2-1.94-7.7-1.82-7.83,.25-.25,17.04-2.63,24.61-3.44,16.16-1.82,35.51-2,53.36-.5Zm-145.12,9.27v7.45l-4.51,1.38c-2.51,.69-14.03,4.2-25.55,7.77s-25.3,7.77-30.56,9.39l-9.58,2.88-6.33-1.38q-6.95-1.57-7.64,2.69c-.5,2.88-.44,2.88-11.65,5.76-34.64,8.96-61.57,13.15-90.25,13.97l-14.16,.38-2.69-2.94c-5.14-5.57-9.71-7.45-21.23-8.77-8.02-.94-14.78-2.19-14.34-2.63,.13-.13,3.51,.19,7.45,.75,9.9,1.32,39.83,1.88,51.67,.94,30-2.38,60.94-8.71,100.09-20.48,7.64-2.25,69.65-22.05,75.54-24.05,3.76-1.25,3.76-1.32,3.76,6.89Zm173.18-5.07c1.75,.44,1.88,.63,2.07,3.88,.13,1.94-.13,4.2-.44,5.14q-.63,1.63-6.95-4.51c-3.44-3.32-6.26-6.26-6.26-6.45,0-.31,7.52,.94,11.59,1.94Zm-106.91,8.02c1.25,4.7,1.75,7.45,1.32,7.7-.31,.25-3.51,.94-7.01,1.5-3.51,.63-12.15,2.38-19.23,3.95-7.08,1.57-13.47,3.01-14.22,3.13-1.32,.31-1.32,.25-.44-2.69,1-3.44,1.13-7.2,.25-10.21-.31-1.19-.5-2.25-.38-2.44,.81-.75,32.95-8.14,35.83-8.2l1.94-.06,1.94,7.33Zm93.76,2c3.07,1.75,7.39,5.7,6.2,5.7-1.19-.06-11.15-1.88-11.4-2.13-.56-.56,.63-5.39,1.32-5.39,.44,0,2.19,.81,3.88,1.82Zm-139.36,3.07c0,3.19-2.88,8.71-5.64,10.9-2.07,1.63-6.64,3.51-10.77,4.51l-1.75,.38v-13.47l8.02-2.32c10.27-2.94,10.15-2.94,10.15,0Zm124.89,3.19c2.69,.38,5.01,.75,5.14,.88s-.25,2.63-.81,5.57l-1.06,5.45-1.63-1.19c-2.88-2-7.14-2.76-10.96-1.94-3.7,.81-8.14,3.7-8.77,5.64-.38,1.25-.81,1.32-12.71,1.32-10.77,0-26.99,1-35.83,2.25l-2.82,.38-2-7.7c-1.13-4.26-1.88-7.83-1.75-7.95,.38-.44,18.1-2.57,26.12-3.19,9.08-.69,40.02-.38,47.1,.5Zm-145.68,7.7l-.19,7.7-17.54,5.14-17.54,5.14-12.84-2.88c-7.08-1.57-13.22-3.07-13.65-3.26-.69-.38,10.08-3.82,52.17-16.72,4.82-1.5,9.02-2.69,9.27-2.76,.25,0,.38,3.44,.31,7.64Zm163.16-5.2c3.57,.63,6.45,1.5,6.76,2,1.5,2.38,.13,11.46-2.25,14.59-.81,1.13-1.06,1.13-8.64-.19-4.32-.75-7.95-1.32-8.08-1.32-.19,0,.44-3.7,1.32-8.14,1.82-9.46,.81-8.83,10.9-6.95Zm-91.69,8.27c1.13,4.2,1.94,7.64,1.82,7.77s-3.26,.63-7.08,1.25c-11.65,1.75-33.7,6.33-48.98,10.21-12.71,3.13-14.59,3.51-14.59,2.57,0-1.19,4.38-5.32,11.27-10.58,2.57-1.94,5.89-4.89,7.39-6.51,2.69-2.88,2.82-2.94,11.59-5.07,7.39-1.75,26.37-5.76,32.38-6.76,4.32-.75,4.01-1.06,6.2,7.14Zm-71.21,16.1l.19,7.39-18.98,5.26c-10.4,2.82-19.04,5.07-19.17,4.95-.31-.31,3.07-14.84,3.51-15.35,.5-.44,31.94-9.58,33.2-9.58,.94-.06,1.06,.88,1.25,7.33Zm74.85-2.44l.63,2.38-2.76-.31c-6.95-.75-15.22,5.95-15.22,12.4,0,1-.13,1.88-.31,1.88s-6.58,1.25-14.28,2.76c-18.23,3.63-35.89,7.83-63.07,15.03-12.21,3.19-22.3,5.76-22.42,5.64-.13-.06,.56-3.57,1.5-7.7l1.75-7.64,3.13-.88c42.4-12.21,78.67-20.92,102.34-24.68,4.01-.69,7.52-1.19,7.7-1.25,.25-.06,.69,1,1,2.38Zm-161.03,2.38c-.13,.63-.94,3.95-1.69,7.39-.75,3.44-1.44,6.33-1.5,6.45-.38,.5-29.37,6.64-39.15,8.33-11.09,1.88-11.59,1.88-12.21,.81-2.94-5.32-10.9-7.45-17.22-4.57-3.57,1.63-5.45,3.38-6.26,5.89-.88,2.69-1.63,2.82-18.48,2.82h-13.97l-.63-4.26c-.38-2.32-.88-4.76-1.06-5.51-.38-1.32-.19-1.32,11.71-1.75,29-1.06,55.31-5.07,86.62-13.09,15.66-4.07,14.22-3.82,13.84-2.51Zm12.59,4.7c4.95,1.13,8.77,2.19,8.46,2.44-.63,.69-20.23,5.7-20.61,5.32-.63-.56,1.75-9.77,2.51-9.77,.44,0,4.76,.88,9.65,2Zm25.74,5.95c8.27,1.88,8.14,1.82,7.01,5.95-.75,2.63-.06,2.32-14.09,6.08-17.1,4.57-34.89,8.89-35.2,8.58-.44-.44,2.38-13.03,3.07-13.84,.63-.69,27.62-8.27,29.94-8.39,.88-.06,5.01,.69,9.27,1.63Zm-157.58,7.08c2.13,2.51,3.57,5.07,4.26,7.64q.5,1.69-2.07,1.44c-1.44-.13-5.89-.56-9.83-.94-3.95-.38-7.7-.81-8.27-1-1-.31-6.76-9.02-6.76-10.27,0-.94,1.88-.94,11.46,0l9.33,.94,1.88,2.19Zm114.81,1.69c-.19,1-1,4.26-1.75,7.39l-1.38,5.64-11.46,2.32c-19.54,3.95-45.47,7.39-55.62,7.39-4.82,0-4.63,.56-2.44-9.21l.31-1.38,2.88,1.63c2.19,1.25,3.7,1.57,6.83,1.57,5.82,0,9.71-2.07,12.53-6.83,.06-.13,5.01-1,11.02-2,10.02-1.69,26.68-5.14,35.01-7.2,1.88-.5,3.7-.88,3.95-.94,.31-.06,.38,.69,.13,1.63Zm47.91,4.7c-.06,2.25-3.19,13.9-3.82,14.34-1.94,1.19-47.29,11.65-47.91,11.09-.13-.19,.44-3.44,1.32-7.2l1.63-6.89,9.83-2.32c5.39-1.25,15.91-3.95,23.3-5.95,14.59-4.01,15.66-4.2,15.66-3.07Zm-163.85,5.95l6.14,.38-.38,2.57c-.25,1.44-.88,3.95-1.38,5.57l-1,3.07-3.26-.44c-6.33-.75-6.14-.63-9.46-6.08-1.75-2.76-3.26-5.39-3.38-5.7-.13-.44,1-.5,3.13-.25,1.88,.25,6.14,.63,9.58,.88Zm40.84,1.25c-.13,.63-.75,3.51-1.38,6.39l-1.13,5.26-14.72-.38c-8.14-.25-15.78-.63-17.04-.81l-2.32-.38,1.44-2.19c.81-1.13,1.94-3.51,2.51-5.2l1-3.13,13.59-.19c7.45-.06,14.66-.19,15.97-.31,2-.13,2.38,.06,2.07,.94Zm70.78,6.83c-.25,.94-.63,2.44-.81,3.44-.38,2-1.13,2.25-2.63,.94-2.69-2.32-8.71-2.88-13.28-1.32-5.51,1.94-8.58,7.01-6.64,10.9,.5,1.06,.75,1.94,.56,1.94-.25,0-4.51,.56-9.52,1.19-9.27,1.25-23.42,2.38-34.89,2.76-6.26,.25-6.39,.19-6.14-1.06,.19-.75,.75-3.38,1.25-5.95,.56-2.57,1.06-4.76,1.13-4.76,.06-.06,4.89-.44,10.71-.88,5.82-.38,15.78-1.44,22.11-2.25,11.21-1.57,34.64-5.7,35.2-6.26,.13-.19,.94-.31,1.82-.31,1.32,0,1.44,.19,1.13,1.63Zm-94.33,7.83c7.08,.38,14.47,.56,16.47,.44,4.2-.31,4.13-.44,2.44,6.95l-1.06,4.57-7.52-.06c-6.95-.13-15.28-.69-23.3-1.69-3.07-.38-3.32-.5-3.32-2.07s-.81-3.57-3.26-7.52l-1.38-2.13,4.07,.38c2.19,.25,9.77,.75,16.85,1.13Z"/><path class="cls-2" d="M1101.2,1239.37c-.44,0-.99-.17-1.58-.76-.41-.4-1.02-1.02,1.63-13.21,.69-3.35,1.88-9.14,2.28-11.3-.98-.17-3.38-.44-9.23-.71-5.78-.25-13.49-.81-17.19-1.26-2.34-.28-5.54-.67-6.04-.41-1.29,2.2-5.32,6.21-7.15,7.13-3.15,1.71-7.13,2-9.64,.68-3.57-1.86-4.71-4.21-4.37-8.99l.19-2.82-3.03-.8c-1.6-.39-3.81-.93-5.82-1.45-.28-.07-29.05-7.54-29.05-10.76,0-.67,.37-1.67,.86-2.32,.89-1.54,2.77-.98,11.44,1.98,5.22,1.8,13.83,4.35,19.2,5.67l9.06,2.29,2.3-2.04c2.39-2.04,5.34-3.49,7.72-3.88-1.93-.78-6.75-1.65-8.79-2.01-4.78-.83-12.62-2.46-17.48-3.65-7.71-1.9-25.94-7.35-27.29-8.7-.68-.68-.72-1.89-.09-3.15,1.13-2.14,1.9-1.89,11.34,1.17,13.03,4.27,33.15,8.84,38.17,9.26-1.22-2.53-5.26-8.43-6.42-9.25-.43-.08-1.36-.25-2.6-.49-1.88-.36-4.5-.86-7.22-1.36-10.18-1.92-18.01-3.88-28.88-7.23-7.26-2.32-8.99-2.86-8.35-5.17,.08-.29,.52-1.78,1.39-2.31,.44-.26,.95-.57,8.21,1.77,10.41,3.37,28.74,7.6,33.98,8.29-.41-.88-1.1-2.2-2.07-3.86-2.93-4.93-3.25-5.1-4.69-5.33-8.03-1.38-36.03-7.96-39.68-10.07h0c-.96-.48-.72-1.6-.42-3.02,.24-.89,.51-1.67,1.26-2.04,.74-.37,1.51-.11,2.18,.15,5.72,2.19,27.85,7.52,33.89,8.46-.43-.88-1.12-2.16-2.05-3.73l-2.94-5.01-6.38-1.28c-7.3-1.45-19.06-4.33-25.16-6.16-2.96-.95-4.73-1.52-4.38-3.9,0-.09,.13-1.58,.56-2.22l.15-.18c.47-.48,.74-.73,6.61,1.09,25.45,7.71,56.05,11.28,83.96,9.78,40.24-2.14,72.91-9.38,139.82-31.01l6.37-2.06c10.97-3.55,22.8-7.38,28.39-9.15l11.47-3.65,.26-3.91c.4-6.13,2.33-9.16,7.35-11.61,3.85-1.89,10.23-2.16,13.37-.55,2.95,1.51,5.01,4.64,5.01,7.6,0,.32,0,.6,.02,.83,1.9-.46,6.69-1.63,12.63-3.14,26.23-6.65,47.67-10.22,71.67-11.93h0c7.21-.5,35.83,.25,43.12,1.13,1.67,.22,6.74,.89,7.47,.43,.37-.3,.97-.7,1.7-.61,.75,.09,1.23,.62,1.57,1.07,.18,.12,1.8,.8,6.24,1.63,10.41,1.92,23.15,5.22,33.23,8.62,3.72,1.22,9.9,3.32,10.6,3.72,.97,.68,1.29,1.97,.92,3.36l-.67,2.69-12.89-4.27c-9.47-3.16-23.44-6.82-31.64-8.34,.9,.89,2.11,2.03,3.35,3.21,6.89,6.56,9.12,9.38,10.38,13.12l.61,1.75,7.88,2.28c4.31,1.22,10.34,3.18,15.73,5.1,9.47,3.38,9.47,3.8,9.47,4.71,0,.47-.34,1.19-1.02,2.16-1.36,1.88-2.27,1.56-10.91-1.52-7.78-2.86-18.16-6.09-20.96-6.52,0,0-.28,.29-.71,1.92-.69,2.23-1.86,3.97-3.79,5.7l-2,1.7,.63,1.89c.66,1.96,1.2,2.26,1.66,2.39,.84,.26,5.97,1.76,11.35,3.32,.27,.08,27.01,8.08,27.01,11.07-.02,.69-.05,1.93-1.04,2.6-1.36,.92-3.43,.32-10.92-2.52-7.49-2.81-22.66-7.59-26.22-8.39-.12,.4-.26,1.01-.35,1.81-.67,4.5-2.45,8.14-5.3,10.85l-.77,.74,6.2,1.56c10.03,2.51,24.27,7.19,33.11,10.89,5.1,2.07,7.21,2.93,6.69,5.15-.12,.44-.54,1.74-1.39,2.22-.5,.35-1.34,.47-9.24-2.67-15.38-6.08-33.13-11.1-48.69-13.78-9.73-1.66-9.98-1.41-11.31-.02-2.61,2.78-7.52,4.16-12.49,3.47-4.26-.58-7.66-2.57-9.09-5.3-.53-.98-.7-1.28-3.48-1.58-4.72-.62-38.63,1.22-44.23,2.33,.06,.74,.41,2.33,1.06,4.74,1.08,4.17,1.43,6.77,1.15,8.44l-.14,.69,1.82-.2c17.05-2.01,44.39-2.06,60.95-.13,23.51,2.65,46.27,8.54,67.64,17.5,7.43,3.08,8.98,3.73,8.65,6.05-.13,1.74-.57,2.27-.83,2.47-.58,.56-1.03,.55-9.96-3.14-21.27-8.84-43.92-14.66-67.33-17.27-10.23-1.13-45.57-1.09-56.43,.06-7.19,.73-8.46,1.02-10.43,2.37-4.95,3.39-10.08,4.15-14.08,2.08-1.36-.71-2.21-.87-4.53-.45-7.9,1.25-27.03,5.25-40.96,8.57-14.51,3.46-53.15,13.48-57.91,14.93-.36,1.27-1.3,5.02-2.42,9.88-2.11,9.2-2.61,10.85-4.78,13.23-1.72,1.87-3.48,2.93-6.05,3.65-4.82,1.42-10.01,.67-13.52-1.96-2.45-1.83-3.79-4.38-3.79-7.17,0-2.52,.54-3.59,3.04-6.02,2.18-2.24,3.65-3.06,6.82-3.74,4.46-1,9.41-.19,12.62,2.06l.37,.27,.98-4.04c.48-1.95,.79-3.47,.94-4.41-1.83,.32-5.8,1.18-11.89,2.67-6.79,1.67-17.73,4.18-24.39,5.64-8.38,1.8-11.77,2.78-13.45,3.9-3.31,2.23-7.95,3.05-12.73,2.24-2.21-.4-5.24-.21-12.5,.76-14.16,1.93-21.53,2.57-34.25,3.02-7.48,.25-9.93,.58-10.72,.75-.3,1.37-1.3,6.07-2.34,11.01l-.2,.92c-2.15,10.47-2.91,12.69-4.5,13.17-.14,.04-.31,.07-.49,.07Zm-29.25-30.04c1.23,0,2.95,.21,5.45,.51,3.65,.44,11.28,1,17.01,1.25,11.56,.52,11.56,1.04,11.56,2.28,0,.36-.24,1.71-2.47,12.51-.89,4.09-1.45,7.21-1.74,9.2,.78-2.61,1.67-6.95,2.18-9.41l.2-.93c1.74-8.21,2.4-11.34,2.53-11.73,.38-.9,.61-1.44,12.7-1.85,12.63-.44,19.94-1.08,34.02-3,7.52-1.01,10.73-1.19,13.2-.74,4.12,.7,8.26,0,11.05-1.89,2.01-1.34,5.34-2.33,14.24-4.24,6.64-1.46,17.56-3.96,24.33-5.63,13.86-3.37,14.05-3.13,14.6-2.39,.33,.31,.67,.66-.87,6.91l-1.78,7.36-3.14-2.25c-2.69-1.89-6.93-2.55-10.79-1.69-2.71,.59-3.82,1.2-5.69,3.12-2.18,2.12-2.37,2.65-2.37,4.4,0,2.04,1.02,3.94,2.87,5.32,2.94,2.2,7.35,2.81,11.5,1.59,2.17-.61,3.57-1.45,4.99-3,1.74-1.9,2.13-3.04,4.23-12.19,2.44-10.58,2.72-10.86,2.94-11.08,.92-.91,54.65-14.4,59.11-15.46,13.98-3.32,33.19-7.34,41.11-8.6,2.65-.48,4.05-.32,5.97,.68,3.22,1.67,7.49,.97,11.72-1.93,2.49-1.71,4.28-2.03,11.5-2.76,11.23-1.19,46.34-1.23,56.93-.06,23.63,2.64,46.5,8.5,67.96,17.43,3.7,1.53,6.29,2.52,7.57,2.97,.02-.13,.03-.28,.05-.43l.02-.23c-.31-.55-4.01-2.08-7.27-3.44-21.18-8.87-43.73-14.7-67.02-17.33-16.42-1.92-43.52-1.86-60.43,.13l-4.95,.55,.75-3.74c.21-1.27-.15-3.71-1.11-7.44-1.23-4.59-1.75-6.83-.06-7.4,3.76-1.19,40.52-3.24,45.73-2.55,3.02,.32,4.14,.75,5.25,2.78,1.09,2.09,3.84,3.62,7.36,4.1,4.25,.58,8.38-.51,10.51-2.78,2.28-2.37,3.81-2.28,13.37-.66,15.71,2.7,33.63,7.77,49.15,13.91,3.74,1.49,6.32,2.35,7.32,2.61,.08-.15,.16-.36,.22-.59-.32-.41-3.58-1.74-5.34-2.45-8.62-3.61-23.02-8.34-32.79-10.78l-10.21-2.57,3.73-3.63c2.47-2.36,4.02-5.55,4.61-9.49,.45-3.93,1.59-3.93,2.02-3.93,1.91,0,20.59,6.01,27.65,8.65,3.16,1.2,7.89,3.01,8.82,2.76-.02,0-.01-.08,0-.24-2.16-1.4-14.32-6.1-25.33-9.29-5.4-1.57-10.54-3.07-11.35-3.32-1.85-.51-2.65-2.24-3.2-3.87l-1.12-3.37,3.16-2.7c1.6-1.43,2.53-2.81,3.09-4.6,.41-1.52,1.07-3.87,3.27-3.55,2.99,.46,13.38,3.69,21.4,6.64,4.19,1.49,7.51,2.68,8.13,2.52,0,0,.03-.05,.13-.17,.1-.15,.19-.28,.27-.41-3.02-1.42-14.7-5.6-23.2-8.01l-9.03-2.61-1.01-2.88c-1.13-3.33-3.23-5.95-9.79-12.2-5.37-5.08-5.93-5.61-5.37-6.76,.46-.96,1.56-.79,2.45-.66,8,1.32,23.34,5.3,33.52,8.69l10.53,3.49,.07-.3c.12-.44,.08-.72,.04-.85-.85-.35-4.78-1.75-10.06-3.48-9.99-3.37-22.6-6.64-32.92-8.54-6.66-1.24-7.41-2.13-7.68-2.53-1.07,.83-3.07,.84-9.17,.03-7.21-.88-35.53-1.62-42.67-1.12h0c-23.86,1.7-45.17,5.25-71.26,11.87-.13,.03-13.45,3.42-14.06,3.42-1.47,0-1.47-1.93-1.47-3.34,0-2.1-1.58-4.44-3.76-5.55-2.51-1.28-8.11-.99-11.31,.57-4.24,2.06-5.71,4.42-6.06,9.69l-.37,5.48-12.96,4.12c-5.59,1.78-17.42,5.6-28.38,9.15l-6.37,2.06c-67.13,21.7-99.93,28.97-140.4,31.12-28.15,1.51-59.06-2.09-84.76-9.88-1.85-.58-3.38-.99-4.28-1.2-.03,.17-.05,.36-.06,.56-.04,.3-.03,.37-.03,.38,.22,.24,2.03,.82,2.8,1.07,6.02,1.81,17.68,4.67,24.93,6.1l7.4,1.48,3.46,5.9c3.28,5.5,3,6.13,2.79,6.59l-.24,.55-.62,.15h0c-3.37,.43-31.91-6.91-36.58-8.7-.1-.04-.18-.07-.24-.09-.03,.09-.07,.22-.11,.38-.07,.34-.12,.62-.15,.81,3.41,1.48,27.29,7.55,38.38,9.46,2.62,.41,3.47,1.67,6.31,6.43,3.16,5.42,2.92,6.13,2.77,6.55l-.17,.5-.53,.24c-2.45,.84-27.82-5.5-36.67-8.36-3.45-1.11-5.55-1.65-6.39-1.8-.07,.16-.17,.4-.26,.67,.76,.53,3.95,1.54,6.79,2.45,10.77,3.32,18.53,5.26,28.61,7.17,2.72,.5,5.34,1.01,7.23,1.37,1.4,.27,2.39,.46,2.71,.51,2.14,.49,7.97,9.94,8.45,11.76,.23,.87-.06,1.36-.35,1.62-2.05,2.06-33.55-6.49-41.1-8.96-4.17-1.35-7.8-2.5-8.56-2.44,.04,0,0,.07-.02,.13-.11,.22-.17,.42-.19,.55,2.03,1.07,16.84,5.73,26.06,8,4.81,1.17,12.59,2.79,17.33,3.62,8.75,1.57,11.48,2.43,11.48,4.77,0,.95-.85,1.72-1.9,1.72-1.98,0-5.03,1.41-7.4,3.42l-3.19,2.83-10.24-2.59c-5.42-1.34-14.12-3.91-19.38-5.73-3.12-1.07-7.77-2.65-8.92-2.66-.09,.15-.16,.3-.21,.44,2.49,1.49,15.45,5.99,27.2,8.91,2,.51,4.2,1.05,5.8,1.44l4.9,1.33-.31,4.69c-.28,3.86,.42,5.38,3.14,6.8,1.81,.95,5.03,.66,7.5-.68,1.36-.68,5.11-4.35,6.26-6.28,.53-.87,1.29-1.19,2.82-1.19Zm-56.96-15.68s-.03,.05-.05,.07c.02-.02,.03-.04,.05-.07Zm96.08,16.53c-1.89,0-2.54-.18-3.02-.74-.53-.62-.38-1.37-.29-1.81,.18-.73,.74-3.3,1.25-5.95q1.25-5.69,2.26-5.69v.02c1.03-.17,3.6-.36,10.62-.89,5.73-.37,15.71-1.43,22.05-2.25,11.3-1.58,32.45-5.35,34.69-6.09,.33-.24,1-.5,2.47-.5,.6,0,1.51,0,2.05,.68,.56,.69,.36,1.61,.2,2.35v.05c-.27,.96-.63,2.41-.81,3.36-.17,.93-.53,2.21-1.65,2.59-1.11,.38-2.17-.39-2.87-1-2.37-2.03-7.93-2.54-12.15-1.09-2.84,1-5.1,2.97-6.02,5.25-.4,1-.72,2.51,.04,4.04,1.06,2.25,.75,2.73,.55,3.05l-.34,.53-.68,.03c-.19,.01-1.96,.24-4.01,.5l-5.37,.68c-9.44,1.28-23.5,2.39-34.99,2.76-1.75,.07-3.03,.12-3.99,.12Zm-1-2.33c.94,.06,2.95-.01,4.91-.09,11.43-.38,25.4-1.48,34.78-2.75l5.38-.68c1.35-.17,2.27-.29,2.9-.37-.06-.14-.13-.29-.2-.45-.88-1.77-.92-3.87-.1-5.9,.87-2.16,2.64-4.08,4.92-5.42-7.86,1.35-15.93,2.61-18.39,2.96-6.39,.82-16.43,1.89-22.2,2.26-2.1,.16-7.89,.6-9.89,.78-.15,.59-.41,1.74-.9,3.95-.45,2.29-.96,4.69-1.19,5.71Zm63.32-17.61c2.49,.3,4.72,1.1,6.15,2.33,.25,.22,.44,.35,.56,.43,.05-.14,.12-.36,.18-.71,.19-1,.56-2.51,.83-3.5,.02-.08,.03-.15,.04-.21-.67,0-1.16,.08-1.27,.12,0,0,.07-.03,.16-.09-.51,.34-3.09,.94-6.65,1.64Zm-66.72,19.77l-8.44-.07c-7.41-.13-15.72-.74-23.43-1.7-2.88-.35-4.33-.53-4.33-3.21,0-1.4-.84-3.28-3.08-6.91l-2.65-4.1,6.43,.59c2.14,.24,9.51,.74,16.8,1.12h0c7.54,.4,14.54,.55,16.34,.44h.21c1.92-.16,3.19-.25,4,.68,.94,1.1,.59,2.64-.46,7.21l-1.38,5.95Zm-37.43-13.26l.09,.14c2.54,4.11,3.44,6.23,3.44,8.14,0,.43,.02,.56,.04,.6,.17,.06,1.48,.22,2.27,.32,7.63,.95,15.86,1.55,23.18,1.68l6.58,.06,.96-4.14c.59-2.56,1.1-4.78,.91-5.26-.12,.02-1.14,.1-2.03,.17l-.22,.02c-2.14,.14-9.59-.06-16.62-.44-7.33-.39-14.76-.89-16.92-1.13l-1.69-.16Zm113.5,4.7c-.41,0-.68-.05-.78-.14l-.18-.21c-.23-.34-.55-.82,1.15-8.11l1.79-7.59,10.53-2.48c5.21-1.21,15.64-3.87,23.26-5.94,14.19-3.9,15.42-4.14,16.49-3.33,.41,.32,.62,.78,.62,1.38v.03c-.03,1.21-2.9,14.27-4.31,15.26-.4,.24-42.12,11.14-48.56,11.14Zm3.89-14.13l-1.46,6.2c-.58,2.48-.96,4.48-1.16,5.67,7.14-1.18,42.18-9.34,45.84-10.72,.73-1.63,3-10,3.4-12.86-1.9,.24-7.63,1.81-14.14,3.6-7.65,2.07-18.12,4.75-23.34,5.96l-9.14,2.15Zm47.83-12.29h0Zm-1.15-.02h0s0,0,0,0h0Zm-123.44,20.05l-15.67-.4c-7.95-.24-15.82-.62-17.18-.83l-2.11-.34-.11,.35-4.56-.61c-6.21-.73-6.49-.91-9.75-6.28l-.18-.3c-1.59-2.5-3.27-5.37-3.47-5.87l-.26-.64,.48-.71c.55-.65,1.59-.76,4.11-.47,1.92,.26,6.24,.63,9.53,.87l7.38,.45-.56,3.81c-.1,.6-.27,1.38-.47,2.22,.26-.61,.5-1.21,.68-1.75l1.25-3.91,14.42-.2c8.04-.07,14.72-.2,15.88-.31,1.47-.09,2.53-.1,3.12,.69,.48,.64,.28,1.38,.17,1.7-.16,.77-.76,3.55-1.36,6.33l-1.33,6.19Zm-33.06-3.59l.56,.09c1.11,.17,8.33,.54,16.89,.8l13.76,.35,.93-4.33c.53-2.46,1.07-4.92,1.29-5.97-.2,0-.45,.01-.78,.03-1.41,.13-9.08,.26-16.03,.32l-12.76,.17-.75,2.34c-.55,1.64-1.72,4.21-2.67,5.52l-.44,.67Zm-17.18-10.34c.59,1.01,1.53,2.6,2.62,4.31l.19,.32q2.78,4.56,8.06,5.19l2.7,.36,.7-2.16c.5-1.63,1.1-4.07,1.34-5.41l.19-1.3-4.9-.3c-3.32-.24-7.7-.62-9.65-.89-.52-.06-.92-.1-1.25-.12Zm55.39,13.1c-1.51,0-2.54-.09-3.23-.94-.95-1.18-.56-2.9,.59-7.99l1.04-4.57,4.23,2.39c1.97,1.12,3.26,1.42,6.26,1.42,5.49,0,8.94-1.87,11.54-6.26q.31-.62,11.82-2.55c9.77-1.65,26.41-5.07,34.92-7.18,1.48-.4,2.94-.72,3.62-.87l.99-.24,.61,.54c.61,.64,.48,1.77,.26,2.62-.15,.77-.59,2.58-1.1,4.67l-2.21,9.08-12.18,2.46c-19.56,3.95-45.66,7.42-55.85,7.42h-.74c-.2,0-.39,0-.58,0Zm-.04-9.98l-.35,1.56c-.7,3.11-1.26,5.56-1.03,6.07,.16,.06,1.13,.06,1.97,.05h.75c10.07,0,35.95-3.45,55.39-7.37l10.74-2.17,1.87-7.66c.51-2.1,.95-3.92,1.08-4.6h0c-.72,.15-1.67,.38-2.64,.64-8.57,2.13-25.3,5.57-35.12,7.23-6.32,1.05-9.47,1.63-10.47,1.85-3.01,4.79-7.23,6.99-13.27,6.99-3.41,0-5.07-.38-7.4-1.72l-1.53-.87Zm119.5,5.15c-.28,0-.43-.05-.55-.13-.81-.42-.81-.87,1.03-8.93l1.91-8.31,3.79-1.06c42.1-12.13,78.49-20.9,102.47-24.71,2.34-.4,4.52-.74,5.97-.97,.89-.14,1.48-.23,1.64-.26l.51-.17,.46,.32c.23,.14,.85,.52,1.43,3.07l1.05,3.99-4.43-.5c-3.18-.36-6.99,1.09-9.95,3.75-2.53,2.28-3.99,5.01-3.99,7.5,0,1.06,0,3.03-1.47,3.03-.33,.05-5.89,1.14-11.78,2.29l-2.28,.44c-18.39,3.66-36.05,7.87-63,15.02-17.22,4.5-21.48,5.62-22.81,5.62Zm4.32-15.51l-1.6,6.97c-.62,2.71-1.04,4.75-1.27,6,2.63-.62,9.01-2.23,20.77-5.3,26.99-7.15,44.7-11.37,63.14-15.05l2.28-.44c7.32-1.43,10.18-1.98,11.35-2.2,.02-.22,.04-.51,.04-.86,0-3.15,1.73-6.51,4.75-9.22,3.49-3.13,7.88-4.74,11.74-4.33l1.09,.12-.21-.79c-.14-.61-.28-1.07-.4-1.38-.25,.04-.59,.09-1.04,.16-1.43,.22-3.6,.56-5.94,.97-23.9,3.79-60.2,12.55-102.22,24.65l-2.48,.69Zm95.54-10.16c-.07,0-.14,0-.2,.02,.11-.02,.16-.02,.2-.02Zm0,0h0Zm-147.37,19.46c-.55,0-.66-.11-.76-.21-1.43-1.43,2.92-15.3,3.01-15.4,1.39-1.53,30.52-8.79,30.76-8.8,1.5-.1,8.76,1.48,9.58,1.65l.19,.04c5.15,1.17,7.07,1.61,7.91,3,.66,1.1,.33,2.31-.17,4.14l-.15,.53c-.77,2.79-.99,2.85-12.79,6.01l-2.02,.54c-27.07,7.24-33.73,8.49-35.56,8.49Zm3.94-13.99c-.52,1.24-2.22,8.7-2.67,11.65,4.26-.83,18.96-4.44,33.69-8.38l2.02-.54q10.75-2.87,11.17-4.39l.15-.53c.28-1.03,.57-2.09,.41-2.35-.33-.55-2.89-1.13-6.44-1.94l-.18-.04c-5.22-1.15-8.41-1.62-8.94-1.6-2.02,.11-26.39,6.9-29.21,8.12Zm-96.45,9.99h-14.96l-.77-5.24c-.38-2.32-.87-4.72-1.04-5.4-.1-.34-.3-1.06,.17-1.71,.75-1.04,1.86-1.08,12.43-1.47,29.13-1.07,54.96-4.97,86.56-13.06l3.95-1.03q10.47-2.73,11.21-1.91c.55,.61,.27,1.33,.16,1.64-.02,.06-.05,.12-.07,.19-.06,.28-.2,.89-.4,1.73-.33,1.42-.82,3.5-1.29,5.63-.01,.06-1.37,6.26-1.6,6.72l-.11,.18c-1.01,1.35-39.49,8.71-39.87,8.77-11.39,1.93-12.33,2.09-13.4,.26-2.66-4.82-10.02-6.73-15.75-4.11-3.26,1.48-4.94,3.04-5.65,5.19-1.18,3.61-2.92,3.61-19.57,3.61Zm-12.97-2.3h12.97c16.72,0,16.8-.23,17.38-2.02,.92-2.83,2.98-4.8,6.88-6.58,6.89-3.13,15.46-.82,18.71,5.06,.68,.36,5.24-.41,11.01-1.39,9.81-1.7,34.64-6.99,38.39-8.07,.2-.86,.74-3.14,1.32-5.82,.47-2.14,.96-4.23,1.29-5.67,.09-.39,.17-.72,.23-1-1.44,.31-4.14,1.02-8.31,2.11l-3.96,1.03c-31.77,8.13-57.75,12.06-86.87,13.13-5.83,.21-9.33,.34-10.58,.57,.24,1.03,.68,3.26,1.03,5.36l.48,3.29Zm-5.98,2.11c-.45,0-1-.05-1.7-.12-.85-.08-2.8-.26-5.08-.48l-4.75-.46c-1.25-.12-7.55-.73-8.52-1.06-1.66-.52-7.55-9.85-7.55-11.36,0-.48,.19-.91,.53-1.22,.95-.86,2.77-.85,12.19,.07l9.79,.99,2.18,2.55c2.25,2.65,3.77,5.37,4.49,8.09,.28,.96,.52,1.74-.04,2.42-.37,.45-.82,.59-1.55,.59Zm-19.24-4.29c.74,.16,3.81,.54,7.93,.93l4.76,.46c2.27,.22,4.21,.41,5.07,.48,.3,.03,.61,.06,.88,.08v-.05c-.66-2.41-2.01-4.83-4.04-7.22l-1.58-1.84-8.87-.89c-3.39-.33-8.31-.81-10.02-.68,.91,1.94,4.81,7.83,5.89,8.73Zm182.85-5.03c-.44,0-.56-.12-.72-.29-1.21-1.21,3.36-16.81,3.45-16.92,1.3-1.15,33.84-9.98,34.06-9.98,.46-.04,.91,.11,1.27,.44,.85,.77,.96,2.01,1.13,8.01h0s.14,5.34,.14,5.34c.52-1.86,4.44-5.59,11.67-11.11,2.43-1.84,5.75-4.76,7.24-6.38,2.97-3.18,3.49-3.31,12.16-5.41,7.51-1.78,26.56-5.8,32.46-6.78l.5-.09c4.64-.82,4.91,.21,6.7,6.94l.3,1.13c2.2,8.2,2.06,8.34,1.52,8.88q-.37,.37-6.61,1.39l-1.1,.18c-11.89,1.79-33.81,6.36-48.88,10.19-13.28,3.27-14.43,3.47-15.46,2.67-.23-.18-.4-.42-.49-.7l.05,2.04-19.84,5.5c-14.53,3.94-18.32,4.94-19.56,4.94Zm4.48-15.57c-.63,1.89-2.46,9.76-3.06,13.02,2.5-.6,8.3-2.11,17.54-4.61l18.11-5.02-.17-6.49c-.07-2.32-.15-5.13-.36-6.14-3.53,.78-28.51,7.99-32.06,9.25Zm101.1-25.58c-.34,0-.88,.09-1.81,.25l-.52,.09c-5.88,.98-24.84,4.98-32.31,6.75q-8.52,2.07-11.01,4.74c-1.59,1.72-4.98,4.71-7.54,6.64-5.8,4.43-8.97,7.39-10.21,8.88,2.21-.34,7.09-1.55,12.56-2.89,15.12-3.84,37.14-8.43,49.08-10.23l1.09-.18c1.87-.3,3.78-.62,4.88-.82-.24-1.15-.78-3.38-1.64-6.58h0s-.3-1.13-.3-1.13c-.79-2.99-1.27-4.79-1.77-5.35-.1-.11-.23-.16-.5-.16Zm-153.6,36.03l-.49-.37c-1.47-1.33,1.5-9.7,1.54-9.79,.32-.82,.75-1.95,1.78-1.95,.74,0,6.35,1.21,9.9,2.03,9.06,2.07,9.17,2.52,9.34,3.27l.16,.71-.58,.49c-.99,1.11-20.1,5.57-21.16,5.6h-.49Zm3.35-9.71c-.62,1.39-1.65,5.35-1.91,7.25,3.05-.59,11.57-2.76,16.07-4.07-1.28-.35-3.02-.78-5.28-1.3h0c-4.06-.94-7.52-1.65-8.87-1.89Zm-118.13,9.51l-3.05-3.33c-4.9-5.32-9.31-7.12-20.51-8.4-14.76-1.73-15.12-2.77-15.32-3.33l-.24-.68,.53-.57c.39-.4,.68-.68,8.43,.42,9.93,1.32,39.73,1.86,51.42,.93,29.98-2.38,60.77-8.68,99.85-20.44,7.5-2.21,69.77-22.09,75.5-24.04,1.86-.62,3.04-1.01,4.04-.29,1.24,.89,1.24,2.6,1.24,8.27v8.31l-5.33,1.63c-2.46,.68-13.67,4.08-25.55,7.77-6.89,2.14-14.59,4.49-20.8,6.4-4.17,1.28-7.66,2.35-9.77,3l-9.88,2.97-6.62-1.44c-2.88-.65-5.14-1.16-5.6-.85-.26,.18-.46,1.41-.66,2.6-.63,3.65-1.08,3.76-12.5,6.7-34.82,9-61.88,13.19-90.51,14l-14.68,.39Zm-14.27-12.54c5.76,1.41,9.19,3.59,12.92,7.65l2.34,2.56,13.63-.36c28.44-.81,55.36-4.97,90-13.93q10.43-2.68,10.79-4.79c.35-2.16,.56-3.44,1.65-4.18,1.28-.87,2.95-.49,7.39,.51l6.03,1.31,9.3-2.79c2.11-.65,5.6-1.72,9.77-3,6.2-1.9,13.9-4.26,20.79-6.39,11.9-3.69,23.14-7.11,25.59-7.78l3.66-1.12v-6.6c0-3.34,0-5.97-.33-6.45-.11,.05-1.02,.36-1.82,.62-5.81,1.98-68.15,21.88-75.66,24.09-39.23,11.8-70.18,18.13-100.32,20.52-7.68,.61-23.11,.59-35.72,.13Zm179.66-.84l-13.13-2.95c-6.37-1.41-13.24-3.06-13.86-3.32l-.78-.33,.05-.89c.14-1.35,.15-1.46,53.01-17.66,4.86-1.52,9.05-2.7,9.32-2.77l.28-.04h.48l.37,.36c.33,.33,.73,.74,.62,8.45h0s-.21,8.56-.21,8.56l-36.17,10.59Zm-23.07-7.61c2.47,.6,6.27,1.49,10.44,2.41l12.55,2.82,33.98-9.95,.17-6.86c.04-2.9,0-5-.08-6.16-1.62,.47-4.68,1.36-8.01,2.4-26.6,8.15-42.89,13.2-49.06,15.34Zm224.35,1.81c-1.32,0-3.44-.37-7.23-1.03-4.26-.74-7.67-1.27-7.98-1.3h-.54l-.26-.42c-.4-.49-.57-.69,1.09-9.09l.38-2.03c.67-3.62,1-5.44,2.4-6.39,1.44-.98,3.41-.6,7.32,.16l2.13,.4c2.5,.44,6.8,1.35,7.54,2.53,1.91,3.03,.19,12.61-2.32,15.9-.63,.88-1.15,1.28-2.53,1.28Zm-13.9-4.46c1.72,.26,4.89,.79,7.07,1.17,7.08,1.23,7.16,1.14,7.51,.65,2.18-2.87,3.34-11.11,2.28-13.19-.52-.3-2.64-1-6.06-1.6h-.01s-2.15-.41-2.15-.41c-2.98-.58-4.94-.96-5.59-.52-.61,.42-.94,2.2-1.44,4.91l-.38,2.05c-.7,3.57-1.08,5.81-1.24,6.94Zm-76.79,3.02l-2.26-8.69c-2.2-8.31-1.92-8.59-1.45-9.06,.99-1.16,26.59-3.51,26.84-3.53,9.27-.7,40.23-.37,47.33,.51h.02c5.33,.75,5.48,.89,5.79,1.2,.46,.46,.64,.65-.5,6.61l-1.41,7.23-3.09-2.26c-2.59-1.8-6.53-2.49-10.04-1.74-3.7,.81-7.49,3.57-7.91,4.86-.63,2.11-1.38,2.11-13.81,2.11-10.94,0-26.94,1.01-35.66,2.24l-3.84,.51Zm-1.64-16.07c.23,1.22,.78,3.69,1.6,6.8l1.75,6.72,1.81-.24c8.81-1.25,24.95-2.27,35.98-2.27,6.39,0,11,0,11.62-.39,.84-2.73,5.86-5.7,9.62-6.53,4.16-.89,8.71-.07,11.87,2.12l.19,.14,.72-3.67c.4-2.08,.64-3.6,.75-4.46-.72-.13-2.01-.34-4.1-.63-7.04-.87-37.67-1.19-46.86-.49-7.49,.58-21.36,2.26-24.94,2.91Zm-72.25,10.46v-15.75l9.22-2.67c7.41-2.12,9.18-2.63,10.39-1.71,.86,.65,.86,1.65,.86,2.82l-1.15,.11h1.15c0,3.52-3.01,9.36-6.07,11.8-2.17,1.71-6.78,3.65-11.22,4.73l-3.18,.68Zm2.3-14.02v11.18l.36-.08c3.99-.97,8.43-2.81,10.3-4.29,2.48-1.97,5.2-7.2,5.2-9.99v-.11c0-.33,0-.73-.03-.96-.94-.1-3.91,.81-8.29,2.06l-7.55,2.18Zm22.74,9.31c-.38,0-.76-.1-1.08-.44-.67-.71-.44-1.5,.26-3.86,.96-3.31,1.06-6.8,.25-9.56-.71-2.68-.44-3.08-.23-3.4l.18-.21c1.36-1.25,34.4-8.46,36.58-8.51l2.85-.09,2.18,8.21c2.08,7.81,1.68,8.49,.77,9-.6,.5-5.38,1.32-7.4,1.64-3.46,.62-12,2.35-19.16,3.93l-6.33,1.41c-4.86,1.08-7.42,1.65-7.94,1.74-.27,.07-.59,.14-.91,.14Zm1.34-15.86c.06,.33,.16,.8,.31,1.38,.92,3.14,.83,7.1-.26,10.82-.11,.38-.23,.78-.33,1.13,1.26-.26,4.1-.9,7.3-1.61l6.34-1.41c7.19-1.59,15.77-3.33,19.27-3.95,2.97-.48,5.25-.96,6.21-1.23-.05-.67-.31-2.37-1.43-6.55h0s-1.71-6.44-1.71-6.44l-1.03,.03c-2.42,.05-29.95,6.3-34.69,7.82Zm138.49,7.15c-.16,0-11.43-1.68-12.21-2.47-1.27-1.27,.43-5.75,.45-5.79,.19-.47,.65-1.56,1.68-1.56,1.1,0,4.13,1.77,4.47,1.98h0c.38,.23,7.49,4.74,6.92,6.88-.16,.58-.67,.96-1.31,.96Zm-10.39-4.18c1.46,.34,5.29,1.06,7.91,1.5-1.17-1.05-2.81-2.32-4.29-3.17h-.02c-1.2-.72-2.25-1.23-2.87-1.49-.32,.81-.68,2.34-.74,3.15Zm-85.66,3.78l-2.32-8.59c-2.22-8.25-2.04-8.42-1.52-8.95,.88-.87,25.07-3.75,25.31-3.78,16.2-1.82,35.74-2.01,53.58-.5,3.92,.33,8.76,.82,9.5,1.32,1.16,.78,1.12,2.27-.26,9.38l-1.62,8.72-3.8-.09c-1.49,0-8.04-.39-14.97-.81l-1.17-.07c-14.36-.88-32.03-.3-47.27,1.56l-3.46,.42c-3.14,.39-6.17,.76-7.59,.9l-4.41,.48Zm-1.74-15.82c.24,1.17,.79,3.45,1.64,6.63l1.81,6.69,2.46-.27c1.42-.14,4.43-.51,7.55-.89l3.46-.42c15.37-1.88,33.2-2.46,47.69-1.57l1.17,.07c6.89,.41,13.41,.8,14.86,.8l1.86,.04,1.26-6.8c.32-1.65,1.13-5.83,1.04-7.08-.83-.14-3.89-.54-8.21-.9h0c-17.7-1.49-37.07-1.31-53.14,.5-6.84,.73-19.85,2.57-23.46,3.2Zm-67.08,12.65v-9.22c0-8.28,.63-8.7,1.14-9.04,.24-.16,.75-.5,5.37-1.12,2.7-.29,4.22-.49,4.44-.54l.18-.06,.11,.02c.16,0,.37,0,.76,.24l5.11-2.56c9.74-4.87,53.59-14.14,78.19-16.53,2.73-.22,5.62-.51,7.57-.7l1.84-.18c5.14-.51,39.71,.11,45.65,.82h.02s1.49,.2,1.49,.2c3.67,.49,4.84,.66,5.36,.85,1.34,.38,1.46,1.73-.11,9.59-1.64,8.19-1.69,8.3-1.79,8.49l-.22,.3c-.47,.47-.53,.53-11.64-.54-19.94-1.88-51.83-.49-72.59,3.18-5.06,.86-5.67,.96-5.9,.96-.95,0-1.36-.4-2.62-5.18-.34-1.42-.69-2.4-.99-3.04,.09,.73,.28,1.83,.6,3.18,1.15,4.48,1.09,4.92,.21,5.36v-.02c-.58,.24-2.4,.67-9.81,2.18-5.05,1.05-13.56,3.05-18.87,4.37l-10.48,2.6-1.41-2.83c-1.55-2.97-3.87-5.77-6.22-7.48l-.46-.34c2.57,3.01,4.6,6.32,5.2,8.5,.65,2.7-.31,2.97-9.51,5.54l-10.61,2.98Zm2.65-16.4c-.16,.84-.35,3.14-.35,7.17v6.18l7.68-2.16c4.33-1.21,7.27-2.03,7.96-2.5-.02-.09-.04-.2-.06-.26-.51-1.87-2.5-5.03-4.93-7.82-.87-.91-1.57-1.55-1.92-1.83-.57,.09-1.75,.24-4.24,.51-2.32,.31-3.58,.56-4.13,.7Zm13.3-2.73l.79,.58c2.62,1.9,5.21,5,6.92,8.29l.6,1.19,8.69-2.16c5.33-1.33,13.87-3.34,18.96-4.39,3.81-.78,7.01-1.47,8.5-1.81-.13-.64-.35-1.63-.68-2.91-.38-1.61-.95-4.43-.6-5.47,.57-1.48,1.56-1.57,1.95-1.55,1.44,.1,2.63,2.04,3.52,5.78,.46,1.73,.79,2.78,1,3.34,1.05-.17,3.21-.54,4.89-.83,20.93-3.69,53.09-5.1,73.21-3.2,4.4,.43,8.09,.73,9.7,.84,.19-.91,.6-2.94,1.47-7.25,.91-4.55,1.1-6.36,1.1-7.09-.82-.14-2.71-.39-4.4-.62l-1.48-.2c-5.67-.67-40.26-1.3-45.15-.81l-1.83,.18c-1.95,.19-4.86,.48-7.59,.7-23.88,2.32-68,11.61-77.37,16.29l-2.19,1.1Zm156.74,16.93c-1.04,0-2.15-1.08-6.98-5.77-6.61-6.37-6.61-6.83-6.61-7.28v-.56l.45-.36c1.18-.93,12.45,1.72,12.56,1.75h0c2.58,.65,2.75,1.63,2.94,4.94,.12,1.91-.09,4.36-.5,5.56-.26,.69-.57,1.48-1.45,1.67-.14,.03-.28,.05-.41,.05Zm-9.62-11.63c1.05,1.08,2.5,2.53,4.24,4.21,2.45,2.37,4.23,4.1,5.12,4.8,.21-.76,.44-2.72,.33-4.52q-.15-2.58-1.2-2.84c-2.49-.61-6.05-1.27-8.48-1.65Zm8.88-2.2c-.64,0-2.2-.24-7.19-1.08-3.92-.73-6.82-1.21-7.18-1.24l-.53-.04-.47-.49c-1.05-1.41,.48-6.72,.49-6.78,.2-.71,.6-1.2,1.16-1.45,1.19-.52,2.79,.11,6.97,2.25,2.57,1.26,7.64,5.48,7.93,7.26,.08,.46-.06,.91-.37,1.22l-.3,.22c-.14,.07-.24,.12-.52,.12Zm-13.44-4.51c2.03,.3,6.59,1.16,6.65,1.17,2.01,.33,3.45,.57,4.46,.73-1.41-1.4-3.69-3.28-5.43-4.14h-.02c-1.12-.58-3.94-2.03-4.89-2.17-.53,1.83-.76,3.55-.77,4.41Zm-.89-.11s.06,0,.1,0c-.03,0-.07,0-.1,0Z"/></g><path class="cls-2" d="M1206.54,1117.99c-.45,0-.9-.09-1.34-.29-48.36-21.83-79.61-70.22-79.61-123.26,0-74.54,60.64-135.17,135.17-135.17s135.17,60.64,135.17,135.17c0,30.98-10.19,60.12-29.48,84.27-1.12,1.41-3.17,1.63-4.58,.51-1.41-1.12-1.64-3.17-.51-4.58,18.35-22.99,28.06-50.73,28.06-80.21,0-70.94-57.72-128.66-128.66-128.66s-128.66,57.72-128.66,128.66c0,50.49,29.75,96.55,75.78,117.33,1.64,.74,2.37,2.67,1.63,4.31-.54,1.2-1.73,1.92-2.97,1.92Z"/><g><path class="cls-2" d="M1025.26,682.18c2.79,3.94,5.59,7.88,8.38,11.82,.11,.15,.05,.42-.12,.54-1.4,.99-2.79,1.98-4.18,2.99-.17,.12-.44,.09-.55-.06-3.09-4.34-6.17-8.68-9.26-13.02-3.14-4.23-6.27-8.45-9.41-12.68-.11-.15-.04-.43,.14-.56,1.97-1.43,3.94-2.83,5.93-4.22,.23-.16,.54-.2,.73-.11,9.67,3.41,19.11,7.13,28.31,11.15-.31-.45-.61-.9-.92-1.34-1.45-2.16-2.91-4.31-4.37-6.47-2.78-4.36-5.56-8.72-8.34-13.08-.1-.16-.01-.43,.17-.55,1.53-.98,3.07-1.94,4.62-2.9,.19-.12,.47-.07,.57,.08,2.72,4.51,5.43,9.02,8.15,13.52,2.84,4.5,5.68,9.01,8.52,13.51,.1,.16,.02,.42-.15,.53-1.96,1.21-3.91,2.44-5.85,3.69-.21,.14-.5,.16-.69,.06-9-3.96-18.24-7.62-27.71-10.99,.47,.6,.93,1.2,1.4,1.8,1.54,2.09,3.08,4.19,4.62,6.29Z"/><path class="cls-2" d="M1080.14,666.25c-.22,.12-.47,.08-.66-.08-2.22-2.06-4.45-4.1-6.71-6.13-4.2,2.22-8.38,4.52-12.52,6.89,.52,2.99,1.06,5.96,1.62,8.93,.07,.23-.03,.45-.25,.58-1.57,.92-3.14,1.85-4.7,2.8-.17,.11-.4,.02-.41-.19-1.99-11.17-3.68-22.46-5.05-33.84-.02-.26,.1-.48,.34-.62,2.34-1.31,4.68-2.6,7.03-3.87,.24-.13,.5-.11,.7,.04,8.79,7.3,17.32,14.81,25.59,22.53,.17,.12,.12,.36-.06,.45-1.65,.82-3.29,1.65-4.93,2.5Zm-11.14-9.57c-3.95-3.51-7.96-6.97-12.03-10.38,.75,5.24,1.55,10.47,2.42,15.67,3.18-1.81,6.38-3.57,9.6-5.29Z"/><path class="cls-2" d="M1102.97,656.09c-8.98,3.94-18.1,.93-22.61-8.14-4.59-9.22-.82-18.49,8.85-22.74,8.2-3.59,15.1-2.08,19.29,3.6,.12,.15,.04,.38-.16,.46-1.79,.71-3.58,1.42-5.36,2.16-.24,.1-.49,.05-.63-.14-2.67-3.32-6.59-3.97-11.26-1.93-6.35,2.79-8.04,8.81-4.72,15.81,3.23,6.8,8.8,9.38,14.82,6.74,5.39-2.36,7.36-6.69,5.37-12.01-3.06,1.25-6.11,2.55-9.15,3.88-.19,.08-.45,0-.53-.17-.5-1.13-1-2.27-1.5-3.4-.08-.17,.04-.42,.23-.51,5.01-2.2,10.06-4.29,15.13-6.28,.19-.08,.45,.02,.52,.19,4.34,10.84,1.19,18.35-8.3,22.49Z"/><path class="cls-2" d="M1144.65,639.89c-.24,.07-.47,0-.63-.19-1.81-2.42-3.63-4.83-5.48-7.24-4.45,1.42-8.88,2.91-13.3,4.49,0,3.02,.03,6.04,.07,9.06,.03,.24-.11,.43-.34,.52-1.68,.62-3.35,1.24-5.02,1.88-.19,.07-.39-.05-.37-.26-.06-11.32,.2-22.69,.77-34.11,.02-.25,.18-.46,.43-.54,2.48-.86,4.97-1.7,7.47-2.52,.25-.08,.5-.02,.68,.17,7.3,8.76,14.31,17.68,21.04,26.74,.15,.15,.06,.37-.13,.43-1.74,.51-3.47,1.03-5.21,1.57Zm-9.2-11.41c-3.25-4.16-6.55-8.28-9.92-12.37-.16,5.28-.25,10.56-.28,15.82,3.39-1.19,6.79-2.34,10.2-3.45Z"/><path class="cls-2" d="M1154.85,621.49c1.27,4.66,2.54,9.32,3.81,13.98,.05,.18-.09,.41-.29,.46-1.59,.43-3.17,.87-4.76,1.31-.19,.05-.43-.07-.48-.25-1.41-5.14-2.81-10.27-4.22-15.41-1.49-5.05-2.97-10.1-4.46-15.15-.05-.18,.11-.42,.31-.47,2.25-.63,4.5-1.25,6.75-1.85,.26-.07,.55,0,.7,.15,7.7,6.58,15.09,13.37,22.17,20.34-.13-.53-.27-1.05-.4-1.58-.63-2.52-1.26-5.05-1.88-7.57-1.12-5.05-2.24-10.1-3.36-15.14-.04-.18,.13-.41,.34-.45,1.72-.38,3.43-.75,5.15-1.1,.21-.04,.46,.1,.49,.28,1.01,5.17,2.03,10.33,3.04,15.49,1.13,5.2,2.26,10.41,3.38,15.61,.04,.18-.12,.4-.31,.44-2.18,.45-4.36,.92-6.54,1.41-.24,.05-.51-.03-.65-.19-6.93-6.84-14.15-13.51-21.67-19.98,.23,.72,.46,1.45,.69,2.17,.73,2.5,1.45,5,2.18,7.49Z"/><path class="cls-2" d="M1202.17,627.42c-10.01,1.52-17.87-3.82-19.85-13.67-2.05-10.13,3.74-18.08,14.8-19.76,10.96-1.64,18.9,4.13,19.96,14.55,1.01,9.99-4.94,17.37-14.91,18.87Zm-.69-4.55c6.74-1.01,10.11-6.02,9.2-13.59-.91-7.55-5.67-11.83-12.89-10.75-7.26,1.11-10.48,6.44-9.09,14.06,1.36,7.45,6.08,11.29,12.77,10.27Z"/><path class="cls-2" d="M1249.5,616.94c-2.29-3.03-4.63-6.04-7.02-9.03-1.09,1.35-2.17,2.71-3.24,4.07,.21,3.52,.41,7.05,.62,10.57,.01,.19-.18,.38-.37,.39-1.76,.1-3.52,.2-5.28,.32-.2,.01-.4-.16-.42-.34-.31-5.35-.61-10.69-.91-16.04-.43-5.22-.86-10.43-1.29-15.64-.01-.18,.19-.38,.4-.4,1.9-.13,3.81-.25,5.72-.35,.21-.01,.43,.16,.44,.35,.22,4.81,.45,9.62,.68,14.43,3.69-5.05,7.52-10.05,11.49-15,.16-.14,.42-.29,.68-.3,2.28-.05,4.56-.09,6.84-.11,.16,0,.26,.18,.16,.28-3.99,4.32-7.86,8.69-11.61,13.11,5,6.17,9.79,12.44,14.35,18.78,.05,.14,0,.32-.2,.33-2.2,0-4.41,.03-6.61,.07-.24,0-.49-.13-.59-.31-1.26-1.72-2.54-3.44-3.83-5.16Z"/><path class="cls-2" d="M1288.04,623.25c-.24-.02-.43-.17-.51-.41-.8-2.91-1.63-5.81-2.48-8.72-4.62-.27-9.24-.47-13.86-.58-1.07,2.82-2.12,5.65-3.15,8.48-.05,.23-.25,.37-.49,.36-1.76-.03-3.53-.05-5.29-.05-.19,0-.34-.19-.24-.37,3.96-10.58,8.24-21.1,12.83-31.55,.11-.23,.33-.36,.59-.35,2.6,.09,5.19,.2,7.78,.33,.26,.01,.47,.16,.56,.4,3.62,10.79,6.92,21.63,9.91,32.5,.08,.19-.08,.37-.27,.35-1.79-.15-3.58-.28-5.38-.4Zm-4.43-13.95c-1.52-5.04-3.1-10.08-4.74-15.11-2.03,4.87-3.99,9.76-5.89,14.66,3.54,.1,7.09,.25,10.63,.45Z"/><path class="cls-2" d="M1314.07,619.33c-1.17-2.2-2.36-4.4-3.57-6.59-2.11-.26-4.22-.5-6.33-.72-.4,4.05-.79,8.1-1.19,12.16-.02,.18-.24,.35-.43,.33-1.76-.18-3.51-.36-5.27-.52-.2-.02-.37-.22-.36-.41,.53-5.33,1.07-10.66,1.61-15.99,.42-5.22,.85-10.43,1.27-15.65,.02-.18,.24-.35,.46-.33,4.67,.43,9.33,.93,13.98,1.51,8.82,1.11,13.49,5.3,12.43,11.8-.79,4.91-4.32,7.57-9.56,8.11,2.39,4.64,4.69,9.31,6.89,13.99,.07,.15-.05,.32-.24,.29-2.05-.33-4.11-.64-6.16-.94-.24-.04-.47-.21-.54-.41-.97-2.22-1.97-4.43-2.98-6.64Zm-.02-21.82c-2.73-.34-5.46-.66-8.19-.95-.43,3.69-.85,7.38-1.28,11.07,2.75,.29,5.49,.61,8.23,.95,3.95,.5,7.16-.63,7.73-4.49,.54-3.72-1.84-6-6.49-6.59Z"/><path class="cls-2" d="M1340.45,631.03c-8.63-1.75-12.32-6.97-10.97-15.09,.53-3.1,1.05-6.2,1.58-9.29,.56-3.47,1.11-6.94,1.66-10.41,.03-.18,.27-.33,.48-.29,1.94,.33,3.88,.68,5.81,1.03,.21,.04,.38,.26,.35,.44-.67,3.4-1.34,6.81-2.01,10.21-.58,3.12-1.16,6.24-1.74,9.36-.92,4.98,.68,8.37,5.78,9.41,5.34,1.1,8.25-1.35,9.37-6.3,.69-3.05,1.38-6.1,2.06-9.15,.74-3.44,1.48-6.87,2.22-10.31,.04-.18,.29-.32,.5-.27,1.73,.39,3.46,.79,5.19,1.21,.21,.05,.37,.28,.33,.46-.86,3.41-1.71,6.82-2.57,10.23-.73,3.06-1.47,6.11-2.2,9.17-1.95,8-7.28,11.38-15.85,9.6Z"/><path class="cls-2" d="M1359.83,634.84c-.19-.05-.34-.28-.29-.46,1.39-5.16,2.79-10.31,4.18-15.47,1.24-5.1,2.48-10.2,3.72-15.3,.05-.18,.3-.31,.51-.25,1.86,.48,3.72,.97,5.57,1.48,.21,.06,.36,.29,.31,.47-1.45,5.04-2.9,10.09-4.35,15.13-1.34,5.17-2.68,10.34-4.03,15.51-.05,.18-.29,.31-.48,.25-1.71-.47-3.43-.92-5.15-1.36Z"/><path class="cls-2" d="M1395.9,645.61c-.06,.17-.31,.28-.5,.22-8.06-2.91-16.19-5.55-24.39-7.92-.19-.05-.33-.29-.28-.47,.38-1.32,.76-2.65,1.15-3.97,.06-.22,.24-.46,.42-.56,8.21-5.57,16.73-10.9,25.56-15.95-5.88-2.01-11.79-3.88-17.73-5.62-.21-.06-.35-.3-.3-.48,.35-1.19,.69-2.38,1.04-3.57,.05-.18,.31-.3,.52-.24,8.36,2.45,16.67,5.16,24.91,8.13,.2,.07,.34,.32,.28,.5-.48,1.34-.97,2.68-1.45,4.02-.08,.22-.28,.44-.47,.52-8.81,4.88-17.33,10.03-25.55,15.44,5.97,1.84,11.91,3.83,17.81,5.97,.19,.07,.31,.31,.25,.49-.42,1.16-.84,2.33-1.27,3.49Z"/><path class="cls-2" d="M1423.46,657.2c-.23-.1-.35-.31-.35-.56,.24-3.02,.46-6.04,.65-9.06-4.32-1.9-8.66-3.72-13.02-5.46-2,2.27-3.98,4.55-5.95,6.84-.13,.2-.37,.26-.6,.17-1.67-.65-3.34-1.29-5.02-1.91-.19-.07-.26-.3-.1-.44,7.44-8.53,15.16-16.89,23.16-25.06,.19-.17,.44-.22,.69-.12,2.44,1,4.88,2.02,7.31,3.07,.25,.11,.39,.32,.4,.58-.29,11.41-.89,22.76-1.79,34.03,.01,.21-.2,.32-.38,.23-1.66-.78-3.33-1.54-5-2.3Zm.6-14.67c.3-5.27,.54-10.56,.71-15.86-3.62,3.85-7.19,7.74-10.7,11.67,3.34,1.35,6.67,2.74,9.99,4.19Z"/><path class="cls-2" d="M1453.3,672.21c-.22-.12-.33-.34-.26-.57,2.09-8.14,4.06-16.32,5.9-24.55-5.69,6.18-11.27,12.42-16.75,18.74-.15,.18-.44,.19-.62,.1-2-1.03-4-2.03-6.01-3.02-.23-.11-.34-.33-.29-.56,2.14-10.75,4.06-21.56,5.78-32.44,.03-.19,.25-.29,.45-.2,1.78,.83,3.56,1.67,5.34,2.53,.24,.12,.38,.34,.33,.57-1.71,8.8-3.55,17.56-5.52,26.28,5.74-6.82,11.59-13.56,17.55-20.22,.16-.18,.46-.18,.65-.08,2.03,1.06,4.04,2.15,6.06,3.24,.19,.11,.37,.36,.3,.59-2.22,8.79-4.57,17.53-7.05,26.22,6.21-6.57,12.53-13.05,18.97-19.44,.16-.17,.47-.15,.66-.04,1.59,.94,3.17,1.89,4.75,2.86,.19,.11,.23,.36,.09,.49-8.19,7.41-16.19,14.97-24,22.67-.16,.18-.4,.19-.62,.07-1.9-1.1-3.8-2.18-5.71-3.25Z"/><path class="cls-2" d="M1488.48,694.32c-.21-.15-.3-.38-.25-.63,.78-2.93,1.54-5.87,2.28-8.82-3.98-2.75-8-5.41-12.05-8-2.41,1.84-4.8,3.7-7.18,5.57-.17,.17-.41,.18-.63,.05-1.55-.97-3.11-1.93-4.67-2.88-.17-.1-.21-.34-.02-.45,8.97-6.94,18.2-13.65,27.68-20.12,.22-.13,.48-.13,.71,.02,2.27,1.48,4.52,2.98,6.77,4.5,.23,.16,.34,.4,.3,.65-2.34,11.21-4.98,22.3-7.92,33.26-.03,.21-.26,.27-.43,.15-1.53-1.11-3.06-2.2-4.6-3.29Zm3.24-14.37c1.25-5.15,2.44-10.32,3.57-15.52-4.32,3.08-8.59,6.2-12.81,9.38,3.1,2,6.18,4.04,9.24,6.14Z"/></g><g><path class="cls-2" d="M1212.53,1413c-.22,0-.4-.18-.4-.4v-3.97c0-12.44,15.43-11.28,15.43-17.84,.13-2.99-1.47-4.77-4.37-4.73-2.81,.04-4.55,2.1-4.68,5.89,0,.22-.18,.4-.4,.4h-5.4c-.22,0-.4-.18-.4-.4,0-6.78,3.66-10.7,10.88-10.75,6.96,0,10.48,3.52,10.66,9.36,0,11.55-15.39,10.88-15.39,16.86v.54h14.98c.22,0,.4,.18,.4,.4v4.24c0,.22-.18,.4-.4,.4h-20.92Z"/><path class="cls-2" d="M1248.78,1413.67c-7.49,0-12.4-5.75-12.4-16.19s4.86-16.37,12.4-16.37,12.44,5.4,12.44,16.37-4.91,16.19-12.44,16.19Zm.04-5.22c3.48,0,5.4-3.21,5.4-10.97s-1.92-11.15-5.44-11.15-5.4,3.26-5.4,11.15,1.96,10.97,5.44,10.97Z"/><path class="cls-2" d="M1264.08,1413c-.22,0-.4-.18-.4-.4v-3.97c0-12.44,15.43-11.28,15.43-17.84,.13-2.99-1.47-4.77-4.37-4.73-2.81,.04-4.55,2.1-4.68,5.89,0,.22-.18,.4-.4,.4h-5.4c-.22,0-.4-.18-.4-.4,0-6.78,3.66-10.7,10.88-10.75,6.96,0,10.48,3.52,10.66,9.36,0,11.55-15.39,10.88-15.39,16.86v.54h14.98c.22,0,.4,.18,.4,.4v4.24c0,.22-.18,.4-.4,.4h-20.92Z"/><path class="cls-2" d="M1288.47,1413c-.22,0-.4-.18-.4-.4v-3.97c0-12.44,15.43-11.28,15.43-17.84,.13-2.99-1.47-4.77-4.37-4.73-2.81,.04-4.55,2.1-4.68,5.89,0,.22-.18,.4-.4,.4h-5.4c-.22,0-.4-.18-.4-.4,0-6.78,3.66-10.7,10.88-10.75,6.96,0,10.48,3.52,10.66,9.36,0,11.55-15.39,10.88-15.39,16.86v.54h14.98c.22,0,.4,.18,.4,.4v4.24c0,.22-.18,.4-.4,.4h-20.92Z"/></g><g class="cls-1"><g><path class="cls-2" d="M1035.32,1356.68c-.07,.43-.36,.57-.71,.57h-12.16c-.43,0-.64-.28-.57-.71l5.98-24.68,5.26-23.83c.07-.43,.36-.57,.71-.57h17.57c.36,0,.57,.21,.64,.57l3.63,29.16,16.22-29.31c.14-.28,.36-.43,.71-.43h19.99c.43,0,.64,.28,.57,.71l-5.83,23.69-5.41,24.82c-.07,.43-.36,.57-.71,.57h-14.51c-.43,0-.64-.21-.57-.71l4.84-21.27,.07-.36,2.21-7.4-16.15,29.31c-.14,.28-.36,.43-.71,.43h-10.67c-.36,0-.57-.21-.64-.57l-3.49-28.81-1.21,7.04-.07,.36-4.98,21.41Z"/><path class="cls-2" d="M1091.73,1336.69l2.13-8.89,4.27-19.77c.07-.43,.36-.57,.71-.57h14.37c.43,0,.64,.28,.57,.71l-4.84,19.21-2.13,9.46c-1.49,6.4,.07,9.74,5.48,9.74,4.27,0,6.69-1.99,7.97-7.61l2.7-11.24,4.27-19.7c.07-.43,.36-.57,.71-.57h14.16c.43,0,.64,.28,.57,.71l-4.84,19.63-2.56,11.31c-2.99,12.8-9.89,19.42-23.9,19.42-14.87,0-22.9-8.11-19.63-21.84Z"/><path class="cls-2" d="M1138.74,1341.74c0-.43,.28-.64,.64-.64h14.51c.36,0,.64,.21,.64,.64,.21,3.27,3.27,5.76,9.18,5.76,3.7,0,6.83-1.14,6.83-4.13,0-7.97-26.53-2.35-26.53-20.27,0-11.1,11.45-16.93,23.62-16.93s21.77,5.76,21.84,15.29c0,.43-.28,.64-.64,.64h-14.58c-.36,0-.64-.21-.64-.64-.36-2.49-2.99-4.05-7.11-4.05-3.27,0-6.54,.78-6.54,3.34,0,6.9,26.82,2.56,26.82,20.2,0,11.45-11.03,17.57-24.11,17.57s-23.9-6.26-23.9-16.79Z"/><path class="cls-2" d="M1203.68,1356.68c-.07,.43-.36,.57-.71,.57h-14.51c-.43,0-.64-.28-.57-.71l5.83-23.69,5.41-24.83c.07-.43,.36-.57,.71-.57h14.51c.43,0,.64,.28,.57,.71l-6.12,24.68-5.12,23.83Z"/><path class="cls-2" d="M1214.14,1335.69c0-15.15,11.1-29.52,29.45-29.52,12.95,0,20.98,7.04,21.91,18.78,.07,.43-.14,.64-.57,.64h-13.3c-.36,0-.64-.21-.71-.64-.64-5.12-3.77-7.33-8.18-7.33-10.03,0-13.02,11.81-13.02,18.57,0,7.68,3.84,10.88,9.1,10.88s7.97-3.2,9.46-7.26c.14-.36,.43-.5,.78-.5h13.59c.43,0,.64,.21,.57,.57-2.77,10.46-11.67,18.64-25.32,18.64s-23.76-8.18-23.76-22.83Z"/><path class="cls-2" d="M1299.85,1356.75c-.14,.28-.36,.5-.71,.5h-16c-.36,0-.64-.28-.64-.64l.78-48.51c0-.36,.28-.64,.64-.64h13.02c.43,0,.57,.21,.57,.64l-1.49,28.17,12.59-28.31c.14-.28,.36-.5,.71-.5h14.08c.36,0,.64,.28,.64,.64l-.07,28.24,11.24-28.38c.14-.28,.43-.5,.78-.5h14.44c.43,0,.71,.28,.5,.78l-21.77,48.51c-.14,.28-.36,.5-.71,.5h-16c-.36,0-.64-.28-.64-.64v-25.75l-11.95,25.89Z"/><path class="cls-2" d="M1383.5,1308.09l4.48,48.51c.07,.43-.14,.64-.57,.64h-13.8c-.36,0-.71-.28-.71-.64l-.57-9.6h-16.08l-4.98,9.75c-.14,.36-.36,.5-.71,.5h-15.79c-.5,0-.64-.36-.43-.78l27.6-48.58c.14-.28,.43-.43,.78-.43h20.06c.36,0,.71,.28,.71,.64Zm-13.02,10.67l-8.25,16.29h9.32l-1.07-16.29Z"/><path class="cls-2" d="M1390.4,1341.74c0-.43,.28-.64,.64-.64h14.51c.36,0,.64,.21,.64,.64,.21,3.27,3.27,5.76,9.18,5.76,3.7,0,6.83-1.14,6.83-4.13,0-7.97-26.53-2.35-26.53-20.27,0-11.1,11.45-16.93,23.62-16.93s21.77,5.76,21.84,15.29c0,.43-.28,.64-.64,.64h-14.58c-.36,0-.64-.21-.64-.64-.36-2.49-2.99-4.05-7.11-4.05-3.27,0-6.54,.78-6.54,3.34,0,6.9,26.82,2.56,26.82,20.2,0,11.45-11.03,17.57-24.11,17.57s-23.9-6.26-23.9-16.79Z"/><path class="cls-2" d="M1479.81,1325.31l3.77-17.28c.07-.43,.36-.57,.71-.57h14.79c.43,0,.64,.28,.57,.71l-5.98,23.9-5.26,24.61c-.07,.43-.36,.57-.71,.57h-14.8c-.43,0-.64-.28-.57-.71l4.91-20.2h-16l-4.48,20.34c-.07,.43-.36,.57-.71,.57h-14.8c-.43,0-.64-.28-.57-.71l6.12-24.47,5.12-24.04c.07-.43,.36-.57,.71-.57h14.8c.43,0,.64,.28,.57,.71l-4.2,17.14h16Z"/></g></g><path class="cls-2" d="M1265.51,1496.16c-129.58,0-251.41-50.46-343.03-142.09-91.63-91.63-142.09-213.45-142.09-343.03,0-46.01,6.43-91.54,19.13-135.32,.57-1.97,2.63-3.11,4.6-2.53,1.97,.57,3.11,2.63,2.53,4.6-12.5,43.11-18.83,87.94-18.83,133.25,0,127.6,49.69,247.55,139.91,337.78,90.22,90.22,210.18,139.91,337.78,139.91,138.26,0,269.65-59.87,360.49-164.25,1.35-1.55,3.7-1.71,5.24-.36,1.55,1.35,1.71,3.69,.36,5.24-92.25,106.01-225.69,166.81-366.1,166.81Z"/><path class="cls-2" d="M1725.46,1157.33c-.36,0-.73-.05-1.1-.17-1.96-.61-3.06-2.69-2.45-4.65,14.13-45.64,21.3-93.24,21.3-141.48,0-127.6-49.69-247.56-139.91-337.78-90.22-90.22-210.18-139.91-337.78-139.91-68.5,0-134.63,14.19-196.54,42.18-59.82,27.04-112.64,65.48-156.99,114.26-1.38,1.52-3.73,1.63-5.25,.25-1.52-1.38-1.63-3.73-.25-5.25,45.04-49.53,98.68-88.57,159.43-116.03,62.88-28.42,130.04-42.84,199.6-42.84,129.58,0,251.41,50.46,343.03,142.09,91.63,91.63,142.09,213.45,142.09,343.03,0,48.99-7.28,97.33-21.63,143.68-.49,1.59-1.96,2.62-3.55,2.62Z"/><path class="cls-2" d="M867.67,788.89c-24.97,0-45.28-20.31-45.28-45.28s20.31-45.28,45.28-45.28,45.28,20.31,45.28,45.28-20.31,45.28-45.28,45.28Zm0-83.12c-20.87,0-37.85,16.98-37.85,37.85s16.98,37.85,37.85,37.85,37.85-16.98,37.85-37.85-16.98-37.85-37.85-37.85Z"/><path class="cls-2" d="M1661.53,1325.06c-24.97,0-45.28-20.31-45.28-45.28s20.31-45.28,45.28-45.28,45.28,20.31,45.28,45.28-20.31,45.28-45.28,45.28Zm0-83.12c-20.87,0-37.85,16.98-37.85,37.85s16.98,37.85,37.85,37.85,37.85-16.98,37.85-37.85-16.98-37.85-37.85-37.85Z"/><path class="cls-2" d="M826.11,863.11c-20.14,0-36.53-16.39-36.53-36.53s16.39-36.53,36.53-36.53,36.53,16.39,36.53,36.53-16.39,36.53-36.53,36.53Zm0-65.62c-16.04,0-29.1,13.05-29.1,29.1s13.05,29.1,29.1,29.1,29.1-13.05,29.1-29.1-13.05-29.1-29.1-29.1Z"/><path class="cls-2" d="M1703.09,1237.01c-20.14,0-36.53-16.39-36.53-36.53s16.39-36.53,36.53-36.53,36.53,16.39,36.53,36.53-16.39,36.53-36.53,36.53Zm0-65.62c-16.04,0-29.1,13.05-29.1,29.1s13.05,29.1,29.1,29.1,29.1-13.05,29.1-29.1-13.05-29.1-29.1-29.1Z"/><path class="cls-2" d="M1191.34,1400.81h-27.24c-2.05,0-3.72-1.66-3.72-3.72s1.66-3.72,3.72-3.72h27.24c2.05,0,3.72,1.66,3.72,3.72s-1.66,3.72-3.72,3.72Z"/><path class="cls-2" d="M1357.81,1401.11h-27.24c-2.05,0-3.72-1.66-3.72-3.72s1.66-3.72,3.72-3.72h27.24c2.05,0,3.72,1.66,3.72,3.72s-1.66,3.72-3.72,3.72Z"/></g></svg>