<?xml version="1.0" encoding="utf-8"?>
<!-- Generator: Adobe Illustrator 26.5.0, SVG Export Plug-In . SVG Version: 6.00 Build 0)  -->
<svg version="1.1" id="_レイヤー_2" xmlns="http://www.w3.org/2000/svg" xmlns:xlink="http://www.w3.org/1999/xlink" x="0px"
	 y="0px" viewBox="0 0 226.5 203.3" style="enable-background:new 0 0 226.5 203.3;" xml:space="preserve">
<style type="text/css">
	.st0{fill:#1F1F1F;}
</style>
<g id="_レイヤー_1-2">
	<g>
		<path class="st0" d="M3.2,204.3c-1.5,0-2.9-0.8-3.7-2.1c-0.8-1.3-0.8-2.9,0-4.2l43-75.7c0.8-1.3,2.2-2.1,3.7-2.1h17.3l0.3,0.6
			c1.1,2.1,2.2,4.2,3.4,6.5l0.8,1.5H48.8l-38.2,67.2h205.4l-38.2-67.2h-19.3l0.8-1.5c1.2-2.2,2.3-4.4,3.4-6.5l0.3-0.6h17.3
			c1.5,0,2.9,0.8,3.7,2.1l43,75.7c0.7,1.3,0.7,2.9,0,4.2c-0.8,1.3-2.2,2.1-3.7,2.1H3.2z"/>
		<path class="st0" d="M226.1,198.4l-43-75.7c-0.6-1-1.7-1.6-2.8-1.6h-16.7c-1.1,2.2-2.2,4.4-3.4,6.5h18.2l39.3,69.2H8.8l39.3-69.2
			h18.2c-1.1-2.1-2.3-4.3-3.4-6.5H46.3c-1.2,0-2.2,0.6-2.8,1.6l-43,75.7c-0.6,1-0.6,2.2,0,3.2c0.6,1,1.6,1.6,2.8,1.6h220
			c1.2,0,2.2-0.6,2.8-1.6C226.6,200.6,226.6,199.4,226.1,198.4z"/>
		<path class="st0" d="M113.2,80.9C100,80.9,89.3,70.2,89.3,57C89.3,43.8,100,33,113.2,33s23.9,10.7,23.9,23.9
			C137.2,70.2,126.4,80.9,113.2,80.9z"/>
		<circle class="st0" cx="113.2" cy="57" r="22.9"/>
		<path class="st0" d="M113.2,171.3c-1.1,0-2.3-0.5-3-1.3c-2.2-2.3-53.7-55.8-53.7-114.3C56.5,23.9,81.4-1,113.2-1
			S170,23.9,170,55.7c0,58.5-51.5,112.1-53.7,114.3c-0.6,0.6-1.3,1-2,1.2v0.1L113.2,171.3z M113.2,7.5C86.2,7.5,65,28.7,65,55.7
			c0,11.9,3.5,54.7,48.2,105.1c44.7-50.3,48.2-93.1,48.2-105.1C161.5,28.7,140.3,7.5,113.2,7.5z"/>
		<path class="st0" d="M113.2,170.3c-0.9,0-1.7-0.3-2.3-1c-2.2-2.2-53.4-55.6-53.4-113.6C57.5,24.5,82,0,113.2,0S169,24.5,169,55.7
			c0,58-51.2,111.4-53.4,113.6C115,170,114.1,170.3,113.2,170.3L113.2,170.3z M113.2,6.5C85.6,6.5,64,28.1,64,55.7
			c0,48.5,39.2,95.3,49.2,106.6c10.1-11.2,49.2-58,49.2-106.6C162.5,28.1,140.8,6.5,113.2,6.5z"/>
	</g>
</g>
</svg>
