<?xml version="1.0" encoding="utf-8"?>
<!-- Generator: Adobe Illustrator 26.5.0, SVG Export Plug-In . SVG Version: 6.00 Build 0)  -->
<svg version="1.1" id="_レイヤー_2" xmlns="http://www.w3.org/2000/svg" xmlns:xlink="http://www.w3.org/1999/xlink" x="0px"
	 y="0px" viewBox="0 0 226 199.4" style="enable-background:new 0 0 226 199.4;" xml:space="preserve">
<style type="text/css">
	.st0{fill:#1F1F1F;}
</style>
<g>
	<path class="st0" d="M49.9,198.4c-1.1,0-2-0.9-2-2V81.5l-39.5,7c-0.1,0-0.2,0-0.3,0c-0.4,0-0.9-0.1-1.2-0.4
		c-0.4-0.3-0.7-0.8-0.8-1.4L1,32.3c-0.1-0.8,0.4-1.7,1.2-2l64-29.1C66.4,1.1,66.7,1,67,1h5.3c1.2,0,2,1.3,2.2,1.8L74.6,3
		c6.2,12.3,14.8,29.2,38.4,29.2c23.7,0,32.2-16.9,38.4-29.3c0.3-0.5,1.3-1.9,2.4-1.9h5.3c0.3,0,0.6,0.1,0.8,0.2l64,29.1
		c0.8,0.4,1.2,1.2,1.1,2l-5,54.4c-0.1,0.6-0.3,1.1-0.8,1.4c-0.3,0.3-0.8,0.4-1.2,0.4c-0.1,0-0.2,0-0.3,0l-39.5-7v115
		c0,1.1-0.9,2-2,2H49.9z M49.9,77.1c0.5,0,0.9,0.2,1.3,0.5c0.5,0.4,0.7,0.9,0.7,1.5v115.3h122.2V79.1c0-0.6,0.3-1.2,0.7-1.5
		c0.4-0.3,0.8-0.5,1.3-0.5c0.1,0,0.2,0,0.3,0l39.7,7l4.7-50.8L158.6,5h-3.8l-0.3,0.5C148.8,17,139.1,36.2,113,36.2
		C86.9,36.2,77.2,17,71.4,5.5L71.2,5h-3.8L5.1,33.3l4.7,50.8l39.7-7C49.7,77.1,49.8,77.1,49.9,77.1z"/>
	<path d="M159,2c0.1,0,0.3,0,0.4,0.1l64,29.1l0,0c0.4,0.2,0.6,0.6,0.6,1l-5,54.4c0,0.3-0.2,0.5-0.4,0.7c-0.2,0.1-0.4,0.2-0.6,0.2
		c-0.1,0-0.1,0-0.2,0l-38.3-6.8l-2.3-0.4v2.4v113.8c0,0.6-0.4,1-1,1H49.9c-0.6,0-1-0.4-1-1V82.7v-2.4l-2.3,0.4L8.2,87.5
		c-0.1,0-0.1,0-0.2,0c-0.2,0-0.4-0.1-0.6-0.2c-0.2-0.2-0.4-0.4-0.4-0.7L2,32.2c0-0.4,0.2-0.8,0.6-1l64-29.1C66.7,2,66.8,2,67,2h5.3
		c0.7,0,1.2,1.1,1.3,1.3l0,0.1l0,0l0,0.1c6.3,12.5,15,29.7,39.3,29.7c24.3,0,33.3-18,39.3-29.8c0.3-0.5,1.1-1.4,1.5-1.4H159
		 M113,35.2c-11,0-19.9-3.4-27.2-10.3c-6.6-6.2-10.7-14.4-13.4-19.8L71.8,4h-1.2h-2.9h-0.4l-0.4,0.2L5.4,32.1l-1.3,0.6l0.1,1.4
		l4.5,49l0.2,2.2l2.1-0.4l38.7-6.9c0.1,0,0.1,0,0.2,0c0.2,0,0.5,0.1,0.6,0.2c0.2,0.2,0.4,0.5,0.4,0.8v114.3v2h2h120.2h2v-2V79.1
		c0-0.3,0.1-0.6,0.3-0.8c0.2-0.2,0.4-0.2,0.7-0.2c0.1,0,0.1,0,0.2,0l38.6,6.8l2.1,0.4l0.2-2.2l4.5-49l0.1-1.4l-1.3-0.6L159.2,4.2
		L158.8,4h-0.4h-2.9h-1.2l-0.6,1.1c-3.5,6.9-7.4,14.1-13.4,19.8C132.9,31.8,124,35.2,113,35.2 M159,0h-5.3c-1.8,0-3.1,2.1-3.2,2.4
		C144.4,14.5,136,31.2,113,31.2c-23,0-31.4-16.6-37.5-28.7C75.4,2.2,74.4,0,72.3,0H67c-0.4,0-0.8,0.1-1.2,0.3l-64,29.1
		c-1.2,0.5-1.9,1.7-1.7,3l5,54.4c0.1,0.8,0.5,1.6,1.2,2.1c0.5,0.4,1.2,0.6,1.8,0.6c0.2,0,0.3,0,0.5,0l38.3-6.8v113.8
		c0,1.7,1.3,3,3,3h126.2c1.7,0,3-1.3,3-3V82.7l38.3,6.8c0.2,0,0.3,0,0.5,0c0.7,0,1.3-0.2,1.8-0.6c0.7-0.5,1.1-1.3,1.2-2.1l5-54.4
		c0.1-1.3-0.6-2.5-1.7-3l0,0l-64-29.1C159.9,0.1,159.5,0,159,0L159,0z M113,37.2c26.1,0,36-18.4,42.5-31.2h2.9l61.4,27.9l-4.5,49
		l-38.6-6.8c-0.2,0-0.3,0-0.5,0c-0.7,0-1.4,0.2-1.9,0.7c-0.7,0.6-1.1,1.4-1.1,2.3v114.3H52.9V79.1c0-0.9-0.4-1.7-1.1-2.3
		c-0.5-0.5-1.2-0.7-1.9-0.7c-0.2,0-0.4,0-0.5,0L10.7,83l-4.5-49L67.6,6h2.9C77,18.7,86.9,37.2,113,37.2L113,37.2z"/>
</g>
<g>
	<path class="st0" d="M49.9,199.4c-1.7,0-3-1.3-3-3V82.7L8.5,89.5c-0.2,0-0.3,0-0.5,0c-0.7,0-1.3-0.2-1.8-0.6
		c-0.7-0.5-1.1-1.3-1.2-2.1L0,32.4c-0.1-1.3,0.6-2.5,1.7-3l64-29.1C66.1,0.1,66.5,0,67,0h5.3c1.8,0,2.8,1.7,3.1,2.4
		C81.6,14.6,90,31.2,113,31.2c23,0,31.4-16.6,37.5-28.7c0,0,1.3-2.4,3.2-2.4h5.3c0.4,0,0.9,0.1,1.2,0.3l63.9,29.1
		c1.2,0.5,1.9,1.7,1.8,3l-5,54.4c-0.1,0.8-0.5,1.6-1.2,2.1c-0.5,0.4-1.2,0.6-1.8,0.6c-0.2,0-0.4,0-0.5,0l-38.3-6.8v113.8
		c0,1.7-1.3,3-3,3H49.9z M49.9,76.1c0.7,0,1.4,0.2,1.9,0.7c0.7,0.6,1.1,1.4,1.1,2.3v114.3h120.2V79.1c0-0.9,0.4-1.7,1.1-2.3
		c0.5-0.4,1.2-0.7,1.9-0.7c0.2,0,0.3,0,0.5,0l38.6,6.8l4.5-49L158.4,6h-2.9l-0.3,0.5C149.4,18,139.7,37.2,113,37.2
		C86.3,37.2,76.6,18,70.8,6.5L70.5,6h-2.9L6.2,33.9l4.5,49l38.6-6.8C49.5,76.1,49.7,76.1,49.9,76.1z"/>
	<path d="M159,1c0.3,0,0.6,0.1,0.8,0.2l63.9,29.1c0.8,0.4,1.2,1.2,1.2,2l-5,54.4c-0.1,0.6-0.3,1.1-0.8,1.4c-0.3,0.3-0.8,0.4-1.2,0.4
		c-0.1,0-0.2,0-0.4,0l-37.1-6.6l-2.3-0.4v2.4v112.6c0,1.1-0.9,2-2,2H49.9c-1.1,0-2-0.9-2-2V83.9v-2.4l-2.3,0.4L8.4,88.5
		c-0.1,0-0.2,0-0.3,0c-0.4,0-0.9-0.1-1.2-0.4c-0.4-0.3-0.7-0.9-0.8-1.4L1,32.3c-0.1-0.9,0.4-1.7,1.2-2l64-29.1C66.4,1.1,66.7,1,67,1
		h5.3c1.2,0,1.9,1.2,2.2,1.8l0,0l0,0c6.2,12.3,14.8,29.3,38.4,29.3c23.6,0,32.5-17.6,38.4-29.3c0.4-0.6,1.4-1.9,2.4-1.9H159
		 M113,36.2c-26,0-35.6-18.8-41.3-30.1L71.1,5h-1.2h-2.1h-0.4L67,5.2L6.4,32.7l-1.3,0.6l0.1,1.4L9.6,82l0.2,2.2l2.1-0.4l37.6-6.7
		c0.1,0,0.2,0,0.3,0c0.5,0,0.9,0.2,1.3,0.5c0.5,0.4,0.7,0.9,0.7,1.5v113.3v2h2h118.2h2v-2V79.1c0-0.6,0.3-1.2,0.7-1.5
		c0.4-0.3,0.8-0.5,1.3-0.5c0.1,0,0.2,0,0.3,0l37.6,6.7l2.1,0.4l0.2-2.2l4.4-47.3l0.1-1.4l-1.3-0.6L159,5.2L158.6,5h-0.4h-2.1h-1.2
		l-0.6,1.1C148.6,17.3,139.1,36.2,113,36.2 M159-1h-5.3c-2.5,0-4.1,2.9-4.1,3c-6,11.9-14.2,28.2-36.7,28.2
		C90.6,30.2,82.4,13.9,76.4,2c-0.4-0.9-1.7-3-4.1-3H67c-0.6,0-1.1,0.1-1.7,0.4l-64,29.1c-1.5,0.7-2.5,2.3-2.3,4l5,54.4
		C4.2,88,4.7,89,5.6,89.7c0.7,0.5,1.6,0.8,2.4,0.8c0.2,0,0.5,0,0.7-0.1l37.2-6.6v112.6c0,2.2,1.8,4,4,4h126.2c2.2,0,4-1.8,4-4V83.8
		l37.1,6.6c0.2,0,0.5,0.1,0.7,0.1c0.9,0,1.7-0.3,2.4-0.8c0.9-0.7,1.5-1.7,1.6-2.8l5-54.4c0.2-1.7-0.8-3.3-2.3-4v0L160.7-0.6
		C160.2-0.9,159.6-1,159-1L159-1z M113,38.2c26.9,0,37-19.3,43.1-31.2h2.1l60.6,27.6l-4.4,47.3l-37.6-6.7c-0.2,0-0.5-0.1-0.7-0.1
		c-0.9,0-1.9,0.3-2.6,0.9c-0.9,0.8-1.4,1.9-1.4,3.1v113.3H53.9V79.1c0-1.2-0.5-2.3-1.4-3.1c-0.7-0.6-1.6-0.9-2.6-0.9
		c-0.2,0-0.5,0-0.7,0.1l-37.6,6.7L7.3,34.6L67.8,7h2.1C76,18.9,86.1,38.2,113,38.2L113,38.2z"/>
</g>
<g>
	<path class="st0" d="M49.9,198.4c-1.1,0-2-0.9-2-2V81.5l-39.5,7c-0.1,0-0.2,0-0.3,0c-0.4,0-0.9-0.1-1.2-0.4
		c-0.4-0.3-0.7-0.8-0.8-1.4L1,32.3c-0.1-0.8,0.4-1.7,1.2-2l64-29.1C66.4,1.1,66.7,1,67,1h5.3c1.2,0,2,1.3,2.2,1.8L74.6,3
		c6.2,12.3,14.8,29.2,38.4,29.2c23.7,0,32.2-16.9,38.4-29.3c0.3-0.5,1.3-1.9,2.4-1.9h5.3c0.3,0,0.6,0.1,0.8,0.2l64,29.1
		c0.8,0.4,1.2,1.2,1.1,2l-5,54.4c-0.1,0.6-0.3,1.1-0.8,1.4c-0.3,0.3-0.8,0.4-1.2,0.4c-0.1,0-0.2,0-0.3,0l-39.5-7v115
		c0,1.1-0.9,2-2,2H49.9z M49.9,77.1c0.5,0,0.9,0.2,1.3,0.5c0.5,0.4,0.7,0.9,0.7,1.5v115.3h122.2V79.1c0-0.6,0.3-1.2,0.7-1.5
		c0.4-0.3,0.8-0.5,1.3-0.5c0.1,0,0.2,0,0.3,0l39.7,7l4.7-50.8L158.6,5h-3.8l-0.3,0.5C148.8,17,139.1,36.2,113,36.2
		C86.9,36.2,77.2,17,71.4,5.5L71.2,5h-3.8L5.1,33.3l4.7,50.8l39.7-7C49.7,77.1,49.8,77.1,49.9,77.1z"/>
	<path d="M159,2c0.1,0,0.3,0,0.4,0.1l64,29.1l0,0c0.4,0.2,0.6,0.6,0.6,1l-5,54.4c0,0.3-0.2,0.5-0.4,0.7c-0.2,0.1-0.4,0.2-0.6,0.2
		c-0.1,0-0.1,0-0.2,0l-38.3-6.8l-2.3-0.4v2.4v113.8c0,0.6-0.4,1-1,1H49.9c-0.6,0-1-0.4-1-1V82.7v-2.4l-2.3,0.4L8.2,87.5
		c-0.1,0-0.1,0-0.2,0c-0.2,0-0.4-0.1-0.6-0.2c-0.2-0.2-0.4-0.4-0.4-0.7L2,32.2c0-0.4,0.2-0.8,0.6-1l64-29.1C66.7,2,66.8,2,67,2h5.3
		c0.7,0,1.2,1.1,1.3,1.3l0,0.1l0,0l0,0.1c6.3,12.5,15,29.7,39.3,29.7c24.3,0,33.3-18,39.3-29.8c0.3-0.5,1.1-1.4,1.5-1.4H159
		 M113,35.2c-11,0-19.9-3.4-27.2-10.3c-6.6-6.2-10.7-14.4-13.4-19.8L71.8,4h-1.2h-2.9h-0.4l-0.4,0.2L5.4,32.1l-1.3,0.6l0.1,1.4
		l4.5,49l0.2,2.2l2.1-0.4l38.7-6.9c0.1,0,0.1,0,0.2,0c0.2,0,0.5,0.1,0.6,0.2c0.2,0.2,0.4,0.5,0.4,0.8v114.3v2h2h120.2h2v-2V79.1
		c0-0.3,0.1-0.6,0.3-0.8c0.2-0.2,0.4-0.2,0.7-0.2c0.1,0,0.1,0,0.2,0l38.6,6.8l2.1,0.4l0.2-2.2l4.5-49l0.1-1.4l-1.3-0.6L159.2,4.2
		L158.8,4h-0.4h-2.9h-1.2l-0.6,1.1c-3.5,6.9-7.4,14.1-13.4,19.8C132.9,31.8,124,35.2,113,35.2 M159,0h-5.3c-1.8,0-3.1,2.1-3.2,2.4
		C144.4,14.5,136,31.2,113,31.2c-23,0-31.4-16.6-37.5-28.7C75.4,2.2,74.4,0,72.3,0H67c-0.4,0-0.8,0.1-1.2,0.3l-64,29.1
		c-1.2,0.5-1.9,1.7-1.7,3l5,54.4c0.1,0.8,0.5,1.6,1.2,2.1c0.5,0.4,1.2,0.6,1.8,0.6c0.2,0,0.3,0,0.5,0l38.3-6.8v113.8
		c0,1.7,1.3,3,3,3h126.2c1.7,0,3-1.3,3-3V82.7l38.3,6.8c0.2,0,0.3,0,0.5,0c0.7,0,1.3-0.2,1.8-0.6c0.7-0.5,1.1-1.3,1.2-2.1l5-54.4
		c0.1-1.3-0.6-2.5-1.7-3l0,0l-64-29.1C159.9,0.1,159.5,0,159,0L159,0z M113,37.2c26.1,0,36-18.4,42.5-31.2h2.9l61.4,27.9l-4.5,49
		l-38.6-6.8c-0.2,0-0.3,0-0.5,0c-0.7,0-1.4,0.2-1.9,0.7c-0.7,0.6-1.1,1.4-1.1,2.3v114.3H52.9V79.1c0-0.9-0.4-1.7-1.1-2.3
		c-0.5-0.5-1.2-0.7-1.9-0.7c-0.2,0-0.4,0-0.5,0L10.7,83l-4.5-49L67.6,6h2.9C77,18.7,86.9,37.2,113,37.2L113,37.2z"/>
</g>
</svg>
